<?xml version="1.0" encoding="UTF-8"?>
<svg width="75px" height="95px" viewBox="0 0 75 95" version="1.1" xmlns="http://www.w3.org/2000/svg" xmlns:xlink="http://www.w3.org/1999/xlink">
    <!-- Generator: Sketch 43.2 (39069) - http://www.bohemiancoding.com/sketch -->
    <title>On White Background</title>
    <desc>Created with Sketch.</desc>
    <defs></defs>
    <g id="Page-1" stroke="none" stroke-width="1" fill="none" fill-rule="evenodd">
        <g id="Acme-Logo-#9" transform="translate(-212.000000, -76.000000)" fill="#313048">
            <g id="On-White-Background" transform="translate(212.000000, 76.000000)">
                <g id="Acme" transform="translate(0.000000, 80.000000)">
                    <path d="M8.3186,9.4897 L6.8926,6.3947 L6.8746,6.3947 L5.4676,9.4897 L8.3186,9.4897 Z M0.6086,13.5037 L6.4806,0.8787 C6.5366,0.7667 6.6676,0.6727 6.7996,0.6727 L6.9866,0.6727 C7.1176,0.6727 7.2496,0.7667 7.3056,0.8787 L13.1776,13.5037 C13.2896,13.7477 13.1396,13.9917 12.8586,13.9917 L10.7766,13.9917 C10.4386,13.9917 10.2886,13.8797 10.1196,13.5227 L9.4446,12.0407 L4.3416,12.0407 L3.6666,13.5417 C3.5726,13.7667 3.3666,13.9917 2.9906,13.9917 L0.9276,13.9917 C0.6466,13.9917 0.4956,13.7477 0.6086,13.5037 L0.6086,13.5037 Z" id="Fill-2"></path>
                    <path d="M27.9219,0.6728 C29.7979,0.6728 31.1859,1.2548 32.4619,2.4178 C32.6309,2.5678 32.6309,2.7928 32.4809,2.9428 L31.0169,4.4618 C30.8859,4.5938 30.6799,4.5938 30.5479,4.4618 C29.8539,3.8428 28.9349,3.5058 28.0159,3.5058 C25.8959,3.5058 24.3389,5.2688 24.3389,7.3698 C24.3389,9.4518 25.9149,11.1778 28.0349,11.1778 C28.9159,11.1778 29.8729,10.8588 30.5479,10.2778 C30.6799,10.1648 30.9229,10.1648 31.0359,10.2968 L32.4989,11.8538 C32.6309,11.9848 32.6119,12.2288 32.4809,12.3598 C31.2049,13.5978 29.5919,14.1798 27.9219,14.1798 C24.1699,14.1798 21.1499,11.1968 21.1499,7.4448 C21.1499,3.6928 24.1699,0.6728 27.9219,0.6728" id="Fill-4"></path>
                    <path d="M43.5295,0.973 C43.5485,0.804 43.7175,0.673 43.8675,0.673 L44.1675,0.673 C44.2615,0.673 44.4295,0.748 44.4865,0.86 L48.8385,8.964 L48.8765,8.964 L53.2285,0.86 C53.2845,0.748 53.4535,0.673 53.5465,0.673 L53.8475,0.673 C53.9975,0.673 54.1655,0.804 54.1845,0.973 L56.3045,13.579 C56.3425,13.823 56.1735,13.992 55.9485,13.992 L53.7345,13.992 C53.5655,13.992 53.3965,13.842 53.3785,13.692 L52.5335,7.895 L52.4965,7.895 L49.3445,13.973 C49.2885,14.086 49.1195,14.18 49.0255,14.18 L48.6885,14.18 C48.5755,14.18 48.4255,14.086 48.3695,13.973 L45.1995,7.895 L45.1615,7.895 L44.3365,13.692 C44.3175,13.842 44.1675,13.992 43.9795,13.992 L41.7665,13.992 C41.5405,13.992 41.3725,13.823 41.4095,13.579 L43.5295,0.973 Z" id="Fill-6"></path>
                    <path d="M66.2093,1.2169 C66.2093,1.0289 66.3593,0.8609 66.5663,0.8609 L74.3323,0.8609 C74.5383,0.8609 74.6883,1.0289 74.6883,1.2169 L74.6883,3.2619 C74.6883,3.4489 74.5383,3.6179 74.3323,3.6179 L69.1353,3.6179 L69.1353,5.9439 L73.4133,5.9439 C73.6003,5.9439 73.7693,6.1129 73.7693,6.3009 L73.7693,8.3459 C73.7693,8.5519 73.6003,8.7019 73.4133,8.7019 L69.1353,8.7019 L69.1353,11.2339 L74.3323,11.2339 C74.5383,11.2339 74.6883,11.4029 74.6883,11.5909 L74.6883,13.6359 C74.6883,13.8229 74.5383,13.9919 74.3323,13.9919 L66.5663,13.9919 C66.3593,13.9919 66.2093,13.8229 66.2093,13.6359 L66.2093,1.2169 Z" id="Fill-8"></path>
                </g>
                <g id="Symbol" transform="translate(16.000000, 0.000000)">
                    <path d="M18.8582,12.0636 C20.4322,12.0636 21.7092,10.7876 21.7092,9.2126 C21.7092,7.6376 20.4322,6.3616 18.8582,6.3616 C17.2832,6.3616 16.0072,7.6376 16.0072,9.2126 C16.0072,10.7876 17.2832,12.0636 18.8582,12.0636" id="Fill-10"></path>
                    <path d="M26.4376,6.5833 C28.2556,6.5833 29.7296,5.1093 29.7296,3.2913 C29.7296,1.4733 28.2556,0.0003 26.4376,0.0003 C24.6196,0.0003 23.1456,1.4733 23.1456,3.2913 C23.1456,5.1093 24.6196,6.5833 26.4376,6.5833" id="Fill-12"></path>
                    <path d="M30.7134,58.7576 L12.5214,58.7576 C10.4864,58.7576 9.2884,56.4736 10.4454,54.7996 L19.7504,41.3326 C20.7664,39.8616 22.9484,39.8846 23.9324,41.3766 L32.8194,54.8436 C33.9274,56.5216 32.7234,58.7576 30.7134,58.7576 M41.7834,55.2956 L28.8524,33.9376 L28.8524,22.0096 L29.1664,22.0096 C31.0374,22.0096 32.5544,20.4916 32.5544,18.6206 C32.5544,16.7496 31.0374,15.2326 29.1664,15.2326 L14.0934,15.2326 C12.2224,15.2326 10.7054,16.7496 10.7054,18.6206 C10.7054,20.4916 12.2224,22.0096 14.0934,22.0096 L14.4074,22.0096 L14.4074,33.9376 L1.4764,55.2956 C-0.7896,59.8456 2.5204,65.1906 7.6034,65.1906 L35.6554,65.1906 C40.7394,65.1906 44.0484,59.8456 41.7834,55.2956" id="Fill-14"></path>
                </g>
            </g>
        </g>
    </g>
</svg>