<?xml version="1.0" encoding="utf-8"?>
<!-- Generator: Adobe Illustrator 22.1.0, SVG Export Plug-In . SVG Version: 6.00 Build 0)  -->
<svg version="1.1" id="f557f327-f18a-4117-b611-648a13f47aad"
	 xmlns="http://www.w3.org/2000/svg" xmlns:xlink="http://www.w3.org/1999/xlink" x="0px" y="0px" viewBox="0 0 1500.5 736.9"
	 style="enable-background:new 0 0 1500.5 736.9;" xml:space="preserve">
<style type="text/css">
	.st0{fill:#F6D9CA;}
</style>
<title>jason mask</title>
<g>
	<path class="st0" d="M599.9,121.5c-66.3-2.5-129.2-25.2-189.4-50.2S290.6,18.8,226,5.6c-41.6-8.5-89.1-9.7-122.6,14.1
		c-32.3,22.8-42.6,62.2-48.2,98.9c-4.2,27.5-6.7,56.5,4.9,82.3c8.1,17.9,22.3,33,32.1,50.1c34.3,59.7,10,133.3-27,191.6
		c-17.4,27.3-37.6,53.4-51,82.5c-13.5,29.1-19.7,62.4-7.9,92.1c11.6,29.4,39.4,51.5,69.5,67.1c61.1,31.6,133,40.6,203.2,45.7
		c155.3,11.3,311.5,6.4,467.2,1.5c57.7-1.8,115.5-3.7,172.1-13.2c31.5-5.3,64-13.7,86.9-33.9c29-25.7,36.2-69.1,16.8-101.3
		c-32.6-54-122.8-67.4-145.6-125.3c-12.5-31.9,0.3-67.4,18.5-97c39.1-63.4,104.7-119.1,108.1-191.6c2.4-49.8-29.2-99.7-77.8-123.2
		C873.8,21.4,803,24.5,765.3,65.4C726.5,107.5,658.4,123.6,599.9,121.5z"/>
	<path class="st0" d="M1183.8,278.7c-1.7-1.5-3.4-3-5.1-4.5c-12.6-11.4-25.4-22.5-37.8-34.3c-6.7-6.3-13.3-12.8-19.9-19.1
		c-22.1-10-42.9-22.7-62.5-37c-10.5-5.2-20.7-11-30.2-17.8c-14.1-10.1-27.9-23.8-31.4-40.6c-0.1-0.1-0.1-0.1-0.2-0.2
		c-30.9-30.4-53.8-74.3-94.6-86.3c-28.1-8.3-60.8,2.1-80.7,25.7c-20.9,24.7-28.7,64.2-10.5,90.6c18.8,27.3,18.7,67,9.7,98.9
		c-10.4,36.1-31.8,67.6-54.2,97.3c-22.4,29.7-46.1,58.7-62.4,92.4c-10.5,21.7-17.6,47.7-8.5,69.5c8.6,21,29.7,32.2,49.9,40.4
		c15.1,6.2,31.3,11.6,47.6,8.8c11.3-1.9,21.8-7.6,32.9-10.7c38.7-10.5,77.4,13.1,105.6,41.7c13.2,13.4,25.4,28.2,40.1,39.6
		c14.8,11.5,32.9,19.6,51.4,17.2c18.3-2.3,34.7-14.5,47.6-28.9c26.3-29.2,41.1-67.6,53.5-105.5
		C1149.4,438.4,1166.9,358.5,1183.8,278.7z"/>
	<path class="st0" d="M1062.5,157.9c-55.7,7.7-111.7-2.1-165.8-14.3s-108-26.6-164-28.2c-36-1-75.9,5-100.3,30.1
		c-23.6,24.1-26.3,58.9-25.5,90.8c0.6,23.9,2.9,48.8,16.4,68.8c9.4,13.9,23.6,24.6,34.3,37.6c37.6,45.4,28.4,111.2,6.2,166
		c-10.4,25.7-23.4,50.7-30.3,77.3c-6.9,26.6-7.1,55.7,7.2,79c14.1,23.1,40.7,37.7,68.1,46.4c55.8,17.6,117.2,14.6,176.7,8.5
		c131.4-13.5,261.2-40.8,390.6-68c47.9-10.1,96-20.3,141.9-36.7c25.5-9.1,51.4-21.1,67.5-41.5c20.4-26,19.9-63.8-1.2-88.1
		c-35.4-40.8-112.7-38.8-140.5-84.3c-15.3-25.1-9.9-57,0.9-84.7c23.2-59.4,69.6-116.2,61.5-178c-5.5-42.4-39.4-79.9-83.5-92.6
		c-46.4-13.2-105.1-0.1-130.5,40.1C1166.2,127.3,1111.7,151,1062.5,157.9z"/>
</g>
</svg>
