<?xml version="1.0" encoding="utf-8"?>
<!-- Generator: Adobe Illustrator 22.1.0, SVG Export Plug-In . SVG Version: 6.00 Build 0)  -->
<svg version="1.1" id="레이어_1" xmlns="http://www.w3.org/2000/svg" xmlns:xlink="http://www.w3.org/1999/xlink" x="0px"
	 y="0px" viewBox="0 0 297.3 220" style="enable-background:new 0 0 297.3 220;" xml:space="preserve">
<style type="text/css">
	.st0{fill:#FFFFFF;stroke:#000000;stroke-width:3;stroke-miterlimit:10;}
	.st1{fill:none;}
	.st2{fill:none;stroke:#000000;stroke-width:2;stroke-miterlimit:10;}
	.st3{fill:#F6D9CA;}
	.st4{fill:none;stroke:#000000;stroke-width:3;stroke-miterlimit:10;}
</style>
<g id="Layer_1">
</g>
<g id="Layer_2">
	<g>
		<g>
			<path class="st0" d="M119.7,181.8V29.4c0-0.8,0.5-1.5,1.2-1.6c6-0.5,33.3-2.7,57.6-2.6c28.2,0.1,48.2,4.9,52.8,6.1
				c0.6,0.2,1,0.8,1,1.6l0,0c0,0.7,0.4,1.4,1,1.6c1.2,0.4,2.3,0.7,3,0.8c0.6,0.2,1,0.8,1,1.6l-1.2,154.9c0,1-0.8,1.8-1.6,1.6
				c-6.2-1.7-30.2-7.7-53.1-8.5c-26.6-1-46.1,4.9-49.7,6.1c-0.4,0.1-0.7,0.5-0.8,0.9l-1.2,3.2c-1.2,3.4-3.9,5.8-6.9,6.2
				c-1.5,0.2-2.8,0.3-3.1,0.4c-0.1,0-0.1,0-0.2,0c-0.3,0-1.6-0.2-3.1-0.4c-3-0.4-5.6-2.7-6.9-6.2l-1.2-3.2c-0.2-0.4-0.5-0.8-0.8-0.9
				c-3.6-1.2-23.1-7.1-49.7-6.1c-22.9,0.9-46.9,6.9-53.1,8.5c-0.8,0.2-1.6-0.5-1.6-1.6L2,36.8c0-0.8,0.4-1.4,1-1.6
				c0.7-0.2,1.7-0.5,3-0.8c0.6-0.2,1-0.8,1-1.6l0,0c0-0.8,0.4-1.4,1-1.6c4.6-1.2,24.7-5.9,52.8-6.1c24.3-0.1,51.6,2.1,57.6,2.6
				c0.7,0.1,1.2,0.8,1.2,1.6L119.7,181.8"/>
			<g>
				<line class="st1" x1="232" y1="34.2" x2="232" y2="106.5"/>
				<polygon points="232.3,106.5 232.8,34.2 231.2,34.2 231.7,106.5 				"/>
			</g>
		</g>
		<g>
			<path class="st0" d="M173.7,17.6c-28.1,0-54,10.3-54,10.3s-25.9-10.3-54-10.3c-28,0-48,6.1-52.9,7.7c-0.7,0.2-1.1,1-1.1,1.8
				v152.2c0,1.2,0.9,2.1,1.9,1.9c6.3-1.9,27.3-7.5,52.1-7.5c29.6,0,54,8.1,54,8.1s24.4-8.1,54-8.1c24.8,0,45.8,5.6,52.1,7.5
				c1,0.3,1.9-0.6,1.9-1.9V27.1c0-0.9-0.5-1.6-1.1-1.8C221.7,23.8,201.7,17.6,173.7,17.6z"/>
			<line class="st2" x1="119.7" y1="28" x2="119.7" y2="181.8"/>
		</g>
		<g>
			<path class="st0" d="M80.2,94.9c0,0-0.5-5.1-2.9-9.5c-3.3-5.9-2.4-4.3-2.4-4.3"/>
			<g>
				<path class="st0" d="M52.6,50.2L68,57.3c6.2,2.3,9.8,10.4,8.2,18.1L75,81l-4,1.4c-6.7,2.3-13.5-2.6-15.4-10.2L52.6,50.2z"/>
				<line class="st2" x1="74.9" y1="81" x2="52.6" y2="50.2"/>
				<line class="st2" x1="62.8" y1="64.2" x2="61.6" y2="54.3"/>
				<line class="st2" x1="71.4" y1="76.3" x2="69.2" y2="57.8"/>
				<line class="st2" x1="67.8" y1="71.5" x2="56" y2="73.5"/>
			</g>
		</g>
		<g>
			<g>
				<g>
					<path class="st2" d="M24.5,130.4c26.6-5.5,54-5.5,80.6,0"/>
					<path class="st2" d="M24.5,142.1c26.6-5.5,54-5.5,80.6,0"/>
					<path class="st2" d="M24.5,153.7c26.6-5.5,54-5.5,80.6,0"/>
					<path class="st2" d="M24.5,118.8c26.6-5.5,54-5.5,80.6,0"/>
				</g>
				<path class="st2" d="M103.5,103.7c-25.5-5.1-51.8-5-77.3,0c0-18.3,0-36.6,0-54.9c25.5-5.1,51.8-5.1,77.3,0
					C103.5,67.2,103.5,85.4,103.5,103.7z"/>
			</g>
		</g>
		<g>
			<g>
				<g>
					<path class="st2" d="M133.9,128.1c12.4-2.6,24.9-3.9,37.5-4.1"/>
					<path class="st2" d="M133.9,115.8c12.4-2.6,24.9-3.9,37.5-4.1"/>
					<path class="st2" d="M133.9,103.7c12.4-2.6,24.9-3.9,37.5-4.1"/>
					<path class="st2" d="M133.9,140.3c12.4-2.6,24.9-3.9,37.5-4.1"/>
					<path class="st2" d="M133.9,152.6c12.4-2.6,24.9-3.9,37.5-4.1"/>
				</g>
				<g>
					<path class="st2" d="M134.1,50.2c26.6-5.5,54-5.5,80.6,0"/>
					<path class="st2" d="M134.1,61.8c26.6-5.5,54-5.5,80.6,0"/>
					<path class="st2" d="M134.1,73.4c26.6-5.5,54-5.5,80.6,0"/>
					<path class="st2" d="M134.1,85.3c26.6-5.5,54-5.5,80.6,0"/>
				</g>
				<path class="st2" d="M179,153.6c0-18.8,0-37.7,0-56.5c11.4,0.3,22.9,1.5,34.2,3.8c0,18.8,0,37.7,0,56.5
					C201.8,155.1,190.4,153.9,179,153.6z"/>
			</g>
		</g>
		<g>
			<path class="st3" d="M214,93.2c-3.4-4.4-6.8-8.7-10.3-12.8c-3.4,4.1-6.9,8.4-10.3,12.8c0-24.8,0-49.6,0-74.4
				c6.8,0.3,13.7,1.3,20.6,3C214,45.4,214,69.3,214,93.2z"/>
			<path class="st4" d="M214,93.2c-3.4-4.4-6.8-8.7-10.3-12.8c-3.4,4.1-6.9,8.4-10.3,12.8c0-24.8,0-49.6,0-74.4
				c6.8,0.3,13.7,1.3,20.6,3C214,45.4,214,69.3,214,93.2z"/>
		</g>
	</g>
</g>
</svg>
