<?xml version="1.0" encoding="utf-8"?>
<!-- Generator: Adobe Illustrator 22.1.0, SVG Export Plug-In . SVG Version: 6.00 Build 0)  -->
<svg version="1.1" id="레이어_1" xmlns="http://www.w3.org/2000/svg" xmlns:xlink="http://www.w3.org/1999/xlink" x="0px"
	 y="0px" viewBox="0 0 192.3 179.6" style="enable-background:new 0 0 192.3 179.6;" xml:space="preserve">
<style type="text/css">
	.st0{fill:#FFFFFF;stroke:#000000;stroke-width:3;stroke-miterlimit:10;}
	.st1{stroke:#000000;stroke-width:3;stroke-miterlimit:10;}
	.st2{fill:none;stroke:#000000;stroke-width:3;stroke-miterlimit:10;}
	.st3{fill:#F6D9CA;stroke:#F6D9CA;stroke-width:2;stroke-miterlimit:10;}
	.st4{display:none;}
	.st5{display:inline;}
	.st6{fill:#FFFFFF;stroke:#000000;stroke-width:2;stroke-miterlimit:10;}
	.st7{fill:none;stroke:#000000;stroke-width:2;stroke-miterlimit:10;}
	.st8{display:inline;fill:#FFFFFF;stroke:#000000;stroke-width:3;stroke-miterlimit:10;}
	.st9{display:inline;fill:none;stroke:#000000;stroke-width:2;stroke-miterlimit:10;}
	.st10{display:inline;fill:none;stroke:#000000;stroke-width:3;stroke-miterlimit:10;}
	.st11{display:none;fill:none;stroke:#000000;stroke-width:2;stroke-miterlimit:10;}
	.st12{fill:#FFFFFF;}
</style>
<g id="Layer_1">
	<g>
		<path class="st0" d="M97.9,115.2c0-0.6,0.6-1.1,1.2-1c4,0.7,17,2.7,19.5,0.7c1.2-1,3.4-9.9,5.2-21.2c0.1-0.5,0.6-0.9,1.1-0.9
			l6.4-0.1c0.7,0,0.5-0.5,0.3-1.2l-5-21c0-0.2,0-0.3,0-0.5c0.8-11.7,0.6-22.3-1.9-26.5c-3.3-5.6-11.8-9.6-15.1-11.1
			c-5.9-2.6-16.1-5.1-23.4-5c-9.9,0-31.4,2.8-38.3,10c-5.5,5.8-10,22.8-9.9,30.9c0.2,8.1,6.3,28.2,6.9,30.2c0,0.1,0,0.2,0,0.4
			l-2.6,42.6c0,0.5-0.4,0.8-0.8,0.9l-23.4,5.4c-1.1,0.2-1,1.7,0,2c0,0,0,0,0.1,0c13.4,3.3,36.2,14.7,58.2,14.7
			c19.3,0,30.3-10.4,39.8-14.2c0.7-0.3,1.4-0.5,2.2-0.6c1.1-0.2,1.2-1.8,0.1-2l-21.2-5.3c-0.5-0.1-0.8-0.6-0.8-1.1L97.9,115.2z"/>
		<path class="st0" d="M103.6,69.1c0,0,8.1,18.6,16.3,0"/>
		<path class="st1" d="M75.5,95.9c0,0-2.3,0-3.5-0.6c-1.6-0.7-3.6-1.6-5.1-3.8c-1.7-2.5-4.4-7.1-4-13.2c0.2-3.3,3.3-9.3,8.4-9.3
			c3.2,0,6.5,3.3,7.1,4c0.1,0.1,0.1,0.2,0.2,0.3l0.1,0.2c0.4,0.9,1.6,0.8,1.9-0.1l6.8-20.6c0.1-0.4,0.5-0.7,0.9-0.7l29.9-2.2
			c0.1,0,0.2,0,0.4-0.1c1.7-0.8,15.3-7.7,10.9-22.6c-4.6-15.2-17.8-12.3-22.1-11.1c-5.9,1.6-18.2,7-19.7,7.7c-0.1,0-0.2,0.1-0.3,0.1
			l-24.6,1.9c-0.1,0-0.2,0-0.4,0c-1.5-0.4-12-3.2-15.8-1.2c-2.2,1.2-4.3,7.7-4.8,9.4c-0.1,0.3-0.3,0.5-0.5,0.6
			c-1,0.6-3.9,2.2-4.7,3.7C30,50.7,44,96.1,45,99.3c0,0.1,0.1,0.2,0,0.4L44.3,111c-0.1,0.9,1.1,1.5,1.8,0.8l20.8-20.2"/>
		<path class="st2" d="M101.4,65.6c-0.7,0-1.2,0.6-1.2,1.3c0.1,3.3,0.4,12,2.7,14.5c3.1,3.4,13.6,4.7,17.3,0.2
			c2.3-2.8,2.6-11.6,2.6-11.6l0.1-3.1c0-0.7-0.5-1.3-1.2-1.3H101.4z"/>
		<line class="st2" x1="129.5" y1="70" x2="122.8" y2="70"/>
		<path class="st0" d="M126.5,107.2c-0.6,0.1-1,0.7-0.8,1.3l7,23.1c2,5.5,10.2,8.2,16.7,6.8l4.7-1c6.4-1.3,12.9-7,12.6-12.8l-2.6-24
			c-0.1-0.6-0.6-1-1.2-0.9L126.5,107.2z"/>
		<path class="st0" d="M167.7,101.5l-2.5,0.4c-0.5,0.1-0.9,0.6-0.9,1.1l2.1,19.9c0.1,0.7,0.7,1.1,1.3,0.9c1.3-0.4,3.3-1.2,4.3-2.7
			c1.3-1.9,3.9-11.9,2.6-16.6C173.6,100.4,167.7,101.5,167.7,101.5z"/>
		<path class="st3" d="M131.9,110.5c-0.6,0.1-1,0.7-0.9,1.3l5.1,18.9c1.5,4.2,7.9,5.3,13,4.2l3.8-0.8c5.3-1.1,10.5-4.5,10.3-9
			l-1.6-12.7c-0.1-0.6-0.6-1-1.1-0.9c-2.1,0.2-7,0.8-8.9,0.9c-3.6,0.2-14.2-2.4-17.7-2.2C133.1,110.4,132.4,110.4,131.9,110.5z"/>
		<path class="st0" d="M167.7,106.4l-2,0.3c-0.5,0.1-0.9,0.6-0.9,1.1l1,9.7c0.1,0.8,1,1.2,1.6,0.8c0.4-0.3,0.7-0.6,1-1
			c0.7-1.1,1.1-5.5,1.4-8.4C170.1,106.7,169,106.2,167.7,106.4z"/>
	</g>
</g>
<g id="Layer_2" class="st4">
	<g class="st5">
		<g>
			<path class="st0" d="M52.9,108.4c0,0,3.3-7.7,5.3-9.5c5.7-5.2,28.2-12.6,28.2-12.6l31.8-2.7l13.9-5.2c0.7-0.3,1.5,0.3,1.5,1.1
				c-0.2,3.1-0.7,9.5-2.1,11.6c-2,2.8-12,6.8-12,6.8l-12.9,3.5l7.2,12.9l-42.9,6"/>
			<path class="st0" d="M140.1,131.7l16.9-7.2c1.1-0.5,1.9-1.6,1.9-2.8v-30c0-0.8-0.3-1.6-0.8-2.1l-15.7-17.3
				c-0.5-0.5-1.4-0.5-1.8,0.1c-1.6,2.2-5.1,7.1-5.1,9.5c0,4.2,8.2,14.6,8.2,14.6l-0.1,17.2l-3.4,1.4"/>
			<path class="st0" d="M52.9,156.8l63.8-0.9c1.2,0,2.4-0.5,3.3-1.4l19-20.1c0.8-0.8,1.2-1.9,1.2-3v-23.8c0-2.2-1.7-4.1-3.9-4.4
				l-20.3-2c-1.9-0.2-3.8,0.9-4.5,2.7l-0.7,1.7c-0.7,1.7-2.3,2.8-4.1,2.8h-5.2c-1.6,0-3.1,0.9-3.8,2.3l-1.6,3
				c-0.8,1.4-2.2,2.3-3.8,2.3h-2.6c-2.2,0-4.1,1.7-4.4,3.9l-1.4,12.3c0,0.1-0.1,0.1-0.1,0.1s-14.9-6.8-21.7-10
				c-0.5-0.2-1.1-0.4-1.7-0.4c-2.1,0-7.4,0.7-7.4,0.7"/>
			<path class="st0" d="M92.2,115.9h15.7c1.1,0,2,0.7,2.3,1.7l8,26.8"/>
			<polyline class="st0" points="83.8,132.2 94.8,133.7 97.5,129.6 101.1,140.1 			"/>
			<path class="st0" d="M107.2,108.4h16c0.9,0,1.6,0.6,1.8,1.4l8.6,30.3"/>
			<g>
				<path class="st0" d="M51.4,165.7H17.6c-0.8,0-1.5-0.7-1.5-1.5v-61.6c0-0.8,0.7-1.5,1.5-1.5h33.8c0.8,0,1.5,0.7,1.5,1.5v61.6
					C52.9,165.1,52.2,165.7,51.4,165.7z"/>
				<circle class="st6" cx="44.5" cy="158.2" r="4.2"/>
				<circle class="st6" cx="33.5" cy="158.2" r="4.2"/>
			</g>
		</g>
		<g>
			<g>
				<path class="st0" d="M147.7,56.7c0,0-3.6,1-5,1.1c-1.9,0.1-8-0.4-8-0.4s2.7-3.3,3.7-4.1c0.9-0.7,3.8-2.3,3.8-2.3s-6.3-3-8.2-4.3
					c-1.9-1.2-4.9-4.3-4.9-4.3s4.5-1.2,6.8-0.9c2,0.2,7,1.2,7,1.2s-1.7-6.9-2-9.3c-0.5-3.5-0.3-13.9-0.3-13.9s5.5,6.8,7.1,9.2
					c1.2,1.8,4.1,8.2,4.1,8.2s4.4-6.5,6.1-8.4c2.1-2.3,9.2-8.7,9.2-8.7s-1.3,9.4-1.9,12.5c-0.5,2.4-3.6,9.5-3.6,9.5s7-1.1,9-1.2
					c3-0.1,11.9,0.7,11.9,0.7s-8.6,5.9-11.9,7.6c-2.1,1-8.5,3.7-8.5,3.7s3.1,2.5,4.2,3.8c1.7,2,3.9,7.3,3.9,7.3s-5.3-1.2-7.8-2.2
					c-1.7-0.7-6.7-3.6-6.7-3.6s0.3,3.7,0.2,4.8c-0.1,1.3-1.1,5-1.1,5s-3.6-4-4.5-5.5C149.3,60.9,147.7,56.7,147.7,56.7z"/>
				<line class="st7" x1="147.7" y1="56.7" x2="167" y2="19.8"/>
				<line class="st7" x1="151.7" y1="49" x2="182.4" y2="41.3"/>
				<line class="st7" x1="129.1" y1="42.4" x2="151.7" y2="49"/>
				<line class="st7" x1="151.7" y1="49" x2="140.6" y2="19.5"/>
			</g>
			<path class="st0" d="M134.3,80.2c0,0,3.1-8.4,5.9-13.1c2.6-4.6,7.6-10.4,7.6-10.4"/>
		</g>
		<g class="st4">
			<path class="st8" d="M134.1,84.6c0,0,1.4-7.2,1.7-12.8c0.4-7.4-0.4-12.8-0.4-12.8l-4.6-42.4c0-0.1-0.1-0.2,0,0l12.6,17.7
				c4.8,6.8,3.4,16.1-3.2,21.2l-4.8,3.7l0,0l0,0l-4.9-2c-8-3.3-11.8-12.5-8.4-20.4l8.7-20.1l0,0"/>
			<line class="st9" x1="133.1" y1="37.3" x2="138.5" y2="27.4"/>
			<line class="st9" x1="134.7" y1="52.7" x2="144.3" y2="35.7"/>
			<line class="st9" x1="134.3" y1="45.7" x2="121.3" y2="38.3"/>
		</g>
		<g>
			<path class="st0" d="M134.3,80.3c0,0-0.4-5.3-3.3-10c-3.9-6.3-6.4-8.5-6.4-8.5"/>
			<g>
				<path class="st0" d="M97.7,28.6l19.2,8.3c7.8,2.8,12,11.3,9.5,19.2l-1.8,5.7l-5.2,1.2c-8.4,1.9-16.8-3.4-19-11.5L97.7,28.6z"/>
				<line class="st7" x1="124.6" y1="61.7" x2="97.7" y2="28.6"/>
				<line class="st7" x1="110.1" y1="43.6" x2="109" y2="33.3"/>
				<line class="st7" x1="120.4" y1="56.5" x2="118.5" y2="37.5"/>
				<line class="st7" x1="116.1" y1="51.5" x2="100.9" y2="52.9"/>
			</g>
		</g>
	</g>
</g>
<g id="Layer_3" class="st4">
	<path class="st10" d="M98.8,40.9L81,10.8c-1.3-2.1-4.3-2.1-5.6,0L58.3,39.5"/>
	<path class="st10" d="M80.3,76.5h33.3c2.8,0,4.6-3.1,3.2-5.5L101,44.4"/>
	<g class="st5">
		<g>
			<g>
				<path class="st0" d="M134.6,133.1l0.1,8.3c0,0.7,0.6,1.2,1.2,1.2l28.3-0.3c0.7,0,1.2-0.6,1.2-1.2L165,89.7
					c0-0.7-0.6-1.2-1.2-1.2l-28.3,0.3c-0.7,0-1.2,0.6-1.2,1.2l0.1,7.2"/>
				<path class="st0" d="M134.7,136.4"/>
				<path class="st0" d="M134.3,97.2"/>
				<path class="st6" d="M138.2,136.3"/>
				<path class="st6" d="M141.7,132.8"/>
				<circle class="st6" cx="150.9" cy="136.2" r="3.5"/>
			</g>
			<g>
				<path class="st0" d="M142,147.5l27.8-0.3c0.8,0,1.5-0.7,1.5-1.5l-0.5-51c0-0.8-0.7-1.5-1.5-1.5l-27.8,0.3
					c-0.8,0-1.5,0.7-1.5,1.5l0.5,51C140.5,146.9,141.2,147.5,142,147.5z"/>
				<circle class="st6" cx="147.5" cy="141.1" r="3.5"/>
				<circle class="st6" cx="156.7" cy="141.1" r="3.5"/>
			</g>
			<path class="st2" d="M134.3,94.8c0,0-6.5-9.5-9.8-11.2c-7-3.8-23.2-3-31.8-1.9c-5.3,0.7-21.5,9-21.5,9l-10.4,2.5
				c0,0,3.6,4.7,6.4,5.9c2.4,1,7.4,0.3,7.4,0.3l13.7-3.2c0.1,0,0.4,0,0.3,0.1l-9.6,7.6l-11.9,5.8L52.8,106l-7-8.5
				c-1.1-1.2-2.8-2.6-4.3-2.6H34c-0.9,0-1.5,1-1,1.8l4,7.3"/>
			<path class="st0" d="M33.4,103.8l-3.3-4.9c-0.2-0.4,0.1-0.8,0.5-0.8l9-0.1c2.1,0.2,3.8,2.5,4.8,4.3l5.8,9.9l15.9,5.6"/>
			<path class="st2" d="M58.6,144l-10-1.6c-1.5-0.3-2.8-1.2-3.4-2.6l-16.1-35.2c-0.2-0.5,0.2-1.1,0.8-1.1L37,104
				c2.9,0.2,5.5,1.7,7,4.2l3.2,5.4"/>
			<path class="st11" d="M48.8,120c0,0,4.3,7.8,3.4,9.9c-0.4,0.8-2.7,1.7-2.7,1.7"/>
			<path class="st11" d="M58.4,131.6c0,0,6.6,5.2,6.2,7.4c-0.2,0.9-3.3,1.9-3.3,1.9"/>
			<g id="XMLID_1_">
				<g>
					<path class="st12" d="M108.7,98.1c-5.9,3.8-11.1,8-11.1,8c-2.6,0.3-5.6,0.6-8.4,1.1c0.2-0.3,5.2-5.4,7.6-6.6
						C99.3,99.3,107.7,98.2,108.7,98.1z"/>
				</g>
				<g>
					<path class="st2" d="M140.4,132.4l-5.3,0.5l-39.8,15.6c-1,0.4-2.1,0.5-3.2,0.4l-32.3-4.5c-1.5-0.2-2.9-1.1-3.7-2.4l-10.8-17.9
						l-5.1-6.2c-0.4-0.5-0.2-1.3,0.4-1.6l4.5-1.9c3.1-1.3,6.7-0.6,9.1,1.6l6.3,5.8l5.7,8.9l23.7,0.8l6.8-6.9"/>
					<path class="st2" d="M140.1,101.3c0,0-13-9.4-18.1-9.2c-3.3,0.1-8.5,2.9-13.3,6.1c-5.9,3.8-11.1,8-11.1,8"/>
					<path class="st2" d="M89.1,107.2c2.9-0.4,5.8-0.8,8.4-1.1c4.7-0.5,8.3-0.8,8.3-0.8l7.1-2.8"/>
					<path class="st2" d="M120.8,122.3l-3,3c-1.1,1.1-2.7,1.7-4.3,1.5l-16.7-2.1l-15.9-2l-11.5,4.9c0,0-3.9-7.2-3.2-9.7
						c1-3.5,8.6-7,12.1-8.4c2.3-0.9,6.5-1.7,10.9-2.4"/>
					<path class="st7" d="M108.7,98.1L108.7,98.1c-1,0.1-9.4,1.2-12,2.5c-2.4,1.2-7.4,6.3-7.6,6.6l0,0"/>
				</g>
			</g>
			<path class="st7" d="M88.7,96.2c0,0,2.9,5.4,8,4.4"/>
			<path class="st11" d="M82.7,137.4c0,0,6.5-4.3,8.5-3.3c1.5,0.7,1.8,6.2,1.8,6.2"/>
		</g>
		<g>
			<path class="st12" d="M97.4,95l-55.1,0.1c-2.4-1-3.4-2.8-3-5.2l27.6-47.6c1.9-1.7,3.9-1.9,6.1,0l27.3,46.9
				C101.2,91.8,100.2,94.3,97.4,95z"/>
			<g>
				<g>
					<path class="st0" d="M57,77.9l-2.4-9.1c0-0.1-0.1-0.1-0.2,0L42.2,89.5c-0.8,1.4,0.2,3.2,1.8,3.2h24.7"/>
					<line class="st2" x1="54.6" y1="68.7" x2="45.8" y2="71.6"/>
				</g>
				<g>
					<path class="st0" d="M74.6,63.7l9.1,2.5c0.1,0,0.1-0.1,0.1-0.1l-11.9-21c-0.8-1.4-2.8-1.4-3.6,0L55.9,66.5"/>
					<line class="st2" x1="83.8" y1="66.1" x2="85.7" y2="57.1"/>
				</g>
				<g>
					<path class="st0" d="M78.4,85.6l-6.8,6.6c-0.1,0.1,0,0.2,0.1,0.2l24.1,0.4c1.6,0,2.7-1.7,1.9-3.1L85.4,68.2"/>
					<line class="st2" x1="71.6" y1="92.3" x2="78.4" y2="98.5"/>
				</g>
			</g>
		</g>
	</g>
</g>
</svg>
