<?xml version="1.0" encoding="utf-8"?>
<!-- Generator: Adobe Illustrator 22.1.0, SVG Export Plug-In . SVG Version: 6.00 Build 0)  -->
<svg version="1.1" id="레이어_1" xmlns="http://www.w3.org/2000/svg" xmlns:xlink="http://www.w3.org/1999/xlink" x="0px"
	 y="0px" viewBox="0 0 192.3 179.6" style="enable-background:new 0 0 192.3 179.6;" xml:space="preserve">
<style type="text/css">
	.st0{display:none;}
	.st1{display:inline;}
	.st2{fill:#FFFFFF;stroke:#000000;stroke-width:3;stroke-miterlimit:10;}
	.st3{stroke:#000000;stroke-width:3;stroke-miterlimit:10;}
	.st4{fill:none;stroke:#000000;stroke-width:3;stroke-miterlimit:10;}
	.st5{fill:#FFFFFF;stroke:#000000;stroke-width:2;stroke-miterlimit:10;}
	.st6{fill:#F6D9CA;stroke:#000000;stroke-width:3;stroke-miterlimit:10;}
	.st7{fill:none;stroke:#000000;stroke-width:2;stroke-miterlimit:10;}
	.st8{fill:#E0E0E0;stroke:#000000;stroke-width:3;stroke-miterlimit:10;}
	.st9{display:inline;fill:#FFFFFF;stroke:#000000;stroke-width:3;stroke-miterlimit:10;}
	.st10{display:inline;fill:none;stroke:#000000;stroke-width:2;stroke-miterlimit:10;}
	.st11{display:none;fill:none;stroke:#000000;stroke-width:2;stroke-miterlimit:10;}
	.st12{fill:#FFFFFF;}
	.st13{display:inline;fill:none;stroke:#000000;stroke-width:3;stroke-miterlimit:10;}
</style>
<g id="Layer_1" class="st0">
	<g class="st1">
		<path class="st2" d="M102.8,115.1c0-0.6,0.6-1.1,1.2-1c4,0.7,17,2.7,19.5,0.7c1.2-1,3.4-9.9,5.2-21.2c0.1-0.5,0.6-0.9,1.1-0.9
			l6.4-0.1c0.7,0,0.5-0.5,0.3-1.2l-5-21c0-0.2,0-0.3,0-0.5c0.8-11.7,0.6-22.3-1.9-26.5c-3.3-5.6-11.8-9.6-15.1-11.1
			c-5.9-2.6-16.1-5.1-23.4-5c-9.9,0-31.4,2.8-38.3,10c-5.5,5.8-10,22.8-9.9,30.9c0.2,8.1,6.3,28.2,6.9,30.2c0,0.1,0,0.2,0,0.4
			l-2.6,42.6c0,0.5-0.4,0.8-0.8,0.9L23,147.7c-1.1,0.2-1,1.7,0,2c0,0,0,0,0.1,0c13.4,3.3,36.2,14.7,58.2,14.7
			c19.3,0,30.3-10.4,39.8-14.2c0.7-0.3,1.4-0.5,2.2-0.6c1.1-0.2,1.2-1.8,0.1-2l-21.2-5.3c-0.5-0.1-0.8-0.6-0.8-1.1L102.8,115.1z"/>
		<path class="st2" d="M108.5,69c0,0,8.1,18.6,16.3,0"/>
		<path class="st3" d="M80.4,95.8c0,0-2.3,0-3.5-0.6c-1.6-0.7-3.6-1.6-5.1-3.8c-1.7-2.5-4.4-7.1-4-13.2c0.2-3.3,3.3-9.3,8.4-9.3
			c3.2,0,6.5,3.3,7.1,4c0.1,0.1,0.1,0.2,0.2,0.3l0.1,0.2c0.4,0.9,1.6,0.8,1.9-0.1l6.8-20.6c0.1-0.4,0.5-0.7,0.9-0.7l29.9-2.2
			c0.1,0,0.2,0,0.4-0.1c1.7-0.8,15.3-7.7,10.9-22.6c-4.6-15.2-17.8-12.3-22.1-11.1c-5.9,1.6-18.2,7-19.7,7.7c-0.1,0-0.2,0.1-0.3,0.1
			l-24.6,1.9c-0.1,0-0.2,0-0.4,0c-1.5-0.4-12-3.2-15.8-1.2c-2.2,1.2-4.3,7.7-4.8,9.4c-0.1,0.3-0.3,0.5-0.5,0.6
			c-1,0.6-3.9,2.2-4.7,3.7c-6.6,12.4,7.4,57.8,8.4,61c0,0.1,0.1,0.2,0,0.4l-0.7,11.3c-0.1,0.9,1.1,1.5,1.8,0.8l20.8-20.2"/>
		<path class="st4" d="M106.3,65.5c-0.7,0-1.2,0.6-1.2,1.3c0.1,3.3,0.4,12,2.7,14.5c3.1,3.4,13.6,4.7,17.3,0.2
			c2.3-2.8,2.6-11.6,2.6-11.6l0.1-3.1c0-0.7-0.5-1.3-1.2-1.3H106.3z"/>
		<line class="st4" x1="134.4" y1="69.9" x2="127.7" y2="69.9"/>
		<path class="st2" d="M131.4,107.1c-0.6,0.1-1,0.7-0.8,1.3l7,23.1c2,5.5,10.2,8.2,16.7,6.8l4.7-1c6.4-1.3,12.9-7,12.6-12.8l-2.6-24
			c-0.1-0.6-0.6-1-1.2-0.9L131.4,107.1z"/>
		<path class="st2" d="M172.6,101.4l-2.5,0.4c-0.5,0.1-0.9,0.6-0.9,1.1l2.1,19.9c0.1,0.7,0.7,1.1,1.3,0.9c1.3-0.4,3.3-1.2,4.3-2.7
			c1.3-1.9,3.9-11.9,2.6-16.6C178.5,100.3,172.6,101.4,172.6,101.4z"/>
		<path class="st5" d="M136.8,110.4c-0.6,0.1-1,0.7-0.9,1.3l5.1,18.9c1.5,4.2,7.9,5.3,13,4.2l3.8-0.8c5.3-1.1,10.5-4.5,10.3-9
			l-1.6-12.7c-0.1-0.6-0.6-1-1.1-0.9c-2.1,0.2-7,0.8-8.9,0.9c-3.6,0.2-14.2-2.4-17.7-2.2C138,110.3,137.3,110.3,136.8,110.4z"/>
		<path class="st2" d="M172.6,106.3l-2,0.3c-0.5,0.1-0.9,0.6-0.9,1.1l1,9.7c0.1,0.8,1,1.2,1.6,0.8c0.4-0.3,0.7-0.6,1-1
			c0.7-1.1,1.1-5.5,1.4-8.4C175,106.6,173.9,106.1,172.6,106.3z"/>
	</g>
</g>
<g id="Layer_2">
	<g>
		<g>
			<path class="st2" d="M51.5,107.1c0,0,3.3-7.7,5.3-9.5C62.5,92.4,85,85,85,85l31.8-2.7l13.9-5.2c0.7-0.3,1.5,0.3,1.5,1.1
				c-0.2,3.1-0.7,9.5-2.1,11.6c-2,2.8-12,6.8-12,6.8l-12.9,3.5l7.2,12.9l-42.9,6"/>
			<path class="st2" d="M138.7,130.4l16.9-7.2c1.1-0.5,1.9-1.6,1.9-2.8v-30c0-0.8-0.3-1.6-0.8-2.1L141,71c-0.5-0.5-1.4-0.5-1.8,0.1
				c-1.6,2.2-5.1,7.1-5.1,9.5c0,4.2,8.2,14.6,8.2,14.6l-0.1,17.2l-3.4,1.4"/>
			<path class="st2" d="M51.5,155.5l63.8-0.9c1.2,0,2.4-0.5,3.3-1.4l19-20.1c0.8-0.8,1.2-1.9,1.2-3v-23.8c0-2.2-1.7-4.1-3.9-4.4
				l-20.3-2c-1.9-0.2-3.8,0.9-4.5,2.7l-0.7,1.7c-0.7,1.7-2.3,2.8-4.1,2.8h-5.2c-1.6,0-3.1,0.9-3.8,2.3l-1.6,3
				c-0.8,1.4-2.2,2.3-3.8,2.3h-2.6c-2.2,0-4.1,1.7-4.4,3.9l-1.4,12.3c0,0.1-0.1,0.1-0.1,0.1s-14.9-6.8-21.7-10
				c-0.5-0.2-1.1-0.4-1.7-0.4c-2.1,0-7.4,0.7-7.4,0.7"/>
			<path class="st2" d="M90.8,114.6h15.7c1.1,0,2,0.7,2.3,1.7l8,26.8"/>
			<polyline class="st2" points="82.4,130.9 93.4,132.4 96.1,128.3 99.7,138.8 			"/>
			<path class="st2" d="M105.8,107.1h16c0.9,0,1.6,0.6,1.8,1.4l8.6,30.3"/>
			<g>
				<path class="st2" d="M50,164.4H16.2c-0.8,0-1.5-0.7-1.5-1.5v-61.6c0-0.8,0.7-1.5,1.5-1.5H50c0.8,0,1.5,0.7,1.5,1.5v61.6
					C51.5,163.8,50.8,164.4,50,164.4z"/>
				<circle class="st5" cx="43.1" cy="156.9" r="4.2"/>
				<circle class="st5" cx="32.1" cy="156.9" r="4.2"/>
			</g>
		</g>
		<g>
			<g>
				<path class="st6" d="M146.3,55.4c0,0-3.6,1-5,1.1c-1.9,0.1-8-0.4-8-0.4s2.7-3.3,3.7-4.1c0.9-0.7,3.8-2.3,3.8-2.3s-6.3-3-8.2-4.3
					c-1.9-1.2-4.9-4.3-4.9-4.3s4.5-1.2,6.8-0.9c2,0.2,7,1.2,7,1.2s-1.7-6.9-2-9.3c-0.5-3.5-0.3-13.9-0.3-13.9s5.5,6.8,7.1,9.2
					c1.2,1.8,4.1,8.2,4.1,8.2s4.4-6.5,6.1-8.4c2.1-2.3,9.2-8.7,9.2-8.7s-1.3,9.4-1.9,12.5c-0.5,2.4-3.6,9.5-3.6,9.5s7-1.1,9-1.2
					c3-0.1,11.9,0.7,11.9,0.7s-8.6,5.9-11.9,7.6c-2.1,1-8.5,3.7-8.5,3.7s3.1,2.5,4.2,3.8c1.7,2,3.9,7.3,3.9,7.3s-5.3-1.2-7.8-2.2
					c-1.7-0.7-6.7-3.6-6.7-3.6s0.3,3.7,0.2,4.8c-0.1,1.3-1.1,5-1.1,5s-3.6-4-4.5-5.5C147.9,59.6,146.3,55.4,146.3,55.4z"/>
				<line class="st7" x1="146.3" y1="55.4" x2="165.6" y2="18.5"/>
				<line class="st7" x1="150.3" y1="47.7" x2="181" y2="40"/>
				<line class="st7" x1="127.7" y1="41.1" x2="150.3" y2="47.7"/>
				<line class="st7" x1="150.3" y1="47.7" x2="139.2" y2="18.2"/>
			</g>
			<path class="st8" d="M132.9,78.9c0,0,3.1-8.4,5.9-13.1c2.6-4.6,7.6-10.4,7.6-10.4"/>
		</g>
		<g class="st0">
			<path class="st9" d="M132.7,83.3c0,0,1.4-7.2,1.7-12.8c0.4-7.4-0.4-12.8-0.4-12.8l-4.6-42.4c0-0.1-0.1-0.2,0,0L142,33
				c4.8,6.8,3.4,16.1-3.2,21.2l-4.8,3.7l0,0l0,0l-4.9-2c-8-3.3-11.8-12.5-8.4-20.4l8.7-20.1l0,0"/>
			<line class="st10" x1="131.7" y1="36" x2="137.1" y2="26.1"/>
			<line class="st10" x1="133.3" y1="51.4" x2="142.9" y2="34.4"/>
			<line class="st10" x1="132.9" y1="44.4" x2="119.9" y2="37"/>
		</g>
		<g>
			<path class="st2" d="M132.9,79c0,0-0.4-5.3-3.3-10c-3.9-6.3-6.4-8.5-6.4-8.5"/>
			<g>
				<path class="st2" d="M96.3,27.3l19.2,8.3c7.8,2.8,12,11.3,9.5,19.2l-1.8,5.7l-5.2,1.2c-8.4,1.9-16.8-3.4-19-11.5L96.3,27.3z"/>
				<line class="st7" x1="123.2" y1="60.4" x2="96.3" y2="27.3"/>
				<line class="st7" x1="108.7" y1="42.3" x2="107.6" y2="32"/>
				<line class="st7" x1="119" y1="55.2" x2="117.1" y2="36.2"/>
				<line class="st7" x1="114.7" y1="50.2" x2="99.5" y2="51.6"/>
			</g>
		</g>
	</g>
</g>
<g id="Layer_3" class="st0">
	<g class="st1">
		<g>
			<path class="st2" d="M129.8,127.7l0.1,8.1c0,0.7,0.5,1.2,1.2,1.2l27.6-0.2c0.7,0,1.2-0.5,1.2-1.2l-0.5-50.3
				c0-0.7-0.5-1.2-1.2-1.2l-27.6,0.2c-0.7,0-1.2,0.5-1.2,1.2l0.1,7.1"/>
			<path class="st2" d="M129.8,130.9"/>
			<path class="st2" d="M129.5,92.6"/>
			<path class="st5" d="M133.3,130.8"/>
			<path class="st5" d="M136.7,127.4"/>
			<circle class="st5" cx="145.7" cy="130.7" r="3.4"/>
		</g>
		<g>
			<path class="st2" d="M137,141.7l27.1-0.2c0.8,0,1.5-0.7,1.5-1.5l-0.4-49.7c0-0.8-0.7-1.5-1.5-1.5L136.5,89
				c-0.8,0-1.5,0.7-1.5,1.5l0.4,49.7C135.5,141.1,136.2,141.7,137,141.7z"/>
			<circle class="st5" cx="142.4" cy="135.5" r="3.4"/>
			<circle class="st5" cx="151.3" cy="135.4" r="3.4"/>
		</g>
		<path class="st4" d="M129.5,90.3c0,0-6.4-9.2-9.6-10.9c-6.8-3.7-22.6-2.9-31-1.9c-5.2,0.7-21,8.8-21,8.8l-10.1,2.4
			c0,0,3.5,4.6,6.2,5.8c2.3,1,7.3,0.3,7.3,0.3l13.3-3.2c0.1,0,0.4,0,0.3,0.1L75.6,99L64,104.7l-14.2-3.5L43,92.8
			c-1.1-1.1-2.7-2.6-4.2-2.6l-7.3,0.1c-0.9,0-1.5,1-1,1.8l3.9,7.1"/>
		<path class="st2" d="M31,99l-3.3-4.8c-0.2-0.4,0.1-0.8,0.5-0.7l8.8-0.1c2,0.2,3.7,2.5,4.7,4.2l5.6,9.7l15.6,5.5"/>
		<path class="st4" d="M55.5,138.3l-9.8-1.5c-1.5-0.3-2.7-1.2-3.3-2.6L26.8,99.9c-0.2-0.5,0.2-1.1,0.7-1.1l6.9,0.4
			c2.8,0.2,5.4,1.7,6.8,4.1l3.1,5.3"/>
		<path class="st11" d="M46,114.9c0,0,4.2,7.6,3.3,9.7c-0.4,0.8-2.7,1.7-2.7,1.7"/>
		<path class="st11" d="M55.3,126.2c0,0,6.5,5.1,6.1,7.3c-0.2,0.9-3.3,1.9-3.3,1.9"/>
		<g id="XMLID_1_">
			<g>
				<path class="st12" d="M93.6,101.3c-2.6,0.3-5.4,0.6-8.2,1c0.2-0.3,5-5.2,7.4-6.4c2.5-1.3,10.7-2.4,11.6-2.5
					C98.7,97.2,93.6,101.3,93.6,101.3z"/>
			</g>
			<g>
				<path class="st4" d="M135.4,127l-5.1,0.5l-38.8,15.2c-1,0.4-2.1,0.5-3.1,0.4l-31.5-4.4c-1.5-0.2-2.8-1.1-3.6-2.4l-10.6-17.5
					l-4.9-6c-0.4-0.5-0.2-1.3,0.4-1.6l4.4-1.8c3-1.3,6.5-0.6,8.9,1.6l6.1,5.7l5.6,8.7l23.1,0.8l6.7-6.7"/>
				<path class="st4" d="M135.1,96.6c0,0-12.7-9.2-17.7-9c-3.2,0.1-8.3,2.9-13,5.9c-5.8,3.7-10.8,7.8-10.8,7.8"/>
				<path class="st4" d="M85.4,102.4c2.8-0.4,5.7-0.8,8.2-1c4.6-0.5,8.1-0.8,8.1-0.8l6.9-2.7"/>
				<path class="st4" d="M116.3,117.2l-2.9,3c-1.1,1.1-2.7,1.7-4.2,1.5l-16.3-2.1l-15.6-2l-11.2,4.8c0,0-3.8-7-3.1-9.4
					c1-3.4,8.4-6.9,11.8-8.2c2.3-0.9,6.3-1.7,10.6-2.3"/>
				<path class="st7" d="M104.5,93.4L104.5,93.4c-1,0.1-9.2,1.2-11.7,2.5c-2.4,1.2-7.2,6.2-7.4,6.4l0,0"/>
			</g>
		</g>
		<path class="st7" d="M85,91.6c0,0,2.9,5.2,7.8,4.3"/>
		<path class="st11" d="M79.1,131.9c0,0,6.3-4.2,8.3-3.3c1.4,0.7,1.8,6.1,1.8,6.1"/>
	</g>
	<path class="st13" d="M104.6,49.8L88.3,22.3c-1.2-1.9-4-1.9-5.1,0L67.6,48.5"/>
	<path class="st13" d="M87.7,82.3h30.4c2.6,0,4.2-2.8,2.9-5.1l-14.4-24.3"/>
	<g class="st1">
		<path class="st12" d="M96.1,97.1L49,97.2c-2-0.9-2.9-2.4-2.6-4.5L69.9,52c1.6-1.4,3.4-1.7,5.2,0l23.3,40.1
			C99.3,94.4,98.4,96.6,96.1,97.1z"/>
		<g>
			<g>
				<path class="st2" d="M61.5,82.5l-2-7.8c0-0.1-0.1-0.1-0.1,0L48.9,92.5c-0.7,1.2,0.2,2.7,1.5,2.7h21.1"/>
				<line class="st4" x1="59.4" y1="74.7" x2="51.9" y2="77.1"/>
			</g>
			<g>
				<path class="st2" d="M76.5,70.4l7.8,2.1c0.1,0,0.1-0.1,0.1-0.1L74.2,54.5c-0.7-1.2-2.4-1.2-3.1,0L60.6,72.8"/>
				<line class="st4" x1="84.4" y1="72.4" x2="86" y2="64.7"/>
			</g>
			<g>
				<path class="st2" d="M79.7,89.2l-5.8,5.6c-0.1,0,0,0.1,0.1,0.1l20.6,0.4c1.4,0,2.3-1.5,1.6-2.7L85.8,74.2"/>
				<line class="st4" x1="73.9" y1="94.8" x2="79.8" y2="100.2"/>
			</g>
		</g>
	</g>
</g>
</svg>
