<?xml version="1.0" encoding="UTF-8"?>
<svg width="146px" height="95px" viewBox="0 0 146 95" version="1.1" xmlns="http://www.w3.org/2000/svg" xmlns:xlink="http://www.w3.org/1999/xlink">
    <!-- Generator: Sketch 43.2 (39069) - http://www.bohemiancoding.com/sketch -->
    <title>Fill 1</title>
    <desc>Created with Sketch.</desc>
    <defs></defs>
    <g id="Page-1" stroke="none" stroke-width="1" fill="none" fill-rule="evenodd">
        <g id="we-c" fill="#ffffff">
            <path d="M110.9219,59.3926 L128.3709,59.3926 L128.3709,24.4936 L139.6649,24.4936 L139.6649,70.6856 L110.9219,70.6856 L110.9219,59.3926 Z M104.7659,88.1356 L58.5729,88.1356 L58.5729,41.9426 L104.7659,41.9426 L104.7659,53.2366 L87.3219,53.2366 L87.3219,59.3926 L104.7659,59.3926 L104.7659,70.6856 L87.3219,70.6856 L87.3219,76.8416 L104.7659,76.8416 L104.7659,83.6126 L104.7659,88.1356 Z M23.6739,41.9426 L34.9679,41.9426 L34.9679,53.2366 L34.9679,57.3396 L34.9679,59.3926 L41.1239,59.3926 L41.1239,57.3396 L41.1239,53.2366 L41.1239,41.9426 L52.4179,41.9426 L52.4179,88.1356 L6.2249,88.1356 L6.2249,41.9426 L17.5189,41.9426 L17.5189,59.3926 L23.6739,59.3926 L23.6739,41.9426 Z M122.2159,18.3376 L34.9679,18.3376 L34.9679,35.7876 L23.6739,35.7876 L23.6739,7.0436 L122.2159,7.0436 L122.2159,18.3376 Z M122.2159,53.2366 L110.9219,53.2366 L110.9219,35.7876 L41.1239,35.7876 L41.1239,24.4936 L122.2159,24.4936 L122.2159,53.2366 Z M128.3709,18.3376 L128.3709,0.8876 L17.5189,0.8876 L17.5189,35.7876 L0.0689,35.7876 L0.0689,94.2906 L110.9219,94.2906 L110.9219,76.8416 L145.8209,76.8416 L145.8209,18.3376 L128.3709,18.3376 Z" id="Fill-1"></path>
        </g>
    </g>
</svg>
