<?xml version="1.0" encoding="UTF-8"?>
<svg width="371px" height="87px" viewBox="0 0 371 87" version="1.1" xmlns="http://www.w3.org/2000/svg" xmlns:xlink="http://www.w3.org/1999/xlink">
    <!-- Generator: Sketch 43.2 (39069) - http://www.bohemiancoding.com/sketch -->
    <title>logo</title>
    <desc>Created with Sketch.</desc>
    <defs></defs>
    <g id="Page-1" stroke="none" stroke-width="1" fill="none" fill-rule="evenodd">
        <g id="logo" transform="translate(2.000000, 2.000000)" stroke="#ffffff">
            <g id="Diversitea_1_" stroke-width="4">
                <path d="M0.5,0 L0.5,26.4 C0.5,49.5 19.2,68.2 42.3,68.2 C65.4,68.2 84.1,49.5 84.1,26.4 L84.1,0 L0.5,0 Z" id="Shape"></path>
                <path d="M0.5,26.4 C0.5,26.4 19.1,12.7 42.3,34.1 C42.3,34.1 67.6,59.7 84.1,30.6 M16.7,83 L67.7,83" id="Shape"></path>
            </g>
            <g id="Layer_3" transform="translate(105.000000, 16.000000)" stroke-width="0.75" fill="#ffffff" fill-rule="nonzero">
                <g id="Group">
                    <path d="M0.9,36.2 L5,36.2 L5,6.5 L0.9,6.5 L0.9,2.7 L13.8,2.7 C19.9,2.7 24.5,4.2 27.7,7.2 C30.9,10.2 32.4,14.6 32.4,20.4 C32.4,27 30.7,31.9 27.2,35.2 C23.7,38.5 19,40.1 13.1,40.1 L0.9,40.1 L0.9,36.2 L0.9,36.2 Z M9.2,36.2 L13.5,36.2 C18.1,36.2 21.7,34.9 24.1,32.4 C26.6,29.8 27.8,26 27.8,20.8 C27.8,16 26.7,12.4 24.4,10.1 C22.1,7.7 18.5,6.5 13.5,6.5 L9.1,6.5 L9.1,36.2 L9.2,36.2 Z" id="Shape"></path>
                    <path d="M38.2,36.2 L42.3,36.2 L42.3,14.8 L38.2,14.8 L38.2,11 L46.5,11 L46.5,36.2 L50.6,36.2 L50.6,40 L38.2,40 L38.2,36.2 Z M41,3.8 C41,2.7 41.3,1.9 41.9,1.3 C42.5,0.7 43.2,0.4 44.1,0.4 C45,0.4 45.8,0.7 46.3,1.3 C46.9,1.9 47.2,2.7 47.2,3.6 C47.2,4.6 46.9,5.4 46.3,6 C45.7,6.6 45,6.9 44.1,6.9 C43.2,6.9 42.4,6.6 41.9,6 C41.3,5.4 41,4.6 41,3.8 Z" id="Shape"></path>
                    <polygon id="Shape" points="68.8 40 64.4 40 55.4 14.8 52 14.8 52 11 63.1 11 63.1 14.8 59.8 14.8 66.8 34.6 67 34.6 74.5 14.8 71.5 14.8 71.5 11 81.2 11 81.2 14.8 78.4 14.8"></polygon>
                    <path d="M99.2,36.2 C102.2,36.2 105.1,35.3 108,33.4 L108,37.5 C105,39.2 101.9,40.1 98.6,40.1 C94.5,40.1 91.2,38.8 88.8,36.2 C86.4,33.6 85.2,30.2 85.2,26 C85.2,21.3 86.4,17.6 88.8,15 C91.2,12.4 94.3,11.1 98.2,11.1 C101.6,11.1 104.2,12.2 106,14.5 C107.8,16.8 108.8,19.9 108.8,24 L108.8,26.1 L89.8,26.1 C89.9,29.3 90.8,31.8 92.3,33.6 C93.6,35.3 96,36.2 99.2,36.2 Z M104.6,22.3 C104.4,17.3 102.1,14.8 97.7,14.8 C95.4,14.8 93.6,15.5 92.3,16.8 C91,18.1 90.2,19.9 89.9,22.3 L104.6,22.3 Z" id="Shape"></path>
                    <path d="M130.8,15.8 C129.8,15.6 128.9,15.5 128,15.5 C124.9,15.5 122.6,17 121.2,19.9 L121.2,36.3 L125.3,36.3 L125.3,40 L112.9,40 L112.9,36.2 L117,36.2 L117,14.8 L112.9,14.8 L112.9,11 L120.9,11 L121.2,15.2 L121.3,15.2 C123.1,12.4 125.6,11 128.7,11 C129.4,11 130.1,11.1 130.8,11.2 L130.8,15.8 Z" id="Shape"></path>
                    <path d="M135.6,19 C135.6,16.5 136.6,14.5 138.7,13.1 C140.8,11.7 143.5,11 146.9,11 C149.8,11 152.8,11.5 156,12.5 L156,19.3 L151.9,19.3 L151.9,15.4 C150.3,15 148.5,14.8 146.6,14.8 C144.8,14.8 143.2,15.1 142,15.7 C140.8,16.3 140.1,17.2 140.1,18.4 C140.1,19.1 140.2,19.7 140.5,20.2 C140.8,20.7 141.2,21.1 141.8,21.4 C142.4,21.7 143.2,22.1 144.1,22.4 C145,22.7 146.1,23.1 147.3,23.4 C148.5,23.8 149.6,24.2 150.8,24.6 C152,25 153,25.5 153.9,26.1 C154.8,26.7 155.6,27.5 156.1,28.4 C156.7,29.3 157,30.4 157,31.8 C157,34.4 155.9,36.4 153.8,37.9 C151.6,39.4 148.8,40.1 145.2,40.1 C142,40.1 138.9,39.5 135.9,38.2 L135.9,31.7 L140,31.7 L140,35.6 C141.7,36 143.5,36.2 145.5,36.2 C147.4,36.2 149.1,35.9 150.4,35.3 C151.8,34.7 152.4,33.7 152.4,32.4 C152.4,31 151.8,30 150.6,29.3 C149.4,28.7 147.7,28 145.5,27.4 C144.3,27.1 143.2,26.7 142,26.3 C140.8,25.9 139.8,25.4 138.8,24.7 C137.8,24.1 137,23.3 136.5,22.4 C135.9,21.5 135.6,20.4 135.6,19 Z" id="Shape"></path>
                    <path d="M162.6,36.2 L166.7,36.2 L166.7,14.8 L162.6,14.8 L162.6,11 L170.9,11 L170.9,36.2 L175,36.2 L175,40 L162.6,40 L162.6,36.2 L162.6,36.2 Z M165.4,3.8 C165.4,2.7 165.7,1.9 166.3,1.3 C166.9,0.7 167.6,0.4 168.5,0.4 C169.4,0.4 170.2,0.7 170.7,1.3 C171.3,1.9 171.6,2.7 171.6,3.6 C171.6,4.6 171.3,5.4 170.7,6 C170.1,6.6 169.4,6.9 168.5,6.9 C167.6,6.9 166.8,6.6 166.3,6 C165.6,5.4 165.4,4.6 165.4,3.8 Z" id="Shape"></path>
                    <polygon id="Shape" points="187.5 36.2 191.6 36.2 191.6 6.5 183.3 6.5 183.3 13.8 179.2 13.8 179.2 2.7 208.2 2.7 208.2 13.8 204 13.8 204 6.5 195.7 6.5 195.7 36.2 199.8 36.2 199.8 40 187.4 40 187.4 36.2"></polygon>
                    <path d="M223.5,36.2 C226.5,36.2 229.4,35.3 232.3,33.4 L232.3,37.5 C229.3,39.2 226.2,40.1 222.9,40.1 C218.8,40.1 215.5,38.8 213.1,36.2 C210.7,33.6 209.5,30.2 209.5,26 C209.5,21.3 210.7,17.6 213.1,15 C215.5,12.4 218.6,11.1 222.5,11.1 C225.9,11.1 228.5,12.2 230.3,14.5 C232.1,16.8 233.1,19.9 233.1,24 L233.1,26.1 L214.1,26.1 C214.2,29.3 215.1,31.8 216.6,33.6 C218,35.3 220.3,36.2 223.5,36.2 Z M228.9,22.3 C228.7,17.3 226.4,14.8 222,14.8 C219.7,14.8 217.9,15.5 216.6,16.8 C215.3,18.1 214.5,19.9 214.2,22.3 L228.9,22.3 Z" id="Shape"></path>
                    <path d="M238.6,13.4 C242.1,11.8 245.6,11 249.2,11 C252.3,11 254.7,11.7 256.3,13.1 C257.9,14.5 258.7,16.8 258.7,20 L258.7,36.2 L262.8,36.2 L262.8,40 L254.8,40 L254.5,35.8 L254.3,35.8 C251.8,38.6 248.9,40 245.5,40 C242.7,40 240.6,39.3 239.1,37.9 C237.6,36.5 236.9,34.5 236.9,32.1 C236.9,25.9 241.8,22.8 251.6,22.8 L254.5,22.8 L254.5,19.9 C254.5,18.2 254,17 253.1,16.1 C252.2,15.2 250.6,14.8 248.6,14.8 C245.6,14.8 242.2,15.6 238.7,17.2 L238.7,13.4 L238.6,13.4 Z M250.9,26.6 C244.5,26.6 241.4,28.3 241.4,31.8 C241.4,33.3 241.8,34.4 242.7,35.1 C243.6,35.8 244.8,36.2 246.4,36.2 C249.3,36.2 252.1,34.8 254.6,32 L254.6,26.6 L250.9,26.6 L250.9,26.6 Z" id="Shape"></path>
                </g>
            </g>
        </g>
    </g>
</svg>
