<?xml version="1.0" encoding="UTF-8"?>
<svg width="150px" height="81px" viewBox="0 0 150 81" version="1.1" xmlns="http://www.w3.org/2000/svg" xmlns:xlink="http://www.w3.org/1999/xlink">
    <!-- Generator: Sketch 43.2 (39069) - http://www.bohemiancoding.com/sketch -->
    <title>On White Background</title>
    <desc>Created with Sketch.</desc>
    <defs></defs>
    <g id="Page-1" stroke="none" stroke-width="1" fill="none" fill-rule="evenodd">
        <g id="Acme-Logo-#4" transform="translate(-175.000000, -85.000000)" fill="#313048">
            <g id="On-White-Background" transform="translate(175.000000, 85.000000)">
                <path d="M42.8823,31.2332 L44.7053,44.0962 L41.0593,44.0962 L42.8823,31.2332 Z M40.2973,48.8872 L45.4353,48.8872 L46.5863,56.3862 L51.7613,56.3862 L46.2933,23.7602 L39.5233,23.7602 L33.9773,56.3862 L39.1013,56.3862 L40.2973,48.8872 Z" id="Fill-11"></path>
                <path d="M62.9573,56.8028 C65.0923,56.8028 66.9243,56.0478 68.4513,54.5378 C69.9783,53.0268 70.7433,51.1878 70.7433,49.0168 L70.7433,44.4608 L65.6393,44.4608 L65.6393,48.9648 C65.6393,49.7458 65.3613,50.4108 64.8063,50.9568 C64.2503,51.5038 63.5823,51.7778 62.8013,51.7778 C62.0203,51.7778 61.3563,51.5038 60.8093,50.9568 C60.2623,50.4108 59.9893,49.7458 59.9893,48.9648 L59.9893,31.1028 C59.9893,30.3218 60.2623,29.6538 60.8093,29.0978 C61.3563,28.5428 62.0203,28.2648 62.8013,28.2648 C63.5823,28.2648 64.2503,28.5428 64.8063,29.0978 C65.3613,29.6538 65.6393,30.3218 65.6393,31.1028 L65.6393,34.9308 L70.7433,34.9308 L70.7433,31.2068 C70.7433,29.0548 69.9873,27.2148 68.4773,25.6868 C66.9673,24.1598 65.1273,23.3958 62.9573,23.3958 C60.8043,23.3958 58.9653,24.1548 57.4373,25.6738 C55.9093,27.1928 55.1463,29.0378 55.1463,31.2068 L55.1463,49.0168 C55.1463,51.1698 55.9053,53.0058 57.4243,54.5248 C58.9433,56.0438 60.7873,56.8028 62.9573,56.8028" id="Fill-12"></path>
                <polygon id="Fill-13" points="79.6995 35.92 84.4645 56.386 88.4225 56.386 92.6925 35.868 92.6925 56.386 97.6135 56.386 97.6135 23.734 90.8295 23.734 86.4265 47.19 81.8405 23.734 74.7785 23.734 74.7785 56.386 79.6995 56.386"></polygon>
                <polygon id="Fill-14" points="116.0227 51.4389 106.9347 51.4389 106.9347 42.5339 113.5747 42.5339 113.5747 37.5859 106.9347 37.5859 106.9347 28.6809 116.0227 28.6809 116.0227 23.7339 102.0137 23.7339 102.0137 56.3859 116.0227 56.3859"></polygon>
                <path d="M5.809,75.157 L144.191,75.157 L144.191,5.041 L5.809,5.041 L5.809,75.157 Z M0.768,80.198 L149.232,80.198 L149.232,0 L0.768,0 L0.768,80.198 Z" id="Fill-15"></path>
            </g>
        </g>
    </g>
</svg>