<?xml version="1.0" encoding="utf-8"?>
<!-- Generator: Adobe Illustrator 22.1.0, SVG Export Plug-In . SVG Version: 6.00 Build 0)  -->
<svg version="1.1" id="a6f4e524-a1b8-434a-a0ca-43acb27f4769"
	 xmlns="http://www.w3.org/2000/svg" xmlns:xlink="http://www.w3.org/1999/xlink" x="0px" y="0px" viewBox="0 0 1110.5 857.7"
	 style="enable-background:new 0 0 1110.5 857.7;" xml:space="preserve">
<style type="text/css">
	.st0{opacity:0.1;fill:#241C15;enable-background:new    ;}
	.st1{fill:url(#SVGID_1_);}
	.st2{fill:#65617D;}
	.st3{opacity:0.1;enable-background:new    ;}
	.st4{fill:#A5636D;}
	.st5{fill:#E7EFFD;}
	.st6{fill:#3F3D56;}
	.st7{fill:#5F5D7E;}
	.st8{fill:#241C15;}
	.st9{fill:#4C3E42;}
	.st10{opacity:0.1;}
	.st11{fill:#E6E8EC;}
	.st12{fill:#444053;}
	.st13{opacity:0.7;}
	.st14{fill:url(#SVGID_2_);}
	.st15{fill:#FBBEBE;}
	.st16{opacity:5.000000e-02;enable-background:new    ;}
	.st17{fill:#5C5C8E;}
	.st18{fill:none;}
	.st19{fill:#F7CDDD;}
	.st20{fill:#7C5C5C;}
	.st21{fill:#3ACC6C;}
	.st22{opacity:0.5;}
</style>
<title>prototyping process</title>
<path class="st0" d="M1029.8,703.8c-3.5,3.6-7,7.1-10.6,10.4c-0.6,0.6-1.2,1.1-1.9,1.7c-12.9,11.8-26.5,22.5-40.6,32.2l-2.6,1.8
	c-0.6,0.5-1.3,0.9-1.9,1.3c-14.7,10-30,19.2-45.5,27.9l-0.2,0.1l-1.2,0.6c-12.5,7-25.2,13.8-38,20.2l-0.3,0.1
	c-5.8,2.9-11.6,5.7-17.4,8.4c-2.4,1.1-4.7,2.2-7.1,3.3c-4.5,2-9,4-13.5,5.9l-0.6,0.2l-1,0.4l-1.2,0.5c-11.8,4.9-23.7,9.5-35.9,13.7
	l-0.2,0.1c-8.4,2.9-16.9,5.6-25.5,8l-1.2,0.3c-12.6,3.6-25.3,6.6-38.2,9.1l-3,0.6c-9.4,1.7-18.8,3.1-28.4,4.2
	c-53.5,6.1-107.7,1.1-160.9-7.3c-107.4-17.1-213.4-49.2-310.1-99.5c-18.6-9.6-36.7-20-54.6-31c-0.1-0.1-0.3-0.2-0.4-0.3
	c-10.7-6.6-21.2-13.5-31.6-20.6c-3-2.1-6.1-4.2-9.1-6.3c-3.7-2.6-7.4-5.3-11-7.9c-4.8-3.5-9.7-7.2-14.5-10.9l-2.3-1.8l-0.9-0.7
	c-1.2-1-2.4-1.9-3.7-2.9c-45.4-36.3-85.9-80.4-105-135.5c-22.1-63.6-8-144.2,46.8-181.8c18.8-12.9,40.7-20,62.8-25.8l2.3-0.6
	c3.7-1,7.5-1.9,11.2-2.8c13-3.2,26.1-6.5,39.1-10.1l0,0c6.8-1.9,13.5-3.8,20.1-6l2.7-0.9c16.1-5.1,31.8-11.6,47-19.4h0.1
	c1.6-0.9,3.2-1.7,4.8-2.6c1-0.6,2-1.1,3.1-1.8c16.4-9.6,33.8-22.9,47.2-38.8c1.1-1.3,2.1-2.6,3.1-3.9c0.8-1,1.6-2,2.3-3.1
	c9.4-12.9,15.9-27.1,17.1-42.3l0,0c0.4-5.1,0.2-10.2-0.6-15.2c-1.5-9.5-3-18.8-4.1-27.9c-2-17.1-2.7-33.4,0.1-49.2l0,0
	c2.9-16.1,9.3-31.5,21.7-46.5c1.9-2.3,3.9-4.5,6-6.8c10-10.3,21.3-18.7,33.5-24.8c1.5-0.8,3-1.5,4.6-2.3
	C414.8,1.8,455.5-1.6,493.6,0.6c35.6,2.1,70.9,7.9,105.6,17.3c2.8,0.7,5.5,1.5,8.2,2.3c29.5,8.4,58.6,19,87,31.6
	c73.8,32.6,143.5,77.9,208.5,127.9c0.6,0.5,1.3,1,1.9,1.5c2.7,2.1,5.4,4.2,8.1,6.3c5.2,4,10.4,8.1,15.5,12.2l3.4,2.8
	c1.7,1.4,3.4,2.7,5.1,4.1l5.2,4.2l0,0c0.2,0.2,0.5,0.4,0.7,0.6l4.4,3.6c2.6,2.1,5.1,4.2,7.6,6.3l0,0l5.4,4.5c1.1,1,2.3,1.9,3.4,2.9
	l5.8,5l1.3,1.1c0.3,0.2,0.5,0.5,0.8,0.7l0.2,0.1c15.7,13.5,31,27.6,45.4,42.5l1.9,1.9l0.2,0.2c1.6,1.6,3.1,3.3,4.7,5
	c18.8,20.1,35.6,41.6,49.3,65.5C1136.3,460.6,1117.6,613.1,1029.8,703.8z"/>
<linearGradient id="SVGID_1_" gradientUnits="userSpaceOnUse" x1="942.2345" y1="-32.1789" x2="942.2345" y2="634.5275" gradientTransform="matrix(1 0 0 -1 -25.44 785.76)">
	<stop  offset="0" style="stop-color:#808080;stop-opacity:0.25"/>
	<stop  offset="0.54" style="stop-color:#808080;stop-opacity:0.12"/>
	<stop  offset="1" style="stop-color:#808080;stop-opacity:0.1"/>
</linearGradient>
<path class="st1" d="M1071.1,386.8c0.6-2-4-12.9-4-13.5s-4.8-6.6-4.8-10.1c0-3.4-6.3-10.8-6.3-10.8s-8.5-4.1-9.4-13.1
	s-9.8-9.2-10.2-9.2c0,0,0-0.8,0.1-2.1c0-2.8-0.1-7.8-1.1-10.5c-1.1-2.5-3-4.4-5.2-5.2c0,0-1-7-2.8-9.2c-2.1-2.6-2.9-6.3-2.1-9.7
	c0.5-1.9,0.1-5.4-1.2-8.4c-1-2.4-2.5-4.4-4.5-4.9h-0.2c-4.4-1.3-9.4-3.2-9.4-3.2s-0.5,0.1-1.2,0.2l-0.6-0.2
	c-1.1,0.2-2.1,0.4-3.2,0.5c-0.9,0-1.9-0.3-2.6-1c-1.5-2-14-5.8-16.3-5.8c-2.3,0-8.9-3.6-8.9-3.6l-6.6-5.9c-1.9-1.7-5.3-8.4-5.8-9.4
	l-0.1-0.1l0,0c-0.5-1.3-0.9-2.6-1.2-4c-0.1-0.2-0.1-0.5-0.2-0.8l0,0c1.3-1.7,2.6-3.4,3.7-5.3v-0.1c0.3-0.5,0.6-1,0.9-1.5
	c0.4-0.8,0.8-1.5,1.2-2.4c0.2-0.4,0.3-0.7,0.5-1.1c0.3,0,0.7-0.1,1-0.2l0.4-0.2c0.4-0.2,0.7-0.5,1.1-0.8l0.3-0.3
	c0.9-1,1.5-2.2,1.9-3.5c0.1-0.4,0.2-0.8,0.3-1.1c0-0.1,0.1-0.3,0.1-0.4c0-0.1,0.1-0.5,0.1-0.8l0.1-0.5c0-0.3,0.1-0.5,0.1-0.8
	s0-0.3,0-0.5c0-0.3,0.1-0.7,0.1-1c0.1-1.3,0.3-2.5,0.5-3.8c0,0,0,0,0-0.1c0.5-2.4,1.3-4.7,2.3-6.9c1-2.2,2-4.3,2.9-6.6l0,0
	c0.3-0.6,0.5-1.3,0.7-2c0.2-0.7,0.4-1.5,0.6-2.2c0-0.2,0.1-0.4,0.1-0.7c0.1-0.5,0.2-1.1,0.3-1.6c0.1-0.2,0.1-0.5,0.1-0.7
	c0.1-0.7,0.2-1.5,0.3-2.3c0.3-4.3-0.2-8.6-1.6-12.6c-1.1-3.4-2.9-6.4-4-9.8c-1.8-5.1-2.2-10.9-4.4-15.8c-3.6-8.2-12.2-12.3-19.2-9.2
	c-3.3,1.5-6.3,4.3-9.7,5.6c-4.5,1.7-9.4,0.4-14.1-0.4c-4.7-0.8-9.9-0.8-13.7,2.8c-4.4,4.2-5.6,12-9.7,16.6c-1,1.1-2.1,2-3.2,2.8
	c-0.8,0.7-1.7,1.3-2.5,2.1c-1.3,1.2-2.3,2.8-2.9,4.5c0,0.1-0.1,0.3-0.1,0.4c0,0.2-0.1,0.3-0.1,0.5c0,0.2,0,0.4-0.1,0.5
	c0,0.2,0,0.2,0,0.4c0,0.3,0,0.5,0,0.8l0,0c0,0,0,0.1,0,0.1c0,0.3,0.1,0.6,0.1,0.9c0,0.1,0,0.2,0,0.2c0,0.1,0.1,0.5,0.2,0.7
	c0,0,0,0.1,0,0.1c0.1,0.3,0.2,0.6,0.3,0.8c0,0.1,0.1,0.3,0.1,0.4c0.1,0.1,0.1,0.2,0.1,0.3c0.6,1.3,1.1,2.7,1.4,4.2
	c0.2,0.9,0.1,1.9-0.1,2.8c-0.1,0.4-0.4,0.9-0.6,1.2c-0.3,0.5-0.7,1-1.1,1.4c-3.1,3.8-5.4,8.2-7,13.1c-0.2,0.6-0.3,1.1-0.5,1.7l0,0
	l0.2,0.1l0.2,0.1c0.4,0.1,0.8,0.2,1.1,0.3c0.3,0.1,0.5,0.1,0.8,0.1c1.1,0.1,2.1,0,3.2-0.3c0.2,0,0.3-0.1,0.5-0.1l0,0
	c0.1,0,0.1,0,0.2-0.1h0.1c0.9-0.3,1.7-0.6,2.5-1c0.2-0.1,0.4-0.2,0.6-0.3c0,0.4,0,0.7,0,1.1s0,0.4,0,0.6c0,0.5,0,1,0,1.4s0,0.7,0,1
	c0.7,14.5,7.7,27.6,18.5,34.7c0.6,0.4,1.1,0.7,1.7,1.1c0,0.4,0.1,0.8,0.1,1.1s0.1,0.6,0.1,1l-0.4-0.5c-0.4-0.2-0.8-0.3-1.1-0.3
	c-0.6,0-1.3,0.2-1.8,0.6c-1,0.7-1.8,1.6-2.4,2.8c-2.6,4.7-7.6,6.8-7.6,6.8s-28,5.2-29.1,9.5l-13.1,0.9c0,0-4.6,0.7-5.1,12v0.1
	c0,0.1,0,0.1,0,0.1c-0.1,1.4-0.2,2.6-0.3,3.6c0,0,0,0.1,0,0.2c-0.8,7.5-2.6,8.4-2.6,8.4s-5.4,11.1-4.9,16.9c0,0,0,0.1,0,0.1l0,0
	c0.1,0.8,0,1.6-0.1,2.3l0,0c-0.6,2.6-2.1,4.8-4,6.1l-0.6,10.2c0,0-5.1-0.9-6.5,6.1s-3.9,10.2-3.9,10.2s-8.5,8.3-8.9,15.3l-5.2,3.8
	c0,0-12.2-3.2-14.9-9c0,0-0.3-0.4-0.9-0.9l-0.1-0.1c0,0,0,0,0,0.1c-1.8-2-5.7-6.2-5.1-5.3c0.4,0.9,0.4,1.9,0.3,2.9l-0.9-1.1
	l-2.4-3.2c0,0-3.5-3.8-8.3-8.4l0,0c-1.1-1-2.3-2.1-3.5-3.2c-6.2-5.4-13.8-11-19.3-11.8c-0.1-0.3-0.6-2.3-1.7-2.3
	c-0.5,0-0.9,0.3-1.2,0.7c-6.5,7.1-7,19-1,26.7c0.3,0.3,0.6,0.7,0.9,1l1.3,1.4l3.9,4.3l13.2,14.5c0.2,0.1,0.3,0.3,0.5,0.4l0.8,1.1
	l0.6,0.9l1.1,1.6l1.5,2.3c-0.1,0.2-0.2,0.5-0.2,0.7c-0.6,1.6-1.1,3.2-1.5,4.7c0,0,0,0.1,0,0.2c-0.1,0.4-0.2,0.7-0.3,1
	c0,0.1-0.1,0.2-0.1,0.4c-0.1,0.3-0.2,0.7-0.3,1s-0.1,0.4-0.1,0.6c0,0.2-0.1,0.2-0.1,0.4c-0.4,1.8-0.7,3.2-0.9,4l-1-0.4l1,0.5
	c0,0.1,0,0.1,0,0.2l-0.1,0.4c0.3,0.2,0.6,0.3,1,0.5l0.2,0.1l3.8,2l0,0c0.8,0.4,1.6,0.8,2.5,1.3s1.6,0.8,2.4,1.3l0,0
	c9.9,5.2,23.8,12.6,24.7,14.1c1.5,2.4,11.7,9.2,21,3.4s11.2-14.6,11.2-14.6s8.9-14.6,9.3-16.7c0.2-1.7,4.4-3.5,6.3-4.3l0.2-0.1
	l0.8-0.3c0,0,0,0.5,0,1.2v0.1c0,0.4,0,0.9,0,1.5c0,5.1-0.1,16.1-1.4,24.1c0,0,0,0,0,0.1c-0.3,2.1-0.8,4.1-1.5,6
	c-3.5,8.8-10.2,47.8-10.2,47.8h0.2c0.4-0.1,0.8-0.1,1.2-0.1c-0.1,0.7-0.2,1.3-0.3,1.7c-0.1,0.4-0.1,0.6-0.1,0.6h0.1
	c0.4-0.1,0.7-0.1,1.1-0.1c0.1,0,0.3,0,0.4,0.1c0,0.2-0.1,0.5-0.1,0.8c0,0,0,0.1,0,0.2c0,0.1,0,0.1,0,0.1s-0.1,0.4-0.1,0.5
	c-0.8,6.5-3.1,23.4-3.1,23.4s-1,9.3-2.5,12.6c-0.6,1.4-1,5.2-1.3,9.1c0,0.6-0.1,1.1-0.1,1.7c-0.3,4.8-0.3,9.3-0.3,9.3l-0.1,0.3
	l-2.3,12.1c0,0.1,0.1,0.2,0.1,0.3l0,0c0.2,0.4,0.4,1,0.8,1.8l0,0l0.1,0.3c1.4,3.3,3.2,6.3,5.4,8.9c0.5,0.6,1,1.1,1.6,1.6l0,0
	c0,0.1,0,0.3-0.1,0.4s-0.1,0.4-0.1,0.6c-0.2,1.6-0.6,3.1-1.1,4.5c-0.6,1.6-1,3.2-1.1,4.9l0,0c-0.1,1.2-0.1,2.5-0.1,3.7l-0.1,0.7l0,0
	c-0.3,1.9-1.3,7.3-1.8,11.7c-0.1,1-0.2,2-0.3,2.9c-0.1,0.8-0.1,1.7,0,2.5c0.1,1.4,0,2.8-0.2,4.2c0,0.4-0.1,0.8-0.1,1.2
	c-0.5,4-1.4,8.2-1.4,8.2l-2.8,31.3v0.6c0,0.1,0,0.4,0,0.6c0,0.3,0,0.4,0,0.6c0,0.2,0,0.5-0.1,0.8c0,0.7-0.1,1.6-0.2,2.6
	c0,0.4,0,0.7-0.1,1.1c0,0.3,0,0.7-0.1,1.1c0,0.2,0,0.4,0,0.6s0,0.6,0,0.9c0,0.3,0,0.6,0,0.9s0,0.5,0,0.8c-0.1,1.7-0.2,3.5-0.3,5.3
	c0,0.3,0,0.6,0,0.9v0.9c0,0.6,0,1.1-0.1,1.7c0,0.4,0,0.8,0,1.1s0,1.1,0,1.6v0.4c0,0.3,0,0.7,0,1c0,0.8,0,1.5,0,2.2c0,0.3,0,0.6,0,1
	c0,1,0,2,0,2.9c0,0.5,0,0.9,0,1.3c0,1.2,0.1,2.4,0.2,3.6c0.1,0.9,0.2,1.8,0.2,2.8c0,0.4,0,0.9,0,1.3c0,0.2,0,0.4,0,0.7
	c0,0.2,0,0.5,0,0.7s0,0.6,0,0.9c0,0.5,0,0.9,0,1.4c0,0.2,0,0.4,0,0.6c0,0.2,0,0.7,0,1v0.5c-0.2,3.9-0.7,7.1-0.8,7.6l0,0l0,0
	c0,0,0,0.1,0,0.3c0,0.2,0,0.2,0,0.3c0,0.1,0,0.2,0,0.3s0,0.1,0,0.2c0,0.3,0.1,0.6,0.1,1c0,0.2,0,0.4,0,0.6l0,0c0,0.2,0,0.4,0.1,0.7
	c0.1,0.2,0,0.2,0,0.3c0,0.4,0.1,0.8,0.1,1.3c0,0.4,0.1,0.9,0.1,1.4l0.1,0.9c0,0.4,0.1,0.9,0.1,1.3v0.5c0,0.3,0.1,0.6,0.1,0.9
	l0.1,1.4c0,0.3,0.1,0.6,0.1,0.9c0,0.3,0,0.3,0,0.5l0.1,1.8c0,0.3,0,0.6,0,0.9c0,0.5,0.1,1,0.1,1.4c0,0.5,0,1,0.1,1.5
	c0.1,0.5,0,1,0.1,1.4c0.1,1.3,0.1,2.6,0,3.8c-0.3,1.3-1.1,4.9-1.5,8.8c0,0.4-0.1,0.7-0.1,1.1s0,0.4,0,0.6l-0.1,0.9
	c0,0.7-0.1,1.4-0.1,2c0,1.5,0.1,3.1,0.4,4.5c0.2,1,0.4,2,0.5,3c0,0.2,0,0.3,0,0.5c0,0.4,0.1,0.7,0.1,1.1c0,0.4,0,0.8,0.1,1.1
	c0,0.8,0.1,1.6,0.1,2.4c0,0.5,0,1.1,0,1.6c0.1,4.8-0.1,9.5-0.2,10.7v0.1c0,0.1,0,0.2,0,0.2s1,20.2,2,26.6c0.1,0.9,0.2,1.7,0.3,2.6
	c0,0.3,0,0.7,0,1c0.1,3.7-0.1,7.5-0.7,11.2c0,0-1.1,13.8-1.5,13.8c-0.2,0-1.2,2.1-1.4,5.4v0.1c-0.1,3.6,0.8,8.5,5.1,13.4l0.5,0.5
	l0.6-0.2c4.5-1.9,9-3.9,13.5-5.9c2.4-1.1,4.8-2.2,7.1-3.3c5.8-2.7,11.6-5.5,17.4-8.4l0,0c-0.3-0.2-0.5-0.5-0.6-0.8
	c-0.9-2.8,0.4-11.4,0.7-12.7s2.8-29.3,2.8-29.3s-1-8.8,0.3-12.6c1.3-3.8-1.5-18.4-1.5-18.4s-1-1.8,0.8-4c1.7-2.2,1.1-21.4,1.1-21.4
	s-0.2-9.7-0.2-12.2c0-2.5,1.9-11.7,3.5-14.8c1.7-3.1,0.6-12.6,0.6-12.6l0,0l0.1-0.7c0-0.3,0.1-0.6,0.1-1l0.1-1
	c0.7-5.3,1.7-10.5,3-15.6c2-7.5,4.3-20.9,4.3-20.9l13.5-42.5l0,0l0.4-1.3l0.2-0.5c0,0,6.6,14.4,6.6,27.7c0,0,1.7,16,1.2,20.3
	c-0.5,4.3,1.4,24.6,1.4,24.6s2,29.1,2,30.4s2.5,23.7,4,27.1c1.5,3.4-1.5,13.9-2.5,14.9c-0.9,1.1,0.3,27.5,0.3,27.5
	s-2.3,20.9-2.8,25.2c-0.1,0.8-0.2,2-0.4,3.4c15.5-8.7,30.8-17.9,45.5-27.9c0.6-0.4,1.3-0.8,1.9-1.3l0.1-25.8c0,0,1.1-12-0.2-16.9
	c-1.2-4.9-2.5-14.2-0.8-16.7c1.7-2.5,0.2-14.2,0.2-14.2s0-24.6,2.3-30.8c2.3-6.1,1.5-44.8,1.5-44.8l0.6-25.4c0,0,4.9-5.5,3.9-33.8
	c0-0.3,0-0.6,0-1c5.4-0.4,11.4-0.6,12.3,0.3c1.5,1.4,9.7,7.7,16.1,6.1l0,0c1.1-0.2,2.1-0.7,3-1.4c1.4-0.7,7.7-7,7.7-7l-2.5-48.5l0,0
	l-0.3-5.4c0.5,0.8,0.9,1.6,1.2,2.3c1,1.7,1.5,2.8,1.5,2.8c0-7.5,18.2-32,18.2-32s17-25.7,20.6-28.8c3.7-3.1,10.9-19.2,10.9-19.2
	c1.1-3.1,2.3-6.1,3.7-9C1076.1,397.4,1070.5,388.7,1071.1,386.8z M1016.9,421.3c-0.3,1.8-1,3.5-2,4.8c-0.1-1.1-0.2-2.2-0.2-3.3
	c0-0.1,0-0.2,0-0.3c-1.1-15.8-2.2-35-1.7-36.8c0.4-1.5,0.6-5.5,0.6-9.3l0,0c0.1-4.3,0-8.5,0-8.5l0,0l0.2-0.3
	c3.1,11.4,12.8,24.6,12.8,24.6s1.7,5.8,3.7,5.9c2,0.2,1.2,7.5,1.2,7.5c-0.9,0.2-1.8,0.6-2.6,1.1c-1,0.6-1.9,1.4-2.7,2.2l0,0
	C1021.6,413,1017,419.5,1016.9,421.3z"/>
<path class="st2" d="M784.3,401.6c0,0,5.6-34.6,23.7-34.8l13.2,31.9l-8.9,7.1C812.3,405.8,793.2,406.5,784.3,401.6z"/>
<path class="st3" d="M821.1,398.7l-8.9,7.1c0,0-13.5,0.5-23.1-2.3c-1.7-0.5-3.3-1.1-4.9-2c0,0,0-0.2,0.1-0.6c0,0,0-0.1,0-0.1
	c0.8-4.3,2-8.6,3.4-12.7c0.6-1.6,1.2-3.2,1.9-4.8c2.6-6,6.4-11.9,11.5-14.8c1.9-1.1,3.9-1.7,6-1.9h0.5h0.3l0.3,0.7l4.5,10.8
	L821.1,398.7z"/>
<path class="st2" d="M971.2,542.5c0,0,19-2.1,20.7-0.5c1.7,1.6,12.5,9.8,18.8,4.6s2.1-23.2,2.1-23.9c0-0.7-0.6-26.2-0.6-26.2
	l-11.4-18l-14.3-31.6l-29.2-3.4l0.8,50.2l-0.1,25.7L971.2,542.5z"/>
<path class="st3" d="M971.2,542.5c0,0,19-2.1,20.7-0.5c1.7,1.6,12.5,9.8,18.8,4.6s2.1-23.2,2.1-23.9c0-0.7-0.6-26.2-0.6-26.2
	l-11.4-18l-14.3-31.6l-29.2-3.4l0.8,50.2l-0.1,25.7L971.2,542.5z"/>
<path class="st4" d="M804.1,365.9c0,0-1.5,21.8-13.1,22.1c0,0-3.3-2.3-7.7-6.2c-10.1-8.9-26.2-26.1-21.8-42
	c6.4-22.8,37.4,19.3,37.4,19.3l2.4,3.1L804.1,365.9z"/>
<path class="st3" d="M804.1,365.9c0,0-1.5,21.8-13.1,22.1c0,0-3.3-2.3-7.7-6.2l-1-1.5c2,1.2,4.1,1.9,6.3,2c2.9,0.1,6.2-1.1,8.3-6.1
	c1.2-2.8,2.3-5.7,3.2-8.6c0.5-1.7,0.9-3.5,1.2-5.4L804.1,365.9z"/>
<path class="st5" d="M799.1,405.3l-2.6-3.9l-8.7-13.2l-4.5-6.8c2,1.2,4.1,1.9,6.3,2c2.9,0.1,6.2-1.1,8.3-6.1
	c1.2-2.8,2.3-5.7,3.2-8.6c1.4-4.8,1.4-7.3,0.9-8.1c-0.5-0.8,3.2,3.2,5,5.2l0.1,0.1l0.8,0.9l0.3,0.7l4.4,10.3c0,0,0,0.1,0,0.4
	C813,381.5,814.5,402.3,799.1,405.3z"/>
<path class="st6" d="M887.3,800.1c-0.3-0.3-0.6-0.5-0.9-0.7h-0.1c-1.8-0.9-0.2-12,0.2-13.4c0.3-1.4,2.7-29,2.7-29s-0.9-8.7,0.3-12.5
	c1.2-3.8-1.5-18.2-1.5-18.2s-0.9-1.8,0.8-3.9s1.1-21.2,1.1-21.2s-0.1-9.6-0.1-12.1c0-2.5,1.8-11.6,3.5-14.6s0.6-12.5,0.6-12.5l0,0
	l0.1-0.7c0-0.3,0.1-0.6,0.1-1l0.1-1c0-0.2,0.1-0.5,0.1-0.7c0.1-0.6,0.2-1.1,0.3-1.9c0.1-0.4,0.1-0.8,0.2-1.3
	c0.2-1.4,0.5-2.9,0.8-4.4c0.1-0.5,0.2-1,0.3-1.4s0.2-1.1,0.4-1.7c0.1-0.4,0.1-0.7,0.2-1c0.2-1,0.5-2.1,0.7-3
	c1.9-7.5,4.3-20.7,4.3-20.7l14.1-43.6l0.2-0.5l0.4,1l0,0c1.5,3.5,6.1,15.3,6.1,26.5c0,0,1.7,15.9,1.2,20.2s1.4,24.5,1.4,24.5
	s1.9,28.9,1.9,30.2c0,1.2,2.4,23.6,4,27c1.5,3.4-1.5,13.7-2.4,14.8c-0.9,1,0.3,27.3,0.3,27.3s-2.3,20.7-2.7,25
	c-0.1,1-0.3,2.7-0.5,4.8l1.2-0.6l0.2-0.1c15.5-8.7,30.8-17.9,45.5-27.9l0.1-27.4c0,0,1.1-12-0.1-16.8s-2.4-14.1-0.8-16.6
	c1.7-2.5,0.2-14.1,0.2-14.1s0-24.5,2.3-30.5c2.3-6.1,1.5-44.4,1.5-44.4l0.6-25.2c0,0,5-5.6,3.8-34.5c-0.1-3.1-0.3-6.4-0.6-10.1
	c-0.8-10.9-1.7-20.8-2.5-29.4c-0.1-0.7-0.1-1.5-0.2-2.2c-0.1-1-0.2-1.9-0.3-2.8c-0.2-1.9-0.4-3.8-0.5-5.6c-0.1-0.5-0.1-1-0.2-1.5
	c-0.3-2.5-0.5-4.9-0.7-7c-0.1-0.8-0.2-1.7-0.3-2.5c-0.1-1.1-0.2-2.3-0.3-3.3c0-0.2-0.1-0.5-0.1-0.7c0-0.5-0.1-0.9-0.1-1.3
	c-0.5-4.6-0.8-7.2-0.8-7.2H973l-15.3,0.2l-33.3,0.4h-1l-17.4,0.2H905l-8.3,0.1h-1.4l-17.4,0.2h-1.1l-7.1,34.6L855,543
	c0,0-0.2,4.3-0.7,8.5v0.2c0,0.1,0,0.3-0.1,0.4c-0.1,0.1-0.1,0.4-0.1,0.6c-0.2,1.9-0.6,3.8-1.2,5.6c-0.5,1.2-0.8,2.6-1,3.9l0,0
	c-0.2,1.4-0.3,2.9-0.2,4.3l0,0c0,0.2,0,0.2,0,0.2s-1.2,6.2-1.8,11.5c-0.1,1-0.2,2-0.3,2.9c-0.1,1.1-0.2,2.2-0.1,3.3
	c0.1,1.1,0,2.3-0.1,3.4c0,0.4-0.1,0.8-0.1,1.2c-0.5,4.2-1.4,8.9-1.4,8.9l-2.7,31.1c0,0,0,0.1,0,0.1c0,0.1,0,0.4,0,0.6
	c0,0.3,0,0.4,0,0.6c0,0.2,0,0.5-0.1,0.8c0,0.7-0.1,1.6-0.2,2.6c0,0.4,0,0.7-0.1,1.1c0,0.3,0,0.7-0.1,1.1c0,0.2,0,0.4,0,0.6
	s0,0.6,0,0.9c0,0.3,0,0.6,0,0.9c0,0.3,0,0.5,0,0.8c-0.1,1.7-0.2,3.5-0.2,5.3c0,0.3,0,0.6,0,0.9v0.9c0,0.6,0,1.1-0.1,1.7
	c0,0.4,0,0.8,0,1.1s0,1.1,0,1.6v0.5c0,0.3,0,0.7,0,1c0,0.8,0,1.5,0,2.2c0,0.3,0,0.6,0,1c0,1,0,2,0,2.9c0,0.5,0,0.9,0,1.3
	c0,1.3,0.1,2.5,0.2,3.8c0.1,0.8,0.2,1.7,0.2,2.6c0,0.4,0,0.9,0,1.3c0,0.4,0,0.9,0,1.3c0,0.4,0,0.6,0,0.9c0,0.5,0,0.9,0,1.4
	c0,0.2,0,0.4,0,0.6c0,0.2,0,0.7,0,1v0.5c-0.2,3.9-0.7,7.1-0.8,7.6l0,0l0,0c0,0,0,0.1,0,0.3c0,0.2,0,0.2,0,0.3c0,0.1,0,0.2,0,0.3
	s0,0.1,0,0.2c0,0.3,0.1,0.6,0.1,1c0,0.2,0,0.4,0,0.6l0,0c0,0.2,0,0.4,0.1,0.7c0.1,0.2,0,0.2,0,0.3c0,0.4,0.1,0.8,0.1,1.3
	c0,0.4,0.1,0.9,0.1,1.4l0.1,0.9c0,0.4,0.1,0.9,0.1,1.3v0.5c0,0.3,0.1,0.6,0.1,0.9l0.1,1.4c0,0.3,0.1,0.6,0.1,0.9v0.5l0.1,1.8
	c0,0.3,0,0.6,0,0.9c0,0.5,0.1,1,0.1,1.4c0,0.5,0,1,0.1,1.5c0.1,0.5,0,1,0.1,1.4c0.1,1.2,0.1,2.5,0,3.7c-0.6,3-1.1,6-1.5,9
	c0,0.4-0.1,0.7-0.1,1.1c0,0.4,0,0.4,0,0.6l-0.1,0.9c0,0.7-0.1,1.4-0.1,2c0,1.4,0.1,2.9,0.4,4.3c0.3,1.2,0.4,2.5,0.5,3.8
	c0.1,0.7,0.1,1.5,0.2,2.3c0,0.8,0.1,1.6,0.1,2.4c0,0.5,0,1.1,0,1.6c0.1,5.4-0.2,10.5-0.2,10.5c0,0,0,0.1,0,0.1v0.1
	c0.1,2.3,1,20.2,1.9,26.2c0.2,1.1,0.3,2.1,0.3,3.2c0,0.3,0,0.7,0,1c0.1,3.5-0.2,7-0.7,10.4c0,0-1.4,13.9-1.9,13.9
	c-0.2,0-1.4,2.5-1.4,6.2v0.1c0,3.5,1.1,7.9,5,12.5l1.1,1.3c4.5-1.9,9-3.9,13.5-5.9c2.4-1.1,4.8-2.2,7.1-3.3
	c5.8-2.7,11.6-5.5,17.4-8.4L887.3,800.1z"/>
<path class="st4" d="M967,263.8L944.5,292c0,0-28.9-13.6-25.8-18.2c1.2-1.8,1-7.5,0.3-13.7c-1.1-9.9-3.3-21.3-3.3-21.3
	s50.4-9.6,46.2,0.4c-1.5,3.6-1.3,7.9-0.3,11.9C962.7,255.6,964.6,259.9,967,263.8z"/>
<path class="st3" d="M961.8,239.1c-1.5,3.6-2.3,4-1.3,7.9c-6.6,8.3-15,17.4-25.4,17.4c-5.6,0-11.1-1.5-16.1-4.4
	c-1.1-9.9-3.3-21.3-3.3-21.3S966.1,229.1,961.8,239.1z"/>
<path class="st4" d="M971.2,220.9c0,23.5-16.2,42.5-36.1,42.5c-20,0-36.2-19-36.2-42.4c0,0,0-0.1,0-0.1c0-0.2,0-0.4,0-0.6
	c0.4-23.5,17-42.1,36.9-41.5C955.4,179.3,971.1,198,971.2,220.9L971.2,220.9z"/>
<path class="st3" d="M976.5,501.2c-4.8,0-20.7,0.2-38.6,0.5h-0.2l-5.9,0.1h-0.2c-21.1,0.4-42-4.5-50.3-3.5
	c-17.8,2,6.4-19.3,6.4-19.3c13.2,3.8,26.9,5.4,40.5,4.8l5.1-0.3c16.1-1.1,32.4-2.8,40.9-5.8C974.7,483.2,975.6,491.2,976.5,501.2z"
	/>
<path class="st7" d="M976.5,500.1c-4.8,0-20.7,0.2-38.6,0.5h-0.2l-5.9,0.1h-0.2c-21.1,0.4-42-4.5-50.3-3.5
	c-17.8,2,6.4-19.3,6.4-19.3c13.2,3.8,26.9,5.4,40.5,4.8l5.1-0.3c16.1-1.1,32.4-2.9,40.9-5.8C974.7,482.1,975.6,490.1,976.5,500.1z"
	/>
<path class="st3" d="M925.3,275.6l-28,15.3l-21.6,195.9c0,0,12.8-6.8,20.1-2.5s29.8,0.4,29.8,0.4s16.4-1.1,18.8,1.1
	c2.4,2.2,31-8.9,31-8.9s5.2-13.6,1.2-15.7s1.2-23.2,1.2-23.2l-2.4-141.4l-4.8-18.2l-13.1-9.3l-13.4,12.5l-6.4,1.1L925.3,275.6z"/>
<path class="st5" d="M925.3,273.4l-27.9,15.3l-21.6,196c0,0,12.8-6.8,20.1-2.5s29.8,0.4,29.8,0.4s16.4-1.1,18.8,1.1
	c2.4,2.1,31-8.9,31-8.9s5.2-13.6,1.2-15.7s1.2-23.2,1.2-23.2l-2.4-141.4l-4.8-18.2l-13.1-9.3l-13.4,12.5l-6.4,1.1L925.3,273.4z"/>
<path class="st3" d="M924.9,282.5c0,0,8.1,11.2,7.9,13.6c-0.2,2.3-0.5,7.8-0.5,7.8l-6,14.5c0,0-3.3,18-3.3,21.8
	c0,3.7-5.3,36.2-5.3,36.2l-6.4,50l-8.1,65.5l8.2,16.6l9.7-9.6L934,382.1l2.7-23c0,0,2.9-41.4,2.9-45.7c0-4.3-1.7-15.5-1.7-15.5
	s2-10.7,10.2-13.2s-0.6-0.5-0.6-0.5l-4.7-4.5l-4.1,2C938.8,281.6,927.3,277.5,924.9,282.5z"/>
<path class="st8" d="M924,281.4c0,0,8,11.2,7.9,13.6c-0.1,2.3-0.5,7.9-0.5,7.9l-6.1,14.5c0,0-3.3,18-3.3,21.8
	c0,3.7-5.3,36.2-5.3,36.2l-6.4,50l-8,65.5l8.2,16.6l9.7-9.6L933.1,381l2.7-23c0,0,2.9-41.4,2.9-45.7s-1.7-15.5-1.7-15.5
	s1.9-10.7,10.2-13.2c8.2-2.5-0.6-0.5-0.6-0.5l-4.7-4.5l-4.1,2C937.8,280.5,926.4,276.4,924,281.4z"/>
<path class="st3" d="M918.7,262.7c0,0-1.2,1.1-1.5,8.2s-4.6,23.2-4.6,23.2s15.8-12.9,23.7-11.4L918.7,262.7z"/>
<path class="st5" d="M918.7,260.6c0,0-1.2,1.1-1.5,8.2c-0.3,7.1-4.6,23.2-4.6,23.2s15.8-12.9,23.7-11.4L918.7,260.6z"/>
<path class="st3" d="M961.8,257l-24.9,25.7c0,0,21,14.6,23.7,18.2c2.7,3.5,5.5-35,5.5-35L961.8,257z"/>
<path class="st5" d="M962.7,254.8l-24.9,25.7c0,0,21,14.6,23.7,18.2c2.7,3.5,5.5-35,5.5-35L962.7,254.8z"/>
<path class="st3" d="M919.5,262.7c0,0-2.7-1.6-5.3,3c-2.6,4.6-7.4,6.8-7.4,6.8s-27.7,5.2-28.7,9.5l-12.9,0.9c0,0-4.6,0.6-5,12
	c-0.4,11.4-2.9,12.3-2.9,12.3s-5.3,11.1-4.8,16.8c0.5,5.7-4.1,8.6-4.1,8.6l19,57.9c0,0,0.6,23.9-2.9,32.7s-10,47.5-10,47.5
	s2.7-0.7,2.6,1.4s-3.3,25.5-3.3,25.5s-0.9,9.3-2.4,12.5c-1.5,3.2-1.7,20-1.7,20l-2.5,12.1c0,0,5.8,15.2,14.6,13
	c8.8-2.1,24.8-42.7,24.8-42.7l10.2-43.7l7.9-43.2l2.3-29.3l3.6-64.8l5.3-42.8C915.7,288.8,921.7,265.7,919.5,262.7z"/>
<path class="st2" d="M918.7,260.6c0,0-2.7-1.6-5.3,3c-2.6,4.6-7.5,6.8-7.5,6.8s-27.6,5.2-28.7,9.5l-12.9,0.9c0,0-4.6,0.7-5,12
	c-0.5,11.2-2.9,12.3-2.9,12.3s-5.3,11.1-4.8,16.8c0.5,5.7-4.1,8.6-4.1,8.6l19,58c0,0,0.6,23.9-2.9,32.7s-10,47.5-10,47.5
	s2.7-0.7,2.6,1.4c-0.2,2.1-3.3,25.5-3.3,25.5s-0.9,9.3-2.4,12.5c-1.5,3.2-1.7,20-1.7,20l-2.4,12.2c0,0,5.8,15.2,14.6,13
	s24.8-42.7,24.8-42.7l10.2-43.7l7.9-43.1l2.3-29.3l3.7-64.8l5.3-42.8C914.9,286.7,920.8,263.6,918.7,260.6z"/>
<path class="st3" d="M821.1,398.7l-8.9,7.1c0,0-13.5,0.5-23.1-2.3l-4.9-2.6l-1-0.5l1,0.4c5.1,1.8,9.1,1.7,12.2,0.5
	c12.5-4.9,11.1-29.1,10.6-34.6c0-0.5-0.1-0.9-0.1-1c0,0,0,0,0-0.1l0.1,0.1c0.2,0.3,0.4,0.6,0.6,0.9c0.2,0.2,0.4,0.5,0.6,0.7l0,0
	l4.4,10.3c0,0,0,0.1,0,0.4L821.1,398.7z"/>
<path class="st2" d="M851.7,328.9l-4.3,1.4l-0.6,10.2c0,0-5-0.9-6.4,6.1c-1.4,7-3.8,10.2-3.8,10.2s-8.4,8.2-8.8,15.2l-5.2,3.7
	c0,0-12-3.2-14.7-8.9c0,0,5.5,46-23.7,34.8c0,0,32.7,16.8,34.2,19.1s11.5,9.1,20.7,3.4c9.1-5.7,11.1-14.6,11.1-14.6
	s8.8-14.5,9.1-16.6s7.1-4.6,7.1-4.6l13.1-37.1L851.7,328.9z"/>
<path class="st3" d="M958.3,278.4l4.4-23.6c0,0,1.9,7.7,4,9.5c2,1.8,6.5,5.9,6.5,5.9s6.5,3.6,8.8,3.6c2.3,0,14.6,3.7,16.1,5.7
	s7.6,0.5,7.6,0.5s5,2,9.4,3.2c4.4,1.2,6.5,9.8,5.6,13.2c-0.7,3.4,0.1,7.1,2.1,9.6c1.8,2.1,2.7,9.1,2.7,9.1c2.2,0.9,4.1,2.7,5.2,5.2
	c1.5,3.9,1.1,12.5,1.1,12.5l-22.6,37.5c0,0,0.3,14.5-0.6,17.7s3.2,57.8,3.2,57.8l4.7,93.9c0,0-6.2,6.2-7.6,7
	c-1.4,0.7-2.7-33.2-2.7-34.4c0-1.2-35.1-61.8-35.1-61.8s-4.7-8.9-4.7-10.9s-4.4-20-4.4-20l-6.7-34.7L958.3,278.4z"/>
<path class="st2" d="M1033.7,330.8c0,1.2-0.1,2-0.1,2l-22.6,37.5l0,0c0,0,0.3,14.5-0.6,17.7c-0.5,1.9,0.6,21.1,1.7,36.8
	c0.8,11.4,1.5,21,1.5,21l2,39.8l2.7,54.1c0,0-6.2,6.2-7.6,7c-1.4,0.7-2.7-33.2-2.7-34.5c0-1.3-35.1-61.8-35.1-61.8
	s-4.7-8.9-4.7-10.9s-4.4-20-4.4-20l-6.7-34.8l3-106.4l2.6-23.6c0,0,3.8,7.7,5.8,9.5c2,1.8,6.5,5.9,6.5,5.9s6.5,3.6,8.8,3.6
	c2.3,0,14.6,3.7,16.1,5.7c1.5,1.9,7.6,0.5,7.6,0.5s5,2,9.4,3.2c4.4,1.2,6.5,9.8,5.6,13.2c-0.8,3.4,0.1,7.1,2.1,9.6
	c1.8,2.1,2.7,9.1,2.7,9.1c2.2,0.9,4.1,2.7,5.2,5.2C1033.7,323.1,1033.8,328,1033.7,330.8z"/>
<path class="st3" d="M869.6,808.6c-2.4,1.1-4.7,2.2-7.1,3.3c-7.5-2.6-14.4-5.6-14.4-5.6C855.2,806.6,862.4,807.4,869.6,808.6z"/>
<path class="st3" d="M941.5,713.3c0,0,18.1,5,19.1,8.4L941.5,713.3z"/>
<path class="st3" d="M871.7,728.7c0,0-9.4,3.2-0.3,9.6C880.5,744.8,871.7,728.7,871.7,728.7z"/>
<path class="st3" d="M913.5,557.1c1.1,0,17.6-6.4,23.4-3.6c5.8,2.9,12.9,2.8,12.9,2.8L913.5,557.1z"/>
<path class="st3" d="M915.7,577.6l-0.2,1.8l-14.2,43.5c0,0-2.3,13.2-4.3,20.7c-1.2,5.1-2.2,10.3-3,15.5l12.6-91.3L915.7,577.6z"/>
<path class="st6" d="M937.7,500.6l-5.9,0.1h-0.2l-3.4-18c1.7-0.1,3.4-0.2,5.1-0.3L937.7,500.6z"/>
<path class="st4" d="M1009.4,478.8l-3.8,3.7L993,494.7c0,0-34.2,21.4-43.6,1.1c-8.3-17.9,30.4-30.7,39.8-33.5c1.3-0.4,2-0.6,2-0.6
	L1009.4,478.8z"/>
<path class="st3" d="M863.4,303.4c0,0,6.7,3.6,8.2,8.6C873.1,317,863.4,303.4,863.4,303.4z"/>
<path class="st3" d="M842.7,356.9c0,0-9.7,13.9-5.8,19.3C840.8,381.6,842.7,356.9,842.7,356.9z"/>
<path class="st3" d="M1016.5,311.2c0,0-9.1,1.1-9.4,10.4L1016.5,311.2z"/>
<path class="st3" d="M932,457.6c1-1.1,21.9-37.5,26.7-34.3L932,457.6z"/>
<path class="st3" d="M971.2,220.9c0,7-1.5,13.9-4.3,20h-0.3c-2.3-0.6-3.5-3.7-5.2-5.7c-2.2-2.5-5.5-3-8.2-1.4
	c-2.7,1.9-4.3,5.5-4,9.2c-1.2-5.7-0.8-11.8-1.9-17.5c-1.1-5.7-4.5-11.5-9.2-11.6c-2,0-4.3,0.9-5.8-0.9c-0.9-1.1-1.1-2.7-1.7-4
	c-3.3-6.3-13.5-3.1-17.6,0.1s-8.9,8.4-14.1,11.2c0.4-23.5,17-42.1,36.9-41.5C955.4,179.3,971.1,198,971.2,220.9L971.2,220.9z"/>
<path class="st9" d="M930.6,207.9c0.7,1.3,0.8,3,1.7,4c1.4,1.8,3.8,0.9,5.8,0.9c4.7,0.1,8.1,5.9,9.2,11.6s0.8,11.8,1.9,17.5
	c-0.2-3.7,1.3-7.2,4-9.2c2.7-1.7,6-1.1,8.2,1.4c1.7,2,2.9,5.1,5.2,5.7s4.5-2,5.3-4.9c0.8-2.8,0.8-5.9,1.3-8.9
	c1-5.6,4.1-10.1,5.8-15.4c2-6.4,2-13.5-0.2-19.9c-1.1-3.4-2.8-6.4-4-9.7c-1.7-5.1-2.2-10.8-4.3-15.7c-3.6-8.1-12-12.2-18.9-9.1
	c-3.3,1.5-6.2,4.3-9.5,5.6c-4.5,1.7-9.3,0.4-13.9-0.3s-9.8-0.8-13.5,2.8c-4.3,4.1-5.5,11.9-9.5,16.4c-1.7,1.9-3.8,3.1-5.6,4.9
	c-1.8,1.8-3.3,4.4-3.1,7.2c0.3,3.7,3.4,7.1,2.2,10.5c-0.4,1-1,1.9-1.7,2.6c-3.4,4.2-5.9,9.2-7.4,14.7c8.1,3,16.9-7.5,23.3-12.5
	C917.1,204.8,927.3,201.6,930.6,207.9z"/>
<path class="st3" d="M1009.4,478.8l-3.8,3.7c-3.3-6.5-17-19.6-17-19.6l0.6-0.7c1.3-0.4,2-0.6,2-0.6L1009.4,478.8z"/>
<path class="st5" d="M1013,472.2c0,0-1.4,4-2.8,7.4c-1.4,3.4-2.9,6.6-3,4c-0.2-5-17.8-21.8-17.8-21.8l2.4-2.7l2.8-3.2L1013,472.2z"
	/>
<path class="st3" d="M1013.6,445.8l2,39.8c-4.7-8.6-17.7-30.7-26-30l20.2-27.2c0.8-1.1,1.6-2.3,2.3-3.5
	C1012.9,436.2,1013.6,445.8,1013.6,445.8z"/>
<path class="st3" d="M1013,472.2c0,0-1.4,4-2.8,7.4c-5.3-8.5-12.6-18.6-18.4-20.5l2.8-3.2L1013,472.2z"/>
<path class="st2" d="M1028.2,327.8l5.5,5c0,0,9.1,0.2,10,9.1c0.9,8.9,9.3,13,9.3,13s6.2,7.3,6.2,10.7s4.7,9.5,4.7,10
	c0,0.5,4.6,11.4,4,13.4s4.8,10.5,3.2,13.7c-1.4,2.9-2.6,5.9-3.6,8.9c0,0-7.1,16.1-10.8,19.1c-3.7,3-20.4,28.6-20.4,28.6
	s-17.9,24.3-17.9,31.8c0,0-17.5-34.3-27.8-33.4l20.2-27.3c0,0,3.5-4.5,3.6-7.1c0.2-2.7,9.7-15,14.3-15.5c0,0,0.8-7.3-1.2-7.5
	s-3.6-5.9-3.6-5.9s-13.4-18.6-13.5-30.3S1028.2,327.8,1028.2,327.8z"/>
<path class="st3" d="M1036.2,344.8c0,0-12.8,11.1-10,14.6C1029,363,1036.2,344.8,1036.2,344.8z"/>
<path class="st3" d="M1036.9,390.5c0,0,23.7-8.9,26.1,0H1036.9z"/>
<path class="st3" d="M869.7,342.7c0,0,0,40.7-3,44.7C863.7,391.4,869.7,342.7,869.7,342.7z"/>
<path class="st3" d="M1006.6,355.8l4.4,14.5C1011,370.3,1012.8,356,1006.6,355.8z"/>
<g class="st10">
	<path d="M899.3,199.8c1.1-3.3-1.8-6.6-2.2-10.2c-0.4,1-0.5,2.1-0.5,3.2c0.2,2.7,1.9,5.2,2.3,7.7C899.1,200.3,899.2,200,899.3,199.8
		z"/>
	<path d="M949.6,238.2c-1.1-5.7-0.8-11.6-1.9-17.2c-1.1-5.6-4.5-11.5-9.2-11.6c-2,0-4.3,0.9-5.8-0.9c-0.9-1.1-1.1-2.7-1.7-4
		c-3.3-6.3-13.5-3.1-17.6,0.1c-6.2,4.8-14.7,15-22.7,12.7c-0.4,1.1-0.7,2.2-1,3.3c8.1,3,16.9-7.5,23.3-12.5
		c4.1-3.2,14.3-6.4,17.6-0.1c0.7,1.3,0.8,3,1.7,4c1.4,1.8,3.8,0.9,5.8,0.9c4.7,0.1,8.1,5.9,9.2,11.6s0.8,11.8,1.9,17.5
		C949.1,240.7,949.3,239.4,949.6,238.2z"/>
	<path d="M972.5,231.5c-0.8,2.8-3,5.4-5.3,4.9c-2.3-0.6-3.5-3.7-5.2-5.7c-2.2-2.5-5.5-3-8.2-1.3c-2.6,1.8-4.1,5.1-4,8.6
		c0.6-2.2,1.9-4,3.6-5.2c2.7-1.7,6-1.1,8.2,1.4c1.7,2,2.9,5.1,5.2,5.7c2.3,0.6,4.5-2,5.3-4.9c0.4-1.7,0.7-3.4,0.8-5.1
		C972.7,230.4,972.6,231,972.5,231.5z"/>
	<path d="M979.6,207.2c-1.7,5.3-4.8,9.9-5.8,15.4c-0.2,1.1-0.3,2.3-0.4,3.4c1-5.5,4.1-10.1,5.8-15.4c0.8-2.4,1.2-4.9,1.4-7.4
		C980.3,204.6,980,205.9,979.6,207.2z"/>
</g>
<ellipse class="st11" cx="760.1" cy="336" rx="0.4" ry="0.4"/>
<path class="st8" d="M456.4,585.1c0,0,10.6-9,21.7-3.4c0,0-3.1,7.7-16.8,7.6L456.4,585.1z"/>
<path class="st8" d="M455.1,585.6c0,0-2.8,15,5.8,24.8c0,0,4.8-6.4-0.6-21.2L455.1,585.6z"/>
<path class="st8" d="M441,571.9c0,0,0.4-12.7,24.8-9.6c0,0,0.4,8.2-8,12.4C449.4,579,445.4,575.9,441,571.9z"/>
<path class="st8" d="M439.5,571.9c0,0-10.1,4.3-0.1,30.7c0,0,6.8-2.1,7.6-12.8C447.8,579.1,444.1,575.6,439.5,571.9z"/>
<path class="st8" d="M425.1,554.6c0,0-2.1-20.7,22.8-19.7c0,0,2.4,18.8-18.3,24.5L425.1,554.6z"/>
<path class="st8" d="M408,531.9c0,0,2.6-23.7,27.7-17.8c0,0,0.8,20.4-23.5,23.3L408,531.9z"/>
<path class="st8" d="M395.2,508.1c0,0,4.9-23.3,29.8-17.4c0,0-5.2,20.9-28,21.6L395.2,508.1z"/>
<path class="st8" d="M383,484.9c0,0,4.8-24.1,28.8-18c0,0-7.2,23-27.1,22L383,484.9z"/>
<path class="st8" d="M374.9,462.7c0,0,3.3-29.3,25.7-23.9c0,0-5.6,26.8-23.9,28.1L374.9,462.7z"/>
<path class="st8" d="M367.2,435.8c0,0,4.2-29.6,26.8-22.1c0,0-7.9,28.2-25.1,26.1L367.2,435.8z"/>
<path class="st8" d="M362.1,410.7c0,0,7.2-29.8,24.6-29.7c0,0-7.3,31.4-22.9,35.6L362.1,410.7z"/>
<path class="st8" d="M358.6,386.1c0,0,7.7-35.8,21.9-33.7c0,0-5.3,27.3-21.3,39.2L358.6,386.1z"/>
<path class="st8" d="M356.1,356.6c0,0,7.4-29.9,21.3-31.7c0,0-4.7,29.3-20.7,39.3L356.1,356.6z"/>
<path class="st8" d="M353.5,329.2c0,0,9.4-30,18.6-31c0,0-3.6,29.3-17.5,35.9L353.5,329.2z"/>
<path class="st8" d="M351.5,303.6c0,0,5.3-32.3,14.4-35.4c0,0-0.4,26.3-13.4,37.8L351.5,303.6z"/>
<path class="st8" d="M346.9,270.3c0,0,5.9-25.9,13.2-30.1c0,0-0.5,30.2-11.3,36.2L346.9,270.3z"/>
<path class="st8" d="M343.3,248.4l-2.8-45c0,0,15,33.4,4.1,52.9L343.3,248.4z"/>
<path class="st8" d="M331.1,204.1c0,0-11.1-32.4-13.5-34.2c0,0,20.3,20.4,19.3,48L331.1,204.1z"/>
<path class="st8" d="M424.5,554.5c0,0-17.7-1.9-16.2,27.3c0,0,16,2.3,20.4-22.1L424.5,554.5z"/>
<path class="st8" d="M407.1,531.1c0,0-20.4,0.8-17.7,30.7c0,0,17.2,2.8,21.9-25.2L407.1,531.1z"/>
<path class="st8" d="M395,510.1c0,0-18.8-9.4-29.8,17.4c0,0,17.3,7.7,31.5-13.3L395,510.1z"/>
<path class="st8" d="M382.6,485.1c0,0-19.3-10-29.5,16.2c0,0,20,7.1,31.2-12.2L382.6,485.1z"/>
<path class="st8" d="M375.2,463.3c0,0-18.9-19.6-32.7,1.7c0,0,19.2,16,33.7,2.8L375.2,463.3z"/>
<path class="st8" d="M368.2,435.1c0,0-19-20.1-32.7,2.4c0,0,21.1,16.2,33.5,1.9L368.2,435.1z"/>
<path class="st8" d="M363.9,409.7c0,0-15-25.5-31.4-18.9c0,0,15.5,27,31.4,25L363.9,409.7z"/>
<path class="st8" d="M359,385.9c0,0-15.3-32.2-28.6-25.9c0,0,11.1,24.8,29.1,31.4L359,385.9z"/>
<path class="st8" d="M357,354.9c0,0-15.5-25.2-29-21.4c0,0,12.8,25.7,30.7,28.9L357,354.9z"/>
<path class="st8" d="M355,328.5c0,0-12.3-28.5-21.5-28.4c0,0,6.4,28.6,20.9,33.3L355,328.5z"/>
<path class="st8" d="M351.9,303c0,0-13.5-28.8-23-28.5c0,0,7.3,24.9,22.7,31.1L351.9,303z"/>
<path class="st8" d="M349,272c0,0-10.2-23.9-18.1-26.3c0,0,5.7,29.4,17.3,32.8L349,272z"/>
<path class="st8" d="M342.2,247.6l-22.3-36.7c0,0,6.6,36.9,25.6,43.8L342.2,247.6z"/>
<path class="st8" d="M326.4,207.4c0,0-25.1-18.7-26.1-21.9c0,0,13.4,27.2,36.6,31.1L326.4,207.4z"/>
<path class="st8" d="M324.7,198.5c0,0-29.1-30.5-36.3-30.1c0,0,23.2,0.2,36.9,28.4L324.7,198.5z"/>
<path class="st12" d="M348.9,276.7l-1,0.2c-6.9-48.3-15.5-76.7-24.3-79.8l0.3-1.1C333.2,199.3,341.9,227.2,348.9,276.7z"/>
<path class="st12" d="M360.4,392.4l-1.5,0.2c-0.5-4.5-0.9-9.2-1.2-13.8c-2.8-40.1-6.3-76.9-10.2-104.4l0.9-1.3
	c3.9,27.6,8.1,65.5,10.9,105.6C359.6,383.4,360,388,360.4,392.4z"/>
<path class="st12" d="M486,606.9c-0.3-0.1-28-13.2-57.3-46c-17.2-19.2-31.7-41.5-43-66c-14.1-30.7-23.3-68.7-27.2-105.9l1.6,0.8
	c8.7,83.5,43,139.3,69.9,169.2c29.1,32.5,56.5,45.4,56.7,45.6L486,606.9z"/>
<g class="st13">
	<path class="st8" d="M505.2,569.9c0,0,12.4-4.8,21.5,4.3c0,0-4.9,6.3-18,1.4L505.2,569.9z"/>
	<path class="st8" d="M503.8,569.9c0,0-6.5,13.4-0.7,25.7c0,0,6.2-4.4,4.7-20.4L503.8,569.9z"/>
	<path class="st8" d="M493.8,551.9c0,0,3.6-12,26.1-0.5c0,0-1.7,7.9-10.8,9.1C500,561.7,497,557.3,493.8,551.9z"/>
	<path class="st8" d="M492.4,551.5c0,0-10.8,0.6-7.9,29.3c0,0,6.9,0.4,10.5-9.6C498.5,561.3,495.9,556.5,492.4,551.5z"/>
	<path class="st8" d="M483.1,529.9c0,0,3.3-20.5,26.8-10.9c0,0-2.5,18.7-23.7,17L483.1,529.9z"/>
	<path class="st8" d="M472.5,502.1c0,0,8.5-21.7,30.9-7.3c0,0-4.4,19.7-28.3,14L472.5,502.1z"/>
	<path class="st8" d="M466.3,475c0,0,10.6-20.5,32.9-6.3c0,0-10.2,18.2-32.2,10.9L466.3,475z"/>
	<path class="st8" d="M460.6,448.6c0,0,10.7-21.3,32-7.1c0,0-12.7,19.4-31.4,11.5L460.6,448.6z"/>
	<path class="st8" d="M458.5,424.6c0,0,10.6-26.8,30.6-13.8c0,0-12.1,23.6-30,18.4L458.5,424.6z"/>
	<path class="st8" d="M457.8,396.1c0,0,11.5-26.8,31.2-11.7c0,0-14.7,24.1-30.6,16.1L457.8,396.1z"/>
	<path class="st8" d="M459.4,370.4c0,0,14.4-25.9,31-19.8c0,0-15,27.4-30.9,26L459.4,370.4z"/>
	<path class="st8" d="M462.2,345.7c0,0,16.4-31.5,29.5-24.5c0,0-12,24.2-30.2,30L462.2,345.7z"/>
	<path class="st8" d="M467.3,316.6c0,0,14.6-25.9,28.3-22.8c0,0-11.9,26.3-29.7,30.3L467.3,316.6z"/>
	<path class="st8" d="M471.8,289.6c0,0,16.6-25.3,25.6-23.1c0,0-10.8,26.7-25.8,28.1L471.8,289.6z"/>
	<path class="st8" d="M476.3,264.5c0,0,13.3-29,22.8-28.8c0,0-7,25-22.4,31.4L476.3,264.5z"/>
	<path class="st8" d="M480.5,231.1c0,0,12.2-22.6,20.2-24.1c0,0-8.1,28.6-19.9,30.7L480.5,231.1z"/>
	<path class="st8" d="M482.6,208.9l8.7-43.9c0,0,5.9,37.1-9.5,51.9L482.6,208.9z"/>
	<path class="st8" d="M482.1,162.4c0,0-2.4-34.8-4.3-37.4c0,0,14.2,26.6,6.3,52.6L482.1,162.4z"/>
	<path class="st8" d="M482.5,529.5c0,0-16.4-8-22.4,20.4c0,0,14.7,7.8,25.1-14L482.5,529.5z"/>
	<path class="st8" d="M471.8,501.1c0,0-19.6-6.3-24.7,23.1c0,0,15.7,8.7,27.3-16.4L471.8,501.1z"/>
	<path class="st8" d="M465.7,476.8c0,0-15.6-15.5-32.9,6.3c0,0,14.6,13.4,33.5-1.7L465.7,476.8z"/>
	<path class="st8" d="M460.1,448.7c0,0-15.9-16.3-32.3,5.2c0,0,17.3,13.7,32.9-0.7L460.1,448.7z"/>
	<path class="st8" d="M458.5,425.2c0,0-13.1-25.3-31.7-9.8c0,0,14.2,22,31.5,14.5L458.5,425.2z"/>
	<path class="st8" d="M459,395.8c0,0-13.1-25.8-31.9-9.1c0,0,16.1,22.9,31.5,13.5L459,395.8z"/>
	<path class="st8" d="M461.3,370.1c0,0-7.8-29.5-25.2-29c0,0,8,31.2,23.7,34.9L461.3,370.1z"/>
	<path class="st8" d="M462.7,345.6c0,0-6.4-36.1-20.7-34.7c0,0,4.3,27.6,19.8,40.2L462.7,345.6z"/>
	<path class="st8" d="M468.6,315.3c0,0-8.4-29.5-22.3-30.7c0,0,5.7,29,22,38.3L468.6,315.3z"/>
	<path class="st8" d="M473.4,289.5c0,0-4.5-31.5-13.3-34.6c0,0-1.1,29.5,11.5,39.1L473.4,289.5z"/>
	<path class="st8" d="M477,264c0,0-5.6-32.3-14.8-35.2c0,0,0.6,26.3,13.8,37.6L477,264z"/>
	<path class="st8" d="M482,233.4c0,0-3.7-26.4-10.6-31.5c0,0-2,30.1,8.2,37.4L482,233.4z"/>
	<path class="st8" d="M481.7,207.8l-12-42.9c0,0-3,37.6,13.3,50.7L481.7,207.8z"/>
	<path class="st8" d="M476.8,163.8c0,0-19.2-26.7-19.3-30c0,0,5.9,30.7,27.1,42.5L476.8,163.8z"/>
	<path class="st8" d="M477.4,154.8c0,0-20.1-39.3-27.1-41.4c0,0,22.1,8.3,28,40L477.4,154.8z"/>
	<path class="st12" d="M480.7,237.9l-1-0.2c5.7-48.5,4.6-78.6-3-84.7l0.6-1C485.3,158.5,486.5,188.2,480.7,237.9z"/>
	<path class="st12" d="M462.4,352.4l-1.5-0.3c0.7-4.5,1.5-9.1,2.3-13.6c7.5-39.3,13.5-75.6,16.7-103.3l1.1-1
		c-3.2,27.7-8.9,65.3-16.4,104.6C463.9,343.4,463.1,348,462.4,352.4z"/>
	<path class="st12" d="M528,601.1c-0.2-0.2-23.4-22.4-43.1-63.9c-11.6-24.3-19.8-50.7-24.3-78c-5.7-34.2-4.8-73.8,0.9-110.6l1.4,1.4
		c-12.8,82.7,5.8,148,23.8,186c19.5,41.2,42.4,63.1,42.6,63.3L528,601.1z"/>
</g>
<linearGradient id="SVGID_2_" gradientUnits="userSpaceOnUse" x1="209.1857" y1="68.6678" x2="209.1857" y2="515.886" gradientTransform="matrix(1 0 0 -1 -25.44 785.76)">
	<stop  offset="0" style="stop-color:#808080;stop-opacity:0.25"/>
	<stop  offset="0.54" style="stop-color:#808080;stop-opacity:0.12"/>
	<stop  offset="1" style="stop-color:#808080;stop-opacity:0.1"/>
</linearGradient>
<path class="st14" d="M297.1,496.5c-2.3,1.1-4.6,1.9-7,2.5c-4.2,0.9-8.5,1.4-12.8,1.4c0.1,1.3,0.2,2.6,0.3,3.7
	c0.2,3.1,0.4,5.2,0.4,5.2l-4.5-0.4l-37.4-3l-21.9-3.8c1.1,1.7,2.2,3.2,3.4,4.7c1.3,1.6,2.7,2.9,4.4,4c0,0,19.7,18.8,23.1,18.9
	c0.5,0,0.6,0.6,0.6,1.5c8.3,0,34.1,1.4,27,18.3c-1.2,3-3.3,5.4-5.9,6.7c-8.3,4.1-20.8-3.3-27.2-7.8c-0.6,1.4-1.2,2.8-1.8,3.9
	c-1.1,2.4-1.9,4-1.9,4l-0.6-0.5L202.1,528l-7.3-7.2c-2.1-0.1-4.2-0.5-6.3-1.3l0,0l-1-0.4c0,0.1-0.1,0.2-0.1,0.3
	c-0.3,0.9-0.5,1.8-0.6,2.7c0,0.1,0,0.3,0,0.4c-0.1,1.1-0.2,2.1-0.3,3.2c0,0.7,0,1.5,0,2.3c-0.1,15.5,5.2,40.3,5.2,40.3
	s13.7,41,8.8,50.4l0,0c-0.3,0.5-0.6,0.9-1,1.2c-1.7,1.5-2.7,4-3.3,7.1c-1.8,10,1.4,25.4,1.4,25.4s-0.3,0.6-0.8,1.5
	c-1.1,2-2.3,3.9-3.6,5.7c-0.2,0.3-0.4,0.6-0.6,0.8c-0.6,0.7-1.2,1.4-1.9,2c0.1,0.4,0.3,0.9,0.4,1.4c0.1,0.5,0.3,1.2,0.4,1.9
	c1.1,5.6,0.7,11.4-1.2,16.7c-1.3,3.9-2.1,7.9-2.4,12l0,0c-0.6,7.5-0.5,15.1,0.5,22.6c-0.1-0.1-0.3-0.2-0.4-0.3
	c-10.7-6.6-21.2-13.4-31.6-20.6c-3-2.1-6.1-4.2-9.1-6.3c-3.7-2.6-7.4-5.3-11-7.9c-4.8-3.5-9.7-7.2-14.5-10.9l-2.3-1.8l-0.9-0.7
	c-1.2-1-2.4-1.9-3.7-2.9c-5-7.6-9.6-15.5-13.7-23.8c-0.7-1.4-1.3-2.8-1.8-4.1v-0.1l-0.3-0.8l-1.4-0.6l0,0c-2.6-1.1-4.2-1.8-4.2-1.8
	l0,0l0,0c1.2-5.1,1.7-10.3,1.7-15.6c-0.1-10.2-2.5-23.8-12.4-34.8c-14.6-16.3-16.7-32.3-16.9-38.5c0-0.4,0-0.8,0-1.1
	c0-0.5,0-1,0.1-1.6l1.1-1.3c-2.8-0.7-5.5-1-5.5-1s9.7-41.3,26.1-55.1c8.1-6.8,14.9-18.2,19.6-27.9c8.7-17.6,18.5-34.4,29.3-50.4
	l2.9-4.4l0.9-1.3l0.2-0.3l0.2-0.4c-0.4-0.7-0.8-1.4-1.2-2.1l-0.3-0.5c-1.3-2.3-2.4-4.5-2.2-7.3c0,0,0-0.1,0-0.1c0-0.2,0-0.4,0-0.6
	c0-0.5,0.1-0.9,0.2-1.3c0,0.1,0.1,0.1,0.1,0.2c1.4-4.7,6.7-6.8,10.6-9.4c9.2-6.1,13.2-19.5,15.2-31.9c1.5-9.7,2.8-20.5,9.2-26.7
	c4.1-4,9.7-5.3,13.8-9.3c2.4-2.5,4.4-5.5,5.9-8.9c1-1.9,1.8-3.9,2.7-5.9c4.1-8.7,9.5-16.9,16.7-22.1c7.2-5.2,16.2-7.3,24.1-3.7
	c3,1.4,5.8,3.4,8.7,4.9c1.8,0.9,3.6,1.5,5.5,2c5.9,1.6,12.1,2,17.7,4.9c9,4.7,14.9,15.1,20.2,25c2.8,5.1,7.1,12.6,9.6,20.1
	c0-0.3,0-0.5,0-0.8c1.2,3.3,1.8,6.9,1.9,10.4c0,1.5-0.1,3.1-0.4,4.5c-0.9,3.9-3.2,6.3-6,8.1l-0.5,0.3c-0.6,0.4-1.2,0.7-1.9,1
	c-0.1,0.6-0.2,1.3-0.3,1.9c0,0.3-0.1,0.5-0.2,0.8c-0.1,0.6-0.3,1.3-0.4,1.9c-2.1,8.1-6.1,15.3-11.6,20.8c-3.8,3.8-8.2,6.8-13,8.6
	c-0.3,0.1-0.7,0.2-1,0.4c-0.3,1-0.7,1.8-1.2,2.6c-0.4,0.6-0.8,1.1-1.3,1.5c-0.3,0.2-0.6,0.5-1,0.7c-0.1,0.1-0.2,0.1-0.3,0.1
	c-3.5,1.8-8.2,0.4-11.6-2.4c-0.2-0.1-0.3-0.3-0.5-0.4c0,0.6-0.1,1.3-0.2,2c-0.1,0.7-0.2,1.1-0.3,1.7s-0.1,0.9-0.2,1.3
	c-0.1,0.4-0.1,0.7-0.2,1l-0.1,0.6c-1.9,11-5.6,21.4-10.8,30.8c-0.8,1.3-1.6,2.6-2.4,3.9l-2.4,4.3v0.6c0.5,9.9-2.3,19.1-6.2,27
	c-1.3,2.6-2.7,5.2-4.3,7.6l0.5,0.4c5.4,3.6,16.1,10.1,22.8,9.5c0,0,25.5,3.9,28.5,1.9c0.4-0.3,0.8,0.1,1.2,0.9
	c4.1-3,13.6-9.2,21.1-10c5.2-0.6,9.5,1.5,10.3,9.1C306.4,488.8,302.5,493.7,297.1,496.5z"/>
<path class="st15" d="M157.4,652.6c3.3,6.6,3.8,14.7,1.4,21.8c-2.3,6.9-2.6,15.5-2.4,21.9c-3-2.1-6.1-4.2-9.1-6.3
	c-3.7-2.6-7.4-5.3-11-7.9c-4.8-3.5-9.7-7.2-14.5-10.9l-2.3-1.8l-0.9-0.7c-0.1-0.2-0.2-0.3-0.3-0.5c-1.3-1.6-8.8-14.3-13.3-24
	c-0.8-1.8-1.5-3.4-2.1-4.9v-0.1c-1-2.5-1.4-4.5-1.1-5.5c0.7-2.9,2.4-5.4,4.7-6.8c5.6-3.4,14.5-0.3,23.3,4.7
	c7.6,4.5,14.9,9.7,21.8,15.6l0.8,0.7l0.1,0.1c2.9,2.4,4.6,4,4.6,4S157.2,652.3,157.4,652.6z"/>
<path class="st16" d="M155.9,651.1c3.3,6.6,3.8,14.7,1.4,21.9c-2.3,6.9-2.6,15.5-2.4,21.9c-3-2.1-6.1-4.2-9.1-6.3
	c-3.7-2.6-7.4-5.3-11-7.9c-4.8-3.6-9.7-7.2-14.4-10.9l-2.3-1.8l-0.9-0.7c-0.1-0.2-0.2-0.3-0.3-0.5c-1.3-1.6-8.8-14.3-13.3-24
	c-0.8-1.8-1.5-3.4-2.1-4.9v-0.1c-1-2.5-1.4-4.5-1.1-5.5c0.7-2.9,2.4-5.4,4.7-6.8c5.6-3.4,14.5-0.3,23.3,4.7
	c7.6,4.5,14.9,9.7,21.8,15.6l0.8,0.7l0.1,0.1c2.9,2.4,4.6,4,4.6,4S155.8,650.7,155.9,651.1z"/>
<path class="st15" d="M191.5,678.6c-0.3,1.9-0.7,3.8-1.4,5.7c-1.1,3.3-1.8,6.7-2.2,10.2l0,0c-0.8,7.4-0.7,14.9,0.1,22.3
	c-10.7-6.6-21.2-13.4-31.6-20.6c-3-2.1-6.1-4.2-9.1-6.3c-0.7-6-1.6-11.4-2.7-12.7c-1.4-1.8-9.6-15.5-14.7-26.3
	c-0.7-1.4-1.2-2.7-1.8-3.9V647c-0.2-0.5-0.4-1-0.6-1.5c-1.3-3.3-2-5.9-1.7-7.1c0.7-2.7,2.1-5.1,4-6.7c8.6-7.4,26.4,2.6,40.1,12.5
	l0.3,0.2c2.6,1.9,5,3.8,7.2,5.5l1.3,1c5.7,4.5,9.4,8.1,9.4,8.1c0.9,1.7,1.7,3.5,2.2,5.4c0.3,1.1,0.6,2.2,0.8,3.3
	C192,671.3,192.1,675,191.5,678.6z"/>
<path class="st3" d="M105.1,644.2c7,2.9,17.4,6.7,23,6.8c0.6,0,1.2,0,1.7-0.1l0,0c4-0.6,16.2,0.4,27.5,1.6c4.5,0.5,8.8,1,12.4,1.4
	l9,1.1V651c-2.5-2-5.4-4.3-8.5-6.5c-13.7-10-31.8-20.2-40.4-12.7c-12.2-6.9-24.5-10.2-28,2.1C101.4,635.4,102.9,639.4,105.1,644.2z"
	/>
<path class="st17" d="M71.4,549.1c0.2,6.1,2.1,22,16.1,38c17.8,20.4,10.2,49.8,10.2,49.8s21.3,9.8,30.4,10.1c0.6,0,1.2,0,1.7-0.1
	c5.5-0.9,27.4,1.5,39.9,3l9,1.1v-86.9L80.3,536l-8.9,10.4C71.4,547.4,71.3,548.2,71.4,549.1z"/>
<path class="st18" d="M106.4,634.2"/>
<g class="st10">
	<path d="M177.2,649.9l1.6,0.2v0.9l-9-1.1c-9-1.1-22.8-2.6-31.9-3C144.2,646.2,165.1,648.5,177.2,649.9z"/>
	<path d="M71.4,546.5l8.9-10.4l6,1.7l-7.4,8.8c0,0.9,0,1.7,0,2.6c0.2,6.1,2.1,22,16.1,38c17.8,20.4,10.2,49.8,10.2,49.8
		s17.6,8.1,27.7,9.8c-1,0-1.9,0.1-2.9,0.2c-0.6,0.1-1.2,0.1-1.7,0.1c-9.2-0.3-30.4-10.1-30.4-10.1s7.6-29.4-10.2-49.8
		c-14.1-16.1-16-31.9-16.2-38C71.3,548.3,71.4,547.4,71.4,546.5z"/>
</g>
<path class="st15" d="M268.3,487.7c0,0,29.8-24.3,32-2.4c2.2,21.8-32,18.8-32,18.8V487.7z"/>
<path class="st19" d="M216.9,471.6c0,0,16.1,12.5,25,11.8c0,0,24.4,3.8,27.2,1.9c2.8-1.9,4.6,27.7,4.6,27.7l-40-3.3l-25.7-4.6
	c0,0-12.8-9.2-12.8-17.1C195.2,480.1,216.9,471.6,216.9,471.6z"/>
<path class="st8" d="M216.9,471.6c0,0,16.1,12.5,25,11.8c0,0,24.4,3.8,27.2,1.9c2.8-1.9,4.6,27.7,4.6,27.7l-40-3.3l-25.7-4.6
	c0,0-12.8-9.2-12.8-17.1C195.2,480.1,216.9,471.6,216.9,471.6z"/>
<path class="st15" d="M240.5,534.8c0,0,36.2-1.8,28.1,18.1c-8.1,19.8-35.6-4.2-35.6-4.2L240.5,534.8z"/>
<path class="st17" d="M204.1,492.6c0,0,29.4-25.8,25.2-57.2s-25.2,24-25.2,24V492.6z"/>
<path class="st15" d="M212.2,350.1c0,11.3,3.7,22.2,10.4,30.3c3.6,4.4,8,7.8,12.8,10.1c1.5,0.8,3.1,1.4,4.8,1.9
	c1.7,0.5,3.5,0.9,5.3,1.1c1.3,0.1,2.6,0.2,3.9,0.2c4.2,0,8.3-0.9,12.2-2.5c19.4-7.9,29.6-32.7,22.9-55.5
	c-6.7-22.7-27.9-34.8-47.2-26.9C222.2,315,212.2,331.5,212.2,350.1z"/>
<path class="st3" d="M71.4,549.1c3.3,0.7,7.4,2,7.4,4.1c0,3.4,46.4,21.8,46.4,21.8s-1.7,4.8,2.9,12.9c4.6,8.2,42.4,55.2,42.4,55.2
	l-0.1,1.4l-0.5,5.4l-2.3,25.9c0,0,14.5-6.1,19.1-5.4c1.5,0.2,3.1-0.9,4.6-2.5c-0.6-3.1-1.6-6-3-8.7c0,0-3.8-3.5-9.4-8.1v-86.9
	L80.3,536l-8.9,10.4C71.4,547.4,71.3,548.2,71.4,549.1z"/>
<path class="st8" d="M67.2,544.3c0,0,11.6,1.4,11.6,4.8c0,3.4,46.4,21.8,46.4,21.8s-1.7,4.8,2.9,12.9c4.6,8.2,42.4,55.2,42.4,55.2
	l-2.9,32.7c0,0,14.5-6.1,19.1-5.4c2.1,0.3,4.4-2,6.3-4.5c1.6-2.2,3-4.5,4.2-7c0,0-5.2-25.9,1.7-32c7-6.1-7.5-51.1-7.5-51.1
	s-6.6-32-4.6-45.7c0.1-0.9,0.3-1.8,0.6-2.7c0-0.1,0-0.2,0.1-0.3c4.1-13.1,48.6-123,48.6-123c0-3.1-0.2-6.2-0.6-9.3
	c-0.1-0.9-0.2-1.8-0.3-2.7c-0.2-1.6-0.5-3.3-0.9-4.8c-0.3-1-0.5-2-0.8-3c-1.4-4.2-3.5-7.3-6.6-7.4c0,0-3.5-4.5-11.6-5.7
	c-6-0.9-14.5,0-26.1,5.7c-27.2,13.6-33.6,14.3-33.6,14.3L141.7,408l-2.8,4.3c-10.3,15.8-19.6,32.5-27.9,49.8
	c-4.6,9.6-11,20.9-18.8,27.6C76.5,503.4,67.2,544.3,67.2,544.3z"/>
<path class="st3" d="M168.8,465.5c0,0-38.7,11.2-53.7,39.6L168.8,465.5z"/>
<path class="st3" d="M156.9,515.3c0,0-7.3,57.7-5.3,62.1S156.9,515.3,156.9,515.3z"/>
<path class="st3" d="M159.5,545c2.8,4.3,14.3,37.8,14.3,37.8l-3.3,56.2l-2.9,32.7c0,0,14.5-6.1,19.1-5.4c2.1,0.3,4.4-1.9,6.3-4.5
	c-3-19.2-9.5-59.2-10.6-60c-1.5-1-9.4-33.2-9.8-42.2c-0.4-8.9-11.3-29.1-11.3-29.1S156.7,540.6,159.5,545z"/>
<path class="st3" d="M170.4,489.8c0.7,2.6,1.8,17.4,1.8,17.4c0.8,13.1,9.2,17.3,14.4,18.7c0.1-0.9,0.3-1.8,0.6-2.7
	c3.5-11.6,48.7-123.3,48.7-123.3c0-5.7-0.7-11.3-1.8-16.8c-9.8-3.4-25.4,1.8-25.4,1.8c-4.5-0.7-19.2,33.6-19.2,33.6
	s-9.8,26.3-10.9,29.9c-1.1,3.6,0,9.5-0.4,11.5c-0.4,2-5,3.8-5.7,6.6c-0.6,2.8-0.2,8.4-0.7,9.4C171.5,477,169.7,487.2,170.4,489.8z"
	/>
<path class="st8" d="M173.9,487.7c0.7,2.6,1.8,17.4,1.8,17.4c0.7,10.9,6.6,15.7,11.6,17.7c2.2,0.9,4.6,1.5,7,1.6l7,7.1l32.3,28
	c0,0,12-26.1,8.8-26.3c-3.3-0.2-22.1-18.7-22.1-18.7c-5.8-3.6-11.5-15.7-14.2-21.9c0.2-0.7,0.3-1.5,0.3-2.3
	c1.2-11.6,25.5-55.9,25.5-55.9s9.4-13,13.1-37.1c0.1-0.5,0.2-1.1,0.3-1.7c0.1-0.8,0.2-1.5,0.2-2.3c0.4-9.3-5.3-12.6-12.1-13.5l0,0
	c-3.5-0.3-7.1-0.2-10.6,0.4c-3.5,0.5-7,1.3-10.4,2.4c-2.9-0.4-10.1,13.8-14.8,23.9l0,0c-2.5,5.5-4.4,9.8-4.4,9.8
	s-9.8,26.3-10.9,29.9c-1.1,3.6,0,9.5-0.4,11.5c-0.4,2.1-5,3.8-5.7,6.6c-0.6,2.8-0.2,8.4-0.7,9.4C174.9,475,173.2,485.2,173.9,487.7z
	"/>
<path class="st3" d="M136.5,428.8c6.1,7.4,16.1,7.4,24.1,3.7c8-3.8,14.8-10.6,22.2-15.9c4.8-3.4,9.9-6.3,14.6-9.8l0,0
	c0.7-0.5,1.4-1.1,2-1.6c5.5-4.5,10.2-10.4,15.8-14.5c3.8-2.9,8.2-4.6,12.7-4.8c2.1,0,4.2,0.5,6.1,1.5c0.3,0.2,0.7,0.4,1,0.6
	c1.9,1.3,3.6,2.8,5.1,4.5c1.6,1.7,3.1,3.5,4.8,5.1c0.1-0.5,0.2-1.1,0.3-1.7c0.1-0.8,0.2-1.5,0.2-2.3c1.3,0.1,2.6,0.2,3.9,0.2
	c4.2,0,8.3-0.9,12.2-2.5c0-0.2,0.1-0.4,0.1-0.6c1.4-8.6,3.9-17.7,9.8-22.5c3.4-2.8,8.9-3.9,13.6-6.1c5.7-23.1-5.7-47.3-25.4-53.9
	c-19.7-6.6-40.2,6.7-45.9,29.9c-2.3,9.5-1.8,19.7,1.4,28.8c-6-0.9-14.5,0-26.1,5.7c-27.2,13.6-33.6,14.3-33.6,14.3L141.7,408
	c1.5,2.7,3.2,5.3,3.3,8.4C145.3,422.1,140.6,426.1,136.5,428.8z"/>
<path class="st20" d="M271.4,364.1c-5.9,4.8-8.4,13.9-9.8,22.5c-0.4,2.7-0.9,5.5-2.2,7.6c-3.1,4.8-9.4,3.4-13.5,0
	c-4.1-3.4-7.3-8.6-11.8-11c-6-3.2-13.2-0.9-18.8,3.3c-5.7,4.2-10.4,10-15.9,14.5c-5.3,4.4-11.2,7.5-16.7,11.4
	c-7.4,5.3-14.2,12.1-22.2,15.9c-8,3.7-18,3.7-24.1-3.7c4.1-2.7,8.8-6.6,8.5-12.4s-6-10-5.6-15.9c0.4-5.9,6.3-8.2,10.5-11.1
	c8.8-6,12.6-19.3,14.5-31.6c1.5-9.6,2.7-20.3,8.8-26.4c3.9-4,9.2-5.3,13.2-9.2c3.7-3.7,5.8-9.4,8.2-14.6c3.9-8.7,9.1-16.7,15.9-21.9
	s15.5-7.2,23-3.7c2.9,1.3,5.5,3.4,8.3,4.8c7.1,3.6,15.1,3.1,22.1,6.9c8.6,4.7,14.2,14.9,19.3,24.7c4.4,8.3,12.9,23.1,10.5,33.9
	C291.3,359.5,277.8,358.9,271.4,364.1z"/>
<g class="st10">
	<path d="M139.4,395.8c0-0.4,0.1-0.9,0.2-1.3c1.6,2.9,3.5,5.7,3.7,9.1c0,0.8,0,1.6-0.2,2.3C141.3,402.6,139.1,399.5,139.4,395.8z"/>
	<path d="M158.8,419.5c8-3.8,14.8-10.6,22.2-15.9c5.5-3.9,11.4-7.1,16.7-11.4c5.5-4.5,10.2-10.4,15.9-14.5
		c5.7-4.2,12.8-6.5,18.8-3.3c4.6,2.4,7.7,7.5,11.8,11c4.1,3.5,10.4,4.8,13.5,0.1c1.4-2.1,1.8-4.9,2.2-7.6c1.4-8.6,3.9-17.7,9.8-22.5
		c6.4-5.2,19.9-4.7,22.4-15.7c0.4-2,0.5-4,0.3-6c1.6,4.9,2.4,9.9,1.4,14.2c-2.5,11.1-16,10.5-22.4,15.7c-5.9,4.8-8.4,13.9-9.8,22.5
		c-0.4,2.7-0.8,5.5-2.2,7.6c-3.1,4.8-9.4,3.4-13.5-0.1s-7.3-8.6-11.8-11c-6-3.2-13.2-0.9-18.8,3.3c-5.7,4.2-10.4,10-15.9,14.5
		c-5.3,4.4-11.2,7.5-16.7,11.4c-7.4,5.3-14.2,12.1-22.2,15.9c-8,3.7-18,3.7-24.1-3.7c1.6-1,3.1-2.2,4.5-3.5
		C146.5,423,153.2,422.2,158.8,419.5z"/>
</g>
<path class="st21" d="M788.1,308.1l-39.6-46.8c-8.1-9.8-21.4-9.9-29.7-0.4c0,0-0.1,0.1-0.1,0.2L469.8,550.9L364.7,426.3
	c-8.1-9.7-21.4-9.8-29.7-0.2l-40,46.5c-8.2,9.7-8.3,25.3-0.2,35.1l159.7,189.2c8.2,9.7,21.5,9.8,29.9,0.2l303.5-353.9
	c8.3-9.5,8.5-25.2,0.3-35C788.2,308.2,788.2,308.1,788.1,308.1z"/>
<g class="st22">
	<path class="st8" d="M728.4,683.4c0,0-29.5-2.1-26.1,22.2c-0.4,2.5,0.7,5,2.6,6.2c0,0,0-1.8,3-1.2c1.1,0.2,2.1,0.3,3.2,0.2
		c1.4-0.1,2.8-0.8,3.9-1.9l0,0c0,0,8.3-4,11.5-20c0,0,2.4-3.5,2.3-4.4l-5,2.5c0,0,1.7,4.2,0.4,7.7c0,0-0.2-7.6-1.1-7.4
		c-0.2,0-2.6,1.5-2.6,1.5s2.9,7.4,0.7,12.7c0,0,0.8-9.1-1.6-12.2l-3.5,2.4c0,0,3.4,7.6,1.1,13.8c0,0,0.6-9.5-1.8-13.2l-3.2,2.9
		c0,0,3.2,7.5,1.3,12.6c0,0-0.3-11.1-1.9-11.9c0,0-2.8,2.9-3.2,4.1c0,0,2.2,5.4,0.8,8.3c0,0-0.8-7.4-1.5-7.4c0,0-2.8,4.9-3.1,8.2
		c0.1-3.1,1-6.1,2.4-8.7c-1.6,0.4-3.1,1.3-4.2,2.6c0,0,0.4-3.4,4.9-3.8c0,0,2.3-3.7,2.9-3.9c0,0-4.5-0.4-7.2,1c0,0,2.4-3.3,8-1.8
		l3.1-3c0,0-5.9-1-8.4,0.1c0,0,2.9-2.9,9.2-0.8l3.4-2.4c0,0-5-1.3-8-0.8c0,0,3.2-2,9,0.2l2.4-1.3c0,0-3.7-0.9-4.8-1
		s-1.1-0.5-1.1-0.5c2.3-0.5,4.7-0.1,6.9,0.9C723.3,686.1,728.5,683.8,728.4,683.4z"/>
</g>
<g class="st22">
	<path class="st8" d="M675.4,513.5c0,0-15,30,5,37.4c1.8,1.5,4.1,1.6,5.9,0.1c0,0-1.3-0.9,0.5-3.7c0.6-1,1.2-2.1,1.6-3.3
		c0.6-1.6,0.7-3.3,0.3-5l0,0c0,0,0.7-10.5-9.9-21.2c0,0-1.6-4.1-2.3-4.4l-0.4,6.4c0,0,4,0.1,6,3.1c0,0-5.8-3.3-6.1-2.2
		c-0.1,0.2-0.1,3.4-0.1,3.4s6.9,0.3,10,5c0,0-6.5-5-10-3.8l0.2,4.8c0,0,7.3-0.1,11,5.1c0,0-6.9-4.9-10.9-4.1l0.8,4.7
		c0,0,7.2,0,10.2,4.4c0,0-8.5-4.8-9.9-3.4c0,0,1,4.2,1.6,5.2c0,0,5.1,0.2,6.7,2.9c0,0-6-2.5-6.3-1.8c0,0,2.5,5.1,4.8,6.9
		c-2.3-1.6-4.2-3.8-5.5-6.5c-0.5,1.9-0.5,3.8,0,5.7c0,0-2.4-2-0.6-6.8c0,0-1.8-4.1-1.7-4.8c0,0-2.4,4.5-2.5,7.9c0,0-1.4-4,2.3-9.2
		l-0.9-4.7c0,0-3.4,5.7-3.7,8.8c0,0-0.9-4.3,3.6-10l-0.3-4.7c0,0-3.2,4.7-4.3,8c0,0-0.1-4.2,4.2-9.4l0.1-3.1c0,0-2.3,3.5-2.9,4.5
		c-0.6,1.1-0.9,1-0.9,1c0.7-2.6,2-5,3.8-6.8C675.1,520.2,675.7,513.6,675.4,513.5z"/>
</g>
<g class="st22">
	<path class="st8" d="M581.6,274.3c0,0-15,30,5,37.4c1.8,1.5,4.1,1.6,5.9,0.1c0,0-1.3-0.9,0.5-3.7c0.6-1,1.2-2.1,1.6-3.3
		c0.6-1.6,0.7-3.3,0.3-5l0,0c0,0,0.7-10.5-9.9-21.2c0,0-1.6-4.1-2.3-4.4l-0.4,6.3c0,0,4,0.1,6,3.1c0,0-5.8-3.3-6.1-2.2
		c-0.1,0.2-0.1,3.4-0.1,3.4s6.9,0.3,10,5c0,0-6.5-5-10-3.8l0.2,4.8c0,0,7.3-0.1,11,5.1c0,0-6.9-4.9-10.9-4.1l0.8,4.7
		c0,0,7.2,0,10.2,4.4c0,0-8.5-4.8-9.9-3.4c0,0,1,4.2,1.6,5.2c0,0,5.1,0.2,6.7,2.9c0,0-6-2.5-6.3-1.8c0,0,2.4,5.1,4.8,6.9
		c-2.3-1.5-4.2-3.8-5.5-6.4c-0.5,1.8-0.5,3.8,0,5.6c0,0-2.4-2-0.6-6.9c0,0-1.8-4.1-1.7-4.8c0,0-2.4,4.5-2.5,7.9c0,0-1.4-4,2.3-9.2
		l-0.9-4.7c0,0-3.4,5.7-3.7,8.8c0,0-0.9-4.3,3.6-10l-0.3-4.7c0,0-3.2,4.7-4.3,8c0,0-0.1-4.2,4.2-9.4l0.1-3.2c0,0-2.3,3.5-2.9,4.5
		s-0.9,1-0.9,1c0.7-2.6,2.1-5,3.9-6.8C581.3,280.8,581.9,274.4,581.6,274.3z"/>
</g>
<g class="st22">
	<path class="st8" d="M258.5,47.2c0,0-55.9,47.7-18.9,85.5c0,0,4.2,8.9,12.6,6.7c0,0-2.2-3.3,4-7.4c2.2-1.5,4.2-3.2,6-5.3
		c2.5-2.7,4.1-6.3,4.7-10.2l0,0c0,0,9.9-21.7-4.4-56.1c0,0-0.1-10.4-1.4-11.9l-5.8,13.2c0,0,8.4,4.6,10.4,13.3
		c0,0-9.9-13.4-11.4-11.4c-0.3,0.4-2.8,7.2-2.8,7.2s14.6,8.2,17.3,21.6c0,0-9.9-17.8-18.4-19.1l-3.3,10.5c0,0,15.8,7.7,19.4,22.9
		c0,0-10.9-18.2-20-20.6l-2,10.8c0,0,15.2,7.9,18.2,20.6c0,0-14.5-19.5-18.5-18.1c0,0-1.4,10-0.6,12.9c0,0,10.8,6,12,13.5
		c0,0-10.8-11.8-12.1-10.7c0,0,1.2,13.6,4.9,20.2c0,0-6.1-9.2-6.7-19.8c0,0-4.1,5.7-4.4,12c0,0-3.6-7,4.1-15.4
		c0,0-0.6-10.7,0.3-12.1c0,0-8.6,7-11.7,14.3c0,0,0.2-10,12.2-17.2l1.9-10.9c0,0-11.8,8.5-15,14.8c0,0,1.5-10.2,15.6-17.5l3.1-10.3
		c0,0-10.6,6.5-15.5,12.5c0,0,3.2-9.1,16.4-15.4l2.8-6.6c0,0-7.7,4.9-9.8,6.5c-2.1,1.6-2.7,1.1-2.7,1.1c3.6-4.9,8.3-8.5,13.6-10.4
		C252.6,60.9,259.1,47.7,258.5,47.2z"/>
</g>
<g class="st22">
	<path class="st8" d="M204.2,204.5c0,0-72.3-35.7-81.7,28.7c0,0-4.9,10,1.9,18.3c0,0,1.5-4.5,8.5,0.1c2.5,1.6,5.1,2.9,7.9,3.8
		c3.7,1.2,7.6,1,11.2-0.7l0,0c0,0,23.8-1.5,43.7-38c0,0,8.6-6.2,9-8.6l-14.3,1.1c0,0,1.1,12.3-4.8,19.7c0,0,5.3-19.1,2.7-19.7
		c-0.5-0.1-7.6,1-7.6,1s1.8,21.4-7.7,32.5c0,0,8.9-21.8,5-32.1l-10.6,2.4c0,0,2.9,22.5-7.6,35.6c0,0,8.6-23.2,5.3-34.9l-10.1,4
		c0,0,2.4,22-6.3,32.9c0,0,7.6-27.9,4-31.8c0,0-9.1,4.3-11.1,6.8c0,0,1.4,15.9-4.1,21.6c0,0,3.4-19.3,1.7-20.1
		c0,0-10.6,9.4-13.8,17.4c0,0,4-12.3,12.5-19.3c0,0-7.1-1.4-12.6,2.1c0,0,3.7-8.2,15.1-4.3c0,0,8.5-6.9,10.2-6.8
		c0,0-10.8-5.7-18.7-5c0,0,8.4-5.7,21.3,3.8l10.1-4.3c0,0-14-8.4-21-8.4c0,0,9.3-4.2,23.7,7.6l10.3-2.5c0,0-11.6-8.3-19.4-10.3
		c0,0,9.4-1.7,22.4,9.7l7.1-0.7c0,0-8.6-5.9-11.2-7.4c-2.6-1.4-2.5-2.4-2.5-2.4c6.2,1.3,11.9,4.5,16.6,9.4
		C189.5,205.9,204.1,205.5,204.2,204.5z"/>
</g>
<g class="st22">
	<path class="st8" d="M160.9,114.4c0,0-25.6-69.6-62.4-37.7c0,0-7.8,2.7-7.7,12.1c0,0,3-1.7,4.9,5.8c0.7,2.6,1.7,5.1,2.9,7.5
		c1.6,3.2,4.1,5.7,7,7.1l0,0c0,0,14.8,15,44.5,6.7c0,0,8.1,2,9.5,0.9l-9.1-8.9c0,0-5.3,8.1-12.4,8.4c0,0,12.4-7.8,11.2-9.8
		c-0.3-0.4-5-4.5-5-4.5S135,116,124,116.2c0,0,15.8-7,18.5-15.7l-7.4-5.7c0,0-9.3,15.4-21.9,16.2c0,0,16.3-8,20.1-17.2l-8-4.3
		c0,0-9.2,14.8-19.7,15.3c0,0,18.1-11.5,17.8-16.2c0,0-7.5-3.5-9.9-3.3c0,0-6.8,10.4-12.9,10.1c0,0,11.4-9.2,10.8-10.8
		c0,0-10.8-1.5-16.6,1.1c0,0,8.4-4.6,16.8-3.1c0,0-3.5-5.6-8.5-7.2c0,0,6.2-2.4,11.1,7.5c0,0,8.4,1.6,9.4,2.8c0,0-3.7-10.7-8.7-15.5
		c0,0,7.7,2.3,10.8,16.5l8.1,4.2c0,0-4.2-14.4-8.4-19.1c0,0,7.6,3.7,10.4,20.3l7.3,5.4c0,0-2.8-12.7-6.5-19.1c0,0,6.4,5.2,8.6,20.8
		l4.5,4.3c0,0-2.2-9.2-3.1-11.8s-0.3-3.1-0.3-3.1c3,4.9,4.9,10.6,5.3,16.7C151.5,105.4,160.4,115,160.9,114.4z"/>
</g>
<g class="st22">
	<path class="st8" d="M660.2,150.6c0,0-6-34.1-25.1-23.7c-2.2,0.2-4,2.1-4.4,4.6c0,0,1.5-0.4,1.8,3.1c0.1,1.3,0.3,2.5,0.7,3.7
		c0.5,1.6,1.4,3,2.6,4l0,0c0,0,5.5,8.4,19.4,7.8c0,0,3.5,1.8,4.2,1.5l-3.4-5c0,0-3,3-6.3,2.4c0,0,6.2-2.2,5.8-3.2
		c-0.1-0.2-1.9-2.6-1.9-2.6s-5.3,5.3-10.3,4.2c0,0,7.7-1.4,9.6-5.1l-2.9-3.3c0,0-5.4,5.9-11.1,4.9c0,0,8-1.8,10.4-5.6l-3.2-2.8
		c0,0-5.3,5.6-10.1,4.7c0,0,9-3.2,9.3-5.3c0,0-3.1-2.4-4.2-2.6c0,0-3.9,3.9-6.6,3.1c0,0,5.8-2.9,5.7-3.7c0,0-4.7-1.9-7.6-1.3
		c2.6-0.7,5.3-0.5,7.8,0.4c-0.7-1.7-1.8-3.2-3.2-4.1c0,0,3-0.4,4.4,4.5c0,0,3.6,1.6,4,2.3c0,0-0.8-5.2-2.7-7.9c0,0,3.3,1.9,3.6,8.6
		l3.3,2.8c0,0-0.8-6.9-2.3-9.5c0,0,3.1,2.5,3.1,10.2l2.9,3.2c0,0-0.3-6-1.4-9.3c0,0,2.5,3.1,2.2,10.2l1.7,2.4c0,0-0.3-4.4-0.4-5.7
		c-0.2-1.3,0.1-1.4,0.1-1.4c1,2.5,1.4,5.3,1.1,8.1C656.7,145.3,659.9,150.8,660.2,150.6z"/>
</g>
<g class="st22">
	<path class="st8" d="M556.2,781.9c0,0-6-34.1-25.1-23.7c-2.2,0.2-4,2.1-4.5,4.6c0,0,1.5-0.4,1.8,3.1c0.1,1.3,0.3,2.5,0.7,3.7
		c0.5,1.6,1.4,3,2.6,4l0,0c0,0,5.5,8.4,19.4,7.8c0,0,3.5,1.8,4.2,1.5l-3.4-5c0,0-3,3-6.3,2.4c0,0,6.2-2.2,5.8-3.2
		c-0.1-0.2-1.9-2.6-1.9-2.6s-5.3,5.3-10.3,4.2c0,0,7.7-1.4,9.6-5.1l-2.9-3.4c0,0-5.3,5.9-11,4.9c0,0,8-1.8,10.4-5.6l-3.2-2.8
		c0,0-5.3,5.6-10,4.7c0,0,9-3.2,9.3-5.3c0,0-3.1-2.4-4.2-2.6c0,0-3.9,3.9-6.6,3.1c0,0,5.8-2.9,5.7-3.7c0,0-4.7-1.9-7.6-1.3
		c2.6-0.7,5.3-0.5,7.8,0.4c-0.7-1.7-1.8-3.2-3.2-4.1c0,0,2.9-0.4,4.4,4.5c0,0,3.7,1.6,4,2.3c0,0-0.8-5.2-2.7-7.9
		c0,0,3.3,1.9,3.6,8.6l3.3,2.8c0,0-0.8-6.9-2.3-9.5c0,0,3.1,2.5,3.1,10.2l2.9,3.2c0,0-0.3-6-1.4-9.3c0,0,2.5,3.1,2.2,10.2l1.7,2.4
		c0,0-0.3-4.4-0.4-5.7c-0.2-1.3,0.1-1.4,0.1-1.4c1,2.5,1.4,5.3,1.1,8.1C552.7,776.6,555.9,782.1,556.2,781.9z"/>
</g>
</svg>
