<?xml version="1.0" encoding="utf-8"?>
<!-- Generator: Adobe Illustrator 22.1.0, SVG Export Plug-In . SVG Version: 6.00 Build 0)  -->
<svg version="1.1" id="a6f4e524-a1b8-434a-a0ca-43acb27f4769"
	 xmlns="http://www.w3.org/2000/svg" xmlns:xlink="http://www.w3.org/1999/xlink" x="0px" y="0px" viewBox="0 0 1110.5 857.7"
	 style="enable-background:new 0 0 1110.5 857.7;" xml:space="preserve">
<style type="text/css">
	.st0{opacity:0.1;fill:#241C15;enable-background:new    ;}
	.st1{opacity:0.2;}
	.st2{fill:#3F3D56;}
	.st3{fill:#241C15;}
	.st4{opacity:0.1;enable-background:new    ;}
	.st5{fill:#F1C0C0;}
	.st6{fill:#BE6F72;}
	.st7{opacity:0.2;enable-background:new    ;}
	.st8{fill:#FED253;}
	.st9{fill:#FBBEBE;}
</style>
<title>prototyping process</title>
<path class="st0" d="M1110.5,549.4c0,23.3-2.2,46.6-6.7,69.3c-1.5,7.6-3.2,15.1-5.2,22.4c-2.4,9-5.2,17.9-8.4,26.5
	c-1.6,4.4-3.3,8.7-5.1,12.9c0,23.9-3.9,47.6-11.5,69.6c-13.7,39.4-38.2,71.2-69,89.7c-19.2,11.6-40.3,17.7-61.6,17.8H210.8
	c-32.6,0.1-64.6-10.7-92.8-31.3l-0.4-0.3c-4-3-7.9-6.1-11.7-9.4c-8.6-7.5-16.6-15.9-24.1-25.1c-10.1-12.4-19-26.4-26.5-41.4
	c-17.6-35.3-27-76.3-27-118C10.4,592.6,0,545.2,0,494.3C0,430,16.6,371.5,43.8,327.1c5.7-9.3,11.9-18,18.6-26.1
	c6.6-8,13.7-15.4,21.3-21.9c6-5.3,12.3-10,18.9-14.3c2.7-1.7,5.5-3.4,8.2-4.9c2.4-1.4,4.9-2.6,7.4-3.8c3-1.4,6-2.8,9.1-4
	c3.1-1.2,6.1-2.3,9.1-3.2c4.4-1.4,8.9-2.5,13.4-3.3c3.8-0.7,7.5-1.2,11.3-1.6c3-0.3,6-0.4,9.1-0.5h1.6c3.4,0,6.7,0.2,10,0.5
	c0.3-0.9,0.7-1.8,1.1-2.6c1.3-3.2,2.7-6.3,4.1-9.4c0,0,0-0.1,0-0.1c0.2-0.5,0.5-1.1,0.7-1.6c1.1-2.5,2.3-5,3.5-7.5
	c0.5-1.2,1.1-2.3,1.6-3.4c0.1-0.3,0.2-0.5,0.4-0.8c0.6-1.2,1.1-2.4,1.7-3.6c2.9-5.9,5.9-11.6,9.1-17.3l0.8-1.5
	c0.5-0.9,0.9-1.7,1.5-2.6c1.3-2.3,2.6-4.6,4-6.9c0.9-1.6,1.9-3.2,2.9-4.8c2.5-4,5-7.9,7.5-11.9c2.6-4,5.3-7.9,8-11.7
	c0.4-0.5,0.8-1.1,1.2-1.6l4-5.5l0,0c0.2-0.3,0.4-0.5,0.6-0.7l0,0c0.5-0.7,0.9-1.3,1.5-1.9c2.2-2.9,4.4-5.7,6.6-8.5
	c11.3-14.2,23.4-27.5,36.1-39.7c0.5-0.5,1-1,1.5-1.5c2.4-2.3,4.8-4.5,7.3-6.7C300.7,80,314.7,69,329.2,59.1c1-0.7,2-1.4,3-2.1
	c13-8.7,26.4-16.4,40.1-23.3c7.5-3.7,15.1-7.2,22.8-10.4c5.1-2.1,10.2-4.1,15.4-6c8.1-2.9,16.3-5.6,24.5-7.9
	C459.3,2.6,484-1.7,508.8-3.3C516.3-3.7,524-4,531.7-4C568.9-4.1,606,1.9,642,13.6c0.8,1.4,2.1,2.3,3.4,2.2h3.2
	c1.4,0.5,2.7,1,4.1,1.5c7.7,2.8,15.3,5.8,22.7,9.1l1.9,0.9c18.4,8.3,36.4,18.2,53.7,29.7c15.6,10.4,30.6,22.1,44.9,35
	c2.2,2,4.4,4,6.5,6c2.6-2.1,5.2-4.1,7.9-6c10.4-7.5,21.4-13.4,32.9-17.7c24-8.9,49.3-10.2,73.8-3.6c31.3,8.4,59.7,29.2,82.6,58.8
	c9.3,12.1,17.6,25.4,24.8,39.7c0.5,1,1,2.1,1.5,3.1c6.1,12.6,11.4,25.9,15.8,39.7c0.2,0.5,0.3,1,0.5,1.5c4,12.9,7.3,26.2,9.7,39.7
	c0.1,0.7,0.2,1.4,0.4,2.1c2.3,13.1,3.8,26.3,4.6,39.7c0,0.5,0,1,0.1,1.5c0.4,6.9,0.6,13.9,0.6,20.9c0,6.3-0.2,12.6-0.5,18.8
	c0,0.7-0.1,1.4-0.1,2.1c-0.1,1.8-0.2,3.6-0.3,5.4c7.2,7.3,13.9,15.3,20.2,24c2.7,3.8,5.4,7.7,8,11.8c7.8,12.4,14.7,25.7,20.6,39.7
	C1101.3,457,1110.5,501.6,1110.5,549.4z"/>
<path class="st0" d="M1003.9,835.4c0,8.1-22.2,15.7-60.9,22.3H210.8c-32.6,0.1-64.6-10.7-92.8-31.3l-0.4-0.3
	c11.1-5.1,31.2-9.9,58.5-14.2l0,0l1.2-0.2c12.3-1.9,26-3.7,40.9-5.4c0.4,0,0.8-0.1,1.1-0.1l0,0c11.9-1.3,24.5-2.6,37.9-3.7
	c0.4,0,0.8-0.1,1.3-0.1c5.2-0.5,10.4-0.9,15.8-1.3l0,0l2.1-0.2c39.2-3.1,83.7-5.5,132-7.1h0.1c6.8-0.2,13.6-0.4,20.5-0.6
	c7.7-0.2,15.5-0.4,23.3-0.6c6-0.2,12.1-0.3,18.2-0.4h0.1c27.5-0.5,56-0.8,85-0.8c71.9,0,139.9,1.7,200.1,4.6h0.2
	c9.3,0.5,18.3,1,27.2,1.5l7.5,0.5c10,0.6,19.7,1.2,29.2,1.9l0,0C931.5,807.7,1003.9,820.7,1003.9,835.4z"/>
<g class="st1">
	<path class="st2" d="M641.4,785.8c0,1.3-0.1,2.6-0.3,3.8c-6.6-1.3-13.2-2.5-19.8-3.6c0-0.3,0-0.7,0-1c0.1-3.6,0.9-7,2.4-10.1
		c1.9-3.9,4.9-6.3,8.1-6.2c3.3,0.1,6.1,2.8,7.8,6.8C640.9,778.7,641.5,782.2,641.4,785.8z"/>
	
		<ellipse transform="matrix(1.647112e-02 -0.9999 0.9999 1.647112e-02 -143.5284 1384.22)" class="st2" cx="631.8" cy="765.1" rx="16.7" ry="10.1"/>
	
		<ellipse transform="matrix(1.647112e-02 -0.9999 0.9999 1.647112e-02 -122.6622 1364.7067)" class="st2" cx="632.4" cy="744.7" rx="16.7" ry="10.1"/>
	
		<ellipse transform="matrix(1.647112e-02 -0.9999 0.9999 1.647112e-02 -101.8054 1345.184)" class="st2" cx="632.9" cy="724.3" rx="16.7" ry="10.1"/>
	
		<ellipse transform="matrix(1.647112e-02 -0.9999 0.9999 1.647112e-02 -80.9486 1325.6614)" class="st2" cx="633.4" cy="704" rx="16.7" ry="10.1"/>
	<path class="st3" d="M599.1,563.1c-1.3-2.3-2.5-4.7-3.6-7.1l26.6-4.4l-28.7-0.9c-5.2-15.5-5.1-33,0.3-48.3l37.8,26.7l-34.6-34.3
		c14-28.7,43.8-37.5,66.5-19.8c22.7,17.7,29.7,55.3,15.7,84c-1.2,2.5-2.6,4.9-4.1,7.2c2.1,3.5,3.8,7.3,5.2,11.3l-35,21.2l37.1-14.1
		c4.7,19.7,1.3,41.2-9.3,57c15.8,27.1,11.3,65.3-10.2,85.3s-51.8,14.2-67.6-12.9c-13.2-22.7-12.5-53.8,1.9-75.4
		C583.9,615.8,584.7,584.7,599.1,563.1L599.1,563.1z"/>
	<path class="st4" d="M684.4,604.2c-0.3,13.7-4.3,26.8-11.3,37.3c15.8,27.1,11.3,65.3-10.2,85.3s-51.8,14.2-67.6-12.9
		c-13.2-22.7-12.5-53.8,1.9-75.4C590.9,627.9,684.6,597.4,684.4,604.2z"/>
</g>
<g class="st1">
	<path class="st2" d="M498.1,785.8c0,1.3-0.1,2.6-0.3,3.8c-6.6-1.3-13.2-2.5-19.8-3.6c0-0.3,0-0.7,0-1c0.1-3.6,0.9-7,2.4-10.1
		c1.9-3.9,4.9-6.3,8.1-6.2c3.3,0.1,6.1,2.8,7.8,6.8C497.6,778.7,498.2,782.2,498.1,785.8z"/>
	
		<ellipse transform="matrix(1.647112e-02 -0.9999 0.9999 1.647112e-02 -284.4876 1240.9293)" class="st2" cx="488.5" cy="765.1" rx="16.7" ry="10.1"/>
	
		<ellipse transform="matrix(1.647112e-02 -0.9999 0.9999 1.647112e-02 -263.6215 1221.416)" class="st2" cx="489" cy="744.7" rx="16.7" ry="10.1"/>
	
		<ellipse transform="matrix(1.647112e-02 -0.9999 0.9999 1.647112e-02 -242.7648 1201.8934)" class="st2" cx="489.5" cy="724.3" rx="16.7" ry="10.1"/>
	
		<ellipse transform="matrix(1.647112e-02 -0.9999 0.9999 1.647112e-02 -221.9079 1182.3707)" class="st2" cx="490.1" cy="704" rx="16.7" ry="10.1"/>
	<path class="st3" d="M455.7,563.1c-1.3-2.3-2.5-4.7-3.6-7.1l26.6-4.4l-28.7-0.9c-5.2-15.5-5.1-33,0.3-48.3l37.8,26.7l-34.6-34.3
		c14-28.7,43.8-37.5,66.5-19.8c22.7,17.7,29.7,55.3,15.7,84c-1.2,2.5-2.6,4.9-4.1,7.2c2.1,3.5,3.8,7.3,5.2,11.3l-35,21.2l37.1-14.1
		c4.7,19.7,1.3,41.2-9.3,57c15.8,27.1,11.3,65.3-10.2,85.3s-51.8,14.2-67.6-12.9c-13.2-22.7-12.5-53.8,1.9-75.4
		C440.6,615.8,441.4,584.7,455.7,563.1L455.7,563.1z"/>
	<path class="st4" d="M541.1,604.2c-0.3,13.7-4.3,26.8-11.3,37.3c15.8,27.1,11.3,65.3-10.2,85.3s-51.8,14.2-67.6-12.9
		c-13.2-22.7-12.5-53.8,1.9-75.4C447.6,627.9,541.3,597.4,541.1,604.2z"/>
</g>
<g class="st1">
	<path class="st2" d="M889.5,798.8c-0.1,2.4-0.3,4.8-0.7,7.2c-12.6-2.5-25.4-4.8-38.2-6.8c0-0.6,0-1.3,0-2
		c0.1-6.9,1.7-13.6,4.5-19.4c3.8-7.5,9.4-12.1,15.7-11.9c6.3,0.2,11.7,5.4,15.1,13.1C888.5,785.1,889.8,791.9,889.5,798.8z"/>
	
		<ellipse transform="matrix(1.646549e-02 -0.9999 0.9999 1.646549e-02 98.018 1617.3883)" class="st2" cx="871.1" cy="758.9" rx="32.1" ry="19.4"/>
	
		<ellipse transform="matrix(1.646549e-02 -0.9999 0.9999 1.646549e-02 138.1794 1579.8105)" class="st2" cx="872.1" cy="719.7" rx="32.1" ry="19.4"/>
	
		<ellipse transform="matrix(1.646549e-02 -0.9999 0.9999 1.646549e-02 178.3497 1542.2424)" class="st2" cx="873.1" cy="680.5" rx="32.1" ry="19.4"/>
	
		<ellipse transform="matrix(1.563185e-02 -0.9999 0.9999 1.563185e-02 219.8783 1502.3784)" class="st2" cx="873" cy="639.5" rx="32.1" ry="19.4"/>
	<path class="st3" d="M808,370.1c-2.5-4.4-4.8-8.9-6.9-13.7l51.3-8.5l-55.2-1.7c-10-29.8-9.8-63.5,0.5-93.1l72.8,51.4l-66.7-66
		c27.1-55.1,84.5-72,128.2-37.8s57.1,106.6,30,161.7c-2.3,4.7-4.9,9.3-7.8,13.5c4,6.8,7.4,14.1,10.1,21.8L897,438.5l71.4-27.1
		c9.1,38,2.5,79.2-17.8,109.6c30.5,52.2,21.7,125.7-19.7,164.2c-41.4,38.5-99.6,27.3-130.1-24.9c-25.5-43.6-24-103.6,3.6-145.1
		C778.9,471.5,780.4,411.6,808,370.1L808,370.1z"/>
	<path class="st4" d="M972.4,449.2c-0.6,26.3-8.3,51.6-21.7,71.8c30.5,52.2,21.7,125.7-19.7,164.2c-41.4,38.5-99.6,27.3-130.1-24.9
		c-25.5-43.6-24-103.6,3.6-145.1C792.4,494.7,972.7,436.1,972.4,449.2z"/>
</g>
<polygon class="st5" points="148.8,800.9 158.7,800.9 172.6,800.9 190.3,439.5 364.9,72 357.3,61.7 357.3,35.7 168.5,431 "/>
<polygon class="st4" points="159.8,800.9 172.6,800.9 190.3,439.5 364.9,72 357.3,61.7 177.2,434 "/>
<polygon class="st5" points="119.7,803.9 572.1,847.6 572.5,847.6 1010.3,813.6 1010.6,813.6 1010.6,790.3 528.2,779.1 125.7,778.6 
	122.8,778.6 122.4,781.3 "/>
<polygon class="st4" points="119.7,803.9 572.1,847.6 572.5,847.6 1010.3,813.6 1010.6,813.2 1010.6,790.8 1010.2,790.8 
	572.1,809.2 125.7,778.6 125.6,778.6 124.8,779.3 122.4,781.3 "/>
<polygon class="st4" points="119.7,803.9 572.1,847.6 572.1,809.2 124.8,779.3 122.4,781.3 "/>
<polygon class="st5" points="357.2,61.2 556.7,331.3 550.5,806.3 567.4,808.9 567.7,809 584.7,809 586.7,351.7 960.2,509.1 
	966.5,789.3 980.1,791.2 984.7,791.9 974,489.6 583.6,316.7 369.5,36 357.2,36 "/>
<polygon class="st4" points="585.2,342.9 586.7,351.7 960.2,509.1 966.5,789.3 980.1,791.2 969.4,503.2 "/>
<polygon class="st4" points="357.2,61.2 556.7,331.3 550.5,806.3 567.4,808.9 572.1,315.7 357.2,36 "/>
<polygon class="st5" points="585.9,533.6 722.9,567.6 722.9,567.6 962.8,627.3 973.8,621.7 973.8,620.7 973.1,601.4 586,502.7 "/>
<polygon class="st4" points="722.9,567.6 962.8,627.3 973.8,621.7 973.8,620.7 "/>
<polygon class="st5" points="732.1,413 735.8,670.3 737.7,802.3 754.6,801.6 765.2,801.1 761.9,416.7 754.6,413.6 753,413 "/>
<polygon class="st4" points="732.2,412.9 732.2,413 735.8,670.3 737.7,802.3 754.6,801.6 754.6,412.9 "/>
<path class="st2" d="M467.9,478.7c1,0.7,1.9,1.5,2.8,2.3c1.1,1.2,2,2.5,2.8,3.9c4,6.6,7.8,14.3,7.4,22.6c0,2.4-0.7,4.8-2.1,6.5
	c-1.7,1.8-4.1,1.9-6.3,1.9c-2.4,0-4.9,0-6.9-1.5c-2.1-1.5-3.8-4.6-6.2-4.5c-0.3,0.1-0.7,0.1-1,0c-0.8-0.3-1-1.7-1.6-2.6
	c-0.9-1.6-2.9-1.2-4.4-0.5c-1.5,0.7-3.1,1.7-4.6,0.9c-0.8-0.6-1.5-1.4-2-2.5c-3.5-7.1-4.2-15.7-4.9-24c-0.4-5-3.5-22.2,5-18.3
	c3.8,1.7,7.3,5.1,10.7,7.6L467.9,478.7z"/>
<path class="st2" d="M459.5,480.4c1.6,1.4,3.7,1.3,5.2-0.3c1.4-1.6,2.3-3.8,2.5-6.2c0.9-0.4,1.4,1.2,2,2.1c1.1,1.6,3.2,1.6,4.2,3.3
	c0.7,1.2,0.5,2.8,1,4.2c0.6,1.7,2.1,2.6,3.2,4c1,1.5,1.7,3.3,2.1,5.2l1.5,5.9c0.7,2.4,1.2,5,1.4,7.6c0.2,2.6-0.4,5.2-1.8,7.2
	c-2.1,2.8-5.5,3.1-8.5,3c-1,0-2-0.1-3-0.4c-2.7-1-4.4-4.4-5.1-7.8c-0.7-3.4-0.6-7-1-10.5c-0.4-3.4-1.2-6.8-2.4-10
	c-0.8-2.5-3.1-6.2-3.1-8.8C458.4,479,458.9,479.8,459.5,480.4z"/>
<path class="st6" d="M462.8,468.3c-0.4-1.7-0.7-3.4-0.8-5.2c0-3.6,1.3-6.9,2.6-10.1l-10.8,1.8c-1.3,0.2-2.8,0.6-3.5,1.9
	c-0.6,1.4-0.6,3,0,4.4c0.5,1.4,1,2.8,1.3,4.2c0,1.3,0.1,2.6,0.3,3.8c0.3,0.9,0.8,1.8,1.4,2.5c3.1,4.3,5.4,9.4,7.7,14.4
	c-0.1-0.1,6.5-6.6,6.2-8.6c-0.2-1.2-2-2.6-2.6-3.8C463.9,472,463.2,470.2,462.8,468.3z"/>
<polygon class="st5" points="555.2,421.9 555.2,433.6 396.2,472.7 388,479 359.5,479 359.5,472.4 515.7,424.8 "/>
<polygon class="st4" points="555.2,433.6 396.2,472.7 388,479 359.5,479 516.9,436.5 "/>
<path class="st3" d="M427.6,754.4c-3.6-5.6-9.9-7.2-15-4c-0.5,0.3-1,0.8-1.4,1.4c-0.9,1.7-0.3,4-0.3,6c0.2,5-3,9.1-5.8,12.6
	c-1.5,1.9-3.1,3.9-3.8,6.4c-0.7,2.6-0.2,5.8,1.7,7.1c0.8,0.5,1.7,0.8,2.6,0.9c3,0.7,6.1,0.9,9.1,0.3c3-0.7,6-2.9,7.3-6.4
	c0.3-0.9,0.7-1.8,1.2-2.5c1.7-1.7,4.2,0.3,6.1-0.9c1.6-1,1.6-2.5,1.6-4.5C431,765.3,430.4,758.9,427.6,754.4z"/>
<path class="st3" d="M450.2,754.2c1.2,3.9,1.3,8.1,1.5,12.2c0.1,2.4,0.1,4.9-0.9,6.9c-1,2-3,3.1-4.9,3.6c-3.9,1-8.5,0.1-11-3.9
	c-1.9-3-2.3-7.1-2-11c0.3-3.2,0.9-6.9-0.9-9.2c-0.5-0.6-1.1-1-1.5-1.7c-0.9-1.5-0.8-3.6-0.3-5.4c0.7-1.7,1.2-3.5,1.5-5.4
	c0.1-0.9,12.8,0.6,13.9,1.3c1.6,1,1.3,2.6,1.8,4.6C448.1,749,449.4,751.5,450.2,754.2z"/>
<path class="st2" d="M452.5,583.3c2.5,2,3.5,6,3.8,9.7c1.1,10.2-0.8,20.4-0.9,30.7c-0.1,14.4,3.2,29,0.3,42.9
	c-1.7,8.3-0.3,17.8-1.8,26.2c-0.5,2.5-1.3,4.9-1.8,7.4c-0.9,5.4,0,11.1,1.4,16.4c0.4,1.4,0.7,2.9,0.8,4.4c-0.1,2.3-0.5,4.6-1.4,6.7
	l-5.7,16.9c-0.6,1.9-3.1,2.2-4.7,2.5c-3,0.5-6.3,0.8-8.7-1.6c-2.4-2.3-3-6.3-3.3-9.9c-0.7-7-1-14.1-0.9-21.2c0.1-1.8,0-3.7-0.4-5.5
	c-0.5-2-1.7-3.8-2-5.9c-0.4-2.8,0.7-5.5,1.1-8.3c0.3-2.6,0.3-5.2-0.1-7.7c-0.4-3.8-0.8-7.6-1.3-11.4c-0.7-5.3,0.3-10.5,0.9-15.8
	c0.6-5-0.2-10.1-0.9-15c0.1,4-0.3,8-1.2,11.9c-0.5,1.9-1.2,3.7-1.6,5.6c-1.9,8.6,2.2,17.7,1.6,26.7c-0.3,4.2-1.6,8.3-1.2,12.5
	c0.3,3,1.4,5.8,2.1,8.7c0.8,2.9,1.2,6.2,0,8.9c-3.1,7.3-0.8,17.2,2,24.7c0.6,1.3,1,2.7,1.5,4.1c0.8,3.4,0.1,7,0.3,10.5
	c-1.6,0.3-3.2-0.3-4.4-1.7c-0.4-0.5-0.8-1.2-1.2-1.8c-1.1-1.4-2.5-2.4-3.9-3.1c-0.9-0.6-1.8-0.9-2.8-0.8c-1,0.4-2,1.1-2.7,2.1
	c-0.9,1-1.9,2-3,2.8c-0.4,0.4-1,0.7-1.5,0.8c-0.6,0.1-1.1-0.2-1.4-0.9c-0.1-0.2-0.1-0.4-0.1-0.6c-0.4-3.6-0.5-7.2-0.6-10.8
	c0-6.2-5.9-10.5-6.6-16.7c-0.6-5,0.5-10,0.1-15c-0.2-2.6-0.7-5.1-0.7-7.7c0-1.7,0.3-3.3,0.4-4.9c0.1-1.8,0.1-3.7-0.1-5.5l-0.3-5.7
	c-0.3-5.7-0.6-11.5-2.4-16.7c-2.1-6.1-3.3-12.5-3.7-19.1c-0.2-4.2-0.1-8.3-0.4-12.5c-0.3-3.8-1.1-7.5-0.9-11.3
	c0.2-2.9,0.9-5.8,1.1-8.7c0.4-5.6-1.3-11.1-2.7-16.5c-1.3-5.4-2.3-11.4-0.6-16.6c0.2-0.9,0.7-1.6,1.2-2.2c0.7-0.6,1.4-0.9,2.2-1
	c16.2-4.3,32.8-5.6,49.2-4C447.6,580.6,450.2,581.6,452.5,583.3z"/>
<ellipse class="st6" cx="399" cy="438" rx="15.1" ry="19.1"/>
<path class="st6" d="M396.1,461.8c0.2,1.1,0.2,2.2,0,3.3c-0.2,0.8-0.6,1.5-1,2.1c-1.5,2.4-3.1,4.6-4.8,6.6c0.9,2.5,2.5,4.5,4.5,5.6
	c2,1.1,4.1,1.8,6.2,2.2c1.1,0.4,2.2,0.5,3.3,0.3c1-0.3,2-0.9,2.8-1.6l8.4-6.3c1.3-0.9,2.4-1.9,3.5-3.2c1.5-2,2.4-4.7,2.4-7.4
	c0-0.5-0.1-1-0.3-1.4c-0.3-0.4-0.7-0.6-1.2-0.6c-3-0.8-5.3-3.8-6.6-7.3c-1.2-3.5-2-7.2-2.3-11l-8.9,5.9c-1.3,0.9-2.6,1.8-4,2.6
	c-0.9,0.5-2.6,0.9-3.3,1.9C393.6,455.4,395.8,459.5,396.1,461.8z"/>
<path class="st2" d="M390.3,470.4c-1.3,1.3-2.3,3-2.9,4.9c-0.6,2.4,0,4.9,0.5,7.2c2.5,10,4.4,20.3,5.7,30.7
	c0.8,7.1,1.1,14.4,1.5,21.6c0.8,14.7,1.9,38.2,3.5,52.8c5.7,0.3,11.2-1.8,16.8-2.5c10.5-1.4,21.3,1.8,31.5-1.2
	c-2.5-12.4-5-33.6-7.5-46c-1.1-4.9-1.9-9.9-2.3-14.9c-0.2-3.6-0.1-7.3,0-10.9c0.1-7.1-0.2-14.3-0.5-21.4c-0.4-8.3-0.7-16.7-2.3-24.8
	c-0.1-1-0.5-2-1.1-2.7c-0.9-0.9-2.2-0.6-3.3-0.4c-3.4,0.6-6.9-0.5-9.8-2.9c-1.2-1.1-2.9-2.4-4.1-1.2c-0.5,0.7-0.8,1.6-0.9,2.5
	c-1,3.4-3.2,6.1-5.9,7.3c-2.7,1.2-5.5,2-8.4,2.2c-0.9,0.2-1.8,0.1-2.6-0.4c-1.3-1-1.4-4.8-3.1-5
	C393.6,465.1,391.3,469.2,390.3,470.4z"/>
<path class="st3" d="M412.6,499.4c-3.5-4.2-5-10.3-7.5-15.5c-1.7-3.5-3.9-6.5-6.5-9c-1.3-1.1-2.5-2.4-3.5-3.8
	c-0.9-1.4-1.6-3.2-2.9-3.8c-1.1-0.3-2.3,0.1-3.2,1.1c-0.8,1-1.6,2.1-2.4,3.2c-4,5.2-11,5.9-14.2,12c-0.9,1.3-1.4,2.8-1.7,4.5
	c-0.9,8.8,0.9,17.7,5,24.9c0.8,1.7,2,2.9,3.5,3.6c-0.2,2.2,0,4.5,0.7,6.5c1.7,7.5,3.9,14.9,6.4,22.1c-0.6,2.8-1,5.7-1.3,8.6
	c-0.7,7.3,0,14.6-0.7,21.9c-0.5,5.9-1.9,11.7-1.9,17.7c0,1,0.1,2.1,0.7,2.6c0.3,0.2,0.7,0.3,1.1,0.3l11.6,0.4
	c6.7,0.2,13.5,0.5,20.2-1.1c0.9-0.2,1.7-0.5,2.5-1c2.2-1.6,3-5.2,3.3-8.3c0.5-4.1,0.7-8.3,0.6-12.4c1.4,5.6,3.1,11.4,7.3,13.8
	c2.2,1.3,4.8,1.2,7.3,1.1c5.3-0.3,10.6-1,15.8-2.1c1.1,0.2,2.2-0.8,2.3-2.3c0-0.3,0-0.5,0-0.8l0.1-6.5c0.1-13.2-2.5-25.8-3.5-38.9
	c-0.3-4.1-0.3-8.3-1.1-12.4c-0.3-1.7-0.8-3.4-1.1-5.1c-0.3-1.7-0.4-3.4-0.5-5.1l-0.7-13.1c-0.3-6.1-0.8-11.9-1.2-17.9
	c-0.2-5.9-0.9-11.7-2-17.4c-0.8-3.6-2.5-7.6-5.5-8.1c-1.6-0.2-3.1,0.6-4.6,1.2c-3.7,1.5-7.6,1.4-11.3-0.1c-1.1-0.6-2.3-1-3.5-1.2
	c-1.2-0.2-2.5,0.4-3.2,1.7c-0.4,0.9-0.5,2-0.5,3C416,475.6,415.2,487.8,412.6,499.4z"/>
<path class="st2" d="M397.4,499.8c-4.3-5.8-8.8-11.7-14.4-15.3c-2.2-1.5-4.7-2.5-7.2-2s-4.7,3.2-4.6,6.4c0.1,1.9,1,3.7,1.3,5.6
	c0.3,2.1-0.2,4.4,0.4,6.5c0.4,1.4,1.1,2.6,1.9,3.7l6.7,10c2.8,4.2,5.7,8.4,9.3,11.3c3.6,2.9,8.4,4.2,12.4,2.2
	c2.8-1.7,5.2-4.4,6.8-7.8c1.7-3.3,2.8-7,4.4-10.4c2.4-5.5,5.6-10.4,9.4-14.4c-2-0.6-4.4-1.5-5.7-3.6c-0.4-0.6-0.7-1.3-0.9-2
	l-1.5-4.2c-1.1-0.1-2.1,0.4-2.8,1.3c-0.7,1-1.4,1.9-2.1,2.7c-1.3,1.3-3.1,1.6-4.3,3c-0.5,0.6-0.9,1.3-1.3,2
	C403.3,497.6,400.5,499.5,397.4,499.8z"/>
<path class="st6" d="M424.1,474.9c3.3-7.5,3.1-16.6,4.1-25.1c0.1-2.3,0.7-4.4,1.8-6.2c1.9-2.7,5.2-2.7,8.1-2.4
	c0.8,0.1,1.9,0.6,1.8,1.7c-0.1,0.4-0.2,0.7-0.4,1c-2.8,4.5-4.4,9.9-4.7,15.6c1.5,1.3,3.8-1.4,5.2,0c0.9,1,0.5,3-0.1,4.4
	c-1.3,3.3-2.7,6.6-4.1,9.8c-1.1,2.9-2.6,5.5-4.3,7.8c-1.2,1.5-2.6,2.6-3.8,4c-2.8,3.3-4.5,8.1-7.5,11.3c-0.2,0.3-0.6,0.6-0.9,0.6
	c-0.4,0-0.7-0.2-1-0.6c-1.5-1.5-2.7-3.3-3.6-5.4c-1.1-2.6-0.9-3.4,0.8-5.2C418.9,483.1,422.1,479.6,424.1,474.9z"/>
<path class="st3" d="M392,494.6c0.6,0.4,1.3,0.9,1.9,0.6c0.3-0.2,0.5-0.5,0.6-0.8c1.1-1.8,2-3.8,2.7-5.9c0.1-0.3,0.2-0.6,0.2-1
	c0-0.8-0.5-1.3-1-1.8c-2.7-2.2-5.6-3.9-8.6-5.1c-2.5-1.2-5.1-2.2-7.7-1.9c-2,0.2-3.9,1.4-5.2,3.3c-1.9,3.1,1.3,4,3.3,5.1
	C382.7,489.8,387.7,491.3,392,494.6z"/>
<path class="st4" d="M389,514.9c-0.1,0.6,0.1,1.1,0.4,1.5c0.3-1.7-0.1-3.5,0.2-5.2c0.4-2.6,2.4-4.5,2.6-7.1
	C388.5,503.2,389,512.1,389,514.9z"/>
<polygon class="st7" points="555.2,421.9 555.2,433.6 516.9,436.5 515.7,424.8 "/>
<path class="st2" d="M385.4,440.8c2.4-2.5,1-7.6,2.6-10.9c0.9-1.8,2.5-2.8,4.1-3.6c1.9-1.1,3.9-1.8,6-2.1c2.1-0.3,4.2,0.7,5.7,2.6
	c0.6,0.9,1,2,1.6,2.9c1.5,2.2,3.7,3.2,5.9,2.6c1.3-0.4,2.6-1.6,2.5-3.2c-0.1-1-0.5-1.9-1.1-2.5l-2.7-3.8c-3.1-4.3-6.5-8.8-11-9.9
	c-3.1-0.7-6.3,0.3-9.4,1.6c-1.2,0.5-2.6,1.3-2.9,2.8c-0.2,1.1,0.1,2.2-0.1,3.3c-0.4,2.2-2.6,2.9-3.6,4.7c-1,1.8-0.7,3.9-1,5.9
	c-0.3,2-1.1,3.9-1.2,6c-0.1,1.2,0.4,3.6,1.5,4S384.7,439.3,385.4,440.8z"/>
<path class="st8" d="M412.9,427.4c-0.8-5.2-2.5-10.2-5-14.5c-2.2-4-5.3-7.1-8.9-8.9c-3.6-1.8-7.7-1.4-11.1,1.1
	c-2.5,2.2-4.4,5.3-5.6,8.8c-2.4,6.6-3.3,14.7-0.5,21.1c1.1-1.7,3.1-1,4.8-1.6c2.1-0.8,4-2.6,6-3.7
	C398.7,426.3,406.3,429.1,412.9,427.4z"/>
<path class="st4" d="M383.2,427c-0.2-2.1-0.4-4.6,0.8-6.1c0.1-0.2,0.3-0.3,0.5-0.3c0.2,0.1,0.3,0.2,0.4,0.4c0.7,1.4,1.3,2.9,1.8,4.4
	c-1.4-0.4-2.9,0.3-3.8,1.8"/>
<path class="st4" d="M405.2,421l-0.3-4.2c-0.1-0.3,0-0.7,0.1-1c0.3-0.6,0.9-0.8,1.4-0.5c0.5,0.3,0.8,0.8,1.1,1.4
	c0.8,1.5,1.4,3.1,1.9,4.8c-1.5-0.4-3.1-0.3-4.6,0.1"/>
<polygon class="st4" points="413.7,593.3 413.7,603 407.2,603.6 373,603.6 373,593.3 "/>
<polygon class="st5" points="413.7,593.3 413.7,603.6 373,603.6 265,432.9 265,424.8 287.6,424.8 "/>
<polygon class="st4" points="413.7,593.3 413.7,603.6 373,603.6 265,432.9 265,424.8 287.6,424.8 "/>
<polygon class="st4" points="413.7,593.3 413.7,603.6 373,603.6 265,432.9 265,424.8 373.6,593.3 "/>
<path class="st3" d="M279.1,764.4c0.3,1.9-0.7,3.8-2.3,4.2c-0.1,0-0.1,0-0.2,0c-2.6,1.1-5.4,2.2-7.3,4.8c-1.9,2.5-2.2,7.2,0,9.3
	c1.1,0.9,2.4,1.3,3.8,1.3c4.3,0.4,8.7,0.3,12.6-2c2.8-1.6,5.4-4.4,8.4-4.1c1.6,0.1,3.3,1,4.7,0.1c1.4-0.9,1.8-3.4,1.8-5.5
	c0-4.4-0.5-8.8-1.6-13c-0.1-0.6-6.1-1-6.9-1.2l-7.3-1.2c-1.4-0.2-4.3-1.5-5.4-0.1C278.5,758.5,279.1,762.7,279.1,764.4z"/>
<path class="st3" d="M322.5,734.7c0.3,2.1,0.8,4.2,1.5,6.2c1,3.2,2.3,6.7,4.8,8.2c2.2,1.4,5,0.9,7.3-0.4c1-0.5,1.8-1.3,2.4-2.3
	c0.7-1.6,1.1-3.5,0.9-5.3c0-4.6-0.2-9.4-1.9-13.5c-1.4-3.6-3.9-6.6-4-10.6l-8.6,2.1c-0.5,0.1-0.9,0.3-1.3,0.6
	c-0.3,0.4-0.5,0.8-0.5,1.3C322.3,725.6,322,730.2,322.5,734.7z"/>
<path class="st3" d="M220,621.8c-0.4,3.8-0.2,7.9,1.4,11.2c1.6,3.3,4.9,5.5,7.8,4.2c0.3-0.1,0.6-0.3,0.7-0.7c0.1-0.4,0-0.8-0.1-1.2
	c-1.3-4.3-1.2-9,0.3-13.2c0.2-0.5,0.6-1.2,1-1c0.2,0.1,0.3,0.3,0.4,0.5c0.5,1,0.7,2.1,0.7,3.3c-0.1,1-0.2,2.1-0.1,3.2
	c0.2,1,1,2,1.8,1.5c0.4-0.3,0.8-0.9,0.9-1.5c2.1-7.7,1.2-16.1,0.2-24.1c0-0.7-0.4-1.3-0.9-1.3c-0.1,0-0.1,0-0.2,0
	c-4.4-0.6-6.9-1.9-9.4,3.3C222.2,610.4,220,616.5,220,621.8z"/>
<path class="st2" d="M272,602.2c-1.3,6.9-2.6,13.9-2.7,21c0,4.4,0.3,8.9,0.8,13.2l1,10.3c0.3,3.5,0.7,6.9,1.2,10.4
	c0.3,1.8,0.5,3.6,0.5,5.4c-0.1,1.8-0.3,3.6-0.7,5.3c-0.6,3.6-0.9,7.3-1,11.1c-0.1,5.9,0.5,11.9,0.8,17.8c0.7,11.9,0.6,23.8-0.3,35.6
	c-0.4,3.2,0.2,6.5,1.5,9.2c0.6,0.9,1,1.8,1.4,2.8c0.7,2.7-0.9,5.4-1.4,8.2c-0.6,4.5,1.9,8.8,5.5,9.5c7.5,1.1,15.3,0.6,22.1,5
	c0.7-2.6-0.8-5.6-0.1-8.3c0.5-1.7,1.7-2.7,2.5-4.2c1.1-2.1,1.7-4.7,1.6-7.3c0-3.4-0.4-6.7-1.4-9.8c-0.8-2.6-2-5.2-1.9-8
	c0-1.4,0.4-2.8-0.1-4.1c-0.3-0.7-0.7-1.4-1.2-1.9c-2.8-3.9-4.5-8.8-4.9-14.1c-0.4-5.2-0.2-10.5,0.4-15.6c0.5-4.9,1.1-10.1,3.6-14
	c-1.1-11.6-0.5-23.5,2-34.8c0.2-1,0.6-2.3,1.5-2.5c0.7-0.1,1.4,0.2,1.8,0.9c1.5,1.7,2.2,4.3,2.8,6.7c0.7,2.6,1.4,5.4,0.9,8.1
	c-0.2,1.2-0.7,2.2-0.9,3.4c-0.6,2.3-0.5,4.8,0.3,7c0.4,0.8,0.6,1.7,0.7,2.6c-0.1,0.8-0.3,1.6-0.6,2.3c-0.7,2.8-0.4,5.9,0.8,8.5
	c1.2,2.5,2.7,4.8,4.4,6.8c-0.8,4.6-0.6,9.3,0.6,13.7c0.2,0.4,0.2,0.9,0.1,1.3c-0.2,0.5-0.6,0.6-0.9,0.9c-0.9,1-0.4,2.8,0.3,4.1
	c1.7,3.5,3.6,6.8,5.7,10c1.9,2.8,1.7,8.3,4.5,9.3c1.2,0.3,2.4,0.3,3.6,0c2.8-0.5,5.9-1.5,7.2-4.6c0.6-1.3,0.8-2.8,1.6-3.8
	c0.9-1,2-1.1,2.5-2.3s-0.1-2.6,0.1-4c0.2-1.3,1.1-2.4,1.4-3.8c0.7-3.2-2.3-5.9-2.7-9.1c-0.6-4.8,4.2-8.3,4-13.1
	c-0.4-10.3-0.7-20.7-1.1-31.1c-0.5-9.3-0.6-18.5-0.2-27.8c0.3-5.8,0.9-11.8-0.7-17.2c-2.4-7.6-9.1-11.8-15.5-12.6
	s-12.9,1.1-19.2,2.4C293.4,603.4,282.6,603.7,272,602.2z"/>
<ellipse class="st9" cx="291.1" cy="469.5" rx="15.1" ry="19.1"/>
<path class="st9" d="M285,492.1c-1.1,3.1-3.5,5-6.2,4.9c-0.5,2.9,0.8,5.7,2.3,8c6.3,9.3,16.2,13.6,25.7,11.1
	c1.8-0.4,3.5-1.3,5.1-2.7c2-2.1,3.4-5.1,3.9-8.4c0.4-3.3,0.6-6.6,0.4-9.9c0.1-0.7-0.1-1.3-0.4-1.8c-0.4-0.4-0.8-0.6-1.3-0.5
	c-3.2-0.4-6.5-0.5-9.3-2.5c-2.8-2-4.8-6.4-3.4-10.1c-0.2,0.6-5.7,0.8-6.4,1c-2.3,0.4-4.5,0.9-6.8,1.4c-1.1,0.1-2.2,0.3-3.2,0.8
	c-1.4,0.9-0.9,0.5-0.5,2.1C285.1,487.8,285.8,489.5,285,492.1z"/>
<path class="st2" d="M296.5,503.7c-2,0-4.1-0.3-6-0.8c-2-0.6-3.8-2.1-5-4.2c-0.7-1.3-1.2-3-2.3-3.8c-1.8-1.2-3.9,0.8-5.3,2.7
	c-1.3,1.8-2.9,3.4-4.5,4.6c-2,1.3-4.4,1.8-6.3,3.4c-1.5,1.4-2.8,3.2-3.8,5.1l-13.4,23c-5.4,9.2-10,19.1-14.8,28.9
	c-4.1,8.4-6.3,18.1-9.4,27.2c-0.2,0.6-0.3,1.2-0.3,1.8c0.1,0.6,0.7,1.1,1.1,0.8c-1.4,1.8-0.2,4.8-0.5,7.2c-0.4,1.7-1.2,3.3-2.2,4.4
	c2.1-0.3,4.2-0.2,6.2,0.4c2.1,0.8,4.1,2,5.9,3.6c1.1-0.2,1-2.8,1.9-3.7c0.5-0.6,1.3-0.5,1.9-0.7c2.5-0.6,3.5-4.4,5.4-6.6
	c1.6-1.8,3.9-2.4,5.6-4.1c2.8-2.7,3.4-7.6,4.8-11.7c1.2-3.4,3.2-6.4,4.3-10c0.7-2.3,1-4.8,2.1-6.9c1.6-3.4,4.6-5.2,7.5-6.8
	c1.8-1,3.8-2.1,5.7-1.9c-0.1,5.5-0.7,11,0.3,16.4c0.3,1.9,0.8,3.8,1.2,5.6c1.8,8.5,2.2,17.4,2.3,26.2c4.3-1.3,8.8-1.9,13.2-2
	c3.5-0.1,7,0.4,10.5,0.4c4.1-0.1,8.2-1.1,12.4-1.5s8.5,0,12.2,2.4c-0.3-7.5-0.1-15.1,0.5-22.6l1-11.8c0.2-3.4,0.6-6.8,1.3-10.2
	c0.5-2.7,1.3-5.3,1.9-8c2.1-9.5,1.7-19.7,1.3-29.6c-0.2-5.1-1.8-10.1-3.6-14.6c-0.7-1.7-1.4-3.3-2.3-4.9
	c-4.5-7.8-11.8-12.2-19.5-11.5c-0.5,0-1,0.1-1.4,0.4c-0.8,0.6-1.4,1.6-1.8,2.7C302.7,497.4,299.9,501.1,296.5,503.7z"/>
<path class="st2" d="M277.8,475.8c0.4-1.2,1.6-1.6,2.3-2.6c1.3-1.8,0.7-4.7,0.9-7.1c0.3-3.6,2.7-6.6,5.4-7.8
	c2.7-1.1,5.7-1.3,8.5-0.7c1.4,0.1,2.7,0.7,3.8,1.6c0.5,0.5,0.9,1,1.4,1.5c1.8,1.3,4,0.7,5.1-1.5c-3.3-5.1-7-10.4-12.1-12
	c-1.7-0.4-3.5-0.7-5.3-0.6c-2.3-0.1-4.8-0.1-6.9,1c-3,1.5-5,5.1-6.1,8.9c-0.9,3.9-1.4,7.9-1.5,11.9c-0.2,2.7-0.2,5.4,0,8.1
	c0.4,3.7,1.4,7.2,3.1,10.2c0.2,0.5,0.6,0.9,0.9,1.1C281.7,490.1,277.5,476.8,277.8,475.8z"/>
<path class="st8" d="M304.8,456.2c-0.5-5.6-3.7-10.2-7.1-14c-2.7-3.2-5.9-5.7-9.5-7.2c-3.6-1.3-7.6-1-10.7,1.6c-2.5,2.2-4,5.6-5.2,9
	c-1.6,4.1-2.4,8.6-2.3,13.1c0.2,4.5,2,9.1,5.1,11.3c1.1-2.1,3-3.1,4.9-4C288.1,462.3,296.4,458.9,304.8,456.2z"/>
<path class="st4" d="M276.2,453.9c0.3,0,0.5,0.4,0.7,0.7c0.8,1.5,1.4,3.1,2,4.8c-1.1,0.3-3,0.6-3.5-0.6
	C275,458.1,275.3,453.8,276.2,453.9z"/>
<path class="st4" d="M297.7,451.2c-0.2,0.3-0.5-0.3-0.5-0.7v-4.6c0-0.1,0-0.3,0.1-0.4c0.1-0.1,0.2-0.2,0.3-0.2
	c0.8-0.1,1.4,0.7,1.9,1.5c0.7,1.3,1.4,2.6,1.9,4.1l-4-0.2"/>
<path class="st2" d="M347.4,527.6c0.9-1,1.8-2,2.8-2.9c2.6-2.2,5.8-3.1,8.7-4.5c2.9-1.4,5.9-3.7,7.1-7.4c0.6-2.3,0.8-4.7,0.5-7.1
	c0-1-0.1-2-0.4-2.9c-0.4-0.8-0.9-1.5-1.5-2c-4-3.7-9.3-4-14.3-3.6c-10.9,0.9-21.6,4.2-31.5,9.9c-0.5,0.2-1,0.6-1.3,1.2
	c-0.2,0.5-0.3,1.1-0.3,1.7c-0.2,3.5,0.2,7,1.1,10.4c1.3,4.2,4,7.6,5.1,12c0.5,1.9,0.7,4,1.1,5.9c0.4,2,1.3,3.8,2.6,5
	c3.7,2.8,7.2-1,9.8-3.9L347.4,527.6z"/>
<path class="st3" d="M298.7,544.1l-4.8-13.2c-0.7-1.8-1.3-3.7-1.8-5.6c-0.5-2.3-0.8-4.7-1.3-7c-1.7-7.7-5.9-14.1-8-21.6
	c-0.1-0.7-0.4-1.3-0.8-1.8c-0.6-0.5-1.4-0.7-2.1-0.5c-2.9,0.6-5.1,3.4-7.8,5c-1.2,0.7-2.5,1.2-3.8,2c-1.2,0.7-2.2,2.1-2.5,3.8
	c-0.3,1.8,0.4,3.6,1,5.3c2.6,7.3,3.1,15.5,3.3,23.5c0.1,5.4-0.1,11.1-2.6,15.5c-4.8,8.3-1.7,20.6,0.1,30.6c0.2,1.2,0.5,2.5,0.6,3.7
	c0.2,1.6,0.2,3.2,0.2,4.8c0,5.3-0.2,10.8-2,15.7c1.7,1.2,3.7,1.9,5.7,2c5.5,0.9,11,1.5,16.5,1.9c1.7,0.2,3.5,0.1,5.2-0.3
	c4.2-1.4,7-6.2,7-11.7c0.3,3.3,0.9,6.9,2.8,9.2s4.7,2.6,7.2,2.8c7.3,0.5,14.5,0.2,21.8-0.8c0.5,0,0.9-0.2,1.3-0.4
	c1.4-0.9,1.5-3.3,1.4-5.3c-0.2-3.7-0.4-7.3-0.8-10.9c-0.3-2.3-0.4-4.7-0.5-7c0.1-2.4,0.5-4.8,0.9-7.1c1.3-7.4,2.3-15,1.8-22.6
	c-0.2-1.9-0.2-3.7-0.2-5.6c0.2-4.2,2-8.2,1.7-12.4c-0.9-12.3-1.7-24.9-4.4-36.7c-0.5-2.1-1.1-4.4-2.6-5.6c-1.9-1.6-4.5-0.8-6.7-1.8
	c-1-0.6-2-1.3-2.9-2.2c-2-1.5-4.2-2.4-6.5-2.5c-1.7-0.1-3.7,0.4-4.7,2.2c-0.5,1-0.8,2.1-0.9,3.2c-1.4,7.3-3,14.4-4.6,21.6l-1.5,6.9
	l-4.1,18.5C298.8,541.6,299.1,542.2,298.7,544.1z"/>
<polyline class="st5" points="322.8,472.1 414,593 414,603.2 373.3,603.2 304.8,490.4 "/>
<polyline class="st4" points="322.8,472.1 414,593 414,603.2 373.3,603.2 304.8,490.4 "/>
<polygon class="st4" points="306.2,488.8 306.5,488.9 373.9,593 414,593 414,603.2 373.3,603.2 304.8,490.4 "/>
<path class="st3" d="M316.7,491.3c-3.3,1.8-7,4.2-8,8.5c-0.2,0.8-0.2,1.6-0.1,2.4c0.5,1.9,1.9,3.2,3.5,3.3c1.6,0,3.1-0.3,4.5-1
	l19.5-8.1c0.5-0.2,1.1-0.5,1.3-1.2c0-0.4,0-0.8-0.2-1.2c-0.6-1.9-1.2-5.6-2.5-6.9c-1-1-3.1-0.7-4.3-0.7
	C325.5,486.5,321,488.9,316.7,491.3z"/>
<path class="st2" d="M334.1,497.4c3.3,0,6.5,0.6,9.7,1.9c3.1,1.3,5.9,3.7,8,6.9c0.6,0.9,1,2,1.3,3.1c0.2,1.2,3.3,1.9,2.6,2.7
	c2.1-0.4,1.6,0.8,3.7,0.8c2.1,0,4.4-0.7,5.6-2.8c0.9-1.7,1.3-3.8,1.1-5.8c0-1.4-0.2-2.8-0.6-4.1c-0.9-2.5-3.1-3.8-5.1-5l-16.8-9.7
	c-1-0.7-2-1.1-3.1-1.4c-0.9-0.1-1.8-0.1-2.7,0.1l-7.6,1.1c3.4,2.8,5.4,7.6,5.2,12.7"/>
</svg>
