<?xml version="1.0" encoding="utf-8"?>
<!-- Generator: Adobe Illustrator 22.1.0, SVG Export Plug-In . SVG Version: 6.00 Build 0)  -->
<svg version="1.1" id="레이어_1" xmlns="http://www.w3.org/2000/svg" xmlns:xlink="http://www.w3.org/1999/xlink" x="0px"
	 y="0px" viewBox="0 0 150 50" style="enable-background:new 0 0 150 50;" xml:space="preserve">
<style type="text/css">
	.st0{fill:none;stroke:#000000;stroke-width:1.5;}
	.st1{stroke:#000000;stroke-width:0.25;stroke-miterlimit:10;}
</style>
<g>
	<g id="Diversitea_1_">
		<path class="st0" d="M17,12.1v8.4c0,7.4,6,13.3,13.3,13.3s13.3-6,13.3-13.3v-8.4H17z"/>
		<path class="st0" d="M17,20.5c0,0,5.9-4.4,13.3,2.5c0,0,8.1,8.2,13.3-1.1 M22.2,38.5h16.2"/>
	</g>
	<g id="Layer_3">
		<g>
			<path class="st1" d="M50.6,28.7h1.3v-9.5h-1.3V18h4.1c1.9,0,3.4,0.5,4.4,1.4s1.5,2.4,1.5,4.2c0,2.1-0.5,3.7-1.7,4.7
				c-1.1,1.1-2.6,1.6-4.5,1.6h-3.9L50.6,28.7L50.6,28.7z M53.2,28.7h1.4c1.5,0,2.6-0.4,3.4-1.2c0.8-0.8,1.2-2,1.2-3.7
				c0-1.5-0.4-2.7-1.1-3.4c-0.7-0.8-1.9-1.1-3.5-1.1h-1.4L53.2,28.7L53.2,28.7z"/>
			<path class="st1" d="M62.5,28.7h1.3v-6.8h-1.3v-1.2h2.6v8h1.3v1.2h-3.9L62.5,28.7L62.5,28.7z M63.3,18.4c0-0.4,0.1-0.6,0.3-0.8
				c0.2-0.2,0.4-0.3,0.7-0.3s0.5,0.1,0.7,0.3c0.2,0.2,0.3,0.4,0.3,0.7c0,0.3-0.1,0.6-0.3,0.8c-0.2,0.2-0.4,0.3-0.7,0.3
				s-0.5-0.1-0.7-0.3C63.4,18.9,63.3,18.6,63.3,18.4z"/>
			<path class="st1" d="M72.2,29.9h-1.4l-2.9-8h-1.1v-1.2h3.5v1.2h-1.1l2.2,6.3h0.1l2.4-6.3h-1v-1.2h3.1v1.2h-0.9L72.2,29.9z"/>
			<path class="st1" d="M81.9,28.7c1,0,1.9-0.3,2.8-0.9v1.3c-1,0.5-1.9,0.8-3,0.8c-1.3,0-2.4-0.4-3.1-1.2c-0.8-0.8-1.1-1.9-1.1-3.2
				c0-1.5,0.4-2.7,1.1-3.5c0.8-0.8,1.8-1.2,3-1.2c1.1,0,1.9,0.4,2.5,1.1c0.6,0.7,0.9,1.7,0.9,3v0.7h-6.1c0,1,0.3,1.8,0.8,2.4
				C80.1,28.4,80.9,28.7,81.9,28.7z M83.6,24.3c-0.1-1.6-0.8-2.4-2.2-2.4c-0.7,0-1.3,0.2-1.7,0.6s-0.7,1-0.8,1.8H83.6z"/>
			<path class="st1" d="M92,22.2c-0.3-0.1-0.6-0.1-0.9-0.1c-1,0-1.7,0.5-2.2,1.4v5.2h1.3v1.2h-3.9v-1.2h1.3v-6.8h-1.3v-1.2h2.5
				l0.1,1.3h0c0.6-0.9,1.4-1.3,2.4-1.3c0.2,0,0.4,0,0.7,0.1L92,22.2L92,22.2z"/>
			<path class="st1" d="M93.5,23.2c0-0.8,0.3-1.4,1-1.9s1.5-0.7,2.6-0.7c0.9,0,1.9,0.2,2.9,0.5v2.2h-1.3v-1.2
				c-0.5-0.1-1.1-0.2-1.7-0.2c-0.6,0-1.1,0.1-1.5,0.3c-0.4,0.2-0.6,0.5-0.6,0.9c0,0.2,0,0.4,0.1,0.6c0.1,0.2,0.2,0.3,0.4,0.4
				c0.2,0.1,0.4,0.2,0.7,0.3s0.6,0.2,1,0.3c0.4,0.1,0.7,0.3,1.1,0.4c0.4,0.1,0.7,0.3,1,0.5c0.3,0.2,0.5,0.4,0.7,0.7
				c0.2,0.3,0.3,0.6,0.3,1.1c0,0.8-0.4,1.5-1,1.9c-0.7,0.5-1.6,0.7-2.7,0.7c-1,0-2-0.2-3-0.6v-2.1h1.3v1.2c0.5,0.1,1.1,0.2,1.8,0.2
				c0.6,0,1.1-0.1,1.6-0.3c0.4-0.2,0.6-0.5,0.6-0.9c0-0.4-0.2-0.8-0.6-1c-0.4-0.2-0.9-0.4-1.6-0.6c-0.4-0.1-0.7-0.2-1.1-0.4
				c-0.4-0.1-0.7-0.3-1-0.5c-0.3-0.2-0.6-0.4-0.7-0.7C93.6,24,93.5,23.7,93.5,23.2z"/>
			<path class="st1" d="M102.1,28.7h1.3v-6.8h-1.3v-1.2h2.6v8h1.3v1.2h-3.9V28.7z M103,18.4c0-0.4,0.1-0.6,0.3-0.8
				c0.2-0.2,0.4-0.3,0.7-0.3c0.3,0,0.5,0.1,0.7,0.3c0.2,0.2,0.3,0.4,0.3,0.7c0,0.3-0.1,0.6-0.3,0.8c-0.2,0.2-0.4,0.3-0.7,0.3
				s-0.5-0.1-0.7-0.3C103,18.9,103,18.6,103,18.4z"/>
			<path class="st1" d="M110,28.7h1.3v-9.5h-2.6v2.3h-1.3V18h9.2v3.5h-1.3v-2.3h-2.6v9.5h1.3v1.2H110L110,28.7L110,28.7z"/>
			<path class="st1" d="M121.5,28.7c1,0,1.9-0.3,2.8-0.9v1.3c-1,0.5-1.9,0.8-3,0.8c-1.3,0-2.4-0.4-3.1-1.2s-1.1-1.9-1.1-3.2
				c0-1.5,0.4-2.7,1.1-3.5c0.8-0.8,1.8-1.2,3-1.2c1.1,0,1.9,0.4,2.5,1.1c0.6,0.7,0.9,1.7,0.9,3v0.7h-6.1c0,1,0.3,1.8,0.8,2.4
				C119.7,28.4,120.5,28.7,121.5,28.7z M123.2,24.3c-0.1-1.6-0.8-2.4-2.2-2.4c-0.7,0-1.3,0.2-1.7,0.6s-0.7,1-0.8,1.8H123.2z"/>
			<path class="st1" d="M126.3,21.4c1.1-0.5,2.2-0.8,3.4-0.8c1,0,1.8,0.2,2.3,0.7c0.5,0.4,0.8,1.2,0.8,2.2v5.2h1.3v1.2h-2.5
				l-0.1-1.3h-0.1c-0.8,0.9-1.7,1.3-2.8,1.3c-0.9,0-1.6-0.2-2-0.7s-0.7-1.1-0.7-1.8c0-2,1.6-3,4.7-3h0.9v-0.9c0-0.5-0.2-0.9-0.4-1.2
				s-0.8-0.4-1.4-0.4c-1,0-2,0.3-3.2,0.8L126.3,21.4L126.3,21.4z M130.2,25.6c-2,0-3,0.5-3,1.7c0,0.5,0.1,0.8,0.4,1.1
				s0.7,0.4,1.2,0.4c0.9,0,1.8-0.4,2.6-1.3v-1.7H130.2z"/>
		</g>
	</g>
</g>
</svg>
