<?xml version="1.0" encoding="utf-8"?>
<!-- Generator: Adobe Illustrator 22.1.0, SVG Export Plug-In . SVG Version: 6.00 Build 0)  -->
<svg version="1.1" id="a6f4e524-a1b8-434a-a0ca-43acb27f4769"
	 xmlns="http://www.w3.org/2000/svg" xmlns:xlink="http://www.w3.org/1999/xlink" x="0px" y="0px" viewBox="0 0 1110.5 857.7"
	 style="enable-background:new 0 0 1110.5 857.7;" xml:space="preserve">
<style type="text/css">
	.st0{opacity:0.1;fill:#241C15;enable-background:new    ;}
	.st1{fill:#BE6F72;}
	.st2{opacity:0.1;enable-background:new    ;}
	.st3{fill:#3F3D56;}
	.st4{fill:#FBBEBE;}
	.st5{fill:#E3E8F4;}
	.st6{fill:#F86D70;}
	.st7{fill:#241C15;}
	.st8{opacity:0.2;}
</style>
<title>prototyping process</title>
<path class="st0" d="M1103.5,590.8c-11.1,33-34.5,62.7-59.5,90.9c-22,24.8-45.5,48.7-70.6,71.9c-6.9,6.4-14,12.8-21.2,19l-5,4.3
	c-4.4,3.8-8.9,7.6-13.5,11.4l-0.5,0.5c-4.4,3.7-8.9,7.4-13.4,11c-14.7,11.9-30.3,23.7-47.6,33.5c-5.9,3.3-11.9,6.5-18.2,9.3
	c-3.4,1.5-6.9,2.9-10.4,4.3c-5.8,2.2-11.7,4.1-18,5.6c-1,0.3-2.1,0.5-3.1,0.8c-6.4,1.5-12.8,2.5-19.3,3.3
	c-23.8,2.7-48.5,0.7-72.3-3.9c-11.9-2.3-23.7-5.3-35.1-8.6c-1.4-0.4-2.8-0.8-4.2-1.2c-38.7-11.9-75.1-28.1-114-39.5
	c-13.4-3.9-27.1-7.3-41.1-10c-6.8-1.3-13.7-2.5-20.5-3.6c-16.2-2.5-32.6-4.1-49.1-5c-22.2-1.2-45.2-0.7-66.3,4.1
	c-2.8,0.6-5.6,1.3-8.3,2.1c-3.5,1-6.9,2.1-10.3,3.4c-9,3.6-17.8,8-26.3,13.3c-1.7,1-3.3,2-5,3.1l0,0c-5.2,3.2-10.3,6.6-15.5,9.8
	c-9.3,6-19.1,11.1-29.1,15.2c-5.5,2.1-11.1,3.9-16.7,5.2c-14.9,3.7-30.8,5.1-46.8,5.2c-7.7,0-15.4-0.2-23-0.7h-0.2
	c-2.6-0.2-5.2-0.4-7.8-0.6c-11.9-1-23.8-2.5-35.4-4.6c-40-7.2-78-20.9-108.5-41.7C26.2,770.4-0.1,728.2,3.8,686.2
	c2.8-30.3,20.5-58.5,37.2-86c31.1-51.3,60.2-103.8,75.6-159.1c12.4-44.9,16.1-92.4,44.8-132.8c9.2-12.9,20.9-24.7,34.5-35
	c10.2-7.7,20.9-14.3,32-19.9c12.5-6.3,25.4-11.5,38.5-15.5c11.4-3.5,22.9-6.1,34.6-8c6.3-1,12.7-1.8,19.2-2.3
	c5-0.4,9.9-0.7,14.9-0.8h0.8c3.1-0.1,6.1-0.1,9.2,0c22.3,0.4,44.5,3,66.5,7.7c13.8,2.8,27.4,6.3,40.7,10.1c8,2.3,15.9,4.6,23.7,7.1
	c2.4,0.8,4.8,1.5,7.1,2.3c55.7,18.3,104.7,43.7,158.3,64.5c0.3,0.1,0.5,0.2,0.8,0.3l0,0c11,4.2,22.2,7.6,33.5,10.3
	c8.3,2,16.8,3.8,25.4,5.4c13.2,2.4,26.7,4.3,40.3,5.9l3,0.4c20,2.4,40.1,4.2,59.7,6.3c6.9,0.7,13.8,1.5,20.6,2.4
	c4.3,0.5,8.6,1.1,12.8,1.7c3,0.4,6.1,0.9,9.1,1.3c3,0.5,6.3,0.9,9.4,1.4c2,0.3,4.1,0.6,6.1,1c12.3,2,24.6,4.3,36.8,6.8
	c7.4,1.6,14.8,3.2,22,5.1c5.3,1.3,10.5,2.7,15.7,4.2c3.8,1.1,7.6,2.2,11.4,3.4c30.6,9.5,59.3,21.9,84,38.6
	C1096.1,456.4,1124.8,527.8,1103.5,590.8z"/>
<ellipse class="st0" cx="243.6" cy="82.7" rx="21.2" ry="26"/>
<ellipse class="st0" cx="676.1" cy="26" rx="21.2" ry="26"/>
<ellipse class="st0" cx="932.5" cy="84.3" rx="21.2" ry="26"/>
<ellipse class="st0" cx="35.5" cy="145.7" rx="35.5" ry="43.6"/>
<ellipse class="st0" cx="69.5" cy="361.1" rx="35.5" ry="43.6"/>
<ellipse class="st0" cx="1021.2" cy="281.8" rx="35.5" ry="43.6"/>
<path class="st1" d="M346.6,288c0.2,3.7,0,7.3-0.5,10.9c-2,11.2-10.2,18.9-18.2,24.7c-8,5.8-16.8,11.3-21.6,21.2
	c-5.7,11.9-3.9,27.8,2.8,38.9c6.7,11.1,17.4,17.7,28.4,20.5c20.1,5.1,42-2.1,57.1-19.1s22.6-43.8,18.9-68.6
	c-8.2,1.4-15.4-7.4-18.1-17c-2.6-9.6-2.1-20-3.1-30.1c-0.1-1.7-0.5-3.4-1.2-4.8c-1.1-1.9-3.2-2.7-5.1-3.4
	c-9.4-3.2-25.3-10.2-35.1-7.5C342.2,256.1,346.5,278.9,346.6,288z"/>
<path class="st2" d="M346.6,288c0.2,3.7,0,7.3-0.5,10.9c-2,11.2-10.2,18.9-18.2,24.7c-8,5.8-16.8,11.3-21.6,21.2
	c-5.7,11.9-3.9,27.8,2.8,38.9c6.7,11.1,17.4,17.7,28.4,20.5c20.1,5.1,42-2.1,57.1-19.1s22.6-43.8,18.9-68.6
	c-8.2,1.4-15.4-7.4-18.1-17c-2.6-9.6-2.1-20-3.1-30.1c-0.1-1.7-0.5-3.4-1.2-4.8c-1.1-1.9-3.2-2.7-5.1-3.4
	c-9.4-3.2-25.3-10.2-35.1-7.5C342.2,256.1,346.5,278.9,346.6,288z"/>
<path class="st1" d="M335.2,820.6c-9.3,6-19.1,11.1-29.1,15.2c-5.5,2.1-11.1,3.9-16.7,5.2c-0.4-9.3,0-18.5,1.2-27.7
	c0.8-5.3,1.9-10.5,2.2-15.8c0.4-7.7-0.9-15.4-3.9-22.2c10.9-1.8,21.2-4.8,32.2-3.9l0.7,0.1c1.3,0,2.6,0.3,3.8,0.9
	c1.7,1,3.1,2.5,4.1,4.5c0.6,0.9,1.1,1.9,1.6,2.9c3.1,6.6,4.3,14.1,4.5,22C336,808,335.8,814.3,335.2,820.6z"/>
<path class="st1" d="M392.3,791c-3.5,1-6.9,2.1-10.3,3.4c-9,3.6-17.8,8-26.3,13.3c-0.6-3.3-0.8-6.6-0.8-10
	c10.1-8.6,22.6-11.7,34.6-8.7c0.8,0.1,1.6,0.5,2.2,1.1C391.9,790.4,392.1,790.6,392.3,791z"/>
<path class="st3" d="M409.1,730.2c-0.7,7.9-1.6,15.8-3.9,23.2c-2.5,7.9-6.4,15.6-5.9,24.1c0.2,3.7,1.2,7.7,1.4,11.3
	c-2.8,0.6-5.6,1.3-8.3,2.1c-3.5,1-6.9,2.1-10.3,3.4c-9,3.6-17.8,8-26.3,13.3c-1.7,1-3.3,2-5,3.1l0,0c-0.7-0.1-1.4-0.2-2-0.4
	c-4.9-1.1-10-3.8-12.8-8.6c-0.6-1.1-1.1-2.3-1.5-3.6c-1.6-5.9,0.1-13.2-3.2-17.8l-0.2,0.2l-0.1,0.1c-1.8,2-3.8,3.8-5.9,5.3l0,0
	c-9.8,6.8-21.6,8.2-32.3,3.8c-2.1-0.9-4.1-2-6.1-3.3c-4.5-3.1-8.8-8.4-8.5-14.7c0.2-3.5,1.8-6.9,1.4-10.4c-0.3-2.5-1.7-4.6-2.7-6.8
	c-6.5-14.4,1.3-33-2.8-48.7c-0.1-0.4-0.2-0.7-0.3-1.1c-0.3-1-0.6-2-1-3c-0.8-2.3-1.8-4.6-2.5-6.9c-0.6-2-1.1-4-1.5-6.1
	c-0.9-6-1.3-12.2-1-18.3c0-16.2,2.3-32.7,5.7-48.3c0.6-2.8,1.3-6.7,2.1-10.9l0,0c0.9-4.5,2-8.9,3.5-13.1c2-5.5,4.6-9.9,8.3-11
	c5.5-1.6,13.9,1.8,19.4,2.6l22,3.2l43.9,6.5c7.6,1.1,15.5,2.4,21.8,7.7c0.4,0.3,0.8,0.7,1.2,1.1c1.7,1.6,3.1,3.5,4.4,5.5
	c0.4,0.7,0.9,1.5,1.3,2.2c1.4,2.7,2.6,5.5,3.6,8.5c5.4,16.1,5.6,34.1,5.6,51.5C410.6,694,410.6,712.2,409.1,730.2z"/>
<path class="st2" d="M324.9,786c-1.3-6.3-4.1-15.3-4.5-17.8c-1.4-8.3-2.4-16.6-3-25c-1.1-15-3-36.1,1.3-50.4
	c4,2.6,7.6,10.1,9.5,15.3c6.8,18.5-0.9,41.3,5.5,60.1c0.5,1.1,0.8,2.3,0.9,3.6c-0.1,1.6-0.6,3.1-1.4,4.4l-2.1,4.4L324.9,786z"/>
<path class="st1" d="M465.8,213.6c7.2-14.4,17.1-28.6,16.4-45.5c-0.2-6-1.8-11.9-3.1-17.8c-3.5-17.1-3.7-34.9-0.7-52.1
	c12.1-2.4,24.5,1,34.6,9.5c3.2,2.7,6.2,6.1,7.6,10.6c1.3,4.1,1.1,8.7,0.9,13.1c-0.5,10.1-1.3,20.9-6.3,28.9c-1.6,2.5-3.5,4.6-5,7.1
	c-2.2,3.6-3.6,8-4.8,12.3l-16.6,55.6c-8.4,28-17.5,57.4-36,76.8c-0.5,0.5-13.7-22.7-14.8-25c-4.4-9.5-2.5-13.5,2.9-21.5
	C451.4,249.9,457.2,230.9,465.8,213.6z"/>
<path class="st4" d="M275.2,687.9c-0.1,4.2-0.3,8.3-0.9,12.4c-0.2,1.5-0.4,3-0.6,4.5c-3.3,21.4-11.6,41.8-17.5,62.6
	c-7.7,27.5-11,51.4-13.7,78.8c-7.7,0-15.4-0.2-23-0.7h-0.2c-2.6-0.2-5.2-0.4-7.8-0.6c2.4-25.5-2-52.3,2.3-77.8
	c1.7-10.3,4.6-20.2,6.4-30.5c0.5-3,0.9-6.1,1.2-9.1c0.2-2.9,0.4-5.9,1.4-8.6c0.1-0.3,0.2-0.5,0.3-0.7c0.9-1.8,2.1-3.4,3.4-4.8
	c11.9-12.9,26.5-21.4,42.1-24.7C270.9,688.4,273.1,688.1,275.2,687.9z"/>
<path class="st2" d="M275.2,687.9c-0.1,4.2-0.3,8.3-0.9,12.4c-0.2,1.5-0.4,3-0.6,4.5c-3.3,21.4-11.6,41.8-17.5,62.6
	c-7.7,27.5-11,51.4-13.7,78.8c-7.7,0-15.4-0.2-23-0.7h-0.2c-2.6-0.2-5.2-0.4-7.8-0.6c2.4-25.5-2-52.3,2.3-77.8
	c1.7-10.3,4.6-20.2,6.4-30.5c0.5-3,0.9-6.1,1.2-9.1c0.2-2.9,0.4-5.9,1.4-8.6c0.1-0.3,0.2-0.5,0.3-0.7c0.9-1.8,2.1-3.4,3.4-4.8
	c11.9-12.9,26.5-21.4,42.1-24.7C270.9,688.4,273.1,688.1,275.2,687.9z"/>
<path class="st4" d="M225.6,742.7c-0.2,6.7-0.6,13.4-1.3,20c-2.6,27.1-3.1,55.3-4.9,82.8c-2.6-0.2-5.2-0.4-7.8-0.6
	c-11.9-1-23.8-2.5-35.4-4.6c0.9-6.2,1.8-12.4,2.7-18.6c1.1-7.6,2.2-15.3,1.9-23c-0.3-7.3-1.9-14.4-3.1-21.5
	c-2.7-15.3-4.2-31.8-8.6-46.2c-2.3-8.1-6-15.5-10.8-21.7c18.3-8.9,36-9.4,55.6-8.4c1.4-0.1,2.8,0.3,4,1.2c0.9,1,1.6,2.3,2,3.7
	c3,8.8,4.8,18,5.5,27.5C225.5,736.5,225.6,739.6,225.6,742.7z"/>
<ellipse class="st1" cx="373.3" cy="234.8" rx="38.2" ry="46.9"/>
<path class="st5" d="M381.2,344.5c4.9-10.3,9.2-23.1,18.6-25.9c5.3-1.6,10.8,0.6,16,2.8c1.5,0.4,2.9,1.4,3.9,2.8
	c0.8,1.5,1.2,3.2,1.2,5c1.6,21.2,1.6,42.6-0.2,63.8c-1.2,15-3.3,29.9-3.7,45c-0.5,20.9,2.3,41.8,1.4,62.7
	c-0.7,15.8-3.5,31.4-6.3,46.8l-11.7,64.7c-0.2,2-0.9,3.9-1.9,5.5c-1,1.1-2.2,1.9-3.5,2.4c-34.4,14.9-72.3,11.3-104.3-10
	c-4.2-2.9-8.5-6.2-11.2-11.1c-3.9-6.9-4.3-16.1-3-24.4c1.3-8.3,4-16.1,5.9-24.3c2.9-12.6,3.5-25.8,4.2-38.9
	c0.9-17.2,1.7-34.6,0.2-51.7c-1-11.8-3.2-23.5-4.8-35.2c-2.4-17.7-3.8-35.5-4.1-53.5c-0.2-10.7,0.2-22.6,6.2-30.3
	c2.9-3.8,6.8-6,10.8-7.8c6.7-3,14.1-4.8,20.9-2c6.7,2.8,12.2,11.5,10.6,20c-0.7,4-2.8,7.4-3.3,11.4c-0.7,5.3,1.6,10.7,4.9,14.3
	C345.5,396,372.4,363.1,381.2,344.5z"/>
<path class="st3" d="M382.6,296.6c5.4-2.4,11.2-2.8,16.7-1.2c3.5,1,7.3,2.9,10.6,0.9c1.2-0.7,2.2-1.8,3.4-2.5
	c3.2-1.7,7.4,0.4,10.3-2.1c1.8-1.6,2.4-4.5,3-7.2c2.9-12.6,9-23.9,17.2-32.1c-1,9.2-1.8,19.7,3.2,26.8c2.3,3.2,5.4,5.2,8.6,6.8
	c4.6,2.2,9.7,3.7,14.5,2.5c4.9-1.2,9.4-5.8,10.2-11.8c-0.2,9.1-7.2,15.4-9.1,24.1c-0.7,3.3-0.7,6.7-1.2,10.1
	c-1.3,8.5-6.3,15.4-10.6,22.3c-13.8,22.1-22.7,48.4-25.6,76.1c-0.2,3.3-0.8,6.5-1.7,9.6c-1,2.4-2,4.7-3.2,6.9
	c-7.2,14.9-5,33.7-2.5,50.7c3.8,26.6,7.6,52.8,13.8,78.7c1.1,4.4,2.2,9.1,4.9,12.3c-0.9,10.5-9.5,15.3-17.2,19.8
	c-7.6,4.5-14.7,10.4-20.9,17.4c-2.2,2.5-4.4,5.4-5.2,9c-0.8,3.4-0.2,7.1-1.2,10.4s-4.9,5.6-6.6,2.9c-2.2-9.9,1.5-20.3,1.4-30.5
	c-0.1-6.9-2-13.6-2.2-20.6c-0.3-7.8,1.6-15.5,3.6-23c5.6-20.7,12.3-41.2,14.2-62.9c1.9-21.7-1.7-45.3-14.2-60.8
	c-14.8-18.4-23.1-43.4-39-60.3c-2.5-2.7-5.4-6-5-10.1c0.3-1.8,0.9-3.5,1.9-4.9c5.5-9.5,12.7-17.2,18.6-26.3
	C379,318.5,383.7,308.1,382.6,296.6z"/>
<path class="st3" d="M330.4,316c-1,1.2-1.7,2.9-2.8,3.9c-1.3,1-2.8,1.6-4.4,1.7c-5.8,1.1-11.6,1.7-17.4,1.9c-4.9,0-10-0.5-14.7,1.1
	c-6.6,2.3-11.8,8.7-15.1,16c-3.3,7.3-4.8,15.6-6.1,23.9c-2.8,18.2-4.3,36.7-4.5,55.2c8.1-7.9,15.2-17.1,21.4-27.3
	c4.7-7.8,9-16.5,15.7-21.7c3.1-2.4,6.5-4,9.6-6.3c6.5-4.9,10.9-12.8,15.3-20.5c3.2-5.7,12.3-16.7,13.1-23.5
	C341.1,313.9,333.8,310.7,330.4,316z"/>
<path class="st3" d="M364.5,202.7c1.2,0.9,2.4,1.9,3.5,3c6.6,5.7,15.5,4.6,23.6,3.3c2.5-0.4,5-0.8,7.1-2.4c3.4-2.6,5-7.9,4.7-12.8
	c-0.3-4.9-2.3-9.4-4.8-13.2c-6.5-10.2-16.2-16.7-26.8-18c-2.7-0.4-5.4-0.1-8,1c-3.2,1.6-5.5,4.9-8.5,7.1c-8.6,6.5-21.8,3.6-27.4,14
	c-4.1,7.7-1.2,18-3.1,26.8c-1.4,6.6-5.5,12.5-4.8,19.2c0.4,3.6,2.3,6.8,3.7,10c3.4,7.4,4.9,15.9,4.5,24.3c3.8,3.3,9-1.8,10.1-7.3
	c1-5.5-0.2-11.4,0.7-16.9c1.6-9.8,8.6-16.9,11.7-25.9C353.1,208.7,356.8,197.8,364.5,202.7z"/>
<path class="st4" d="M272,309.5c-0.3,2.2-0.5,4.6,0.5,6.5c2,3.6,6.4,2.3,10,2.9c5.5,0.8,9.5,7.2,10.6,13.9
	c1.1,6.7-0.2,13.5-1.6,20.1c-3.1,14.9-6.9,29.7-11.2,44.2c-11.7-1.7-24-7.2-30.2-19.5c-5.6-11.2-5.1-25.4-8.6-37.7
	c-2.5-8.7-7-16.3-11.5-23.7c7.2,1.1,12.3-9,12.7-17.9c0.4-8.9-1.8-17.9-0.3-26.6c0.4-2.1,28.6,4.4,31.4,6.8
	C281.6,285.3,273.2,300.1,272,309.5z"/>
<path class="st2" d="M272,309.5c-0.3,2.2-0.5,4.6,0.5,6.5c2,3.6,6.4,2.3,10,2.9c5.5,0.8,9.5,7.2,10.6,13.9
	c1.1,6.7-0.2,13.5-1.6,20.1c-3.1,14.9-6.9,29.7-11.2,44.2c-11.7-1.7-24-7.2-30.2-19.5c-5.6-11.2-5.1-25.4-8.6-37.7
	c-2.5-8.7-7-16.3-11.5-23.7c7.2,1.1,12.3-9,12.7-17.9c0.4-8.9-1.8-17.9-0.3-26.6c0.4-2.1,28.6,4.4,31.4,6.8
	C281.6,285.3,273.2,300.1,272,309.5z"/>
<ellipse class="st4" cx="265.7" cy="248.1" rx="38.2" ry="46.9"/>
<path class="st3" d="M253.9,302.8c1.4-2.7-1-6.4,0.1-9.3c0.6-1.7,2.3-2.5,3.5-3.6c1.6-1.6,2.8-3.6,3.7-5.9c5.9-14,7.7-30.2,5.1-45.7
	c-0.9-5.2-1.7-12.1,2.2-14.4c1.1-0.6,2.2-0.8,3.4-0.7c7,0.3,13.7,6,20.5,4c4.7-1.6,8.2-6.6,8.6-12.6c0.4-7.8-4.3-14.4-9-19.7
	c-8.4-9.5-21.2-11.6-32.5-11.8l-21.2-0.4c-6.8-0.1-14.4,0.1-19.1,6.1c-6.8,8.6-3.4,22.7-4.4,34.6c-0.8,9.5-4.7,18.2-10.8,24.2
	c-4.4,4.3-10.4,8.4-10.4,15.3c0,2.4,0.8,4.6,1.4,6.9c2.2,9,0.1,18.9-4,26.8c-4.1,7.9-10.2,13.9-16.5,19.2c-3.4,2.8-6.8,5.5-9.5,9.4
	c-2.9,4.4-4.6,9.9-5,15.6c-0.4,4.3,0.3,8.7,2.1,12.5c4.1,8.1,14.1,9.3,20.9,4.6s10.9-13.6,13.7-22.6c1.6-5.3,3.3-11.4,7.5-13.8
	c5.3-3,11.5,1.8,15,7.6c3.5,5.8,5.6,13,10,17.7c6.9,7.4,18.8,6.2,24.6-2.5c4.2-6.3,5.1-14.9,4.9-23.1
	C258.7,314.6,257,308.2,253.9,302.8z"/>
<path class="st6" d="M267.6,363.9c-4.4,1.1-8.9-1.4-12.1-5.2c-3.2-3.8-5.4-8.7-7.7-13.4c-5.8-11.9-12.4-23.1-19.7-33.6
	c-6.4-9.1-15.3-18.4-24.9-15.5c-3.2,1.1-6.2,3.1-8.7,5.7c-17.1,16.6-26,42.9-23.6,69.5c0.7,7.7,2.4,15.2,3.1,22.9
	c0.5,6.3,0.6,12.7,0.4,19.1c-0.3,19.4-0.8,39.9-9.3,56.2c-13.2,25.3-20.2,55.4-29.9,83c-5.2,14.9-8.4,30.8-11.4,46.6
	c-1.8,9.4-3.6,18.7-5.4,28.1l-11.8,61.2c-1.2,6.3-2.4,12.9-1.2,19.2c2,9.4,9.2,16,16.8,18.7c7.6,2.7,15.7,2.2,23.5,2.3
	c15.1,0.2,30.3,2.5,44.5,8.9c4,1.8,8.1,4,12.4,4.5c4.3,0.4,8.6-1,12.6-2.9c11-5.2,20.5-14.4,30.6-21.9c6.3-4.7,13-8.7,20-11.9
	c3.5-1.6,7.2-3.1,9.6-6.6c1.8-2.6,2.6-6.1,3.2-9.4c3.3-19,1.1-38.6,0-58c-1.1-19.3-10.5-39.8-2.7-56.7c1.6-3.4,3.4-6.7,4.2-10.5
	c1.1-4.9,0.2-10.2,1.1-15.2c0.7-3.7,2.2-7,3.3-10.5c1.9-6.2,2.1-13,2.1-19.6c0-14.6-1.3-29.1-3.7-43.3c-3.1-18,7.1-35.9,13-52.9
	c2.1-6.1,5.1-11.9,5.9-18.4c0.8-5.9-0.2-11.9-1-17.8c-1.1-9.2-1.6-18.4-1.4-27.7c0.2-8.3,0.9-16.8-0.7-24.8
	c-1.6-8.1-6.2-15.9-12.8-17.6c-1.5-0.5-3.1-0.2-4.4,0.9c-0.8,0.9-1.3,2.1-1.6,3.4c-2.2,8.1-1.7,16.8-2.9,25.3
	C275.8,354.6,274.4,362.2,267.6,363.9z"/>
<path class="st1" d="M175.3,415.6c0.4-3.3-0.9-7.8-3.6-7.6c-2.5,0.1-3.6,4-3.6,7.1c0,3.1,0.4,6.7-1.4,8.9c-1.6,1.9-4.2,1.9-6,3.5
	c-1.3,1.2-2.1,3-2.1,5c0,1.7,0.6,3.3,0.7,4.9c0,1.7-0.9,3.6-2.2,3.5c-1.4,2.9-1.1,6.7,0.9,9.1c0.7,0.8,1.6,1.6,1.9,2.7
	c0.1,0.8,0,1.7-0.2,2.5c-0.4,3.3,1.4,7,4.2,7.4c-1.5,1.3-1.2,4.5,0.2,6c1.4,1.6,3.4,1.9,5.3,1.9c4.2,0,8.4-1.1,12.3-3.1
	c1.3-0.5,2.5-1.5,3.4-2.9c0.8-1.4,0.7-3.4-0.3-4.7c1.9,0.4,4.2,0.6,5.4-1.2c1.7-2.5-0.1-6.3-2-8.7c2.1-0.4,3.6-2.8,3.3-5.5
	c-0.1-1.2-0.7-2.3-1.5-3.1c-0.6-0.6-1.5-1.1-1.6-2c-0.1-1,0.6-1.6,0.8-2.4c0.6-1.9-0.8-3.8-2.2-5c-3.3-2.7-8.1-2.6-11-5.3
	C173.1,423.9,174.9,419.2,175.3,415.6z"/>
<path class="st3" d="M377.1,233c-2.4,0.3-4.8,0.4-7.1,0.2c-0.8-0.1-1.6,0.6-1.7,1.7l-4.5,42c-0.3,3-1.4,5.9-2.9,8.3
	c-2.6,3.9-3.8,8.9-3.3,13.8v71.3c0,0-0.3,9.5,5.6,9.5c7.1,1.1,14.3,1.1,21.4,0c0,0,4.8-1.1,4.8-9.9v-70.2c0.7-5-0.3-10.1-2.9-14
	c-1.5-2.4-2.5-5.3-2.8-8.3l-4.7-42.8C378.7,233.7,377.9,233,377.1,233z"/>
<path class="st2" d="M377.1,233c-2.4,0.3-4.8,0.4-7.1,0.2c-0.8-0.1-1.6,0.6-1.7,1.7l-4.5,42c-0.3,3-1.4,5.9-2.9,8.3
	c-2.6,3.9-3.8,8.9-3.3,13.8v71.3c0,0-0.3,9.5,5.6,9.5c7.1,1.1,14.3,1.1,21.4,0c0,0,4.8-1.1,4.8-9.9v-70.2c0.7-5-0.3-10.1-2.9-14
	c-1.5-2.4-2.5-5.3-2.8-8.3l-4.7-42.8C378.7,233.7,377.9,233,377.1,233z"/>
<path class="st7" d="M369.9,300.3h7.2c6,0,10.8,6,10.8,13.3V347c0,7.3-4.8,13.3-10.8,13.3h-7.2c-6,0-10.8-6-10.8-13.3v-33.4
	C359.1,306.3,364,300.3,369.9,300.3z"/>
<path class="st3" d="M474,51.7c-2.1,1.4-4.3,2.6-6.5,3.6c-0.8,0.3-1.3,1.3-1.1,2.3l8.9,40.9c0.6,3,0.6,6.1-0.1,9
	c-1.2,4.8-0.8,10,1.3,14.4l22.3,65.8c0,0,2.7,8.9,8.2,6.1c6.9-2.4,13.5-5.8,19.8-10.2c0,0,4-3.3,1.3-11.4l-22-64.8
	c-0.9-4.9-3.5-9.1-7.1-11.5c-2.2-1.5-3.9-3.7-5.2-6.3l-17.8-37.3C475.7,51.6,474.8,51.2,474,51.7z"/>
<path class="st7" d="M488.5,117.2l6.7-3.4c5.5-2.8,11.8,0.4,14.1,7.1l10.4,30.8c2.3,6.8-0.3,14.6-5.8,17.4l-6.7,3.4
	c-5.5,2.8-11.8-0.4-14.1-7.1l-10.4-30.8C480.4,127.8,483,120,488.5,117.2z"/>
<path class="st4" d="M199.5,304c-10.5,5.3-14.7,21.9-12.2,35.6c2.5,13.6,9.9,25,17.1,35.8l20.3,30.4c5.6,8.4,11.7,17.3,20.3,20.2
	c12.5,4.3,25-5.5,35.8-14.4c32.3-26.4,66.8-48.5,102.9-65.9c3.5-1.7,7.2-3.4,10.1-6.4c6-6.2,7.7-17.7,4.4-26.5
	c-3.4-8.7-11.2-14.4-19-14.5c-7.9-0.1-15.5,5.1-20.3,12.8c-2.3,3.7-3.9,7.9-6.1,11.7c-5.5,9.4-14.1,15.3-22.5,20.5
	c-20.3,12.7-41.2,24-62.6,33.7c-3.9,1.8-8.3,3.4-12,1.1c-2.3-1.4-3.8-4.1-5.2-6.8c-6.2-12.1-11.2-25.1-14.8-38.7
	c-2.7-10.2-4.8-21.4-11.2-28.6c-9.1-10.3-25.6-7.8-32.4,4.8c0,0-8,14.4-3.1,20.4C193.8,335.3,199.5,304,199.5,304z"/>
<path class="st4" d="M748.2,254.2c1.4,4.7,1.5,9.8,1.3,14.8c-0.3,6.1-1.5,13.2-6.1,15.6c-3,1.5-6.7,0.4-9.4,2.6
	c-3.2,2.7-3.1,8.5-2.6,13.2c1.4,13,2.9,26.5,8.7,37.6c3.1,5.9,7.3,10.8,11.6,15.5c8.5,9.4,17.8,18.6,28.9,21.7
	c1.8,0.6,3.7,0.7,5.6,0.3c1.8-0.7,3.5-1.9,4.8-3.6c6.5-7.3,9.8-17.7,14.1-27.1c3-6.7,6.7-13.2,8.4-20.7c2.9-13.3-0.6-27.4-9-36.4
	c-1.9-2-4-3.7-5.9-5.8c-4.8-5.4-7.6-13.1-8.8-21c-1.2-7.9-1-16-0.4-24.1c-9.8-0.9-19.5,0.5-29,2.9c-4.2,1-10.2,1.5-14.1,4
	C741.9,246.6,747,250.2,748.2,254.2z"/>
<path class="st2" d="M748.2,254.2c1.4,4.7,1.5,9.8,1.3,14.8c-0.3,6.1-1.5,13.2-6.1,15.6c-3,1.5-6.7,0.4-9.4,2.6
	c-3.2,2.7-3.1,8.5-2.6,13.2c1.4,13,2.9,26.5,8.7,37.6c3.1,5.9,7.3,10.8,11.6,15.5c8.5,9.4,17.8,18.6,28.9,21.7
	c1.8,0.6,3.7,0.7,5.6,0.3c1.8-0.7,3.5-1.9,4.8-3.6c6.5-7.3,9.8-17.7,14.1-27.1c3-6.7,6.7-13.2,8.4-20.7c2.9-13.3-0.6-27.4-9-36.4
	c-1.9-2-4-3.7-5.9-5.8c-4.8-5.4-7.6-13.1-8.8-21c-1.2-7.9-1-16-0.4-24.1c-9.8-0.9-19.5,0.5-29,2.9c-4.2,1-10.2,1.5-14.1,4
	C741.9,246.6,747,250.2,748.2,254.2z"/>
<path class="st4" d="M693.6,289.6c-15.9-6.7-23.5-32.9-40.1-35.8c-2.6-0.5-5.3-0.3-7.9-1c-9.6-2.8-13.7-16.4-16.5-28
	c-9.3-38.7-21.5-76.6-38.8-110.9c-7.3-14.4-18.9-26.3-24.1-42.1c-1.2-3.6-1.8-7.7-4-10.6c-2.2-2.9-6.8-3.3-8,0.4
	c-0.3,1.3-0.4,2.7-0.2,4l1.1,15l-19.9-2.2c-1.8-0.4-3.7-0.2-5.5,0.5c-1.9,1.2-3.5,3.1-4.3,5.5c-6.7,15.6,0.4,35.9,12.3,45.8
	c13.9,11.5,33.7,13.2,42.9,30.4c5.5,10.2,5.6,23.3,9.2,34.7c1.7,5.5,4.2,10.5,6.2,15.7c3.8,10.1,5.8,21,8.7,31.5
	c4.2,15,10.5,29,16.8,42.9c4.8,10.7,9.8,21.7,17.2,29.9c4.9,5.4,10.6,9.4,16.4,13.2c14.1,9.5,30.8,18.6,45.8,11.4
	C701.8,323.4,698.4,305.1,693.6,289.6z"/>
<path class="st4" d="M741.8,807.6c-1.2,15.7-9,29.9-10.8,45c-11.9-2.3-23.7-5.3-35.1-8.6c-1.4-0.4-2.8-0.8-4.2-1.2
	c6.4-21.7,0.8-45.9,2.5-69c0.2-2.2,0.4-4.4,0.7-6.6c14.7-6.2,28.1-14.4,43.5-12c0.3,3.9,0.6,7.7,0.9,11.6c0.6,7.7,1.2,15.4,1.8,23.1
	C741.9,795.7,742.1,801.6,741.8,807.6z"/>
<path class="st4" d="M843.8,846.8c-5.8,2.2-11.7,4.1-18,5.6c-1,0.3-2.1,0.5-3.1,0.8c-6.4,1.5-12.8,2.5-19.3,3.3
	c-0.7-16.7-9.8-32.1-11.1-49.3c-0.3-4.3-0.2-8.6,0.1-12.8c0.1-1.7,0.3-3.4,0.4-5.1l2.8-34.6c2.2-0.3,4.4-0.5,6.6-0.4
	c12.7,0.4,24.3,7.1,36.9,12.4c0.9,7.3,1.3,14.7,1,22.1c-0.5,18.8-2.9,37.8,2.7,55.1C843.1,844.9,843.4,845.8,843.8,846.8z"/>
<path class="st6" d="M678.6,582.9c1.7,16.4-5.1,32.1-8.1,48.3c-2,10.7-2.2,21.7-2.5,32.6l-1.5,65.6c-0.2,6.6-0.3,13.2,1.3,19.5
	c3.3,12.6,13.3,21.1,23.8,24.2c10.5,3,21.4,1.5,32.1-0.2c5.2-0.9,10.7-1.9,15-5.6c6-5.1,8.6-14.2,10.8-22.7l6.3-24
	c7.3,20.2,4.2,42.4,8.6,63.8c0.3,2,1,3.9,2,5.5c1.8,2.5,4.9,2.9,7.7,3.2c19.2,1.7,38.6,3.3,57.5-1.2c5.2-1.2,10.6-3.2,14.2-7.9
	c4.2-5.6,4.9-13.8,4.8-21.3c-0.3-26-7.9-51.1-9.6-77c-0.7-11.1-0.4-22.3-0.7-33.4c-0.3-8.4-0.9-16.7-1.9-25
	c-0.3-3.8-1.2-7.5-2.5-10.9c-2.9-6.7-9-10.4-14.8-13.2C776.3,580.5,727,580.7,678.6,582.9z"/>
<ellipse class="st4" cx="761.7" cy="208.4" rx="42.1" ry="51.7"/>
<path class="st5" d="M798.3,299.5c-3.1,8.4-8,16.8-15.3,19c-6.7,2-13.8-2-18.8-7.9s-8.2-13.6-11.6-21c-2.5-5.4-5.3-10.8-9.5-14.2
	c-5.8-4.6-13.3-4.5-20.1-3.1s-13.6,3.8-20.5,3.2c-8.6-0.7-17.4-6-25.6-2.5c2.6,14.5,1.7,30.5,1.4,45.4c0.1,2.3-0.2,4.6-0.8,6.8
	c-0.7,2-1.7,3.9-2.8,5.6l-7.8,12.4c8.4,7.7,15.7,17.8,18.6,30.2c1.7,7.1,1.1,14.5,1.1,21.9c-0.2,21.5,3.6,43,2.4,64.5
	c-1.4,25.2-9.6,49-13.8,73.7c-3.6,21.2-4.3,43-2,64.5c43.8,18.7,89,28.2,135.4,31.3c8.2,0.6,17,0.6,23.8-5.1
	c5.6-4.8,8.7-13.1,9.8-21.4c1.1-8.3,0.3-16.7-0.4-25.1c-2-22.6-4-45.2-6-67.7c-1.1-12.8-2.3-25.8-1.5-38.7
	c0.6-9.6,2.2-19.1,3.8-28.5l9.8-57.8c1.4-8.2,2.8-16.5,5.6-24.2c2.3-6.3,5.4-12,7.9-18.1c3-7.3,5-15.1,6.1-23.2
	c0.4-2.3,0.4-4.8-0.1-7.1c-1-3.9-4.2-6.3-7.2-8.3c-18.2-11.8-37.7-20.2-57.9-25C800.5,286.2,800.8,292.9,798.3,299.5z"/>
<path class="st3" d="M794.3,264.8c4.9-11.5,14-19.6,19.3-30.9c6-13,6.4-28.7,1.2-42.1c-1.9-4.7-4.4-9-5.9-13.9
	c-1.6-5.6-1.8-11.7-3.7-17.2c-2.6-7.5-8.2-12.9-14.3-16s-12.7-4.2-19.3-5.3l-22.2-3.7c-3.2-0.5-6.6-1.1-9.7,0
	c-3.1,1.1-6,4.2-6.3,8.2c-0.3,4.7,3.1,9.1,2.3,13.8c-0.3,1.6-1.1,3.3-0.6,4.9c0.4,1.1,1.1,1.9,2,2.4c5.3,3.6,11.6,3.9,17.3,6.3
	c5.7,2.4,11.4,8.3,10.9,15.6c-0.3,4-2.4,8.1-1,11.6c1.3,3.3,4.9,3.9,7.7,4.9c9.1,3.3,15.6,15.5,14.2,27.1c-0.4,3.6-1.5,7.1-1.7,10.7
	c-0.7,12.7,0.9,16.3,9.3,23.7L794.3,264.8z"/>
<path class="st1" d="M851.4,319.7c0,2.4-0.3,4.8-1,7c-3.1,8-12.4,7.5-18.6,12c-7.7,5.7-9.4,18.3-10.1,29.3
	c-0.8,12.5-1.3,25.1,0.7,37.3c2.1,12.2,7.1,24.1,15.4,31.3c10.1,8.7,23.9,9,35.5,3.7c11.6-5.3,21.3-15.5,29.7-26.7
	c8-10.6,15.1-22.4,19.4-35.8c0.8-2.4,1.4-5,0.8-7.4c-0.9-3.6-4.1-5.2-6.7-7.2c-6.1-4.5-10.1-12.4-12.2-20.7
	c-2.1-8.3-2.5-17.2-2.5-25.9c-0.1-9.1-0.1-19-4.8-26c-4.7-7-12.8-9-20.2-8.9c-6.1,0-22.9,0.7-27,7.2
	C846.2,294.4,851.6,311.9,851.4,319.7z"/>
<path class="st2" d="M851.4,319.7c0,2.4-0.3,4.8-1,7c-3.1,8-12.4,7.5-18.6,12c-7.7,5.7-9.4,18.3-10.1,29.3
	c-0.8,12.5-1.3,25.1,0.7,37.3c2.1,12.2,7.1,24.1,15.4,31.3c10.1,8.7,23.9,9,35.5,3.7c11.6-5.3,21.3-15.5,29.7-26.7
	c8-10.6,15.1-22.4,19.4-35.8c0.8-2.4,1.4-5,0.8-7.4c-0.9-3.6-4.1-5.2-6.7-7.2c-6.1-4.5-10.1-12.4-12.2-20.7
	c-2.1-8.3-2.5-17.2-2.5-25.9c-0.1-9.1-0.1-19-4.8-26c-4.7-7-12.8-9-20.2-8.9c-6.1,0-22.9,0.7-27,7.2
	C846.2,294.4,851.6,311.9,851.4,319.7z"/>
<path class="st1" d="M799.2,642.3c0.3,1.8,1,3.5,2,4.9c1,0.9,2.1,1.6,3.3,1.9c32.1,11.6,66.4,7,99.6,2.2c-4.5-17-9.1-34.3-10.4-52.1
	c-1-14.7,0.1-30.1-4.1-43.9c-1.3-4.1-74.2,14.7-81.4,16.3c-3.7,0.8-7.9,0.5-10.5,4.1c-3.1,4.4-3.4,14.7-3.7,20.2
	C793,611.6,795.7,627.4,799.2,642.3z"/>
<path class="st1" d="M872.3,833.3c-5.9,3.3-11.9,6.5-18.2,9.3c-3.4,1.5-6.9,2.9-10.4,4.3c-5.8,2.2-11.7,4.1-18,5.6
	c-3.5-11-7.1-22.1-10.6-33.1c-2.6-8.1-5.2-16.3-7.4-24.6c-1.5-5.7-2.8-11.5-3.7-17.3c-3.2-19.9-2.4-40.5,2.4-59.9
	c13.6,3.1,26.8,5.2,40.2,7.6c7.1,1.2,14.3,2.6,21.5,4.3c0.6,5.8,1.1,11.6,1.5,17.4c0.7,9,1.3,17.9,1.7,26.9
	C872.4,793.5,872.7,813.4,872.3,833.3z"/>
<path class="st2" d="M872.3,833.3c-5.9,3.3-11.9,6.5-18.2,9.3c-3.4,1.5-6.9,2.9-10.4,4.3c-5.8,2.2-11.7,4.1-18,5.6
	c-3.5-11-7.1-22.1-10.6-33.1c-2.6-8.1-5.2-16.3-7.4-24.6c-1.5-5.7-2.8-11.5-3.7-17.3c-3.2-19.9-2.4-40.5,2.4-59.9
	c13.6,3.1,26.8,5.2,40.2,7.6c7.1,1.2,14.3,2.6,21.5,4.3c0.6,5.8,1.1,11.6,1.5,17.4c0.7,9,1.3,17.9,1.7,26.9
	C872.4,793.5,872.7,813.4,872.3,833.3z"/>
<path class="st1" d="M947.6,781.2c0.1,6.9-1.5,14-3,20.8c-0.1,0.5-0.2,1-0.3,1.4c-3.5-1.4-6.6-4.2-8.6-8c-1.1-2.1-1.8-4.3-2.3-6.7
	c-4.4,3.7-8.9,7.4-13.4,11c-14.7,11.9-30.3,23.7-47.6,33.5c-5.9,3.3-11.9,6.5-18.2,9.3c-1.3-5.6-2.5-11.3-3.7-17
	c-1.3-5.9-2.3-11.8-3-17.8c-1.4-13.6-0.3-27.5,3.2-40.5l0,0l0.4-1.6c1.7-5.8,3.8-11.3,6.4-16.6c2.4-4.8,7.3-4,12.2-2.4
	c2.2,0.7,4.5,1.6,6.5,2.1c12.8,3.3,26.1-0.1,39.1,0.8c6.2,0.4,12.3,2.3,18,5.6c6.3,3.9,11.4,9.8,13.3,18c0.3,1.2,0.5,2.4,0.6,3.6
	C947.5,778.3,947.6,779.8,947.6,781.2z"/>
<path class="st1" d="M712.2,227.1c-20.2-24.1-43.2-44.5-66.6-63.5c-6.1-4.7-12-9.9-17.6-15.4c-5.9-6-11-13.1-17.2-18.5
	c-6.2-5.4-13.9-9.1-21.4-7.4c-7.5,1.8-14.1,10.6-13,19.8c1,8.1,6.9,13.7,12.4,18.3c10.4,8.8,20.8,17.7,32.1,24.6
	c3.9,2.2,7.7,4.7,11.4,7.5c7,5.8,12.1,14.4,17.5,22.5c20,30.6,44.6,56.3,72.4,75.8c0.3,0.2,11.9-30.5,11.4-34.5
	C732.3,247.2,717.5,233.4,712.2,227.1z"/>
<path class="st3" d="M885,615.9c-15.6,1.2-30.6,7.7-45.8,11.8c-15.3,4.1-31.8,5.7-46-2.4l8.6,72.3c0.5,4,1,8.1,0.3,12.1
	c-0.7,3.8-2.4,7.3-2.2,11.2c0.2,6.1,4.9,10.4,9.3,13.2c12.8,8.3,27.1,12.3,41.5,11.8c-1.1,5.3-2.4,10.5-3.5,15.8
	c7.2,9.5,18.9,10.1,29.2,13.1c7.8,2.3,15.2,6.2,22.8,9c9.3,3.4,18.9,5,28.6,4.9c6.5-0.1,13.4-1.2,18.5-6.2
	c6.2-6.2,8.2-16.7,9.5-26.4c0.8-5.4,1.4-10.9,1-16.4c-0.5-6.3-2.5-12.2-4.4-18l-13.4-40c-2.4-7.2-4.9-14.5-7.8-21.5
	C921.5,637.7,905.6,614.3,885,615.9z"/>
<path class="st7" d="M896.9,366.1c2.4-7.7,8.7-12.4,15.4-11.5c3.9,0.7,7.4,3.3,10.8,5.9l18.7,14.3c3.1,2.3,6.1,4.8,8.9,7.5
	c12.9,13.1,17.9,34.7,19.3,55.2c1.4,20.5,0,41.4,3.3,61.6c-7.9,8-16.6,14.8-24.5,22.9c-4.1,4.2-8.3,8.4-11.4,13.8
	c-2.5,4.2-4.3,9.1-6.8,13.2c-4.2,6.5-10.4,10.7-17.1,11.7c4.3,3.1,6.7,9,7.8,14.9c1.2,5.9,1.5,12,2.7,17.9c1.8,8,5.4,15.4,6.6,23.5
	c0.8,5.6,0.5,11.4,0.8,17.2c1.5,29.6,20.4,55.5,19.2,85.2c-8.9-4-17.4-9.4-25.1-16.2c-3.5-3.1-6.8-6.4-10.1-9.7l-24.9-24.8
	c-12.1-12-24.4-24.3-34-39.4c-6-9.5-11-20-17-29.4c-6.1-9.5-13.5-18-22.8-22c-1.4,2.5-3.8,4.3-5.1,6.8c-0.2,0.4-0.4,0.8-0.6,1.3
	c-0.2,1.1-0.1,2.3,0.3,3.3c1.1,4.9,1.7,9.9,2,14.9l0.6,9c0.2,2.4,0.2,4.8,0,7.2c-0.9,7.7-6.8,13.7-13,14.9c-0.9,0.2-1.9,0.2-2.7-0.1
	c-1.8-0.7-2.7-3-3.2-5.2c-2.5-10.3,1.3-21.1,1.6-31.8c0-2.7,0-5.4-0.2-8.1l-0.6-10.7c-5.7-1.5-9-9-10.5-15.9
	c-4.1-18.6-8.2-37.9-5.8-56.9c0.6-5.1,1.7-10.3,1-15.4c-1-6.8-5-12.4-7.1-18.8c-6.8-20.9,7.7-43.7,6.3-66.2
	c-0.6-9.4-5.4-17.6-8.4-26.4c-1.5-5.1-3.5-10-5.9-14.6c-3-5.3-7-9.5-11-13.7c-12.1-13.1-23.6-27-34.4-41.7
	c-5.6-0.7-10.8-3.6-14.8-8.3c-2.6-3-4.7-7-4.8-11.3c-0.1-4.4,2.6-9,6.1-9.2c2.1-0.1,4,1.1,6,1.7c6.3,1.7,12.7-4,15.5-11.2
	s2.8-15.5,2.8-23.5c6.3-1.4,12.7,1.4,17,7.3c4.4,5.8,7.2,13.1,10.7,19.9c1.4,3,3.2,5.7,5.3,7.9c4.7,4.6,11.5,5.5,15.6,10.8
	c2.1,2.7,3.2,6.4,5.1,9.3c5.4,8.3,15.2,9.3,22.5,14.7c7.3,5.4,12.4,15.4,20.5,18.6c2.9,1.2,6.1,1.4,9,2.7
	c6.7,3.1,10.8,11.8,11.7,20.6c0.9,8.7-0.7,17.5-2.3,26.1l-3.8,20.1c-0.8,4.5-1.5,9.8,1.2,13c1.3,1.3,2.7,2.2,4.3,2.7
	c6.8,2.7,14.5,5.4,20.9,1.6c3-1.9,5.4-5,7.6-8.2C885.7,401.2,892.1,383.1,896.9,366.1z"/>
<path class="st1" d="M974.1,775.2c-1.3,11-6.3,21.8-14.4,26.9c-4.8,2.9-10.4,3.4-15.5,1.3c-3.5-1.4-6.6-4.2-8.6-8
	c-1.1-2.1-1.8-4.3-2.3-6.7c0-0.1,0-0.3-0.1-0.4c-0.7-4.3-1-8.6-0.9-13c0-6.8,0.3-13.5,1-20.2c0.5-5.6,1.4-11.2,2.7-16.7
	c1.8-7.8,4.4-15.3,6.8-22.9c1.3-4,2.5-8,3.4-12l0,0c0.6-2.4,1.1-4.9,1.5-7.4l0.1-0.9c0.1-0.5,0.1-1,0.2-1.5c1-6.9,1.3-14,3.8-20.2
	c5.9-14.5,17.3-10.8,19,2.6c0.1,1,0.2,2.1,0.2,3.1c0.3,17-5.2,33.6-2.7,50.6c0.7,4.2,1.6,8.3,2.7,12.3c0.9,3.7,1.7,7.5,2.3,11.3
	C974.7,760.7,974.9,768,974.1,775.2z"/>
<path class="st7" d="M979.5,586.4c0.3,7,0,14,1.1,20.8c2.7,16.1,12.7,30.4,11.6,46.8c-0.3,4-1.5,8.3-4.3,10.3
	c-2.8,2-7.5,1.8-8.5,5.8c-0.3,1.1-0.1,2.3-0.4,3.4c-0.6,2.3-2.9,3.3-4.9,3.3c-2-0.1-3.9-0.9-5.9-0.6c-7.1,0.7-9.7,12.4-16,16.4
	c-4.3,2.7-9.8,1.2-13.3-2.8c-3.5-4-5-10.2-4.8-16.1c0.2-4.4,1.3-8.7,2-13.1c1.1-7.8,0.5-15.8,0-23.7c-0.9-11.6-1.7-23.3-4.8-34.2
	c-1.5-5.2-3.4-10.1-4.7-15.4c-1.8-7.4-2.2-15.2-2.4-23c-0.4-16.3,0.5-33.7,8.4-46.8c5.9-9.8,14.4-17.8,21.2-26.9
	c4.2-5.7,5.4-7.5,10.1-2.6c3.8,4,7.8,9.4,8.3,14.8c1.2,13.8,0,27.3,2.1,41.3S979,572.1,979.5,586.4z"/>
<ellipse class="st1" cx="878.1" cy="260.1" rx="49.9" ry="61.4"/>
<path class="st3" d="M923.7,377.5c1.1-1.9,2.4-3.9,4.3-4.3c1.4-0.1,2.8,0.2,4,1l13.1,6.7c3.6-7.2,5.6-15.4,6.1-23.8
	c0.3-5.2-0.1-10.4,0.7-15.5c1.2-7.5,4.8-14.3,5.7-21.9c0.7-6.1-0.5-12.3-1.3-18.4c-2.2-18.9,0.2-38.2-1.1-57.3s-7.5-39.5-21.3-48.2
	c-3.9-2.4-8.1-3.8-12.2-5.8c-9.1-4.2-17.2-11-26.2-15.6s-19.5-6.7-28.2-1.4c-8.7,5.3-13.7,20.1-8.1,29.8c1.9,3.2,4.6,5.5,7.2,7.7
	c5.3,4.7,10.7,10.4,11.9,18.3c2.2,14.2-9.8,25.3-13.2,39.1c-1.2,5.4-1.4,11.1-0.3,16.6c1.5,8.2,5,16,4.9,24.4
	c-0.1,9.2-4.6,17.5-5.4,26.7c-0.3,3.4-0.1,6.8-0.5,10.1c-0.6,4.4-1.7,8.7-3.2,12.8c-7.8,24.1-15.8,48.4-27.4,70
	c12.5,0.3,24.8-3.3,35.8-10.3c-1.6,9.3-4.6,18.1-9,25.9c10-1.4,19.5-5.5,28-12c-2.1,9.1-5.1,17.8-8.9,26c0.3-0.7,6.5-2.4,7.6-3.2
	c2.3-1.6,4.2-4.1,5.4-7.1c3.3-7.3,5.4-16.1,8.5-23.7C907.5,407.9,915.2,392.3,923.7,377.5z"/>
<path class="st3" d="M545.4,9.3c-2.4,0.3-4.8,0.4-7.1,0.2c-0.8-0.1-1.6,0.6-1.7,1.7l-4.5,42c-0.3,3-1.4,5.9-2.9,8.3
	c-2.6,3.9-3.8,8.9-3.3,13.8v71.3c0,0-0.3,9.5,5.6,9.5c7.1,1.1,14.3,1.1,21.4,0c0,0,4.8-1.1,4.8-9.9V76c0.7-5-0.3-10.1-2.9-14
	c-1.5-2.4-2.5-5.3-2.8-8.3L547,10.9C546.9,9.9,546.2,9.2,545.4,9.3z"/>
<path class="st7" d="M538.2,76.5h7.2c6,0,10.8,6,10.8,13.3v33.4c0,7.3-4.8,13.3-10.8,13.3h-7.2c-6,0-10.8-6-10.8-13.3V89.8
	C527.4,82.5,532.2,76.5,538.2,76.5z"/>
<path class="st3" d="M612.9,70.6c-2.4,0.3-4.8,0.4-7.1,0.2c-0.8-0.1-1.6,0.6-1.7,1.7l-4.5,42c-0.3,3-1.4,5.9-2.9,8.3
	c-2.6,3.9-3.8,8.9-3.3,13.8v71.3c0,0-0.3,9.5,5.6,9.5c7.1,1.1,14.3,1.1,21.4,0c0,0,4.8-1.1,4.8-9.9v-70.2c0.7-5-0.3-10.1-2.9-14
	c-1.5-2.4-2.5-5.3-2.8-8.3l-4.7-42.8C614.4,71.3,613.7,70.6,612.9,70.6z"/>
<path class="st7" d="M605.7,137.9h7.2c6,0,10.8,6,10.8,13.3v33.4c0,7.3-4.8,13.3-10.8,13.3h-7.2c-6,0-10.8-6-10.8-13.3v-33.4
	C594.9,143.8,599.7,137.9,605.7,137.9z"/>
<g class="st8">
	<path class="st3" d="M537,789.5c0,1.3-0.2,2.6-0.4,3.9c-6.8-1.3-13.7-2.5-20.5-3.6c0-0.3,0-0.7,0-1c0.1-3.6,0.9-7.1,2.4-10.2
		c2-3.9,5.1-6.4,8.5-6.2c3.4,0.1,6.3,2.8,8.1,6.9C536.5,782.3,537.1,785.9,537,789.5z"/>
	
		<ellipse transform="matrix(1.742165e-02 -0.9998 0.9998 1.742165e-02 -250.5431 1282.1953)" class="st3" cx="527.1" cy="768.6" rx="16.9" ry="10.5"/>
	
		<ellipse transform="matrix(1.742165e-02 -0.9998 0.9998 1.742165e-02 -229.4238 1262.4899)" class="st3" cx="527.6" cy="748" rx="16.9" ry="10.5"/>
	
		<ellipse transform="matrix(1.742165e-02 -0.9998 0.9998 1.742165e-02 -208.3143 1242.7748)" class="st3" cx="528.2" cy="727.4" rx="16.9" ry="10.5"/>
	
		<ellipse transform="matrix(1.742165e-02 -0.9998 0.9998 1.742165e-02 -187.195 1223.0692)" class="st3" cx="528.7" cy="706.8" rx="16.9" ry="10.5"/>
	<path class="st7" d="M493.1,564.3c-1.4-2.3-2.6-4.7-3.7-7.2l27.6-4.5l-29.8-0.9c-5.4-15.7-5.3-33.3,0.3-48.9l39.2,27l-36-34.7
		c14.6-29,45.5-37.9,69-20s30.9,55.9,16.3,84.9c-1.3,2.6-2.7,5-4.3,7.3c2.1,3.6,4,7.4,5.4,11.5L541,600.2l38.5-14.2
		c4.9,20,1.3,41.7-9.6,57.6c16.4,27.4,11.7,66.1-10.6,86.3c-22.3,20.2-53.7,14.4-70.1-13.1c-13.7-22.9-12.9-54.4,2-76.3
		C477.4,617.6,478.2,586.1,493.1,564.3L493.1,564.3z"/>
	<path class="st2" d="M581.6,605.9c-0.3,13.8-4.5,27.1-11.7,37.7c16.4,27.4,11.7,66.1-10.6,86.3c-22.3,20.2-53.7,14.4-70.1-13.1
		c-13.7-22.9-12.9-54.4,2-76.3C484.7,629.8,581.8,598.9,581.6,605.9z"/>
</g>
</svg>
