<?xml version="1.0" encoding="utf-8"?>
<!-- Generator: Adobe Illustrator 22.1.0, SVG Export Plug-In . SVG Version: 6.00 Build 0)  -->
<svg version="1.1" id="레이어_1" xmlns="http://www.w3.org/2000/svg" xmlns:xlink="http://www.w3.org/1999/xlink" x="0px"
	 y="0px" viewBox="0 0 150 50" style="enable-background:new 0 0 150 50;" xml:space="preserve">
<style type="text/css">
	.st0{fill:#F16421;}
	.st1{fill:#F58A1E;}
	.st2{fill:#F9A519;}
	.st3{fill:#F6921D;}
	.st4{fill:#221E1F;}
	.st5{fill:#123C8B;}
	.st6{fill:#E81D24;}
	.st7{fill:#FFFFFF;}
	.st8{fill:#ED2128;}
	.st9{fill:#FFDD00;}
	.st10{fill:#A6A8AB;}
</style>
<g id="Page-1">
	<g id="KBEDU">
		<g id="Group">
			<g id="Shape" transform="translate(4.000000, 0.000000)">
				<polygon class="st0" points="42.2,6 20.2,15.7 30.9,20.6 53,10.7 				"/>
				<polygon class="st1" points="45.8,2 23.8,11.7 30.9,20.6 53,10.7 				"/>
				<polygon class="st2" points="63.6,15.3 53,10.7 30.9,20.6 42.3,25.7 				"/>
				<path class="st2" d="M53.1,31l-2-8.1L42.2,27l-9.9-4.3L30.4,31l9.1,4.5c-0.1,0.2-0.2,0.3-0.2,0.6c0,0.5,0.4,0.9,0.9,0.9
					c0.5,0,0.9-0.4,0.9-0.9c0-0.1,0-0.2-0.1-0.3v-4.1c-0.5-0.2-0.9-0.7-0.9-1.3c0-0.8,0.6-1.4,1.4-1.4c0.8,0,1.4,0.6,1.4,1.4
					c0,0.6-0.3,1.1-0.9,1.3v4.3c0,0.1-0.1,0.2-0.1,0.2c0,0.5,0.4,0.9,0.9,0.9c0.5,0,0.9-0.4,0.9-0.9c0-0.2-0.1-0.5-0.2-0.6L53.1,31z
					"/>
			</g>
			<g id="Shape_1_" transform="translate(0.000000, 43.000000)">
				<path class="st2" d="M43.3,3.1c0,0-0.4-0.1-1.1-0.2c-0.2,0-0.4-0.1-0.6-0.1c-0.2-0.1-0.5-0.1-0.7-0.2c-0.5-0.1-1.1-0.2-1.6-0.4
					c-0.3-0.1-0.6-0.2-1-0.3c-0.3-0.1-0.6-0.2-1-0.4c-0.7-0.2-1.4-0.6-2-0.9c-0.7-0.4-1.4-0.7-2.1-1.2c-0.7-0.4-1.4-1-2-1.4
					c-0.6-0.5-1.3-1.1-1.9-1.6c-0.6-0.6-1.1-1.2-1.6-1.8c-0.2-0.3-0.5-0.6-0.7-0.9s-0.5-0.6-0.6-0.9c-0.2-0.3-0.4-0.6-0.6-0.9
					s-0.3-0.6-0.5-0.9c-0.2-0.3-0.3-0.5-0.4-0.8c-0.1-0.3-0.2-0.5-0.3-0.7c-0.1-0.2-0.2-0.5-0.3-0.7c-0.1-0.2-0.2-0.4-0.2-0.6
					c-0.2-0.7-0.3-1.1-0.3-1.1h0.1c0,0,0.2,0.4,0.5,1c0.2,0.3,0.3,0.7,0.6,1.2c0.1,0.2,0.2,0.5,0.4,0.7c0.2,0.2,0.3,0.5,0.5,0.7
					c0.2,0.3,0.3,0.6,0.5,0.8c0.2,0.3,0.4,0.6,0.6,0.9c0.2,0.3,0.4,0.6,0.6,0.9c0.2,0.3,0.5,0.6,0.7,0.9c0.5,0.6,1,1.2,1.6,1.8
					c0.6,0.6,1.2,1.1,1.8,1.6c0.7,0.5,1.3,1,2,1.5c0.7,0.5,1.4,0.9,2,1.2c0.7,0.3,1.4,0.7,2,1c0.3,0.1,0.7,0.3,1,0.4
					C38.7,1.9,39,2,39.3,2.1c0.6,0.2,1.1,0.3,1.6,0.5c0.2,0.1,0.5,0.1,0.7,0.2c0.2,0.1,0.4,0.1,0.6,0.1C42.9,3,43.3,3.1,43.3,3.1
					L43.3,3.1z"/>
				<path class="st2" d="M43.2-0.2c0.3,0.9-0.1,1.9-0.9,2.5c-0.7,0.6-1.4,0.5-1.7-0.4c-0.3-1,0.1-4.4,0.2-4.5
					C41-2.7,42.9-1.1,43.2-0.2z"/>
				<path class="st2" d="M38.9,5.5c1,0.1,1.9-0.5,2.3-1.2c0.5-0.8,0.3-1.5-0.7-1.6c-1-0.1-4.3,0.8-4.4,0.9C36,3.7,37.9,5.3,38.9,5.5
					z"/>
				<path class="st2" d="M36.4-2.8c0.3,1-0.1,1.9-0.9,2.5c-0.7,0.6-1.4,0.5-1.7-0.4c-0.3-1,0.1-4.4,0.2-4.5
					C34.3-5.3,36.2-3.7,36.4-2.8z"/>
				<path class="st2" d="M32.1,2.8c1,0.1,1.9-0.5,2.3-1.2c0.5-0.8,0.3-1.5-0.7-1.6c-1-0.1-4.3,0.8-4.4,0.9
					C29.3,1.1,31.2,2.7,32.1,2.8z"/>
				<path class="st2" d="M31.6-6.5c0.2,1-0.3,1.9-1.1,2.4c-0.7,0.5-1.5,0.4-1.6-0.6s0.6-4.3,0.7-4.4C29.7-9.2,31.4-7.4,31.6-6.5z"/>
				<path class="st2" d="M26.7-1.3c1,0.2,1.9-0.2,2.4-1c0.5-0.7,0.5-1.4-0.5-1.6c-1-0.2-4.4,0.3-4.4,0.5C24.1-3.3,25.8-1.5,26.7-1.3
					z"/>
				<path class="st2" d="M28.4-9.3c-0.2,0.8-0.9,1.3-1.6,1.4c-0.7,0.1-1.2-0.2-1-1c0.2-0.8,1.9-3.1,2-3.1
					C27.9-12,28.5-10.1,28.4-9.3z"/>
				<path class="st2" d="M21.8-14.5c-0.1,0.8,0.3,1.5,1,1.9c0.6,0.4,1.2,0.2,1.3-0.6c0.1-0.8-0.6-3.5-0.7-3.6
					C23.3-16.8,22-15.3,21.8-14.5z"/>
				<path class="st2" d="M23-7.1c0.6,0.5,1.5,0.5,2.2,0.1c0.6-0.3,0.9-0.9,0.2-1.4c-0.6-0.5-3.4-1.2-3.5-1.2
					C21.7-9.5,22.3-7.6,23-7.1z"/>
			</g>
			<g id="Shape_2_" transform="translate(45.000000, 43.000000)">
				<path class="st2" d="M2.6,3.1c0,0,0.4-0.1,1.1-0.2c0.2-0.1,0.4-0.1,0.6-0.1C4.6,2.7,4.8,2.6,5,2.6c0.5-0.1,1-0.2,1.6-0.5
					C6.9,2,7.3,1.9,7.6,1.8c0.3-0.1,0.6-0.3,1-0.4c0.7-0.2,1.3-0.6,2-1c0.7-0.4,1.4-0.7,2-1.2c0.7-0.5,1.4-1,2-1.5
					c0.6-0.6,1.2-1.1,1.8-1.6C17-4.5,17.5-5.1,18-5.7c0.2-0.3,0.5-0.6,0.7-0.9s0.5-0.6,0.6-0.9c0.2-0.3,0.4-0.6,0.6-0.9
					c0.2-0.3,0.3-0.6,0.5-0.8c0.2-0.3,0.3-0.5,0.5-0.7c0.1-0.2,0.3-0.5,0.4-0.7c0.2-0.5,0.5-0.9,0.6-1.2c0.3-0.7,0.5-1,0.5-1h0.1
					c0,0-0.1,0.4-0.3,1.1c-0.1,0.2-0.1,0.3-0.2,0.6s-0.2,0.4-0.3,0.7c-0.1,0.2-0.2,0.5-0.3,0.7c-0.1,0.3-0.3,0.5-0.4,0.8
					c-0.2,0.3-0.3,0.6-0.5,0.9c-0.2,0.3-0.3,0.6-0.6,0.9c-0.2,0.3-0.4,0.6-0.6,0.9s-0.5,0.6-0.7,0.9c-0.5,0.6-1.1,1.2-1.6,1.8
					s-1.2,1.1-1.9,1.6c-0.7,0.5-1.4,1-2,1.4c-0.7,0.5-1.4,0.8-2.1,1.2C10,1,9.4,1.4,8.7,1.6C8.4,1.7,8,1.8,7.7,1.9
					C7.4,2,7.1,2.1,6.8,2.2C6.2,2.4,5.7,2.6,5.2,2.6C5,2.7,4.7,2.7,4.5,2.8C4.3,2.8,4.1,2.8,3.9,2.9C3,3.1,2.6,3.1,2.6,3.1L2.6,3.1z
					"/>
				<path class="st2" d="M2.6-0.2C2.3,0.7,2.7,1.8,3.5,2.3c0.7,0.6,1.4,0.5,1.7-0.4C5.5,1,5.1-2.4,5-2.6C4.8-2.7,2.9-1.1,2.6-0.2z"
					/>
				<path class="st2" d="M6.9,5.5C6,5.6,5.1,5,4.6,4.3C4.2,3.5,4.3,2.8,5.3,2.7c1-0.1,4.3,0.8,4.4,0.9C9.8,3.7,7.9,5.3,6.9,5.5z"/>
				<path class="st2" d="M9.4-2.8c-0.3,1,0.1,1.9,0.9,2.5c0.7,0.6,1.4,0.5,1.7-0.4c0.3-1-0.1-4.4-0.2-4.5C11.5-5.3,9.7-3.7,9.4-2.8z
					"/>
				<path class="st2" d="M13.7,2.8c-1,0.1-1.9-0.5-2.3-1.2c-0.5-0.8-0.3-1.5,0.7-1.6c1-0.1,4.3,0.8,4.4,0.9
					C16.5,1.1,14.7,2.7,13.7,2.8z"/>
				<path class="st2" d="M14.2-6.5c-0.2,1,0.3,1.9,1.1,2.4c0.7,0.5,1.5,0.4,1.6-0.6c0.2-1-0.6-4.3-0.7-4.4
					C16.1-9.2,14.4-7.4,14.2-6.5z"/>
				<path class="st2" d="M19.1-1.3c-1,0.2-1.9-0.2-2.4-1c-0.5-0.7-0.5-1.4,0.5-1.6c1-0.2,4.4,0.3,4.4,0.5C21.7-3.3,20-1.5,19.1-1.3z
					"/>
				<path class="st2" d="M17.5-9.3c0.2,0.8,0.9,1.3,1.6,1.4c0.7,0.1,1.2-0.2,1-1c-0.2-0.8-1.9-3.1-2-3.1C17.9-12,17.3-10.1,17.5-9.3
					z"/>
				<path class="st2" d="M24-14.5c0.1,0.8-0.3,1.5-1,1.9c-0.6,0.4-1.2,0.2-1.3-0.6c-0.1-0.8,0.6-3.5,0.7-3.6
					C22.6-16.8,23.9-15.3,24-14.5z"/>
				<path class="st2" d="M22.8-7.1c-0.6,0.5-1.5,0.5-2.2,0.1c-0.7-0.3-0.9-0.9-0.2-1.4c0.6-0.5,3.4-1.2,3.5-1.2
					C24.2-9.5,23.5-7.6,22.8-7.1z"/>
			</g>
		</g>
		<g id="Group_1_" transform="translate(103.000000, 12.000000)">
			<g id="Shape_3_">
				<polygon class="st3" points="-22.5,-3.4 -20.8,-3.4 -20.8,0.4 -20.7,0.4 -17.8,-3.4 -15.9,-3.4 -18.6,0.1 -15.4,5.4 -17.4,5.4 
					-19.7,1.5 -20.8,3 -20.8,5.4 -22.5,5.4 				"/>
				<polygon class="st4" points="-14.5,-3.4 -12.8,-3.4 -12.8,5.4 -14.5,5.4 				"/>
				<path class="st4" d="M-10.7-3.4h1.9l1.5,4.1c0.2,0.6,0.3,1.1,0.5,1.7h0.1c0.2-0.6,0.3-1.1,0.5-1.7l1.5-4.1h1.9v8.7h-1.6V1.8
					c0-0.9,0.1-2,0.2-2.9h-0.1l-0.6,2l-1.4,3.7h-1l-1.4-3.7l-0.7-2h-0.1c0.1,0.9,0.2,2,0.2,2.9v3.6h-1.6V-3.4z"/>
				<path class="st3" d="M-0.6-3.4h2.9c1.8,0,3.2,0.5,3.2,2.2c0,0.8-0.5,1.6-1.2,1.9v0.1c1,0.2,1.6,0.9,1.6,2c0,1.8-1.5,2.6-3.4,2.6
					h-3.1V-3.4z M2.2,0.2c1.1,0,1.6-0.5,1.6-1.1C3.7-1.7,3.2-2,2.2-2h-1v2.2H2.2z M2.3,4c1.2,0,1.9-0.5,1.9-1.4
					c0-0.9-0.6-1.2-1.9-1.2H1.1V4H2.3z"/>
				<path class="st4" d="M6.9,1c0-2.8,1.6-4.5,3.9-4.5s3.9,1.6,3.9,4.5s-1.6,4.6-3.9,4.6S6.9,3.8,6.9,1z M13,1c0-1.9-0.9-3-2.2-3
					S8.7-0.9,8.7,1S9.5,4,10.8,4S13,2.8,13,1z"/>
				<polygon class="st4" points="16.4,-3.4 18.2,-3.4 18.2,3.9 21.7,3.9 21.7,5.4 16.5,5.4 16.5,-3.4 				"/>
				<path class="st4" d="M28.2,3.1h-2.8l-0.6,2.3H23l2.8-8.7h2l2.8,8.7h-1.8L28.2,3.1z M27.8,1.8l-0.3-1C27.3-0.1,27-1.1,26.7-2
					h-0.1c-0.2,1-0.5,1.9-0.7,2.8l-0.3,1H27.8z"/>
			</g>
			<g id="Shape_4_" transform="translate(0.000000, 20.000000)">
				<polygon class="st4" points="-22.6,-11.4 -19.2,-11.4 -19.2,-10.7 -21.9,-10.7 -21.9,-8.9 -19.6,-8.9 -19.6,-8.3 -21.9,-8.3 
					-21.9,-6.1 -19.1,-6.1 -19.1,-5.5 -22.6,-5.5 				"/>
				<path class="st4" d="M-18.3-7.6c0-1.4,0.9-2.3,1.9-2.3c0.5,0,0.9,0.2,1.2,0.5l-0.1-0.7v-1.7h0.7v6.4h-0.6L-15.2-6l0,0
					c-0.3,0.3-0.8,0.6-1.3,0.6C-17.6-5.4-18.3-6.1-18.3-7.6z M-15.2-6.5v-2.3c-0.4-0.3-0.7-0.5-1.1-0.5c-0.7,0-1.2,0.7-1.2,1.7
					c0,1.1,0.5,1.7,1.2,1.7C-16-5.9-15.6-6.1-15.2-6.5z"/>
				<path class="st4" d="M-13.1-7.1v-2.8h0.7v2.7c0,0.8,0.2,1.1,0.8,1.1c0.5,0,0.8-0.2,1.2-0.7v-3.1h0.7v4.4h-0.6l-0.1-0.7l0,0
					c-0.4,0.5-0.9,0.8-1.5,0.8C-12.6-5.4-13.1-5.9-13.1-7.1z"/>
				<path class="st4" d="M-8.4-7.6c0-1.5,1-2.3,2.1-2.3c0.6,0,1,0.2,1.3,0.5l-0.4,0.5c-0.3-0.2-0.5-0.4-0.9-0.4
					c-0.8,0-1.4,0.7-1.4,1.7s0.6,1.7,1.4,1.7c0.4,0,0.7-0.2,1-0.5l0.3,0.5c-0.4,0.3-0.9,0.6-1.4,0.6C-7.5-5.4-8.4-6.1-8.4-7.6z"/>
				<path class="st4" d="M-4.3-6.5c0-1,0.9-1.4,2.7-1.6c0-0.6-0.2-1.1-0.9-1.1c-0.5,0-1,0.2-1.3,0.5l-0.3-0.5c0.4-0.3,1-0.6,1.7-0.6
					c1.1,0,1.5,0.7,1.5,1.8v2.7h-0.6l-0.1-0.5l0,0C-1.9-5.6-2.4-5.3-3-5.3C-3.8-5.4-4.3-5.8-4.3-6.5z M-1.6-6.5v-1.2
					c-1.5,0.2-2,0.6-2,1.1S-3.3-6-2.8-6C-2.4-5.9-2-6.1-1.6-6.5z"/>
				<path class="st4" d="M0.5-6.8v-2.4h-0.7v-0.6l0.7-0.1l0.1-1.2h0.6v1.2h1.2v0.6H1.2v2.4c0,0.6,0.2,0.9,0.7,0.9
					C2.1-5.9,2.3-6,2.4-6l0.2,0.6C2.4-5.4,2-5.3,1.8-5.3C0.8-5.4,0.5-5.9,0.5-6.8z"/>
				<path class="st4" d="M3.3-11.2c0-0.3,0.2-0.5,0.5-0.5s0.5,0.2,0.5,0.5c0,0.3-0.2,0.5-0.5,0.5S3.3-10.9,3.3-11.2z M3.5-9.8h0.7
					v4.4H3.5V-9.8z"/>
				<path class="st4" d="M5.3-7.6c0-1.5,1-2.3,2-2.3s2,0.9,2,2.3s-1,2.3-2,2.3S5.3-6.1,5.3-7.6z M8.6-7.6c0-1-0.5-1.7-1.3-1.7
					c-0.7,0-1.2,0.7-1.2,1.7s0.5,1.7,1.2,1.7C8.1-5.9,8.6-6.6,8.6-7.6z"/>
				<path class="st4" d="M10.6-9.8h0.6l0.1,0.6l0,0c0.4-0.4,0.9-0.7,1.5-0.7c0.9,0,1.4,0.6,1.4,1.7v2.8h-0.7v-2.7
					c0-0.9-0.2-1.2-0.9-1.2c-0.5,0-0.7,0.2-1.2,0.7v3.2h-0.7V-9.8z"/>
			</g>
		</g>
		<g id="Group_2_" transform="translate(103.000000, 50.000000)">
			<polygon id="Shape_5_" class="st4" points="-22.6,-19.3 -22.2,-19.3 -22.2,-17.9 -20.7,-17.9 -20.7,-19.3 -20.3,-19.3 -20.3,-16 
				-20.7,-16 -20.7,-17.6 -22.2,-17.6 -22.2,-16 -22.6,-16 			"/>
			<path id="Shape_6_" class="st4" d="M-19.7-19.2c0-0.2,0.1-0.3,0.3-0.3s0.3,0.1,0.3,0.3s-0.1,0.3-0.3,0.3
				C-19.6-18.9-19.7-19-19.7-19.2z M-19.7-18.4h0.4v2.4h-0.4V-18.4z"/>
			<path id="Shape_7_" class="st4" d="M-18.8-15.6c0-0.2,0.1-0.4,0.3-0.5l0,0c-0.1-0.1-0.2-0.2-0.2-0.4c0-0.2,0.1-0.3,0.3-0.5l0,0
				c-0.2-0.1-0.3-0.3-0.3-0.6c0-0.5,0.4-0.9,0.9-0.9c0.1,0,0.2,0.1,0.3,0.1h0.8v0.3h-0.5C-17-18-17-17.8-17-17.6
				c0,0.5-0.4,0.9-0.9,0.9c-0.1,0-0.2-0.1-0.3-0.1c-0.1,0.1-0.2,0.2-0.2,0.3c0,0.2,0.1,0.3,0.4,0.3h0.5c0.6,0,0.8,0.2,0.8,0.6
				c0,0.5-0.5,0.9-1.2,0.9C-18.4-14.9-18.8-15.2-18.8-15.6z M-17-15.7c0-0.2-0.2-0.3-0.5-0.3h-0.4c-0.1,0-0.2,0-0.3-0.1
				c-0.2,0.1-0.2,0.3-0.2,0.4c0,0.2,0.2,0.4,0.7,0.4C-17.3-15.2-17-15.5-17-15.7z M-17.3-17.6c0-0.3-0.2-0.6-0.5-0.6
				s-0.5,0.2-0.5,0.6s0.2,0.6,0.5,0.6S-17.3-17.3-17.3-17.6z"/>
			<path id="Shape_8_" class="st4" d="M-16.3-19.5h0.4v1v0.5c0.2-0.2,0.5-0.4,0.8-0.4c0.5,0,0.7,0.3,0.7,0.9v1.5h-0.4v-1.5
				c0-0.5-0.1-0.6-0.5-0.6c-0.2,0-0.4,0.1-0.6,0.3v1.7h-0.4L-16.3-19.5L-16.3-19.5z"/>
			<path id="Shape_9_" class="st4" d="M-14-17.2c0-0.8,0.5-1.2,1.1-1.2c0.6,0,0.9,0.5,0.9,1.1v0.2h-1.6c0,0.5,0.3,0.9,0.8,0.9
				c0.2,0,0.4-0.1,0.6-0.2l0.1,0.3c-0.2,0.1-0.5,0.2-0.8,0.2C-13.5-16-14-16.4-14-17.2z M-12.4-17.4c0-0.5-0.2-0.7-0.6-0.7
				c-0.3,0-0.6,0.3-0.7,0.7H-12.4z"/>
			<path id="Shape_10_" class="st4" d="M-11.6-18.4h0.3l0.1,0.5l0,0c0.2-0.3,0.4-0.5,0.7-0.5c0.1,0,0.2,0,0.2,0.1l-0.1,0.3
				c-0.1-0.1-0.1-0.1-0.2-0.1c-0.2,0-0.5,0.1-0.6,0.6v1.5h-0.4L-11.6-18.4L-11.6-18.4z"/>
			<polygon id="Shape_11_" class="st4" points="-9,-19.3 -7.2,-19.3 -7.2,-18.9 -8.6,-18.9 -8.6,-17.9 -7.4,-17.9 -7.4,-17.6 
				-8.6,-17.6 -8.6,-16.4 -7.1,-16.4 -7.1,-16 -9,-16 			"/>
			<path id="Shape_12_" class="st4" d="M-6.9-17.2c0-0.8,0.5-1.2,1-1.2c0.3,0,0.5,0.1,0.7,0.3v-0.4v-0.9h0.4v3.5h-0.3l-0.1-0.3l0,0
				c-0.2,0.2-0.5,0.3-0.7,0.3C-6.5-16-6.9-16.4-6.9-17.2z M-5.2-16.7v-1.2c-0.2-0.2-0.4-0.2-0.6-0.2c-0.4,0-0.7,0.3-0.7,0.9
				s0.2,0.9,0.6,0.9C-5.6-16.3-5.4-16.4-5.2-16.7z"/>
			<path id="Shape_13_" class="st4" d="M-4.2-16.9v-1.5h0.4v1.5c0,0.5,0.1,0.6,0.5,0.6c0.2,0,0.4-0.1,0.6-0.4v-1.7h0.4v2.4h-0.3
				l-0.1-0.4l0,0C-3-16.1-3.2-16-3.5-16C-4-16-4.2-16.3-4.2-16.9z"/>
			<path id="Shape_14_" class="st4" d="M-1.9-17.2c0-0.8,0.5-1.2,1.1-1.2c0.3,0,0.5,0.1,0.7,0.3l-0.2,0.3c-0.1-0.1-0.3-0.2-0.5-0.2
				c-0.4,0-0.7,0.4-0.7,0.9c0,0.6,0.3,0.9,0.7,0.9c0.2,0,0.4-0.1,0.6-0.2L0-16.3C-0.2-16.1-0.5-16-0.7-16C-1.4-16-1.9-16.4-1.9-17.2
				z"/>
			<path id="Shape_15_" class="st4" d="M0.2-16.7c0-0.5,0.5-0.8,1.4-0.9c0-0.3-0.1-0.6-0.5-0.6c-0.3,0-0.5,0.1-0.7,0.2l-0.2-0.3
				c0.2-0.1,0.6-0.3,0.9-0.3c0.6,0,0.8,0.4,0.8,1v1.5H1.6l-0.1-0.3l0,0C1.3-16.2,1-16,0.7-16C0.5-16,0.2-16.2,0.2-16.7z M1.6-16.6
				v-0.7c-0.8,0.1-1.1,0.3-1.1,0.6c0,0.3,0.2,0.4,0.4,0.4C1.2-16.3,1.4-16.4,1.6-16.6z"/>
			<path id="Shape_16_" class="st4" d="M2.6-16.8v-1.3H2.3v-0.3h0.3L2.7-19H3v0.7h0.6v0.3H3v1.3c0,0.3,0.1,0.5,0.3,0.5
				c0.1,0,0.2-0.1,0.3-0.1L3.7-16c-0.1,0.1-0.3,0.1-0.5,0.1C2.8-16,2.6-16.3,2.6-16.8z"/>
			<path id="Shape_17_" class="st4" d="M4-19.2c0-0.2,0.1-0.3,0.3-0.3s0.3,0.1,0.3,0.3s-0.1,0.3-0.3,0.3C4.1-18.9,4-19,4-19.2z
				 M4-18.4h0.4v2.4H4V-18.4z"/>
			<path id="Shape_18_" class="st4" d="M4.9-17.2c0-0.8,0.5-1.2,1.1-1.2S7-18,7-17.2S6.5-16,6-16S4.9-16.4,4.9-17.2z M6.7-17.2
				c0-0.6-0.3-0.9-0.7-0.9c-0.4,0-0.7,0.4-0.7,0.9c0,0.6,0.3,0.9,0.7,0.9C6.4-16.3,6.7-16.7,6.7-17.2z"/>
			<path id="Shape_19_" class="st4" d="M7.6-18.4h0.3l0.1,0.3l0,0c0.2-0.2,0.5-0.4,0.8-0.4c0.5,0,0.7,0.3,0.7,0.9v1.5H9.1v-1.5
				c0-0.5-0.1-0.6-0.5-0.6c-0.2,0-0.4,0.1-0.6,0.3v1.7H7.6L7.6-18.4L7.6-18.4z"/>
			<path id="Shape_20_" class="st4" d="M11.5-18c0.2,0,0.3,0.1,0.3,0.3c0,0.2-0.1,0.3-0.3,0.3s-0.3-0.1-0.3-0.3
				C11.2-17.8,11.4-18,11.5-18z"/>
			<path id="Shape_21_" class="st4" d="M13.7-19.3h0.9c0.6,0,1.1,0.2,1.1,0.8c0,0.3-0.2,0.6-0.5,0.7l0,0c0.4,0.1,0.6,0.3,0.6,0.8
				c0,0.6-0.5,1-1.2,1h-1L13.7-19.3L13.7-19.3z M14.6-17.9c0.6,0,0.7-0.2,0.7-0.5c0-0.4-0.2-0.5-0.7-0.5h-0.5v1H14.6L14.6-17.9z
				 M14.6-16.4c0.6,0,0.9-0.2,0.9-0.6c0-0.4-0.3-0.6-0.9-0.6h-0.6v1.2H14.6z"/>
			<path id="Shape_22_" class="st4" d="M16.2-17.2c0-0.8,0.5-1.2,1.1-1.2c0.6,0,0.9,0.5,0.9,1.1v0.2h-1.6c0,0.5,0.3,0.9,0.8,0.9
				c0.2,0,0.4-0.1,0.6-0.2l0.1,0.3c-0.2,0.1-0.5,0.2-0.8,0.2C16.7-16,16.2-16.4,16.2-17.2z M17.8-17.4c0-0.5-0.2-0.7-0.6-0.7
				s-0.6,0.3-0.7,0.7H17.8z"/>
			<path id="Shape_23_" class="st4" d="M19.4-17.6c0-1,0.6-1.6,1.4-1.6c0.5,0,0.7,0.2,0.9,0.4l-0.2,0.3c-0.2-0.2-0.3-0.3-0.7-0.3
				c-0.6,0-1,0.5-1,1.3c0,0.8,0.4,1.3,1.1,1.3c0.2,0,0.5-0.1,0.6-0.2v-0.9h-0.7v-0.3h1v1.4c-0.2,0.2-0.6,0.4-1,0.4
				C20-16,19.4-16.6,19.4-17.6z"/>
			<path id="Shape_24_" class="st4" d="M22.4-18.4h0.3l0.1,0.5l0,0c0.2-0.3,0.4-0.5,0.7-0.5c0.1,0,0.2,0,0.2,0.1l-0.1,0.3
				c-0.1-0.1-0.1-0.1-0.2-0.1c-0.2,0-0.5,0.1-0.6,0.6v1.5h-0.5V-18.4z"/>
			<path id="Shape_25_" class="st4" d="M23.7-17.2c0-0.8,0.5-1.2,1.1-1.2c0.6,0,0.9,0.5,0.9,1.1v0.2h-1.6c0,0.5,0.3,0.9,0.8,0.9
				c0.2,0,0.4-0.1,0.6-0.2l0.2,0.3c-0.2,0.1-0.5,0.2-0.8,0.2C24.2-16,23.7-16.4,23.7-17.2z M25.3-17.4c0-0.5-0.2-0.7-0.6-0.7
				s-0.6,0.3-0.7,0.7H25.3z"/>
			<path id="Shape_26_" class="st4" d="M25.9-16.7c0-0.5,0.5-0.8,1.4-0.9c0-0.3-0.1-0.6-0.5-0.6c-0.3,0-0.5,0.1-0.7,0.2l-0.2-0.3
				c0.2-0.1,0.6-0.3,0.9-0.3c0.6,0,0.8,0.4,0.8,1v1.5h-0.3l-0.1-0.3l0,0c-0.2,0.2-0.5,0.3-0.8,0.3C26.2-16,25.9-16.2,25.9-16.7z
				 M27.4-16.6v-0.7c-0.8,0.1-1.1,0.3-1.1,0.6c0,0.3,0.2,0.4,0.4,0.4C27-16.3,27.1-16.4,27.4-16.6z"/>
			<path id="Shape_27_" class="st4" d="M28.4-16.8v-1.3h-0.3v-0.3h0.3l0.1-0.7h0.3v0.7h0.6v0.3h-0.6v1.3c0,0.3,0.1,0.5,0.3,0.5
				c0.1,0,0.2-0.1,0.3-0.1l0.1,0.3c-0.1,0.1-0.3,0.1-0.5,0.1C28.5-16,28.4-16.3,28.4-16.8z"/>
		</g>
		<g id="Group_3_" transform="translate(104.000000, 63.000000)">
			<g id="Rectangle-path" transform="translate(14.000000, 0.000000)">
				<rect x="-29.4" y="-22.3" class="st5" width="6.5" height="1.6"/>
				<rect x="-29.4" y="-25.6" class="st6" width="6.5" height="1.6"/>
				<rect x="-29.4" y="-24" class="st7" width="6.5" height="1.6"/>
			</g>
			<g transform="translate(28.000000, 0.000000)">
				<g>
					<g id="SVGID_1_-link">
						<rect id="SVGID_1_" x="-35.5" y="-25.6" class="st8" width="6.5" height="4.9"/>
					</g>
					<rect id="Rectangle-path_1_" x="-35.5" y="-25.3" class="st8" width="6.5" height="0.6"/>
					<rect id="Rectangle-path_2_" x="-35.5" y="-25.3" class="st8" width="0.6" height="4.5"/>
				</g>
				<polygon id="Shape_28_" class="st9" points="-34.6,-24.9 -34.5,-24.5 -34.1,-24.5 -34.4,-24.3 -34.3,-23.9 -34.6,-24.1 
					-34.9,-23.9 -34.8,-24.3 -35.1,-24.5 -34.7,-24.5 				"/>
				<polygon id="Shape_29_" class="st9" points="-33.6,-25.2 -33.6,-25.1 -33.4,-25 -33.5,-24.9 -33.5,-24.8 -33.7,-24.9 
					-33.8,-24.9 -33.7,-25 -33.8,-25.1 -33.7,-25.1 				"/>
				<polygon id="Shape_30_" class="st9" points="-33.3,-24.7 -33.2,-24.6 -33,-24.6 -33.1,-24.5 -33.1,-24.4 -33.2,-24.4 
					-33.3,-24.3 -33.3,-24.5 -33.4,-24.5 -33.3,-24.6 				"/>
				<polygon id="Shape_31_" class="st9" points="-33.2,-24.1 -33.1,-24 -33,-24 -33.1,-23.9 -33.1,-23.7 -33.2,-23.8 -33.4,-23.7 
					-33.3,-23.9 -33.4,-24 -33.3,-24 				"/>
				<polygon id="Shape_32_" class="st9" points="-33.5,-23.6 -33.5,-23.5 -33.4,-23.4 -33.6,-23.4 -33.7,-23.2 -33.7,-23.4 
					-33.8,-23.4 -33.7,-23.5 -33.8,-23.6 -33.7,-23.5 				"/>
			</g>
			<g transform="translate(41.000000, 0.000000)">
				<g id="SVGID_3_-link">
					<path id="SVGID_3_" class="st10" d="M-34.1-20.6h-6.6v-5h6.6V-20.6z M-40.6-20.7h6.5v-4.9h-6.5V-20.7z"/>
				</g>
				<g id="Shape_33_" transform="translate(4.000000, 2.000000)">
					<path class="st6" d="M-41.3-26.2c-0.4,0-0.8,0.2-1,0.6c-0.1,0.2-0.1,0.5,0.2,0.6c0.4,0.3,0.7-0.1,0.7-0.1
						c0.1-0.1,0.3-0.4,0.7-0.2c0.3,0.2,0.3,0.5,0.3,0.7c0.1-0.2,0.1-0.3,0.1-0.5C-40.3-25.7-40.8-26.2-41.3-26.2z"/>
					<path class="st5" d="M-40.6-25.3c-0.4-0.2-0.7,0.1-0.7,0.2c-0.1,0.1-0.4,0.4-0.7,0.1c-0.2-0.2-0.2-0.5-0.2-0.6
						c-0.1,0.2-0.1,0.3-0.1,0.5c0,0.6,0.5,1.1,1.1,1.1c0.5,0,0.8-0.2,1-0.6C-40.3-24.8-40.4-25.1-40.6-25.3z"/>
				</g>
				<polygon id="Shape_34_" class="st4" points="-39.7,-24 -39.8,-24.1 -39.2,-24.9 -39.1,-24.9 				"/>
				<polygon id="Shape_35_" class="st4" points="-39.4,-23.8 -39.6,-23.9 -39,-24.8 -38.8,-24.7 				"/>
				
					<rect id="Rectangle-path_3_" x="-39.3" y="-24.4" transform="matrix(0.5559 -0.8313 0.8313 0.5559 2.7869 -42.9388)" class="st4" width="1.1" height="0.6"/>
				<polygon id="Shape_36_" class="st4" points="-35.3,-23.8 -35.2,-23.9 -35.8,-24.8 -35.9,-24.7 				"/>
				<polygon id="Shape_37_" class="st4" points="-35.9,-24.1 -35.8,-24.3 -36,-24.7 -36.2,-24.6 				"/>
				
					<rect id="Rectangle-path_4_" x="-35.7" y="-24.3" transform="matrix(0.832 -0.5548 0.5548 0.832 7.3563 -23.6741)" class="st4" width="0.6" height="0.6"/>
				
					<rect id="Rectangle-path_5_" x="-35.6" y="-25.1" transform="matrix(0.8277 -0.5612 0.5612 0.8277 7.8196 -24.0741)" class="st4" width="0.6" height="0.6"/>
				<polygon id="Shape_38_" class="st4" points="-35.1,-24 -35,-24 -35.2,-24.5 -35.4,-24.4 				"/>
				<polygon id="Shape_39_" class="st4" points="-39.7,-22.3 -39.8,-22.2 -39.2,-21.3 -39.1,-21.4 				"/>
				<polygon id="Shape_40_" class="st4" points="-39.4,-22.4 -39.6,-22.4 -39.3,-21.9 -39.2,-22 				"/>
				<polygon id="Shape_41_" class="st4" points="-39.1,-21.9 -39.3,-21.9 -39,-21.4 -38.8,-21.5 				"/>
				<polygon id="Shape_42_" class="st4" points="-39.2,-22.6 -39.3,-22.5 -38.8,-21.6 -38.6,-21.7 				"/>
				
					<rect id="Rectangle-path_6_" x="-36" y="-22.1" transform="matrix(0.5532 -0.8331 0.8331 0.5532 2.1749 -39.4957)" class="st4" width="0.6" height="0.6"/>
				<polygon id="Shape_43_" class="st4" points="-35.5,-22.6 -35.4,-22.5 -35.7,-22.1 -35.8,-22.2 				"/>
				<polygon id="Shape_44_" class="st4" points="-35.4,-21.8 -35.3,-21.7 -35.5,-21.3 -35.7,-21.4 				"/>
				
					<rect id="Rectangle-path_7_" x="-35.2" y="-22.2" transform="matrix(0.5536 -0.8328 0.8328 0.5536 2.6714 -38.9182)" class="st4" width="0.6" height="0.6"/>
				
					<rect id="Rectangle-path_8_" x="-35.8" y="-21.9" transform="matrix(0.5547 -0.8321 0.8321 0.5547 2.1818 -39.2057)" class="st4" width="0.6" height="0.6"/>
				
					<rect id="Rectangle-path_9_" x="-35.5" y="-22.4" transform="matrix(0.5588 -0.8293 0.8293 0.5588 2.7844 -38.908)" class="st4" width="0.6" height="0.6"/>
			</g>
			<g>
				<rect id="Rectangle-path_10_" x="-23.3" y="-25.6" class="st5" width="6.5" height="4.9"/>
				<polygon id="Shape_45_" class="st7" points="-16.8,-25.6 -17.5,-25.6 -20.1,-23.6 -22.7,-25.6 -23.3,-25.6 -23.3,-25.6 
					-23.3,-25.1 -20.8,-23.1 -23.3,-21.2 -23.3,-20.7 -23.3,-20.7 -22.7,-20.7 -20.1,-22.6 -17.5,-20.7 -16.8,-20.7 -16.8,-21.2 
					-19.4,-23.1 -16.8,-25.1 				"/>
				<polygon id="Shape_46_" class="st6" points="-23.3,-25.2 -20.2,-22.9 -20,-23.1 -23.3,-25.6 				"/>
				<polygon id="Shape_47_" class="st6" points="-16.8,-25.6 -17.2,-25.6 -20.4,-23.2 -20.3,-23 				"/>
				<polygon id="Shape_48_" class="st6" points="-23.3,-20.7 -22.9,-20.7 -20.1,-22.8 -20.2,-23 				"/>
				<polygon id="Shape_49_" class="st6" points="-16.8,-21 -19.8,-23.2 -20,-23.1 -16.8,-20.7 				"/>
				<polygon id="Shape_50_" class="st7" points="-16.8,-23.9 -19.5,-23.9 -19.5,-25.6 -20.7,-25.6 -20.7,-23.9 -23.3,-23.9 
					-23.3,-22.3 -20.7,-22.3 -20.7,-20.6 -19.5,-20.6 -19.5,-22.3 -16.8,-22.3 				"/>
				<polygon id="Shape_51_" class="st6" points="-16.8,-23.6 -19.7,-23.6 -19.7,-25.6 -20.4,-25.6 -20.4,-23.6 -23.3,-23.6 
					-23.3,-22.7 -20.4,-22.7 -20.4,-20.6 -19.7,-20.6 -19.7,-22.7 -16.8,-22.7 				"/>
			</g>
		</g>
	</g>
</g>
</svg>
