<?xml version="1.0" encoding="utf-8"?>
<!-- Generator: Adobe Illustrator 22.1.0, SVG Export Plug-In . SVG Version: 6.00 Build 0)  -->
<svg version="1.1" id="a6f4e524-a1b8-434a-a0ca-43acb27f4769"
	 xmlns="http://www.w3.org/2000/svg" xmlns:xlink="http://www.w3.org/1999/xlink" x="0px" y="0px" viewBox="0 0 1110.5 857.7"
	 style="enable-background:new 0 0 1110.5 857.7;" xml:space="preserve">
<style type="text/css">
	.st0{opacity:0.1;fill:#241C15;enable-background:new    ;}
	.st1{opacity:0.1;}
	.st2{fill:#241C15;}
	.st3{fill:#FFFFFF;}
	.st4{fill:#3F3D56;}
	.st5{opacity:0.8;fill:#FA5959;enable-background:new    ;}
	.st6{opacity:0.8;fill:#FED253;enable-background:new    ;}
	.st7{opacity:0.8;fill:#8CCF4D;enable-background:new    ;}
	.st8{opacity:0.2;fill:#241C15;enable-background:new    ;}
	.st9{fill:none;stroke:#3F3D56;stroke-miterlimit:10;}
	.st10{opacity:0.1;enable-background:new    ;}
	.st11{fill:#46455B;}
	.st12{fill:#A8A8A8;}
	.st13{opacity:0.2;enable-background:new    ;}
	.st14{fill:url(#SVGID_1_);}
	.st15{fill:#65617D;}
	.st16{opacity:5.000000e-02;enable-background:new    ;}
	.st17{fill:#EE8E9E;}
	.st18{fill:#E3E8F4;}
	.st19{fill:#E6E8EC;}
	.st20{fill:#565387;}
</style>
<title>prototyping process</title>
<ellipse class="st0" cx="848.5" cy="805.6" rx="193.2" ry="52.1"/>
<g class="st1">
	<path class="st2" d="M628.8,32.5c0,189.2,98.5,342.2,220.3,342.2"/>
</g>
<path class="st0" d="M631.2,157.6c-71.2,0.7-139.6-18.7-205-40.3S296,71.4,226.3,61.5c-44.9-6.4-96-5.4-131.3,19.4
	c-34,23.8-44,62.9-49,98.9c-3.7,27.1-5.6,55.6,7.6,80.2c9.1,17.1,24.7,31.2,35.8,47.5c38.5,56.7,14.6,129.8-23.6,188.4
	c-17.9,27.5-38.8,53.9-52.4,83s-19.3,61.9-5.8,90.4c13.4,28.2,43.8,48.5,76.5,62.3c66.5,28,144.1,33.6,219.6,35.3
	c167.1,3.9,334.7-8,501.8-20c61.8-4.4,124-8.9,184.6-20.8c33.7-6.6,68.3-16.3,92.3-37.1c30.4-26.4,36.9-69.2,15.1-99.8
	c-36.6-51.2-133.8-60.2-160-115.8c-14.4-30.6-1.6-65.9,17.1-95.6c40.2-63.8,109-121.2,110.7-192.2c1.1-48.8-34.2-96.1-87.2-116.8
	c-55.6-21.8-131.6-15.5-170.9,26.2C766.9,138,694.1,157,631.2,157.6z"/>
<path class="st3" d="M952.6,37.8V666c0,18.7-15,33.9-33.4,33.9H211.5c-18.5,0-33.4-15.2-33.4-33.9V37.8c0-18.7,15-37.8,33.4-37.8
	l707.6,2.1C937.5,2.1,952.6,19.1,952.6,37.8z"/>
<path class="st4" d="M952.6,38v29.1H178.1V38c0-21,14.1-38,31.5-38H921C938.5,0,952.6,17,952.6,38C952.6,38,952.6,38,952.6,38z"/>
<ellipse class="st5" cx="215.6" cy="33.5" rx="11.1" ry="13.4"/>
<ellipse class="st6" cx="248" cy="33.5" rx="11.1" ry="13.4"/>
<ellipse class="st7" cx="280.5" cy="33.5" rx="11.1" ry="13.4"/>
<path class="st8" d="M468.4,206.8h53.2c4.8,0,8.6,4.6,8.6,10.4v19.5c0,5.7-3.9,10.4-8.6,10.4h-53.2c-4.8,0-8.6-4.6-8.6-10.4v-19.5
	C459.8,211.5,463.6,206.8,468.4,206.8z"/>
<path class="st8" d="M611.1,206.8h53.2c4.8,0,8.6,4.6,8.6,10.4v19.5c0,5.7-3.9,10.4-8.6,10.4h-53.2c-4.8,0-8.6-4.6-8.6-10.4v-19.5
	C602.5,211.5,606.3,206.8,611.1,206.8z"/>
<polyline class="st9" points="494.8,246.2 565.3,357.1 637.9,245.7 "/>
<path class="st10" d="M520.1,353.5h90.4c4.8,0,8.6,4.6,8.6,10.4v40.8c0,5.7-3.9,10.4-8.6,10.4h-90.4c-4.8,0-8.6-4.6-8.6-10.4v-40.8
	C511.5,358.2,515.3,353.5,520.1,353.5z"/>
<path class="st2" d="M522.3,354.8h86.1c4.8,0,8.6,4.6,8.6,10.4v38.3c0,5.7-3.9,10.4-8.6,10.4h-86.1c-4.8,0-8.6-4.6-8.6-10.4v-38.3
	C513.7,359.4,517.5,354.8,522.3,354.8z"/>
<line class="st9" x1="495.3" y1="206.8" x2="494.4" y2="167.6"/>
<polyline class="st9" points="679.3,169.6 637.9,206.8 594.4,169.6 "/>
<path class="st8" d="M468,129.3h53.2c4.8,0,8.6,4.6,8.6,10.4v19.5c0,5.7-3.9,10.4-8.6,10.4H468c-4.8,0-8.6-4.6-8.6-10.4v-19.5
	C459.4,133.9,463.2,129.3,468,129.3z"/>
<path class="st8" d="M652.7,129.3h53.2c4.8,0,8.6,4.6,8.6,10.4v19.5c0,5.7-3.9,10.4-8.6,10.4h-53.2c-4.8,0-8.6-4.6-8.6-10.4v-19.5
	C644.1,133.9,647.9,129.3,652.7,129.3z"/>
<path class="st8" d="M567.8,129.3H621c4.8,0,8.6,4.6,8.6,10.4v19.5c0,5.7-3.9,10.4-8.6,10.4h-53.2c-4.8,0-8.6-4.6-8.6-10.4v-19.5
	C559.2,133.9,563,129.3,567.8,129.3z"/>
<line class="st9" x1="565.3" y1="413.8" x2="565" y2="521.1"/>
<path class="st9" d="M564.8,560.4L564.8,560.4z"/>
<polyline class="st9" points="465.2,597.5 564.8,560.4 664.8,597.3 "/>
<path class="st8" d="M538.4,521.1h53.2c4.8,0,8.6,4.6,8.6,10.4v19.5c0,5.7-3.9,10.4-8.6,10.4h-53.2c-4.8,0-8.6-4.6-8.6-10.4v-19.5
	C529.8,525.7,533.7,521.1,538.4,521.1z"/>
<path class="st8" d="M870.6,289.9v64.1c0,5.7-3.9,10.4-8.6,10.4h-16.2c-4.8,0-8.6-4.6-8.6-10.4v-64.1c0-5.7,3.9-10.4,8.6-10.4H862
	C866.8,279.5,870.6,284.1,870.6,289.9z"/>
<path class="st8" d="M837.2,486.8v-64.1c0-5.7,3.9-10.4,8.6-10.4H862c4.8,0,8.6,4.6,8.6,10.4v64.1c0,5.7-3.9,10.4-8.6,10.4h-16.2
	C841.1,497.1,837.2,492.5,837.2,486.8z"/>
<path class="st8" d="M638.2,597h53.2c4.8,0,8.6,4.6,8.6,10.4v19.5c0,5.7-3.9,10.4-8.6,10.4h-53.2c-4.8,0-8.6-4.6-8.6-10.4v-19.5
	C629.6,601.6,633.5,597,638.2,597z"/>
<path class="st8" d="M491.8,637.2h-53.2c-4.8,0-8.6-4.6-8.6-10.4v-19.5c0-5.7,3.9-10.4,8.6-10.4h53.2c4.8,0,8.6,4.6,8.6,10.4v19.5
	C500.5,632.6,496.6,637.2,491.8,637.2z"/>
<path class="st8" d="M593.4,637.2h-53.2c-4.8,0-8.6-4.6-8.6-10.4v-19.5c0-5.7,3.9-10.4,8.6-10.4h53.2c4.8,0,8.6,4.6,8.6,10.4v19.5
	C602,632.6,598.1,637.2,593.4,637.2z"/>
<line class="st9" x1="805.8" y1="388.3" x2="837.2" y2="454.3"/>
<line class="st9" x1="739.6" y1="387.5" x2="772.5" y2="387.5"/>
<line class="st9" x1="616.9" y1="384.3" x2="706.8" y2="387.5"/>
<line class="st9" x1="837.2" y1="321.9" x2="806" y2="388"/>
<path class="st8" d="M740.2,355.2v64.1c0,5.7-3.9,10.4-8.6,10.4h-16.2c-4.8,0-8.6-4.6-8.6-10.4v-64.1c0-5.7,3.9-10.4,8.6-10.4h16.2
	C736.3,344.8,740.2,349.5,740.2,355.2z"/>
<path class="st8" d="M805.8,356.3v64.1c0,5.7-3.9,10.4-8.6,10.4H781c-4.8,0-8.6-4.6-8.6-10.4v-64.1c0-5.7,3.9-10.4,8.6-10.4h16.2
	C802,345.9,805.8,350.5,805.8,356.3z"/>
<path class="st8" d="M293.4,289.8v64.1c0,5.7-3.9,10.4-8.6,10.4h-16.2c-4.8,0-8.6-4.6-8.6-10.4v-64.1c0-5.7,3.9-10.4,8.6-10.4h16.2
	C289.5,279.5,293.4,284.1,293.4,289.8z"/>
<path class="st8" d="M260,486.8v-64.1c0-5.7,3.9-10.4,8.6-10.4h16.2c4.8,0,8.6,4.6,8.6,10.4v64.1c0,5.7-3.9,10.4-8.6,10.4h-16.2
	C263.8,497.1,260,492.5,260,486.8z"/>
<line class="st9" x1="324.8" y1="388.3" x2="293.4" y2="454.3"/>
<line class="st9" x1="391" y1="387.5" x2="358.1" y2="387.5"/>
<line class="st9" x1="513.7" y1="384.3" x2="423.8" y2="387.5"/>
<line class="st9" x1="293.4" y1="321.9" x2="324.6" y2="388"/>
<path class="st8" d="M423.8,355.2v64.1c0,5.7-3.9,10.4-8.6,10.4H399c-4.8,0-8.6-4.6-8.6-10.4v-64.1c0-5.7,3.9-10.4,8.6-10.4h16.2
	C420,344.8,423.8,349.5,423.8,355.2z"/>
<path class="st8" d="M358.2,356.3v64.1c0,5.7-3.9,10.4-8.6,10.4h-16.2c-4.8,0-8.6-4.6-8.6-10.4v-64.1c0-5.7,3.9-10.4,8.6-10.4h16.2
	C354.3,345.9,358.2,350.5,358.2,356.3z"/>
<path class="st11" d="M108.7,608.2c0,60.9,31.7,110.1,70.9,110.1"/>
<path class="st2" d="M179.6,718.3c0-61.6,35.4-111.4,79.1-111.4"/>
<path class="st2" d="M134.4,613.7c0,57.8,20.2,104.6,45.2,104.6"/>
<path class="st11" d="M179.6,718.3c0-78.7,40.9-142.3,91.4-142.3"/>
<ellipse class="st0" cx="176.5" cy="735.8" rx="17.6" ry="3.6"/>
<path class="st12" d="M164.7,719.1c0,0,10.1-0.4,13.1-3c3-2.6,15.5-5.7,16.2-1.5c0.8,4.2,15.1,20.7,3.8,20.8
	c-11.3,0.1-26.4-2.1-29.4-4.4C165.3,728.9,164.7,719.1,164.7,719.1z"/>
<path class="st13" d="M197.9,734c-11.3,0.1-26.4-2.1-29.4-4.4c-2.3-1.7-3.2-7.7-3.5-10.5h-0.3c0,0,0.6,9.8,3.7,12
	c3,2.2,18,4.5,29.4,4.4c3.3,0,4.4-1.4,4.3-3.5C201.6,733.2,200.4,733.9,197.9,734z"/>
<linearGradient id="SVGID_1_" gradientUnits="userSpaceOnUse" x1="896.8891" y1="-79.8701" x2="896.8891" y2="244.8025" gradientTransform="matrix(1 0 0 -1 -48.1 761.9)">
	<stop  offset="0" style="stop-color:#808080;stop-opacity:0.25"/>
	<stop  offset="0.54" style="stop-color:#808080;stop-opacity:0.12"/>
	<stop  offset="1" style="stop-color:#808080;stop-opacity:0.1"/>
</linearGradient>
<path class="st14" d="M962,786.2l-27.8-48.6c0,0-0.5-12-2.3-14.9c-1.8-2.8-0.4-9.1-0.4-9.1s2-3.4,0.3-3.7s-0.3-8-0.3-8l-0.1-12.2
	c0,0,1.6-11.7,0.3-14.5c-0.8-1.6-0.7-3.5,0.1-5c0,0,1.6-6.7,0-8.5c-1.6-1.8-1.2-12.2-0.8-20.5s-2.7-13-2.7-14.2
	s-10.3-13.5-10.3-14.5c0-1.1-6.5-5.6-10.4-6.9s-5.9-2.2-5.7-2.8c0.1-0.6-6.1-3.1-6.1-3.1s-5.5-0.5-7.5-3.7c-2.1-3.3-8.5-4.2-8.6-4.3
	c0-0.2-0.1-0.4-0.1-0.7l-0.1-0.7c0.5-1,0.9-2,1.4-3.1l0.4-1c2.3,0,4.5-0.8,6.4-2.4c1.9-1.9,3-4.6,3.1-7.5c0.1-2.9-0.4-5.8-1.5-8.3
	c-1.1-2.8-2.8-5.7-2.2-8.8c0.3-1.3,0.9-2.4,1.2-3.8c0.5-2.5,0.2-5.2-0.9-7.4c-1-2.3-2.4-4.3-3.5-6.5c-1.4-2.8-2.3-5.9-2.7-9.1
	c-0.1-1.7-0.4-3.4-1-5c-0.6-1.1-1.4-2.1-2.3-2.8c-4.1-3.5-9-5.3-14-5.1c-3.5,0.1-7,1.3-10.6,0.8c-2.1-0.4-4.2-1.1-6.2-2
	c-4.4-1.6-9.4-2.2-13.2,0.8s-5.3,8.9-7.9,13.5c-2.3,4.1-5.6,7.5-7.3,11.9c0-0.1,0-0.2,0.1-0.3c-0.4,1-0.8,2.1-1,3.2
	c-0.7,3.4-0.1,7,0.6,10.4c0.4,1.8,0.8,3.6,2.1,4.6c1.3,1,3,0.8,4.5,1.1c-0.1,0.3-0.1,0.6-0.2,0.9c-3.2,18.3,5.7,36.5,20.6,41.7
	c0,0.3,0,0.6,0,0.9c0,0.9-0.1,1.8-0.1,2.7l0,0c0,0-13.1-3.2-16.6-1.1c-3.5,2.2-10.4,3.9-11.4,5.2c-1,1.2-3.6,0.3-6,7.7
	c-2.3,7.3-2.6,14.9-5.6,18.3c-3,3.4-4.5,5.8-4.7,8.3c-0.1,2.5,0.4,3.1-0.8,3.9s-2.9,4.1-2.3,5.3c0,0,0.7,3.1-1.4,4.7
	c-1.3,1.1-1.9,2.8-1.8,4.7c0,0-0.8,3.4-2.6,4.2c-1.8,0.8-3,5.9-3,5.9l-5.9,8.2l-11.7-15.6c-1.8-2.4-4.9-2.6-7-0.4l-5.6,6.3
	c-2.2,0.6-4.2,2.1-5.7,4.1c-1.3,1.5-2.3,3.4-3,5.3l-3.1,3.4c-1,1.1-1.6,2.6-1.6,4.2c-0.8,2.1-0.5,4.7,0.8,6.4l7.5,10v0.1
	c-2.7,0.3-5.2,1.5-7.2,3.6c-11.2,11.9-11.3,22.8-9.6,27.9s15.9,24.2,15.9,24.2s8.2,12.9,20.1,19.8l0,0l-0.1,0.1
	c-0.2,0.3-0.5,0.6-0.7,1l-0.2,0.3l-0.2,0.3l-0.2,0.4l-0.2,0.3l-0.2,0.4c0,0.1-0.1,0.2-0.1,0.3c-0.1,0.2-0.2,0.4-0.3,0.6l-0.1,0.2
	c-0.1,0.3-0.2,0.6-0.3,0.8c-0.1,0.3-0.1,0.2-0.1,0.3c0,0.1-0.1,0.4-0.2,0.6l-0.1,0.4c-0.1,0.2-0.1,0.4-0.2,0.6
	c-0.1,0.2-0.1,0.3-0.1,0.4l-0.2,0.7l-0.1,0.4c-0.1,0.4-0.1,0.7-0.2,1.1l-0.1,0.4c0,0.3-0.1,0.5-0.1,0.8s-0.1,0.4-0.1,0.6
	s0,0.5-0.1,0.8c-0.1,0.3,0,0.4-0.1,0.6s0,0.6,0,0.9c0,0.3,0,0.4,0,0.5c0,0.5,0,1-0.1,1.5c-0.3,18.3,0.6,20.9,0.6,20.9
	s1.8,5.8,6.9,6.2c0.7,0.1,1.5,0,2.2-0.1c6.8-1.4,22.6-4.7,28.2-3.4c3.4,0.8,9.6-0.4,14-1.4l1.2-0.3l0.8,3.1l2.6-0.8l2.2,1.5l1.4,1
	c2.6,10.5,13,6.9,13,6.9l2.5,1.7l25.2,0.8c2.8,2.1,5.8,3.8,8.9,5.1c0.4,0.1,0.8,0.3,1.3,0.3c2.3,0.2,4.7,0.3,7,0.2
	c1.9,0,3.4-0.2,3.4-0.2s-0.3-8.2-0.6-17.4c9.6-0.5,18.1-1.2,23.2-2.3c13.3-2.8,18.9-17.6,21-25.4c0.6,3.2,1.1,6.4,1.3,9.7
	c0.5,2.9,1.2,5.7,2.1,8.5c0.7,2.2,1.7,4.3,2.9,6.3c9.9-4.1,3.9-10.2,1.8-12.8c-2.1-2.7,1.4-4.8,1.4-4.8s2.7-2.2,2.5-4.2
	c-0.3-2-0.4-4.2,8.5-4.1C962.4,795.1,962,786.2,962,786.2z M824.6,686.4c0.1,0.9,1.3,10.5,2.5,13.1c0.3,1.7,0.4,3.4,0.3,5.1
	c-5.2-0.5-10.7-0.8-10.7-0.8c0.2,0.2,0.3,0.5,0.3,0.8l-0.8-0.2c-0.4-0.1-0.8-0.2-1.2-0.4L824.6,686.4L824.6,686.4z M805.5,723
	l9.1,1.7l0.8,0.1c-0.3,1.7-0.4,3.4-0.5,5.2c0,0.2,0.2,0.4,0.5,0.6c-0.1,0.9-0.2,1.7-0.2,2.6c0.1,0.9,4.4,2.7,9.3,4.3
	c-0.1,0.3-0.1,0.6-0.2,0.9l0,0c-4.3-2.7-11.1-4-11.9-6.1c-0.8-2.1-23.8-11.7-23.8-11.7s-0.8-0.5-2.3-1.4l6,1.4l1.7-0.2
	C797.8,721.6,801.6,722.5,805.5,723L805.5,723z"/>
<path class="st15" d="M932.4,793c0,0-3.6,26.2-21.9,30.1c-18.3,3.9-79.4,3.1-79.4,3.1s-34.9-6.1-47.6-41.6
	c-12.6-35.6-20.8-49.7-9.9-50.3c10.8-0.6,69.2,23.8,72.6,24.1C849.5,758.7,935.6,704.3,932.4,793z"/>
<path class="st16" d="M932.4,793c0,0-3.6,26.2-21.9,30.1c-18.3,3.9-79.4,3.1-79.4,3.1s-34.9-6.1-47.6-41.6
	c-12.6-35.6-20.8-49.7-9.9-50.3c10.8-0.6,69.2,23.8,72.6,24.1C849.5,758.7,935.6,704.3,932.4,793z"/>
<path class="st4" d="M768.5,822.2c0,0,1.8,5.8,6.8,6.2c0.7,0.1,1.5,0,2.2-0.1c6.7-1.4,22.4-4.7,28-3.4c3.3,0.7,9.5-0.4,13.9-1.4
	c2.9-0.7,5-1.3,5-1.3s-5.2-20.6-5.8-21.3c-0.7-0.7-23.2-17-23.2-17l-17.9-1.5l0,0c-2.4,0.4-4.6,2-6,4.3c-1.9,2.8-3.5,7.3-3.6,14.7
	C767.6,819.5,768.5,822.2,768.5,822.2z"/>
<path class="st16" d="M768.5,822.2c0,0,1.8,5.8,6.8,6.2c-1.8-2.7-3.4-5.5-4.8-8.5l0.1-15.1c-0.7-8.4,1.9-16.7,7-22.4h-0.1
	c0,0-9.4,0.8-9.7,19C767.6,819.6,768.5,822.2,768.5,822.2z"/>
<path class="st10" d="M846,789.2l16.6-15.7l26.2-31.1c0,0-2.8-0.2-7.1-0.4c-1,0.8-4,3.4-4.1,6.5c-0.1,3.8-7,0.3-10.7,2.4
	c-3.6,2.2-21.2,29.4-24.3,29.2s-5.5-1.9-6.8,0.8l-0.1,0.2L846,789.2z"/>
<path class="st10" d="M771.5,786.7c0.6,0.3,1.2,0.7,1.8,1c12.6,6.5,28.2,20.2,29.4,22.7c0.7,1.5,9.8,8.1,16.7,13.1
	c2.9-0.7,5-1.3,5-1.3s-5.2-20.6-5.8-21.3c-0.7-0.7-23.2-17-23.2-17l-17.9-1.5l0,0C775.2,782.9,773,784.4,771.5,786.7z"/>
<path class="st15" d="M736.4,742.2c1.7,5,15.7,24.1,15.7,24.1s8.9,14,21.5,20.5c12.6,6.5,28.2,20.2,29.4,22.7
	c0.7,1.6,10.8,8.9,17.9,13.9l1.6,1.1l3.5,2.4l1.9,1.3c0,0,4.3-4.2,8.6-8.4c4.3-4.2,8.5-8.3,8.5-8.5c0.1-0.5,1.8-5.7,1.4-6.1
	c-0.2-0.2-1.1-2.3-2.7-4.8c-1.7-2.8-4-5-6.6-6.5c-5.9-3.3-8.5-10.7-8.5-10.7s-0.6-0.5-1.4-1.1c-1.8-1.5-3.7-2.5-5.8-3.1
	c-2.8-0.4-8.1-7.4-8.1-7.4s-3.6-2.8-5-6.4s-21.3-19.9-23.2-21.5l48.5,37.5l11.6,9l16.6-15.7l26.2-31.1c0,0-3.5-0.2-8.6-0.5
	c-12.7-0.7-35.3-1.7-38.2-0.9c-2.3,0.7-4.7,0.8-7,0.6c0,0-6.4,0.4-10.7-2.4s-11-4-11.7-6c-0.8-2-23.6-11.6-23.6-11.6
	s-31.1-19.9-42.2-8.1C734.9,726.3,734.7,737.2,736.4,742.2z"/>
<path class="st17" d="M836.6,628.2l4,16l5.2,36l18.9,1.6l5.5-10.9l5.5-10.9c0,0,3.4-14.5,5.9-28.6c2.2-12.5,3.6-24.6,1.2-25.9
	c-2.1-1.2-3.5-5.4-4.4-9.9c-0.1-0.6-0.2-1.1-0.3-1.7c-0.6-3.8-1-7.7-1.3-11.6c0,0-39.7-2.5-34.2,17.2c1,3.4,1.5,6.9,1.5,10.5
	c0,0.9-0.1,1.8-0.1,2.7C843.4,618.9,840.7,624.5,836.6,628.2z"/>
<path class="st18" d="M828.3,625.6l1.4,27.2l3.2,23.1l3.6,10.7l3.2,58.6c0,0,31.1,4.3,38.7-0.1c0.5-0.3,1-0.7,1.4-1.3
	c9.1-16.6,6.1-64.7,6.1-64.7l3.5-31.1l-2.3-16.1l-5.6-0.7l-4.3-0.5c0,0-1,1.4-2.4,3.6c-3.8,6.1-10.9,18-10.4,23
	c0.6,6.8-0.8,13.8-3,14.9c-2.2,1.1-4,3-4.4,1.1c-0.4-1.9-0.8-2.3-0.4-5c0.4-2.6-1.7-10.7-1.7-10.7s-3.5-9.5-3.2-13.5
	c0.3-4-0.4-8.7-1.4-9.8c-1-1.1-2.4-2.2-1.3-7.1c1.2-5-5.1-14.6-5.1-14.6L828.3,625.6z"/>
<path class="st10" d="M869.4,693.4l1.3,46.4l7.4,5c0.5-0.3,1-0.7,1.4-1.3c9.1-16.6,6.1-64.7,6.1-64.7l3.5-31.1l-2.3-16.1l-5.6-0.7
	c2.2-12.5,3.6-24.6,1.2-25.9c-2.1-1.2-3.5-5.4-4.4-9.9l0,0l-4,32.9c0,0,0.3,3,0.5,6.1c0.2,1.9,0.1,3.9-0.3,5.8
	c-0.9,2.8-0.3,7.8-0.3,7.8c-2.3,4.9-3.5,14.1-4,22.9C869.1,682.3,869.4,693.4,869.4,693.4z"/>
<path class="st4" d="M878.2,594.5c0,0,6.5,1,8.6,4.2c2.1,3.3,7.5,3.7,7.5,3.7s6.2,2.4,6,3.1c-0.2,0.7,1.8,1.6,5.7,2.8
	c3.9,1.2,10.3,5.7,10.3,6.8c0,1.1,10.2,13.2,10.2,14.4c0,1.2,3.1,5.9,2.7,14.1s-0.8,18.6,0.8,20.3c1.5,1.7,0,8.4,0,8.4
	c-0.9,1.5-0.9,3.4-0.1,5c1.3,2.8-0.3,14.4-0.3,14.4l0.1,12.1c0,0-1.4,7.6,0.3,7.9c1.7,0.3-0.3,3.7-0.3,3.7s-1.4,6.2,0.4,9
	c1.8,2.8,2.3,14.7,2.3,14.7l27.6,48.3c0,0,0.4,8.8-8.4,8.7c-8.8-0.1-8.6,2-8.4,4c0.3,2-2.4,4.2-2.4,4.2s-3.5,2.2-1.4,4.8
	c2.1,2.7,8,8.7-1.8,12.7c-1.2-1.9-2.1-4-2.8-6.2c-0.8-2.7-1.5-5.5-2.1-8.4c0,0-0.9-11.8-2.7-13.3c-1.8-1.5-1.5-9-1.5-9
	s2.6-6.1-1-8.5s-56-37.4-56-37.4l-1.3-46.5c0,0-0.9-34.3,4.5-45.8c0,0-0.6-5,0.3-7.8c0.9-2.8-0.1-11.8-0.1-11.8L878.2,594.5z"/>
<path class="st10" d="M844.4,613.1c0,0-13-3.2-16.4-1c-3.5,2.2-10.3,3.9-11.3,5.1c-1,1.2-3.6,0.3-5.9,7.6
	c-2.3,7.3-2.6,14.7-5.5,18.2c-3,3.4-4.5,5.7-4.6,8.2s0.4,3.1-0.8,3.9c-1.2,0.8-2.8,4-2.3,5.3c0.5,1.2,26.8,28.6,26.8,28.6
	s1.3,10.4,2.5,13.1c1.2,2.6-1.3,39-3.9,41.5s17.4,2.3,17.4,2.3s0.9-23.8,1.7-25.1c0.8-1.2-0.5-26.7-0.5-26.7s-0.1-21.7,1.5-27.5
	s1.5-24.8,1.5-24.8s1.5-11.5,3.3-14.1C849.5,624.8,844.4,613.1,844.4,613.1z"/>
<path class="st4" d="M844,612.6c0,0-13-3.2-16.4-1c-3.5,2.2-10.3,3.9-11.3,5.1c-1,1.2-3.6,0.3-5.9,7.6s-2.6,14.8-5.5,18.2
	s-4.5,5.7-4.6,8.2c-0.1,2.5,0.4,3.1-0.8,3.9c-1.2,0.8-2.8,4-2.3,5.3c0.5,1.2,26.8,28.6,26.8,28.6s1.3,10.4,2.5,13s-1.3,39-3.9,41.5
	c-2.6,2.5,17.4,2.3,17.4,2.3s0.9-23.8,1.7-25.1c0.8-1.2-0.5-26.7-0.5-26.7s-0.1-21.7,1.5-27.5c1.7-5.7,1.4-24.9,1.4-24.9
	s1.5-11.5,3.3-14.1S844,612.6,844,612.6z"/>
<path class="st10" d="M842.7,599.5c1,3.4,1.5,6.9,1.5,10.5c13,4.7,27.1-2,33.9-16.1c-0.6-3.8-1-7.7-1.3-11.6
	C876.8,582.2,837.1,579.8,842.7,599.5z"/>
<path class="st17" d="M823.1,574.9c0,19.6,13.2,35.6,29.5,35.6c16.3,0,29.5-15.9,29.5-35.6c0-19.6-13.2-35.6-29.5-35.6
	c-13.9,0-26,11.8-28.9,28.2C823.3,570,823.1,572.5,823.1,574.9z"/>
<path class="st4" d="M804.1,657.2l-7,2.6c0,0,0.7,3.1-1.4,4.7c-1.2,1.1-1.9,2.8-1.8,4.7c0,0-0.8,3.4-2.6,4.2s-3,5.9-3,5.9l-5.9,8.2
	c0,0-2.2,2.2-1.8,3.3c0.4,1.1-2.3,1.4-2.3,1.4l1.3,27.7l12.3,2.8l7.6-0.9l6.2-2.8l5.4-3.9l2.5-7.6l10.8-19.9L804.1,657.2z"/>
<path class="st17" d="M780,694.4c0,0-15.7-27.3-27.5-12.6s4.8,38.7,8.6,37.9s22.3-2,22.3-2L780,694.4z"/>
<path class="st4" d="M747,639.5l70.6,43.4c0.8,0.5,1.1,1.6,0.7,2.5l-27.7,65.3c-0.4,0.9-1.3,1.3-2.1,0.8L718,708.1
	c-0.8-0.5-1.1-1.6-0.7-2.5l27.7-65.3C745.3,639.4,746.2,639.1,747,639.5z"/>
<polygon class="st2" points="748.9,648.5 810.5,686.4 786.8,742.3 725.2,704.4 "/>
<ellipse class="st19" cx="734.7" cy="674.9" rx="1.1" ry="1.4"/>
<ellipse class="st19" cx="801.4" cy="716.1" rx="1.9" ry="2.3"/>
<path class="st17" d="M769.8,700.1c-0.1,20.5,35.1,24.8,35.1,24.8l9,1.7l4,0.8l1.7-20c0,0-1.8-0.3-4.1-1c-3.4-1-7.8-2.6-8.8-4.9
	C805.1,697.6,769.9,679.6,769.8,700.1z"/>
<path class="st10" d="M823.7,567.5c0.8,0.1,1.6,0.5,2.2,1.2c1,1.3,1,3.5,2.3,4.3c0.5,0.3,1,0.3,1.5,0.2c3.4-0.6,5.4-5.2,8.7-6.5
	c1.9-0.6,4-0.4,5.8,0.6c0.7,0.3,1.4,0.8,1.9,1.5c1.1,1.7,0.3,4.3,0.8,6.3c0.7,2.9,3.6,4,6,4.4c2.5,0.4,5.3,0.6,6.9,2.8
	c1.1,1.7,1.6,3.9,1.2,6.1c-0.1,0.7-0.1,1.5,0,2.2c0.7,2.3,4,2,4.9,0.1c0.6-1.3,0.5-2.4,2-2.8c1.1-0.1,2.2,0.1,3.2,0.7
	c2.6,1.1,5.4,1.6,8.2,1.5c6.9-17.8,0.6-39-14.1-47.3c-14.8-8.4-32.3-0.7-39.3,17C824.9,562.4,824.2,565,823.7,567.5L823.7,567.5z"/>
<path class="st4" d="M861.1,589.7c-0.1-0.7-0.1-1.5,0-2.2c0.3-2.1-0.1-4.3-1.2-6.1c-1.7-2.3-4.4-2.4-6.9-2.8c-2.5-0.4-5.3-1.5-6-4.4
	c-0.5-2.1,0.3-4.6-0.8-6.3c-0.5-0.7-1.2-1.2-1.9-1.5c-1.8-1-3.8-1.2-5.8-0.6c-3.3,1.3-5.3,5.9-8.7,6.5c-0.5,0.1-1.1,0-1.5-0.2
	c-1.3-0.8-1.3-3-2.3-4.3c-1.6-2-4.5-0.7-6.5-2.2c-1.2-1-1.7-2.9-2.1-4.6c-0.7-3.4-1.2-6.9-0.6-10.3c1.1-5.8,5.4-9.7,8.1-14.7
	c2.6-4.6,4-10.4,7.8-13.5c3.8-3.1,8.8-2.4,13.1-0.8c2,0.8,4,1.5,6.1,1.9c3.5,0.5,7-0.6,10.5-0.8c5-0.2,9.8,1.6,13.9,5.1
	c0.9,0.7,1.7,1.7,2.3,2.8c0.6,1.6,0.9,3.2,1,4.9c0.4,3.2,1.3,6.3,2.7,9.1c1.1,2.2,2.4,4.2,3.4,6.4c1.1,2.2,1.4,4.9,0.9,7.4
	c-0.3,1.3-1,2.4-1.2,3.7c-0.6,3,1.1,5.9,2.2,8.7c1.1,2.6,1.6,5.4,1.5,8.3c-0.1,2.9-1.3,5.6-3.1,7.4c-1.9,1.6-4.2,2.5-6.5,2.4
	c-2.8,0.1-5.6-0.4-8.3-1.5c-1-0.5-2.1-0.8-3.2-0.7c-1.5,0.4-1.3,1.5-2,2.8C865.2,591.6,861.8,592,861.1,589.7z"/>
<path class="st10" d="M845.2,790.2l16.6-15.7l26.2-31.1c0,0-3.5-0.2-8.6-0.5c-1,1.1-1.7,2.6-1.8,4.2c-0.1,3.8-7,0.3-10.7,2.4
	c-3.6,2.2-21.3,29.4-24.4,29.2c-3.1-0.2-5.5-1.9-6.8,0.8l-0.1,0.2c-0.5,0.7-1.2,1.2-2,1.4L845.2,790.2z"/>
<path class="st15" d="M811.7,789.1l8.4,32.1l1.3,5l4-1.3l8.8-2.9l39.1-12.9c4.9-0.3,9.7-1.8,14.1-4.5c7.4-5,15.8-7.2,24.3-6.4
	c5.2,0.6,10.9-2.1,15.7-12.7c0,0,10.8-38.5-16.5-49.5c-27.3-11-28.6,5.9-28.6,5.9l-0.4,0.3c-1,0.8-4,3.4-4.1,6.5
	c-0.1,3.8-7,0.3-10.7,2.4c-3.6,2.2-21.3,29.4-24.4,29.2s-5.5-1.9-6.8,0.8l-0.1,0.2c-1,1.6-3.8,2-5.7,2c-1,0-1.8,0-1.8,0l-0.2,0.1
	l-2,0.7L811.7,789.1z"/>
<path class="st10" d="M813.9,726.7l4,0.8l1.7-20c0,0-1.8-0.3-4.1-1C816,709.2,814.7,720,813.9,726.7z"/>
<path class="st10" d="M919.3,633.1c0,0,12-4.2,9.1,36.8s-25.2,66.9-25.2,66.9s-25.5,13.5-37,11.3c-6.6-1.3-13.2-2.2-19.8-2.6
	c-3.6-2.2-7.6-3.5-11.6-3.7c-6.4-0.3-20-5.1-20.2-6.7c-0.3-1.6,3.4-24.4,1.8-26.1c0,0,18,0.9,19.8,2.4c1.8,1.5,4.4,0.4,6.3,0
	c1.9-0.4,7.9-6.7,19.6-1.2c0,0,4,0.5,5.5-0.8c1.5-1.2,4-0.3,4-0.3c1-0.4,1.9-1,2.8-1.7c0.4-0.6,3.5,0,3.5,0c0.7,0.4,1.5,0.1,1.8-0.8
	c0-0.1,0.1-0.2,0.1-0.3c0.4-1.3,1-2.4,1.8-3.4c0,0,3.5-23.6,10.1-32.5c0,0,1.9-2,1.4-4.5C892.6,663.5,903.8,628.1,919.3,633.1z"/>
<path class="st4" d="M919,629.9c0,0,12-4.2,9.1,36.8c-2.9,41-25.2,66.9-25.2,66.9s-25.5,13.5-37,11.3c-11.5-2.2-19.9-2.6-19.9-2.6
	c-3.6-2.2-7.6-3.5-11.6-3.7c-6.4-0.3-20-5.1-20.2-6.7c-0.3-1.6,3.3-24.4,1.8-26.1c0,0,18,0.9,19.9,2.4c1.8,1.5,4.4,0.4,6.3,0
	s7.9-6.7,19.6-1.2c0,0,4,0.5,5.5-0.8c1.5-1.2,4-0.3,4-0.3c1-0.4,1.9-1,2.8-1.7c0.4-0.6,3.5,0,3.5,0c0.7,0.4,1.5,0.1,1.8-0.8
	c0-0.1,0.1-0.2,0.1-0.3c0.4-1.3,1-2.4,1.8-3.4c0,0,3.5-23.6,10.1-32.5c0,0,1.9-2,1.4-4.5C892.3,660.3,903.5,624.9,919,629.9z"/>
<path class="st10" d="M825.9,784l17,24.8c0.1-0.1,0.1-0.1,0.1-0.1c0.1-0.5,1.8-5.7,1.4-6.1c-0.4-0.3-3.4-8.1-9.3-11.3
	c-3-1.8-5.5-4.6-7.3-8L825.9,784z"/>
<path class="st10" d="M826.1,826.9l1.9,1.3c0,0,4.3-4.2,8.6-8.4c4.3-4.2,8.5-8.3,8.5-8.5c0.1-0.5,1.8-5.7,1.4-6.1
	c-0.2-0.2-1.1-2.3-2.7-4.8c-11.5-3.9-4.2,5.8-3.2,6.2c0,0-14.1-3.9-14.8,14.5C825.7,823.1,825.8,825,826.1,826.9z"/>
<path class="st4" d="M840.3,834.8l2.5,1.7l24.9,0.8c2.8,2,5.7,3.7,8.8,5.1c0.4,0.2,0.8,0.3,1.2,0.3c2.3,0.2,4.6,0.3,6.9,0.2
	c1.9,0,3.4-0.2,3.4-0.2s-1.2-37.8-2-41.8c-0.4-1.9-2.5-1.5-4.6-0.5c-1.5,0.8-3,1.7-4.5,2.7c0,0-10.6,1.2-12.3,2.3
	c-1.7,1.1-6.4-0.6-9.4,0c-3,0.6-8.2-4.2-8.2-4.2c-14.4-5.7-6.3,5-5.3,5.4c0,0-14.1-3.9-14.8,14.5S840.3,834.8,840.3,834.8z"/>
<path class="st20" d="M876.3,820.1c0.3,7.8,5.3,17.5,8.3,22.7c1.9,0,3.4-0.2,3.4-0.2s-1.2-37.8-2-41.8c-0.4-1.9-2.5-1.5-4.6-0.5
	C878.9,806,876.1,813.8,876.3,820.1z"/>
<path class="st10" d="M876.3,820.1c0.3,7.8,5.3,17.5,8.3,22.7c1.9,0,3.4-0.2,3.4-0.2s-1.2-37.8-2-41.8c-0.4-1.9-2.5-1.5-4.6-0.5
	C878.9,806,876.1,813.8,876.3,820.1z"/>
<path class="st16" d="M872,821.2c1.7,7.5,1.7,16,4.4,21.1c0.4,0.2,0.8,0.3,1.2,0.3c2.3,0.2,4.6,0.3,6.9,0.2c1.9,0,3.4-0.2,3.4-0.2
	s-1.2-37.8-2-41.8c-0.4-1.9-2.5-1.5-4.6-0.5c-1.5,0.8-3,1.7-4.5,2.7C877,803.1,869.9,811.5,872,821.2z"/>
<path class="st10" d="M786.2,744.6c0,0,12.4,4.8,22.8,22L786.2,744.6z"/>
<g class="st1">
	<path d="M886.6,558.2c0,0.1,0,0.2-0.1,0.3c-0.1,0.4-0.3,0.9-0.4,1.3C886.3,559.3,886.4,558.7,886.6,558.2z"/>
	<path d="M816.7,550.7c0.2-1.1,0.6-2.1,1-3.1c-0.1,0.3-0.1,0.5-0.2,0.8c-0.7,3.4-0.1,6.9,0.6,10.3c0.4,1.7,0.8,3.6,2.1,4.6
		c1.9,1.5,4.9,0.2,6.5,2.2c1,1.2,1,3.5,2.3,4.3c0.5,0.3,1,0.3,1.5,0.2c3.4-0.6,5.4-5.2,8.7-6.5c1.9-0.6,4-0.4,5.8,0.6
		c0.7,0.3,1.4,0.8,1.9,1.5c1.1,1.7,0.3,4.2,0.8,6.3c0.7,2.9,3.6,4,6,4.4s5.3,0.6,6.9,2.8c1.1,1.7,1.6,3.9,1.2,6.1
		c-0.2,0.7-0.2,1.5,0,2.2c0.7,2.3,4,2,4.9,0.1c0.6-1.3,0.4-2.4,2-2.8c1.1-0.1,2.2,0.1,3.2,0.7c2.7,1.1,5.5,1.6,8.3,1.5
		c2.3,0,4.6-0.8,6.5-2.4c0.8-0.8,1.5-1.8,2-2.9c-0.4,2.1-1.4,3.9-2.8,5.3c-1.9,1.6-4.2,2.5-6.5,2.4c-2.8,0.1-5.7-0.5-8.3-1.6
		c-1-0.5-2.1-0.8-3.2-0.7c-1.5,0.4-1.3,1.5-2,2.8c-0.9,1.8-4.2,2.2-4.9-0.1c-0.1-0.7-0.1-1.5,0-2.2c0.3-2.1-0.1-4.3-1.2-6.1
		c-1.7-2.3-4.4-2.4-6.9-2.8c-2.5-0.4-5.3-1.5-6-4.4c-0.5-2.1,0.3-4.6-0.8-6.3c-0.5-0.7-1.2-1.2-1.9-1.5c-1.8-1-3.8-1.2-5.8-0.6
		c-3.3,1.3-5.3,5.9-8.7,6.5c-0.5,0.1-1.1,0-1.5-0.2c-1.3-0.8-1.3-3-2.3-4.3c-1.6-2-4.5-0.7-6.5-2.2c-1.2-1-1.7-2.9-2.1-4.6
		C816.6,557.6,816.1,554.1,816.7,550.7z"/>
</g>
<path class="st10" d="M888.6,675c-2.4,3.8-5,7.4-7.2,11.5c-2.1,4.1-3.6,8.8-3.1,13.6c2.2-2.7,3.1-6.4,4.5-9.7
	c2.3-5.7,5.8-10.5,8.7-15.8c0.6-1,4.1-6.7,2.3-7C892.4,667.3,889.4,673.7,888.6,675z"/>
</svg>
