<?xml version="1.0" encoding="utf-8"?>
<!-- Generator: Adobe Illustrator 22.1.0, SVG Export Plug-In . SVG Version: 6.00 Build 0)  -->
<svg version="1.1" id="a6f4e524-a1b8-434a-a0ca-43acb27f4769"
	 xmlns="http://www.w3.org/2000/svg" xmlns:xlink="http://www.w3.org/1999/xlink" x="0px" y="0px" viewBox="0 0 1110.5 857.7"
	 style="enable-background:new 0 0 1110.5 857.7;" xml:space="preserve">
<style type="text/css">
	.st0{opacity:0.1;fill:#241C15;enable-background:new    ;}
	.st1{opacity:3.000000e-02;fill:none;stroke:#FFFFFF;stroke-miterlimit:10;enable-background:new    ;}
	.st2{fill:#FFFFFF;}
	.st3{fill:#3F3D56;}
	.st4{fill:url(#SVGID_1_);}
	.st5{fill:#7CFCFF;}
	.st6{fill:url(#SVGID_2_);}
	.st7{fill:url(#SVGID_3_);}
	.st8{fill:url(#SVGID_4_);}
	.st9{fill:url(#SVGID_5_);}
	.st10{fill:url(#SVGID_6_);}
	.st11{fill:url(#SVGID_7_);}
	.st12{fill:url(#SVGID_8_);}
	.st13{fill:url(#SVGID_9_);}
	.st14{fill:#FFFFA5;}
	.st15{fill:url(#SVGID_10_);}
	.st16{fill:url(#SVGID_11_);}
	.st17{fill:url(#SVGID_12_);}
	.st18{fill:url(#SVGID_13_);}
	.st19{fill:url(#SVGID_14_);}
	.st20{fill:url(#SVGID_15_);}
	.st21{fill:url(#SVGID_16_);}
	.st22{fill:#FF69B4;}
	.st23{fill:url(#SVGID_17_);}
	.st24{fill:url(#SVGID_18_);}
	.st25{fill:url(#SVGID_19_);}
	.st26{fill:url(#SVGID_20_);}
	.st27{fill:url(#SVGID_21_);}
	.st28{fill:url(#SVGID_22_);}
	.st29{fill:url(#SVGID_23_);}
	.st30{fill:#EE8E9E;}
	.st31{fill:#65617D;}
	.st32{opacity:5.000000e-02;enable-background:new    ;}
	.st33{fill:#E8EAF2;}
	.st34{fill:#303D5C;}
	.st35{fill:#241C15;}
	.st36{opacity:0.1;enable-background:new    ;}
	.st37{fill:url(#SVGID_24_);}
	.st38{fill:#444053;}
	.st39{fill:#EFB7B9;}
	.st40{opacity:0.1;}
	.st41{opacity:0.2;fill:#241C15;enable-background:new    ;}
</style>
<title>prototyping process</title>
<path class="st0" d="M1110.5,550.9c0,23.2-2.2,46.3-6.7,69c-1.5,7.6-3.2,15-5.2,22.3c-2.5,9.1-5.3,17.9-8.4,26.4
	c-1.6,4.3-3.3,8.6-5.1,12.8c0.1,23.6-3.8,47.1-11.5,69.2c-13.5,38.9-38.2,70.7-69,89.3c-19.2,11.6-40.8,17.8-62.8,17.8h-731
	c-39.1,0-75.3-15.1-105-40.8c-8.7-7.5-16.7-15.9-24.1-25c-10.2-12.6-19.1-26.5-26.5-41.3c-17.1-34.2-27-74.4-27-117.5
	C10.4,593.8,0,546.7,0,496C0,432,16.6,373.7,43.8,329.6c5.6-9.1,11.8-17.8,18.6-26c6.5-7.9,13.6-15.2,21.3-21.8
	c6-5.2,12.3-10,18.9-14.2c2.7-1.7,5.5-3.4,8.2-4.9c2.4-1.4,4.9-2.6,7.4-3.8c3-1.4,6-2.7,9.1-3.9c3.1-1.2,6.1-2.2,9.1-3.1
	c4.4-1.3,8.9-2.4,13.4-3.2c3.8-0.7,7.5-1.2,11.3-1.6c3-0.3,6-0.4,9.1-0.5c0.6,0,1.1,0,1.6,0c3.4,0,6.7,0.2,10,0.5
	c0.3-0.9,0.7-1.8,1.1-2.6c1.3-3.2,2.7-6.3,4.1-9.4c0,0,0-0.1,0-0.1c0.2-0.5,0.5-1,0.7-1.6c1.1-2.5,2.3-5,3.5-7.5
	c0.5-1.1,1.1-2.3,1.6-3.4c0.1-0.3,0.2-0.5,0.4-0.8c0.6-1.2,1.1-2.3,1.7-3.5c2.9-5.8,5.9-11.6,9.1-17.2c0.3-0.5,0.5-1,0.8-1.4
	c0.5-0.9,0.9-1.7,1.5-2.6c1.3-2.3,2.6-4.6,4-6.8c0.9-1.6,1.9-3.2,2.9-4.8c2.5-4,5-7.9,7.5-11.8c2.6-3.9,5.3-7.8,8-11.7
	c0.4-0.5,0.8-1,1.2-1.6l4-5.5l0,0l0.6-0.7l0,0l1.5-1.9c2.2-2.9,4.4-5.7,6.6-8.5c11.2-14,23.3-27.2,36.1-39.5c0.5-0.5,1-1,1.5-1.5
	c2.4-2.3,4.8-4.5,7.3-6.7c13.3-11.9,27.2-22.9,41.9-32.8c1-0.7,2-1.4,3-2c12.9-8.6,26.3-16.3,40.1-23.2c7.5-3.8,15.2-7.3,22.9-10.5
	c5.1-2.1,10.2-4.1,15.4-6c8-2.9,16.2-5.5,24.4-7.8c24.1-6.8,48.9-11,73.8-12.6C516.3,0.2,524,0,531.7,0C569,0,606.2,5.9,642,17.5
	c0.7,1.4,2,2.2,3.4,2.2h3.2c1.4,0.5,2.7,1,4.1,1.5c7.7,2.8,15.3,5.8,22.7,9.1l1.9,0.8c35.7,15.9,68.9,37.7,98.6,64.4
	c2.2,2,4.4,4,6.5,6c2.6-2.1,5.2-4.1,7.9-6c10.2-7.4,21.3-13.3,32.9-17.6c23.8-8.9,49.4-10.1,73.8-3.6c31.3,8.4,59.7,29.1,82.6,58.5
	c9.5,12.2,17.8,25.5,24.8,39.5c0.5,1,1,2,1.5,3.1c6.2,12.7,11.5,25.9,15.8,39.5c0.2,0.5,0.3,1,0.5,1.5c4,12.9,7.3,26.1,9.7,39.5
	c0.1,0.7,0.2,1.4,0.4,2c2.3,13.1,3.8,26.2,4.6,39.5c0,0.5,0,1,0.1,1.4c0.4,6.9,0.6,13.8,0.6,20.8c0,6.3-0.2,12.5-0.5,18.7
	c0,0.7-0.1,1.4-0.1,2c-0.1,1.8-0.2,3.6-0.3,5.4c7.3,7.4,14,15.4,20.2,23.9c2.7,3.8,5.4,7.7,8,11.7c7.9,12.5,14.8,25.7,20.6,39.5
	C1101.3,458.8,1110.5,503.3,1110.5,550.9z"/>
<path class="st0" d="M1011.5,818.1c0,15.2-43.3,29.1-114.4,39.6H229.5c-71.1-10.5-114.4-24.4-114.4-39.6c0-11.6,25.1-22.4,68.5-31.6
	l0,0l1.2-0.3c12.3-2.6,26-5,40.9-7.2l1.1-0.2l0,0c11.9-1.8,24.5-3.5,37.9-5.1l1.3-0.1c5.2-0.6,10.4-1.2,15.8-1.8l0,0l2.1-0.2
	c39.2-4.1,83.7-7.4,132-9.6h0.1c6.8-0.3,13.6-0.6,20.5-0.9c7.7-0.3,15.5-0.6,23.3-0.8c6-0.2,12.1-0.4,18.2-0.5h0.1
	c27.5-0.7,56-1.1,85-1.1c71.9,0,139.9,2.2,200.1,6.2h0.2c9.3,0.6,18.3,1.3,27.2,2l7.5,0.6c10,0.8,19.7,1.7,29.2,2.6l0,0
	C939,780.9,1011.5,798.4,1011.5,818.1z"/>
<path class="st1" d="M298.8,107.9V139c0,2.3-1.7,4.2-3.9,4.2c0,0,0,0,0,0h-52.3c11.2-14,23.3-27.2,36.1-39.5h16.2
	C297.1,103.7,298.8,105.6,298.8,107.9L298.8,107.9z"/>
<path class="st2" d="M939.3,107.9v466.9c0,6.8-5.1,12.3-11.3,12.3h-767c-6.2,0-11.3-5.5-11.3-12.3V248.5c3.8-0.7,7.5-1.2,11.3-1.6
	c3-0.3,6-0.4,9.1-0.5c0.6,0,1.1,0,1.6,0c3.4,0,6.7,0.2,10,0.5c0.3-0.9,0.7-1.8,1.1-2.6c1.3-3.2,2.7-6.3,4.1-9.4c0,0,0-0.1,0-0.1
	c0.2-0.5,0.5-1,0.7-1.6c1.1-2.5,2.3-5,3.5-7.5c0.5-1.1,1.1-2.3,1.6-3.4c0.1-0.3,0.2-0.5,0.4-0.8c0.6-1.2,1.1-2.3,1.7-3.5
	c2.9-5.8,5.9-11.6,9.1-17.2c0.3-0.5,0.5-1,0.8-1.4c0.5-0.9,0.9-1.7,1.5-2.6c1.3-2.3,2.6-4.6,4-6.8c0.9-1.6,1.9-3.2,2.9-4.8
	c2.5-4,5-7.9,7.5-11.8c2.6-3.9,5.3-7.8,8-11.7c0.4-0.5,0.8-1,1.2-1.6l4-5.5l0,0l0.6-0.7l0,0l1.5-1.9c2.2-2.9,4.4-5.7,6.6-8.5
	c11.2-14,23.3-27.2,36.1-39.5c0.5-0.5,1-1,1.5-1.5c2.4-2.3,4.8-4.5,7.3-6.7h488.6c2.2,2,4.4,4,6.5,6c2.6-2.1,5.2-4.1,7.9-6H928
	C934.2,95.7,939.3,101.1,939.3,107.9z"/>
<path class="st3" d="M894.1,185v11.6H206.3c1.3-2.3,2.6-4.6,4-6.8c0.9-1.6,1.9-3.2,2.9-4.8H894.1z"/>
<rect x="735.9" y="128.3" class="st3" width="10.7" height="442.6"/>
<rect x="539.2" y="128.3" class="st3" width="10.7" height="442.6"/>
<rect x="342.5" y="128.3" class="st3" width="10.7" height="442.6"/>
<linearGradient id="SVGID_1_" gradientUnits="userSpaceOnUse" x1="219.7714" y1="559.2788" x2="219.7714" y2="605.0455" gradientTransform="matrix(1 0 0 -1 -11.09 826.47)">
	<stop  offset="0" style="stop-color:#808080;stop-opacity:0.25"/>
	<stop  offset="0.54" style="stop-color:#808080;stop-opacity:0.12"/>
	<stop  offset="1" style="stop-color:#808080;stop-opacity:0.1"/>
</linearGradient>
<path class="st4" d="M230.4,221.4v45.8h-43.5v-32.4c0,0,0-0.1,0-0.1c0.2-0.5,0.5-1,0.7-1.6c1.1-2.5,2.3-5,3.5-7.5
	c0.5-1.1,1.1-2.3,1.6-3.4c0.1-0.3,0.3-0.5,0.4-0.8L230.4,221.4z"/>
<path class="st5" d="M229.7,222.2v44.2h-42v-33.3c1.1-2.5,2.3-5,3.5-7.5c0.5-1.1,1.1-2.3,1.6-3.4L229.7,222.2z"/>
<linearGradient id="SVGID_2_" gradientUnits="userSpaceOnUse" x1="384.8029" y1="604.756" x2="384.8029" y2="650.5228" gradientTransform="matrix(1 0 0 -1 0 858)">
	<stop  offset="0" style="stop-color:#808080;stop-opacity:0.25"/>
	<stop  offset="0.54" style="stop-color:#808080;stop-opacity:0.12"/>
	<stop  offset="1" style="stop-color:#808080;stop-opacity:0.1"/>
</linearGradient>
<rect x="363.1" y="207.5" class="st6" width="43.5" height="45.8"/>
<rect x="363.8" y="208.3" class="st5" width="42" height="44.2"/>
<linearGradient id="SVGID_3_" gradientUnits="userSpaceOnUse" x1="581.2372" y1="515.8973" x2="581.2372" y2="561.6641" gradientTransform="matrix(1 0 0 -1 0 858)">
	<stop  offset="0" style="stop-color:#808080;stop-opacity:0.25"/>
	<stop  offset="0.54" style="stop-color:#808080;stop-opacity:0.12"/>
	<stop  offset="1" style="stop-color:#808080;stop-opacity:0.1"/>
</linearGradient>
<rect x="559.5" y="296.3" class="st7" width="43.5" height="45.8"/>
<rect x="560.2" y="297.1" class="st5" width="42" height="44.2"/>
<linearGradient id="SVGID_4_" gradientUnits="userSpaceOnUse" x1="781.6785" y1="485.5844" x2="781.6785" y2="531.351" gradientTransform="matrix(1 0 0 -1 0 858)">
	<stop  offset="0" style="stop-color:#808080;stop-opacity:0.25"/>
	<stop  offset="0.54" style="stop-color:#808080;stop-opacity:0.12"/>
	<stop  offset="1" style="stop-color:#808080;stop-opacity:0.1"/>
</linearGradient>
<rect x="759.9" y="326.6" class="st8" width="43.5" height="45.8"/>
<rect x="760.7" y="327.4" class="st5" width="42" height="44.2"/>
<linearGradient id="SVGID_5_" gradientUnits="userSpaceOnUse" x1="835.3809" y1="455.9579" x2="835.3809" y2="501.7246" gradientTransform="matrix(1 0 0 -1 0 858)">
	<stop  offset="0" style="stop-color:#808080;stop-opacity:0.25"/>
	<stop  offset="0.54" style="stop-color:#808080;stop-opacity:0.12"/>
	<stop  offset="1" style="stop-color:#808080;stop-opacity:0.1"/>
</linearGradient>
<rect x="813.6" y="356.3" class="st9" width="43.5" height="45.8"/>
<rect x="814.4" y="357.1" class="st5" width="42" height="44.2"/>
<linearGradient id="SVGID_6_" gradientUnits="userSpaceOnUse" x1="902.7352" y1="535.1223" x2="902.7352" y2="580.8889" gradientTransform="matrix(1 0 0 -1 0 858)">
	<stop  offset="0" style="stop-color:#808080;stop-opacity:0.25"/>
	<stop  offset="0.54" style="stop-color:#808080;stop-opacity:0.12"/>
	<stop  offset="1" style="stop-color:#808080;stop-opacity:0.1"/>
</linearGradient>
<rect x="881" y="277.1" class="st10" width="43.5" height="45.8"/>
<rect x="881.7" y="277.9" class="st5" width="42" height="44.2"/>
<linearGradient id="SVGID_7_" gradientUnits="userSpaceOnUse" x1="889.1022" y1="470.9095" x2="889.1022" y2="516.6762" gradientTransform="matrix(1 0 0 -1 0 858)">
	<stop  offset="0" style="stop-color:#808080;stop-opacity:0.25"/>
	<stop  offset="0.54" style="stop-color:#808080;stop-opacity:0.12"/>
	<stop  offset="1" style="stop-color:#808080;stop-opacity:0.1"/>
</linearGradient>
<rect x="867.4" y="341.3" class="st11" width="43.5" height="45.8"/>
<rect x="868.1" y="342.1" class="st5" width="42" height="44.2"/>
<linearGradient id="SVGID_8_" gradientUnits="userSpaceOnUse" x1="444.1339" y1="604.756" x2="444.1339" y2="650.5228" gradientTransform="matrix(1 0 0 -1 0 858)">
	<stop  offset="0" style="stop-color:#808080;stop-opacity:0.25"/>
	<stop  offset="0.54" style="stop-color:#808080;stop-opacity:0.12"/>
	<stop  offset="1" style="stop-color:#808080;stop-opacity:0.1"/>
</linearGradient>
<rect x="422.4" y="207.5" class="st12" width="43.5" height="45.8"/>
<rect x="423.1" y="208.3" class="st5" width="42" height="44.2"/>
<linearGradient id="SVGID_9_" gradientUnits="userSpaceOnUse" x1="240.9208" y1="493.8031" x2="240.9208" y2="539.5698" gradientTransform="matrix(1 0 0 -1 0 858)">
	<stop  offset="0" style="stop-color:#808080;stop-opacity:0.25"/>
	<stop  offset="0.54" style="stop-color:#808080;stop-opacity:0.12"/>
	<stop  offset="1" style="stop-color:#808080;stop-opacity:0.1"/>
</linearGradient>
<rect x="219.2" y="318.4" class="st13" width="43.5" height="45.8"/>
<rect x="219.9" y="319.2" class="st14" width="42" height="44.2"/>
<linearGradient id="SVGID_10_" gradientUnits="userSpaceOnUse" x1="416.1891" y1="538.7807" x2="416.1891" y2="584.5474" gradientTransform="matrix(1 0 0 -1 0 858)">
	<stop  offset="0" style="stop-color:#808080;stop-opacity:0.25"/>
	<stop  offset="0.54" style="stop-color:#808080;stop-opacity:0.12"/>
	<stop  offset="1" style="stop-color:#808080;stop-opacity:0.1"/>
</linearGradient>
<rect x="394.4" y="273.5" class="st15" width="43.5" height="45.8"/>
<rect x="395.2" y="274.2" class="st14" width="42" height="44.2"/>
<linearGradient id="SVGID_11_" gradientUnits="userSpaceOnUse" x1="642.8781" y1="566.1321" x2="642.8781" y2="611.8988" gradientTransform="matrix(1 0 0 -1 0 858)">
	<stop  offset="0" style="stop-color:#808080;stop-opacity:0.25"/>
	<stop  offset="0.54" style="stop-color:#808080;stop-opacity:0.12"/>
	<stop  offset="1" style="stop-color:#808080;stop-opacity:0.1"/>
</linearGradient>
<rect x="621.1" y="246.1" class="st16" width="43.5" height="45.8"/>
<rect x="621.9" y="246.9" class="st14" width="42" height="44.2"/>
<linearGradient id="SVGID_12_" gradientUnits="userSpaceOnUse" x1="872.3485" y1="598.2282" x2="872.3485" y2="643.9949" gradientTransform="matrix(1 0 0 -1 0 858)">
	<stop  offset="0" style="stop-color:#808080;stop-opacity:0.25"/>
	<stop  offset="0.54" style="stop-color:#808080;stop-opacity:0.12"/>
	<stop  offset="1" style="stop-color:#808080;stop-opacity:0.1"/>
</linearGradient>
<rect x="850.6" y="214" class="st17" width="43.5" height="45.8"/>
<rect x="851.4" y="214.8" class="st14" width="42" height="44.2"/>
<linearGradient id="SVGID_13_" gradientUnits="userSpaceOnUse" x1="700.2575" y1="604.756" x2="700.2575" y2="650.5228" gradientTransform="matrix(1 0 0 -1 0 858)">
	<stop  offset="0" style="stop-color:#808080;stop-opacity:0.25"/>
	<stop  offset="0.54" style="stop-color:#808080;stop-opacity:0.12"/>
	<stop  offset="1" style="stop-color:#808080;stop-opacity:0.1"/>
</linearGradient>
<rect x="678.5" y="207.5" class="st18" width="43.5" height="45.8"/>
<rect x="679.3" y="208.3" class="st14" width="42" height="44.2"/>
<linearGradient id="SVGID_14_" gradientUnits="userSpaceOnUse" x1="697.7874" y1="515.8973" x2="697.7874" y2="561.6641" gradientTransform="matrix(1 0 0 -1 0 858)">
	<stop  offset="0" style="stop-color:#808080;stop-opacity:0.25"/>
	<stop  offset="0.54" style="stop-color:#808080;stop-opacity:0.12"/>
	<stop  offset="1" style="stop-color:#808080;stop-opacity:0.1"/>
</linearGradient>
<rect x="676" y="296.3" class="st19" width="43.5" height="45.8"/>
<rect x="676.8" y="297.1" class="st14" width="42" height="44.2"/>
<linearGradient id="SVGID_15_" gradientUnits="userSpaceOnUse" x1="502.5316" y1="582.6516" x2="502.5316" y2="628.4183" gradientTransform="matrix(1 0 0 -1 0 858)">
	<stop  offset="0" style="stop-color:#808080;stop-opacity:0.25"/>
	<stop  offset="0.54" style="stop-color:#808080;stop-opacity:0.12"/>
	<stop  offset="1" style="stop-color:#808080;stop-opacity:0.1"/>
</linearGradient>
<rect x="480.8" y="229.6" class="st20" width="43.5" height="45.8"/>
<rect x="481.5" y="230.4" class="st14" width="42" height="44.2"/>
<linearGradient id="SVGID_16_" gradientUnits="userSpaceOnUse" x1="271.449" y1="567.9255" x2="271.449" y2="613.6921" gradientTransform="matrix(1 0 0 -1 0 858)">
	<stop  offset="0" style="stop-color:#808080;stop-opacity:0.25"/>
	<stop  offset="0.54" style="stop-color:#808080;stop-opacity:0.12"/>
	<stop  offset="1" style="stop-color:#808080;stop-opacity:0.1"/>
</linearGradient>
<rect x="249.7" y="244.3" class="st21" width="43.5" height="45.8"/>
<rect x="250.5" y="245.1" class="st22" width="42" height="44.2"/>
<linearGradient id="SVGID_17_" gradientUnits="userSpaceOnUse" x1="293.1996" y1="515.8973" x2="293.1996" y2="561.6641" gradientTransform="matrix(1 0 0 -1 0 858)">
	<stop  offset="0" style="stop-color:#808080;stop-opacity:0.25"/>
	<stop  offset="0.54" style="stop-color:#808080;stop-opacity:0.12"/>
	<stop  offset="1" style="stop-color:#808080;stop-opacity:0.1"/>
</linearGradient>
<rect x="271.5" y="296.3" class="st23" width="43.5" height="45.8"/>
<rect x="272.2" y="297.1" class="st22" width="42" height="44.2"/>
<linearGradient id="SVGID_18_" gradientUnits="userSpaceOnUse" x1="473.5967" y1="508.4677" x2="473.5967" y2="554.2344" gradientTransform="matrix(1 0 0 -1 0 858)">
	<stop  offset="0" style="stop-color:#808080;stop-opacity:0.25"/>
	<stop  offset="0.54" style="stop-color:#808080;stop-opacity:0.12"/>
	<stop  offset="1" style="stop-color:#808080;stop-opacity:0.1"/>
</linearGradient>
<rect x="451.9" y="303.8" class="st24" width="43.5" height="45.8"/>
<rect x="452.6" y="304.6" class="st22" width="42" height="44.2"/>
<linearGradient id="SVGID_19_" gradientUnits="userSpaceOnUse" x1="791.8892" y1="598.2282" x2="791.8892" y2="643.9949" gradientTransform="matrix(1 0 0 -1 0 858)">
	<stop  offset="0" style="stop-color:#808080;stop-opacity:0.25"/>
	<stop  offset="0.54" style="stop-color:#808080;stop-opacity:0.12"/>
	<stop  offset="1" style="stop-color:#808080;stop-opacity:0.1"/>
</linearGradient>
<rect x="770.1" y="214" class="st25" width="43.5" height="45.8"/>
<rect x="770.9" y="214.8" class="st22" width="42" height="44.2"/>
<linearGradient id="SVGID_20_" gradientUnits="userSpaceOnUse" x1="830.3746" y1="535.1223" x2="830.3746" y2="580.8889" gradientTransform="matrix(1 0 0 -1 0 858)">
	<stop  offset="0" style="stop-color:#808080;stop-opacity:0.25"/>
	<stop  offset="0.54" style="stop-color:#808080;stop-opacity:0.12"/>
	<stop  offset="1" style="stop-color:#808080;stop-opacity:0.1"/>
</linearGradient>
<rect x="808.6" y="277.1" class="st26" width="43.5" height="45.8"/>
<rect x="809.4" y="277.9" class="st22" width="42" height="44.2"/>
<linearGradient id="SVGID_21_" gradientUnits="userSpaceOnUse" x1="585.0368" y1="604.756" x2="585.0368" y2="650.5228" gradientTransform="matrix(1 0 0 -1 0 858)">
	<stop  offset="0" style="stop-color:#808080;stop-opacity:0.25"/>
	<stop  offset="0.54" style="stop-color:#808080;stop-opacity:0.12"/>
	<stop  offset="1" style="stop-color:#808080;stop-opacity:0.1"/>
</linearGradient>
<rect x="563.3" y="207.5" class="st27" width="43.5" height="45.8"/>
<rect x="564" y="208.3" class="st22" width="42" height="44.2"/>
<linearGradient id="SVGID_22_" gradientUnits="userSpaceOnUse" x1="637.9567" y1="470.9095" x2="637.9567" y2="516.6762" gradientTransform="matrix(1 0 0 -1 0 858)">
	<stop  offset="0" style="stop-color:#808080;stop-opacity:0.25"/>
	<stop  offset="0.54" style="stop-color:#808080;stop-opacity:0.12"/>
	<stop  offset="1" style="stop-color:#808080;stop-opacity:0.1"/>
</linearGradient>
<rect x="616.2" y="341.3" class="st28" width="43.5" height="45.8"/>
<rect x="617" y="342.1" class="st22" width="42" height="44.2"/>
<linearGradient id="SVGID_23_" gradientUnits="userSpaceOnUse" x1="1383.9535" y1="-12.1898" x2="1383.9535" y2="606.7057" gradientTransform="matrix(-1 0 0 -1 2137.0701 826.47)">
	<stop  offset="0" style="stop-color:#808080;stop-opacity:0.25"/>
	<stop  offset="0.54" style="stop-color:#808080;stop-opacity:0.12"/>
	<stop  offset="1" style="stop-color:#808080;stop-opacity:0.1"/>
</linearGradient>
<path class="st29" d="M866.6,350.4c-0.3-2.4-1.5-4.6-3.3-6.1c-1.8-1.4-3.7-2.6-5.8-3.6c-0.6-0.3-1.2-0.7-1.7-1.3
	c-0.4-0.6-0.7-1.3-0.9-2c-1.1-2.1-3.6-2.8-5.5-4.1c-3.4-2.3-5-6.3-6.4-10.5c-0.1-0.3-0.2-0.5-0.3-0.8c-1.4-4.2-2.7-8.5-5.6-11.4
	c-4.2-4.1-10.4-4.4-15-0.9c-0.6,0.6-1.3,1-2.1,1.1c-0.8-0.2-1.5-0.6-2-1.2c-1.5-1.1-3.3-1.6-5.1-1.5c-0.9-3.7-1.3-7.6-1.4-11.4v-0.1
	l0,0l0,0l0,0l0,0c0,0,0,0,0-0.1l0,0c0-1,0-1.9,0-2.8h0.2h0.4c0.7,0,1.4-0.1,2.1-0.3c0.3-0.1,0.6-0.2,0.8-0.3l0,0
	c2.5-1.3,4.1-4.4,5.2-7.3c0.8-1.9,1.5-3.9,2-5.9c0.1-0.3,0.1-0.5,0.2-0.8l0,0c0.1-0.4,0.2-0.8,0.3-1.3c0-0.1,0.1-0.3,0.1-0.4
	c0-0.1,0.1-0.3,0.1-0.4l0.1-0.4l0.5,0.4l0,0l0.1,0.1l1,0.8c4.9,3.6,10,7,12.1,7.1l0,0c0.2,0,0.4,0,0.6-0.1c1.4-0.8-1.3-3.9-4.5-7
	c-0.3-0.3-0.6-0.5-0.9-0.8c-2.4-2.2-5.1-4.4-6.6-5.7l-1.4-1.1c1.9-1.9,3-5.2,3.5-8.2c0.5-2.8,0.8-5.7,0.9-8.6v-0.1
	c0.1-3.1-0.1-6.2-0.8-9.2c-1.3-5.9-4.5-11.5-9.4-14.2c-1.4-0.8-3-1.4-4.4-2.3c-0.3-0.2-0.5-0.3-0.7-0.5l0,0
	c-0.5-0.3-0.9-0.7-1.2-1.1c-0.2-0.3-0.5-0.6-0.6-0.9c-0.1-0.2-0.2-0.3-0.2-0.5c-0.2-0.5-0.4-1-0.7-1.5c-0.9-1.1-2.5-0.8-3.9-0.6
	h-0.5h-0.4h-0.4c-4.9,0.1-9.6-2.8-14.6-2.8c-5.4,0-10,3.4-14.8,5.7c-0.9,0.5-1.9,0.9-2.7,1.4c-0.7,0.4-1.4,0.7-2,1.1l0,0
	c-0.3,0.2-0.5,0.3-0.7,0.5l0,0c-1.8,1.2-3.2,3-4,5.1c-0.9,1.2-1.6,2.6-2,4.2c-0.2,0.7-0.2,1.4-0.3,2.1c-6.2,6.7-9.8,15.8-9.8,25.3
	c0,0.5,0,1,0,1.5v0.1c0.6,15.1,9.9,28.2,23.3,32.5l0,0c0.4,0.1,0.7,0.2,1.1,0.3c0.1,0.3,0.2,0.7,0.3,1c0.2,0.7,0.4,1.3,0.5,2l0,0
	c0.1,0.3,0.2,0.7,0.2,1c0.5,2.3,0.7,4.6,0.7,7c0,0.2,0,0.4,0,0.6l0,0l0,0c0,0,0,0.1,0,0.1c-2.5,0.6-4.9,1.7-7.1,3.1
	c-2.8,1.8-4.9,4.6-5.9,8c-0.1,0.2-0.1,0.5-0.2,0.7c-1.7-0.6-3.6-1-5.4-1c-1.7-0.1-3.5,0.1-4.6,1.5c-0.4,0.6-0.7,1.2-0.9,1.9
	c-0.6,0.6-0.8,1.7-1.2,2.6c-1.4,2.6-5,1.8-7.7,2.5c-0.3,0.1-0.5,0.2-0.8,0.3l0,0c-2.6,1-4.7,3.5-7.4,3.5c-1.1-0.2-2.2-0.2-3.3-0.2
	l-0.2,0.1c-1.1,0.3-2,2-1.2,2.8c-1.3-0.3-2.6,0.6-3.5,1.8c-0.8,1.2-1.4,2.6-2.3,3.7c-0.8-1.2-2.2-1.8-3.6-1.5
	c-1.3,0.3-2.6,0.9-3.8,1.6c-0.5,0.3-1.1,0.5-1.7,0.6c-0.7,0-1.4,0-2-0.2c-3.2-0.6-6.5-0.1-9.5,1.4c-2.6,1.3-5.1-1.1-8-1.3
	c-1.1,0-2.1-0.3-2.9-1c-0.1-0.1-0.2-0.2-0.2-0.3c-0.2-0.2-0.3-0.5-0.4-0.8c-0.2-0.5-0.3-1-0.5-1.5c-1.3-3.9-4.2-6.9-7.9-8l-0.5-0.1
	c0.2-0.6,0.3-1.2,0.4-1.8l0,0l0,0c0.6-4.8-2-9.5-6.1-11.3c0.4-3.7-0.9-7.4-3.6-9.9c-0.6-0.4-1.2-0.9-1.7-1.5l-0.1-0.1
	c-0.3-0.3-0.5-0.6-0.7-0.9l0,0c-0.4-0.8-0.7-1.6-1-2.4c-0.8-2.4-1.7-4.9-2.5-7.3c-1.1-0.2-2-0.8-3.1-1c0-0.2,0-0.5,0-0.7
	c0-2.5-0.4-5-1.2-7.3c-0.9-2.8-2.1-5.5-3.7-7.9l0,0c-0.2-0.4-0.5-0.8-0.7-1.2l0,0c-0.3-0.5-0.7-1-1-1.6c-2.4-3.7-5.1-7.3-8.7-9.5
	c-1.2-0.7-2.4-1.3-3.7-1.9l-6.6-2.9c-0.4-0.2-0.8-0.3-1.2-0.3c-1.6,0-2,2.4-1.4,4c0.1,0.2,0.2,0.4,0.3,0.6c2,3.2,6.5,4.1,7.8,7.7
	c-0.6,0-1.2,0.1-1.7,0.4c-1.4,0.6-2.5,1.9-3,3.6c-0.1,0.6-0.3,1.1-0.6,1.6c-0.6,0.5-1.5,0.2-2.1,0.6c-1.2,0.7-0.7,2.6-0.8,4
	c-0.1,1.3-0.8,2.4-1.2,3.6c-0.3,0.9-0.3,1.9-0.1,2.9l0.1,0.3l0,0c0,0.2,0,0.3,0.1,0.5c0.2,1,0.6,2,1.2,2.8c1.2,1.8,2.7,3.4,4.3,4.7
	c1.1,1,2.2,1.9,3.3,2.8c0.3,0.2,0.7,0.5,0.9,0.7c0,0.1-0.1,0.1-0.1,0.2c0,0.1-0.1,0.3-0.2,0.4l0,0l0,0c-0.1,0.4-0.2,0.8-0.1,1.3
	c0.1,0.3,0.2,0.6,0.4,0.8l0,0c0.3,0.3,0.5,0.6,0.8,0.9c2.7,2.7,4.5,6.2,5.2,10.1c0.1,0.8,0.1,1.5-0.1,2.3l0,0l0,0
	c-0.5,1.5-0.7,3.1-0.8,4.7c0,0.4,0.1,0.8,0.1,1.1l0,0c0.3,1.8,0.8,3.6,1.5,5.3c1.8,4.8,3.6,9.8,7.1,13.3c0.8,7.8,3.6,15.1,8,21.3
	c3.7,5.1,8.6,9,13.4,12.8c1.5,1.3,3.2,2.5,5,3.4c1.6,0.6,3.2,1.1,4.9,1.4c13.6,3,27.3,4.7,41.2,5.2l1.9,0.1h0.1
	c0,0.8,0.1,1.6,0.1,2.4c0.3,7.9,0.5,15.8,0.4,23.7v0.7c0,0.5,0,0.9,0,1.4c0.1,1.5-0.1,3.1-0.6,4.5c-0.5,1.1-1.2,2.2-2,3.1
	c-0.2,0.2-0.4,0.5-0.6,0.8c-2.8,4.1-3.4,9.6-3.3,14.8v0.1c0,0.8,0,1.6,0.1,2.4c0.3,7,1.1,14.1,2.3,21c1.1,6.6,0.6,13.7,1.5,20.3
	c0.3,2.3,0.8,4.5,1.5,6.7c1.1,3.3,2.3,6.7,3.4,10c0.4,0.9,0.6,1.9,0.7,2.9c0,0.3,0,0.6-0.1,1l0,0l0,0c-0.3,1.8-1.4,3.4-2.3,4.9
	c-1.4,2.8-2.1,5.9-2,9.1c0,0.1,0,0.2,0,0.3l0,0c0,0.3,0.1,0.5,0.2,0.7c0.4,0.6,1.1,0.5,1.8,0.4c2.5-0.4,4.9-0.6,7.4-0.7l0,0h0.3
	c-0.1,0.1-0.2,0.2-0.3,0.3l0,0c-0.3,0.4-0.6,0.9-0.8,1.4l0,0l-0.1,0.2c-0.6,1.2-1.2,2.4-1.6,3.6c-0.9,2.1-1.6,4.3-2.2,6.5
	c-0.1,0.3-0.2,0.7-0.2,1c-0.2,0.7-0.3,1.4-0.4,2c-0.5,3.5-0.7,7.1-0.7,10.7v0.6c0,0.2,0,0.4,0,0.7c0,0,0,0,0,0.1v0.1
	c-0.1,1.6-0.2,3.2-0.2,4.8c-0.3,5.7-0.6,10.8-1.1,12.6c-0.3,1.1-0.4,2.3-0.3,3.5v0.1c0.1,1.6,0.3,3.1,0.6,4.6
	c0.3,1.6,0.7,3.3,1.1,4.9v0.2c0,0.6,0.1,1.2,0.1,1.8v0.1c0.2,2.7,0.7,5.4,1.5,7.9c0,0,0,0.1,0,0.1c0,0.4,0,0.8,0,1.2
	c0,0.1,0,0.1,0,0.2l0,0c0,0.7,0.1,1.5,0.2,2.2c0.2,2.2,0.5,4.3,0.9,6.5c0,0.1,0,0.2,0,0.4c1.9,11.4,3.8,22.8,5.8,34.1
	c0.1,0.7,0.2,1.4,0.4,2c2.1,12.2,4.3,24.3,6.6,36.5c0.2,1,0.4,2,0.6,3.1c0.1,0.5,0.2,1,0.3,1.5c0.1,0.5,0.3,1.2,0.4,1.8
	c1.7,6.7,4.6,13,8.6,18.4c3.5,4.8,6.5,10.1,9,15.6c0,0.2-0.1,0.3-0.1,0.5l0,0c-0.2,1.1-0.4,2.2-0.7,3.2l-0.1,0.2
	c-2.5,11.6-5.9,23-7,34.8c-0.1,0.9-0.2,1.7-0.2,2.6c-0.3,3.9-0.7,7.8-2.1,11.4c-0.4,1-0.9,2-1.3,3c-0.5,1.2-0.9,2.4-1,3.7
	c0,0.2,0,0.3,0,0.5c0,0,0,0.1,0,0.1c0,0,0,0,0,0.1l0,0c0,1.3,0.3,2.5,0.9,3.6l-0.1,0.1c-0.3,0.2-0.5,0.4-0.7,0.6l-0.5,0.4
	c-3.3,2.8-7.6,3.4-11.6,4.5c-4,1.1-8.3,3.4-9.6,7.8c-0.1,0.3-0.1,0.6-0.2,0.8c0,0.1,0,0.3-0.1,0.4l0,0l0,0c-0.1,0.4-0.1,0.8-0.1,1.3
	v0.1c0,0.1,0,0.1,0,0.2c0.3,3.5,2,6.6,4.7,8.6c3.3,2.5,7.5,3.3,11.5,3.8c4,0.6,8.1,1,11.8,2.9c3.1,1.7,5.8,4.5,9.1,5.7
	c0.2,0.1,0.4,0.1,0.6,0.2l-0.2,0.1c-0.5,0.3-0.9,0.6-1.4,0.9l-0.7,0.4c-3.4,1.9-7.2,3.2-11,3.8c-3.9,0.6-8.5,0.9-10.5,4.5l0,0
	c0,0.1-0.1,0.1-0.1,0.2l0,0c-0.1,0.2-0.2,0.4-0.2,0.6v0.1c0,0.1-0.1,0.2-0.1,0.2c0,0.1-0.1,0.2-0.1,0.3c0,0.1,0,0.2,0,0.2
	c-0.1,0.3-0.1,0.5-0.2,0.8c-0.1,0.7-0.1,1.4,0.1,2.1c0.4,1.9,1.2,3.6,2.5,5c2.4,2.4,5.7,3.5,8.7,4.2c7.2,1.7,14.5,2.3,21.8,2.9
	l7.1,0.6c2.5,0.2,5.1,0.4,7.6,0.6c1.8,0.1,3.6,0.2,5.4,0.3c1.8,0.1,3.4,0.2,5.1,0.2h0.1c0.9,0,1.7,0,2.6,0l0,0
	c4.4,0,8.8-0.2,13.1-0.6c4.2-0.4,8.4-1,12.5-1.8c0.8,0,1.5-0.4,2-1c0-0.1,0.1-0.2,0.1-0.3c0-0.1,0-0.1,0.1-0.2c0,0,0-0.1,0-0.1
	c0-0.1,0-0.1,0-0.2c0-0.1,0-0.2,0-0.3v-0.1c0-0.2,0-0.4,0-0.6c0-1,0-1.9-0.1-2.9c0-0.2,0-0.4,0-0.5v-0.7l-0.1-1.2
	c-0.1-1.2-0.1-2.3-0.2-3.5l-0.1-1.4c0-0.2,0-0.3,0-0.5c0-0.3-0.1-0.7-0.1-1c0-0.2,0-0.4-0.1-0.6l-0.2-1.6c-0.1-1.2-0.3-2.4-0.4-3.6
	c-0.3-2.6-0.8-5.2-1.3-7.8c-0.8-3.9,0,0,0-0.1c0-0.1,0,0,0-0.1c-0.2-0.9-0.4-1.8-0.5-2.6c-0.6-2.8-4.1,1-6,3.4
	c-0.3-1.3-0.5-2.6-0.8-3.9l0,0c0,0,0-0.1,0-0.2c0.5-0.3,1-0.5,1.5-0.8c1.2-0.5,2.2-1.4,2.8-2.5c0.2-0.4,0.3-0.9,0.3-1.4
	c0-0.3,0-0.6,0-0.9c0-0.2,0-0.5,0-0.7c-0.3-6.1-0.6-12.4-3.3-17.7c-1.8-3.2-3.9-6.1-6.5-8.6c0-0.7-0.1-1.3-0.1-2
	c-0.3-6.5-0.7-13-1.3-19.5c-1-11.9-2.7-23.7-5-35.3c-0.7-3.1-1.3-6.3-2.2-9.4l0,0c-1.6-6.3-4-12.3-7.3-17.8c-0.6-1-1.3-2-2-3.1
	c-0.2-3.8-0.5-7.7-0.9-11.5c-0.6-5.3-1.3-10.6-2.1-15.8c-0.1-0.5-0.2-1-0.2-1.5v-0.1c-0.1-0.7,0-1.4,0.2-2c0.5-1,1.1-1.9,1.9-2.8
	c1.4-2.1,2.1-4.6,2-7.2c0-0.1,0-0.2,0-0.3c0-2.7-0.4-5.6-0.5-8.3c0-0.8-0.1-1.5-0.1-2.3l0,0v-0.1l0,0l0,0c0-0.1,0-0.2,0-0.3
	c0-0.8,0-1.6,0-2.3c0.3-6,1.6-12.1,2.8-18c1.3-6.1,2.7-12.2,4.1-18.3l0,0c0.5-2.4,1.1-4.8,1.6-7.2c0.2-0.9,0.4-1.7,0.6-2.5
	c0.5-2.7,1.2-5.2,2.2-7.8c1.4-3.5,3.7-6.6,5.6-9.8c5.1-8.7,7.8-18.8,7.9-29.1l0,0c0,0,0,0,0-0.1c0,0,0-0.1,0-0.1c0-0.1,0-0.1,0-0.2
	c0-0.7,0-1.4,0-2l0,0c0-0.5,0-1-0.1-1.6c1.2,0.5,2.3,0.9,3.5,1.4c0.1-0.8,0.1-1.5,0.2-2.3v-0.1c0.1-4.7-0.9-9.8-0.9-14.6
	c0,0,0-0.1,0-0.1V518c0-1.6,0.1-3.1,0.3-4.7c0.1-0.7,0.3-1.4,0.5-2.1c0.3-0.3,0.7-0.6,0.9-0.9l0,0c3.3-2.8,6-6.4,7.8-10.5
	c1.7-4.1,2.2-8.8,4-12.9c1-2.3,2.4-4.4,3-6.9c0.2-0.8,0.3-1.5,0.3-2.3v-0.1c0-2.6-0.2-5.2-0.5-7.7l0,0c0-0.4,0-0.8,0-1.2
	c0.1-7.1,4.2-13.8,4.6-20.7v-0.1c0.1-1.2,0-2.3-0.2-3.5c-0.5-3.5-2.2-6.7-2.5-10.1l0,0l0,0c-0.1-0.4-0.1-0.9-0.1-1.3
	c0.2-2.1,0.7-4.2,1.5-6.2c3.3-9.5,6.5-19.4,6.8-29.4c0,0,0-0.1,0-0.1V397c0.1-2.7-0.1-5.5-0.6-8.1c-0.4-2.6-1.1-5.2-1.3-7.8
	c0-0.7,0-1.4,0-2c0.2-2.9,1.1-5.7,1.4-8.5l0,0c0.1-0.9,0.1-1.8,0-2.7c-0.1-0.9-0.4-1.9-0.8-2.7l0,0c-0.2-0.4-0.4-0.8-0.7-1.2
	c1.5-2.5,2.8-5.2,3.8-8c0.4-1.1,0.7-2.2,0.9-3.3l0,0C866.6,351.8,866.6,351.1,866.6,350.4z M802,802.6L802,802.6L802,802.6
	c-1.1-0.5-2.2-0.9-3.2-1c-0.3,0-0.5-0.1-0.8-0.1H798c0.2-1,0.3-1.9,0.3-2.9c0-0.6,0-1.2,0-1.7c0-0.3,0-0.5,0-0.8c0-0.1,0-0.2,0-0.3
	c0-0.6,0-1.2-0.1-1.7c0-0.6-0.1-1.3-0.1-1.9l0,0l0,0c0-0.1,0-0.2,0-0.3c0.1,0.4,0.3,0.8,0.4,1.2c1.2,3.3,2.4,6.5,3.8,9.7L802,802.6z
	 M823.9,270.4L823.9,270.4L823.9,270.4z"/>
<path class="st30" d="M780.4,313.4c-0.1,5.2-1.7,10.2-2,15.4c14.1,0.8,28-6.7,41.9-4.4c-3.9-2.7-6-7.7-7.2-12.6
	c-1.6-6.3-2-12.8-1.4-19.3c0-0.3,0.1-0.7,0.2-1c0.5-2.5,1.9-6.1,1.5-8.1c-0.5-2.6-2.8-2.1-4.8-2c-6.3,0.5-12.6,1.4-18.8,2.6
	c-1.6,0.3-17.4,4.6-17.6,4.2c2.6,4.9,5.3,10,6.8,15.3C779.9,306.8,780.4,310.1,780.4,313.4z"/>
<path class="st30" d="M641,297.4c1.2,1.8,2.7,3.4,4.3,4.7c1.1,1,2.2,1.9,3.3,2.8c2,1.7,4.5,2.8,7,3.1c3.4,0.2,10.5-1.9,12.6-5
	c0.9-1.6,1.3-3.4,1.2-5.2c0-2.5-0.4-5-1.2-7.3c-1.3-3.8-3.1-7.4-5.4-10.7c-2.4-3.7-5.1-7.3-8.7-9.5c-1.2-0.7-2.4-1.3-3.7-1.9
	l-6.6-2.9c-0.4-0.2-0.8-0.3-1.2-0.3c-1.8,0-2.1,2.9-1.1,4.5c2,3.2,6.5,4.1,7.8,7.7c-2.2,0.1-4.1,1.6-4.7,3.9c0,0.6-0.3,1.2-0.6,1.6
	c-0.6,0.5-1.5,0.2-2.1,0.6c-1.2,0.7-0.7,2.6-0.8,4c-0.1,1.3-0.8,2.4-1.2,3.6C639.3,293.2,639.8,295.6,641,297.4z"/>
<path class="st31" d="M835.2,818.8c-1.1-1.2-2.8-1-4.4-0.7c-8.1,1.4-16.3,2.1-24.6,2.2c-1-5.5,2-10.8,2.9-16.3
	c0.1-1.4,0.4-2.8,0.9-4.1c1.2-2.4,3.8-3.5,6.2-4.1c4.4-1,11.3-2.8,13.8,2C833.2,803.7,834.2,812.3,835.2,818.8z"/>
<path class="st3" d="M745.2,798.1c3.3,2.5,7.5,3.2,11.5,3.8c4,0.6,8.1,1,11.8,2.9c3.1,1.7,5.8,4.4,9.1,5.7c3,1.1,6.3,0.8,9.4,0.2
	c3.8-0.8,7.7-2.2,9.7-5.7c1.8-3.1,1.6-7.1,1.4-10.7c-0.3-4.1-0.6-8.3-0.8-12.5c0-1.1-0.2-2.1-0.7-3c-2.7-4.3-9.3,1.8-12.8,1.8
	c-5.6,0-11.5-3.3-15.6-7.3c-0.3-0.4-0.8-0.8-1.2-1c-1.6-0.8-3.2,0.7-4.6,1.9c-0.2,0.1-0.3,0.3-0.5,0.4c-3.3,2.8-7.6,3.4-11.6,4.5
	c-4,1.1-8.3,3.4-9.6,7.7c-0.1,0.3-0.1,0.5-0.2,0.8C739.9,791.6,742.1,795.8,745.2,798.1z"/>
<path class="st32" d="M745.2,798.1c3.3,2.5,7.5,3.2,11.5,3.8c4,0.6,8.1,1,11.8,2.9c3.1,1.7,5.8,4.4,9.1,5.7c3,1.1,6.3,0.8,9.4,0.2
	c3.8-0.8,7.7-2.2,9.7-5.7c1.8-3.1,1.6-7.1,1.4-10.7c-0.3-4.1-0.6-8.3-0.8-12.5c0-1.1-0.2-2.1-0.7-3c-2.7-4.3-9.3,1.8-12.8,1.8
	c-5.6,0-11.5-3.3-15.6-7.3c-0.3-0.4-0.8-0.8-1.2-1c-1.6-0.8-3.2,0.7-4.6,1.9c-0.2,0.1-0.3,0.3-0.5,0.4c-3.3,2.8-7.6,3.4-11.6,4.5
	c-4,1.1-8.3,3.4-9.6,7.7c-0.1,0.3-0.1,0.5-0.2,0.8C739.9,791.6,742.1,795.8,745.2,798.1z"/>
<path class="st33" d="M745.2,799.5c3.3,2.5,7.5,3.2,11.5,3.8c4,0.6,8.1,1,11.8,2.9c3.1,1.7,5.8,4.4,9.1,5.7c3,1.1,6.3,0.8,9.4,0.2
	c4-0.9,7.5-3.5,9.7-7.2c1.8-3.1,1.6-7.1,1.4-10.7c-0.3-4.1-0.6-8.3-0.8-12.5c0-1.1-0.2-2.1-0.7-3c-2.7-4.3-9.3,1.8-12.8,1.8
	c-5.6,0-11.5-3.3-15.6-7.3c-0.3-0.4-0.8-0.8-1.2-1c-1.6-0.8-3.2,0.7-4.6,1.9c0.9,3.1,2.2,6.1,3.9,8.8c2.8,4.5,7.3,7.9,12.3,8.3
	c2.5,0.2,5-0.3,7.4,0.4c2.4,0.7,4.6,3.4,3.8,5.9c-0.9,2.5-3.8,3.1-6.2,3.2c-3.4,0.2-6.9,0.4-10.1-0.8c-2-0.7-3.8-1.9-5.7-2.8
	c-8.2-3.7-18.5-1.6-25.2-7.8c-0.6-0.6-1.3-1.2-2.1-1.7C738.8,791.6,742.1,797.2,745.2,799.5z"/>
<path class="st32" d="M745.2,799.5c3.3,2.5,7.5,3.2,11.5,3.8c4,0.6,8.1,1,11.8,2.9c3.1,1.7,5.8,4.4,9.1,5.7c3,1.1,6.3,0.8,9.4,0.2
	c4-0.9,7.5-3.5,9.7-7.2c1.8-3.1,1.6-7.1,1.4-10.7c-0.3-4.1-0.6-8.3-0.8-12.5c0-1.1-0.2-2.1-0.7-3c-2.7-4.3-9.3,1.8-12.8,1.8
	c-5.6,0-11.5-3.3-15.6-7.3c-0.3-0.4-0.8-0.8-1.2-1c-1.6-0.8-3.2,0.7-4.6,1.9c0.9,3.1,2.2,6.1,3.9,8.8c2.8,4.5,7.3,7.9,12.3,8.3
	c2.5,0.2,5-0.3,7.4,0.4c2.4,0.7,4.6,3.4,3.8,5.9c-0.9,2.5-3.8,3.1-6.2,3.2c-3.4,0.2-6.9,0.4-10.1-0.8c-2-0.7-3.8-1.9-5.7-2.8
	c-8.2-3.7-18.5-1.6-25.2-7.8c-0.6-0.6-1.3-1.2-2.1-1.7C738.8,791.6,742.1,797.2,745.2,799.5z"/>
<path class="st34" d="M833.7,528.2c2.6,13.9,0.1,28.3-6.9,40.2c-1.9,3.2-4.1,6.2-5.6,9.7c-0.9,2.5-1.7,5.1-2.2,7.7l-6.2,27.9
	c-1.7,7.5-3.4,15.2-2.8,22.9c0.3,5.4,1.6,11.4-1.5,15.7c-0.8,0.8-1.4,1.7-1.9,2.7c-0.3,1.2-0.3,2.4,0,3.6
	c3.1,20.2,5.5,41.4-0.2,60.9c-5.1,17.7-5.4,37.4-9.8,55.3c-0.5,2.2-1.2,4.6-2.7,6.1c-1.2,1-2.6,1.8-4.1,2
	c-6.4,1.7-13.2-0.3-19.2-3.3c-4.2-2.1-8.7-5.8-8.4-10.9c0.2-2.4,1.5-4.5,2.3-6.7c1.7-4.3,1.9-9.2,2.3-13.8c1.2-11.8,4.5-23.1,7-34.6
	c2.5-11.5,4.2-23.5,2.1-35.1c-4.3-24-11.3-47.3-20.7-69.5c-0.4-1.2-1.1-2.2-1.9-3.1c-0.8-0.8-2-1.1-2.7-2c-0.7-0.9-0.9-2.4-1.2-3.6
	c-0.9-3.7-3.7-6.4-5.6-9.6c-4.7-8.1-3.2-18.6-3-28.2c0.2-9.4-1.1-18.8,0.3-28s6.3-18.7,14.5-21.5c4.1-1.4,8.4-1.1,12.7-0.6
	C790.8,514.9,812.6,519.4,833.7,528.2z"/>
<path class="st32" d="M833.7,528.2c2.6,13.9,0.1,28.3-6.9,40.2c-1.9,3.2-4.1,6.2-5.6,9.7c-0.9,2.5-1.7,5.1-2.2,7.7l-6.2,27.9
	c-1.7,7.5-3.4,15.2-2.8,22.9c0.3,5.4,1.6,11.4-1.5,15.7c-0.8,0.8-1.4,1.7-1.9,2.7c-0.3,1.2-0.3,2.4,0,3.6
	c3.1,20.2,5.5,41.4-0.2,60.9c-5.1,17.7-5.4,37.4-9.8,55.3c-0.5,2.2-1.2,4.6-2.7,6.1c-1.2,1-2.6,1.8-4.1,2
	c-6.4,1.7-13.2-0.3-19.2-3.3c-4.2-2.1-8.7-5.8-8.4-10.9c0.2-2.4,1.5-4.5,2.3-6.7c1.7-4.3,1.9-9.2,2.3-13.8c1.2-11.8,4.5-23.1,7-34.6
	c2.5-11.5,4.2-23.5,2.1-35.1c-4.3-24-11.3-47.3-20.7-69.5c-0.4-1.2-1.1-2.2-1.9-3.1c-0.8-0.8-2-1.1-2.7-2c-0.7-0.9-0.9-2.4-1.2-3.6
	c-0.9-3.7-3.7-6.4-5.6-9.6c-4.7-8.1-3.2-18.6-3-28.2c0.2-9.4-1.1-18.8,0.3-28s6.3-18.7,14.5-21.5c4.1-1.4,8.4-1.1,12.7-0.6
	C790.8,514.9,812.6,519.4,833.7,528.2z"/>
<path class="st34" d="M742.2,586.8c0.1,3.6,0.4,7.2,1.1,10.8c4,24.2,8.2,48.2,12.7,72.3c0.4,2,0.8,4.2,1.3,6.2
	c1.7,6.7,4.6,12.9,8.6,18.3c18.7,25.3,20.3,62,30.4,92.5c0.7,2,1.4,4.1,2.1,6.1c1.8,5.2,3.9,10.2,6.3,15.2c0.3,0.7,0.7,1.3,1.3,1.8
	c0.6,0.3,1.3,0.5,2,0.4c9.1,0.1,18.1-2.2,26.4-6.5c1.2-0.5,2.2-1.4,2.8-2.5c0.3-0.9,0.4-1.9,0.3-2.9c-0.3-6-0.6-12.3-3.3-17.6
	c-1.8-3.2-4-6.1-6.5-8.5c-0.8-19-2.5-38-6.4-56.5c-2-9.5-4.4-19.1-9.4-27.1c-3.8-5.9-9.1-11.7-8.4-18.9c0.3-3.1,1.5-7-0.8-8.9
	c-1-0.8-2.5-0.9-3.2-2c-0.3-0.5-0.4-1.1-0.5-1.8c-0.5-4.9-0.2-9.8,0.8-14.6c0.7-3.2,1.7-6.3,2-9.5s-0.2-6.8-2.2-9.2
	c-0.1-6.5,0-13.3-0.1-19.8c-0.1-3.7-0.1-7.5,0.8-11c0.5-1.7,1.2-3.3,1.5-5.1c1.3-6.3-1.9-13.8,1.9-18.7c1.6-2,4-3.1,6-4.6
	c4.1-3,6.7-7.8,8.2-12.8c1.5-5.1,1.9-10.4,2.3-15.7c0.1-1.1,0.1-2.3,0-3.4c-0.1-0.6-0.2-1.2-0.4-1.7c-1.2-2.8-4.3-3.9-7-4.7
	c-17.6-4.6-35.6-6.9-53.7-6.8c-6.7-5-10.5-3.2-13.3,2c-1.6,3.2-2.8,6.6-3.8,10.1c-1.3,4.3-1.4,28.1-2.6,32.4
	C737.5,569.6,742.3,581,742.2,586.8z"/>
<path class="st35" d="M863.2,370c0.5,3.8-1.2,7.4-1.3,11.2c-0.2,3.3,0.8,6.5,1.4,9.8c2.2,12.7-2,25.6-6.2,37.6
	c-0.8,1.9-1.3,4-1.5,6.1c-0.1,3.9,2,7.6,2.5,11.4c1.2,8.2-4.3,15.9-4.5,24.2c0,3.8,1.1,7.7,0.2,11.4c-0.6,2.5-2,4.6-3,6.9
	c-1.8,4.1-2.3,8.7-4,12.8c-3.1,7.4-9.7,12.3-15.9,16.8c-3.6-1.3-7.4-2.8-9.4-6.3c-0.9-1.7-1.4-3.6-1.6-5.5
	c-1.4-8.5-1.3-17.1-1.3-25.7c-0.1-7.4,0.3-14.7,1.1-22.1c1.3-9.3,4.1-18.4,6.1-27.5c2.5-11.6,3.8-23.6,7.7-34.7
	c3.5-9.8,8.8-18.5,14.5-26.9c2.2-3.2,3.9-7.8,8.1-7.1C859.7,363,862.6,366,863.2,370z"/>
<path class="st32" d="M863.2,370c0.5,3.8-1.2,7.4-1.3,11.2c-0.2,3.3,0.8,6.5,1.4,9.8c2.2,12.7-2,25.6-6.2,37.6
	c-0.8,1.9-1.3,4-1.5,6.1c-0.1,3.9,2,7.6,2.5,11.4c1.2,8.2-4.3,15.9-4.5,24.2c0,3.8,1.1,7.7,0.2,11.4c-0.6,2.5-2,4.6-3,6.9
	c-1.8,4.1-2.3,8.7-4,12.8c-3.1,7.4-9.7,12.3-15.9,16.8c-3.6-1.3-7.4-2.8-9.4-6.3c-0.9-1.7-1.4-3.6-1.6-5.5
	c-1.4-8.5-1.3-17.1-1.3-25.7c-0.1-7.4,0.3-14.7,1.1-22.1c1.3-9.3,4.1-18.4,6.1-27.5c2.5-11.6,3.8-23.6,7.7-34.7
	c3.5-9.8,8.8-18.5,14.5-26.9c2.2-3.2,3.9-7.8,8.1-7.1C859.7,363,862.6,366,863.2,370z"/>
<path class="st36" d="M772.1,288.3c2.6,4.9,5.3,10,6.8,15.3c2.5,0.7,5.1,1,7.8,1c10.2,0,17.3-6.3,23.3-14.2c0.5-2.6,3.8-4.9,3.4-6.9
	c-0.5-2.6-2.8-2.1-4.8-2c-6.3,0.5-12.6,1.4-18.8,2.6C788.1,284.4,772.3,288.7,772.1,288.3z"/>
<ellipse class="st30" cx="786.7" cy="268.2" rx="32.5" ry="35.4"/>
<path class="st36" d="M745.6,521.6c5.7-0.4,11.3-0.1,17,0.1c3.5,0,7.1,0.4,10.5,1.2c4.3,1,8.3,3.2,12.5,4.5c6.8,2.1,13.9,2.2,20.9,3
	c4.6,0.5,9.2,1.3,13.7,2.3c-0.1-0.6-0.2-1.2-0.4-1.7c-1.2-2.8-4.3-3.9-7-4.7c-17.6-4.6-35.6-6.9-53.7-6.8
	C752.2,514.6,748.4,516.4,745.6,521.6z"/>
<path class="st35" d="M767.8,326.1c1.4,1.8,3.3,3.8,5.4,3.2c0.8-0.3,1.5-0.7,2.1-1.2c3.8-2.6,8.4-3.2,12.8-4
	c8.9-1.5,17.7-3.6,26.3-6.4c2.5-1,5.1-1.6,7.8-1.7c5.5,0,10.4,4,13.9,8.7s5.9,10.1,9.3,14.9c2.4,3.4,5.3,6.3,7.5,9.8
	c5.7,8.8,6.9,20.3,5.4,31s-5.4,20.7-9.3,30.6c-2.2,5.7-4.5,11.4-7.5,16.6c1.3,8.1,0.6,17.4-2.9,24.6c-1.2,2.4-2.6,4.7-3,7.3
	c-0.2,1.8-0.1,3.6,0.2,5.4l1.7,12.8c0.5,3.9,1,7.8,1.7,11.7c1.2,7.1,2.8,14.8-0.2,21.2c-3.6,7.7,0.2,17.5-0.8,26.1
	c-10.2-4.3-20.8-7-31.7-8.2c-7-0.7-14.1-0.8-20.9-3c-4.2-1.3-8.2-3.4-12.5-4.5c-3.5-0.7-7-1.1-10.5-1.2c-7.8-0.3-15.7-0.7-23.4,0.6
	c-0.6,0.1-1.4,0.2-1.8-0.4c-0.2-0.3-0.3-0.7-0.2-1c-0.1-3.1,0.6-6.3,2-9c0.9-1.9,2.3-3.7,2.3-5.9c-0.1-1-0.3-2-0.7-2.9l-3.4-9.9
	c-2.9-8.4-1.5-18.1-3-26.9c-1.2-6.9-1.9-13.8-2.2-20.8c-0.3-6-0.1-12.4,3.2-17.2c1-1.1,1.8-2.4,2.5-3.8c0.5-1.4,0.7-3,0.6-4.5
	c0.1-11.9-0.2-23.9-0.9-35.8c2.9-5.6,5.9-11.4,8.8-17c3.4-6.6,6.8-13.3,8.1-20.6c0.9-4.9,0.9-9.9,1.5-14.8c0.1-1.3,0.5-2.5,1.2-3.5
	c1.1-1.4,3-1.5,4.6-1.5C763.8,325,765.8,325.4,767.8,326.1z"/>
<path class="st36" d="M648.6,304.9c2,1.7,4.5,2.8,7,3.1c3.4,0.2,10.5-1.9,12.6-5c0.9-1.6,1.3-3.4,1.2-5.2c-0.5-0.2-0.9-0.3-1.4-0.3
	c-3.6-0.2-7.4-0.5-10.9,0.5S650.2,301.2,648.6,304.9L648.6,304.9z"/>
<path class="st35" d="M756.9,381.4c-2,2.7-4,5.4-6.9,7c-3.2,1.8-7,1.9-10.7,1.8c-15-0.3-29.9-2.1-44.6-5.3c-1.7-0.3-3.3-0.8-4.9-1.4
	c-1.8-0.9-3.4-2-5-3.4c-4.8-3.8-9.7-7.6-13.4-12.7c-4.4-6.2-7.1-13.5-8-21.2c-3.5-3.5-5.4-8.5-7.1-13.3c-0.9-2-1.4-4.2-1.6-6.5
	c-0.1-2.3,1.3-4.7,0.9-6.9c-0.7-3.9-2.5-7.4-5.2-10.1c-0.6-0.4-1-1.1-1.2-1.8c-0.1-0.6,0-1.2,0.3-1.7c1.5-3.6,4.9-6,8.5-6.9
	c3.6-1,7.3-0.7,10.9-0.5c1.3,0.1,2.3,0.8,3.6,1l2.5,7.3c0.3,1.2,0.9,2.3,1.7,3.3c0.6,0.6,1.2,1.1,1.8,1.5c2.6,2.4,4,6.1,3.6,9.8
	c4.8,2,7.3,7.7,5.7,13c3.9,0.9,7.1,4,8.4,8c0.2,0.9,0.6,1.8,1.1,2.5c0.8,0.7,1.9,1.1,2.9,1c2.8,0.2,5.4,2.7,8,1.3
	c2.9-1.5,6.2-2,9.5-1.4c0.7,0.2,1.3,0.2,2,0.2c0.6-0.1,1.1-0.3,1.7-0.6c1.2-0.7,2.4-1.3,3.8-1.6c1.4-0.3,2.8,0.3,3.6,1.5
	c0.9-1.1,1.5-2.5,2.3-3.6c0.7-1.3,2.1-2,3.5-1.8c-0.9-0.8,0-2.5,1.1-2.8c1.1-0.3,2.3,0.1,3.5,0.1c3,0,5.3-3,8.2-3.8
	c2.7-0.7,6.3,0.1,7.6-2.5c0.5-0.9,0.6-2.2,1.4-2.7c0.6-0.3,1.2-0.4,1.8-0.2c1.9,0.3,3.8,0.9,5.5,1.8c2.8,12,1.3,24.4-0.8,36.6
	C761.9,372.1,760.3,376.8,756.9,381.4z"/>
<path class="st36" d="M757,424.3l14,30.7c-1.5-2.8-4.7-3.9-7.2-5.8c-3.2-2.5-5.6-6-6.9-10.1c-1.3-4-2.2-8.2-2.7-12.5
	c-0.3-1.9-0.9-4.7,0-6.4C755.8,420.6,756.3,422.9,757,424.3z"/>
<path class="st36" d="M797.3,450.4c3.2,3.4,7,5.9,10.5,8.9c8.1,7,13.9,16.7,19.6,26.2c1.6,2.5,2.9,5.2,4,8c-0.7,0.6-1.6,0-2.3-0.6
	l-11-10.5c-1.3-1.2-2.6-2.6-3.7-4c-1.9-2.8-2.8-6.3-4.5-9.2c-1.7-2.9-4.3-5.1-6.7-7.4c-2.4-2.3-14.1-13-11.3-17.2
	C794,445.5,795.6,448.6,797.3,450.4z"/>
<path class="st35" d="M773.3,317.3c3.5-2.4,7.6-3.4,11.6-4.2c2.4-0.6,4.9-0.8,7.4-0.6c2.3,0.3,4.5,1.3,6.8,1.4
	c3.2,0.2,6.3-1.2,9.4-2.2c3.1-0.9,6.7-1.3,9.4,0.8c0.6,0.6,1.3,1,2,1.2c0.8-0.1,1.5-0.5,2.1-1.1c4.6-3.5,10.8-3.2,15,0.9
	c6,6.1,5.3,18,12.3,22.5c1.9,1.3,4.4,1.9,5.5,4.1c0.3,0.7,0.6,1.3,0.9,2c0.5,0.6,1,1,1.7,1.3c2,1,4,2.2,5.8,3.6c1.8,1.4,3,3.6,3.3,6
	c0,1.8-0.3,3.5-1,5.1c-7,18.7-24.1,30.6-42.6,29.6c-1.6-0.1-3.3-0.3-4.5-1.5c-0.7-0.8-1.2-1.8-1.6-2.8c-3.3-7.5-9.4-13-13.4-20.1
	c-2.3-4.2-3.8-9-6.3-13.2c-3.6-6.4-9.2-11.1-14.7-15.6c-3.1-2.6-6.5-5.2-10.4-5.1c-3.5,0.2-6,0.4-4.7-4.3
	C768.3,321.9,770.5,319.1,773.3,317.3z"/>
<path class="st32" d="M773.3,317.3c3.5-2.4,7.6-3.4,11.6-4.2c2.4-0.6,4.9-0.8,7.4-0.6c2.3,0.3,4.5,1.3,6.8,1.4
	c3.2,0.2,6.3-1.2,9.4-2.2c3.1-0.9,6.7-1.3,9.4,0.8c0.6,0.6,1.3,1,2,1.2c0.8-0.1,1.5-0.5,2.1-1.1c4.6-3.5,10.8-3.2,15,0.9
	c6,6.1,5.3,18,12.3,22.5c1.9,1.3,4.4,1.9,5.5,4.1c0.3,0.7,0.6,1.3,0.9,2c0.5,0.6,1,1,1.7,1.3c2,1,4,2.2,5.8,3.6c1.8,1.4,3,3.6,3.3,6
	c0,1.8-0.3,3.5-1,5.1c-7,18.7-24.1,30.6-42.6,29.6c-1.6-0.1-3.3-0.3-4.5-1.5c-0.7-0.8-1.2-1.8-1.6-2.8c-3.3-7.5-9.4-13-13.4-20.1
	c-2.3-4.2-3.8-9-6.3-13.2c-3.6-6.4-9.2-11.1-14.7-15.6c-3.1-2.6-6.5-5.2-10.4-5.1c-3.5,0.2-6,0.4-4.7-4.3
	C768.3,321.9,770.5,319.1,773.3,317.3z"/>
<path class="st3" d="M756.3,829.9c2.4,2.4,5.6,3.4,8.7,4.2c7.2,1.7,14.5,2.3,21.8,2.9l7.1,0.6c6.9,0.6,13.9,1.1,20.9,1.2
	c8.6,0,17.2-0.8,25.6-2.4c1.2,0.1,2.3-0.8,2.4-2.1c0-0.2,0-0.5,0-0.7c-0.1-9.4-1.2-18.8-3.1-28c-0.8-3.8-7,4.7-7.3,5
	c-1.7,2.1-3,3.1-5.7,3.3c-7.2,0.4-15.2-4.3-20.9-8.5c-1.2-1-2.5-1.9-3.9-2.6c-1-0.5-2-0.9-3.1-1c-3.7-0.4-7.4,0.4-10.7,2.3
	c-4.3,2.3-8,5.6-12.3,8c-3.4,1.9-7.2,3.2-11,3.8c-3.9,0.6-8.5,0.9-10.5,4.5l0,0C752.8,823.4,754,827.5,756.3,829.9z"/>
<path class="st33" d="M756.3,831.3c2.4,2.4,5.6,3.4,8.7,4.2c7.2,1.7,14.5,2.3,21.8,2.9l7.1,0.6c6.9,0.6,13.9,1.1,20.9,1.2
	c8.6,0,17.2-0.8,25.6-2.4c0.8,0,1.5-0.4,2-1c0.3-0.5,1.6-2.6,1.6-3.2c-0.1-9.4-2.5-18.8-4.4-28c-0.8-3.8-7,4.7-7.3,5
	c-1.7,2.1-3,3.1-5.7,3.3c-7.2,0.4-15.2-4.3-20.9-8.5c-1.2-1-2.5-1.9-3.9-2.6c-1-0.5-2-0.9-3.1-1c0.9,5.6,8.3,12.4,12.1,14.4
	c7.7,4.2,16.9,2,25.5,2.6c0.6,0,1.3,0.1,1.8,0.5c1,0.7,1.1,2.3,1.1,3.7c-0.1,2.2-0.3,4.8-2.1,6c-0.9,0.5-1.9,0.7-2.8,0.6
	c-21.2,1-42.5,0.2-63.5-2.4c-3.6-0.3-7.1-1.1-10.4-2.5c-2.2-1.1-4.2-2.5-6-4.2C751.7,822.7,754,828.9,756.3,831.3z"/>
<path class="st3" d="M774,267.9c0.1,3.7-2.2,10.7,4.1,8.8c3.8-1.2,4.8-6,9.6-4.9c4.8,1.1,5.9,7.5,7.5,11.6c2.7,6.7,8.2,11.6,14.8,13
	c1.3,0.3,2.7,0.3,4.1,0c3.1-1,4.8-4.4,6.1-7.6c1.1-2.7,2-5.5,2.7-8.3c0.5-2,0.8-4.1,0.9-6.1l0,0c0.1-1.4,0.1-2.8,0-4.2
	c-0.6-8.3-4.9-15.9-10.5-21.6c-5.6-5.7-12.3-9.9-19-14c-2.2-1.5-4.5-2.6-7-3.4c-2.4-0.5-4.9-0.6-7.4-0.3c-3.3,0.1-6.5,1-9.4,2.4
	c-1.2,0.7-2.3,1.5-3.3,2.5c-1.4,1.4-2.4,3.2-2.8,5.2c-1.2,5.4,1.9,10.2,4.5,14.5C771,259.2,773.9,263.2,774,267.9z"/>
<path class="st36" d="M668.2,346.4c1.3-3.7,7-13.9,5.4-17.4c-1.7,2.6-3.1,5.4-4.3,8.4C668.2,340.2,669,344,668.2,346.4z"/>
<path class="st36" d="M768.6,255.4c-2.6-4.3-5.7-9.1-4.5-14.5c0.6-2.4,1.9-4.4,3.7-6c-0.4,0.8-0.7,1.6-0.9,2.5
	c-1.2,5.4,2,10.2,4.5,14.5c2.3,3.8,5.1,7.8,5.3,12.5c0.1,3.6-2.2,10.7,4.1,8.8c3.8-1.2,4.8-6,9.6-4.9s5.8,7.4,7.5,11.6
	c2.7,6.7,8.2,11.6,14.9,13c1.3,0.3,2.7,0.3,4.1,0c0.7-0.2,1.3-0.6,1.9-1c-1,2.1-2.6,3.7-4.7,4.5c-1.3,0.3-2.7,0.3-4.1,0
	c-6.6-1.4-12.1-6.3-14.8-13c-1.6-4.2-2.7-10.5-7.5-11.6c-4.8-1.1-5.8,3.8-9.6,4.9c-6.3,2-4-5.1-4.1-8.8
	C773.7,263.2,770.9,259.2,768.6,255.4z"/>
<path class="st36" d="M767.2,248.1c0.6,1,1.2,2,1.9,3c1.3,1.8,2.8,3.5,4.5,5c0.9,0.9,2,1.8,3,2.6c1.9,1.5,4,2.8,6.1,3.9
	c6.2,3.4,12.8,5.5,19.4,7.6l13,4.1c1.6,1.3,4.5,3.7,7.7,6.1c0.5-2,0.8-4.1,0.9-6.1l0,0c0.1-1.4,0.1-2.8,0-4.2
	c-0.6-8.3-4.9-15.9-10.5-21.6c-5.6-5.7-12.3-9.9-19-14c-2.2-1.5-4.5-2.6-7-3.4c-2.4-0.5-4.9-0.6-7.4-0.3c-3.3,0.1-6.5,1-9.4,2.4
	c-1.2,0.7-2.3,1.5-3.3,2.5c-0.7,1.2-1.3,2.5-1.7,3.8C764.7,242.4,765.8,245.5,767.2,248.1z"/>
<path class="st35" d="M767.2,247.2c0.6,1,1.2,2,1.9,3c1.3,1.8,2.8,3.5,4.5,5c0.9,0.9,2,1.8,3,2.6c1.9,1.5,4,2.8,6.1,3.9
	c6.2,3.4,12.8,5.5,19.4,7.6l13,4.1c4.5,3.7,19.7,15.9,22.3,14.4c3-1.8-13.5-14.5-13.5-14.5l-0.8,0.6c2.4-1.6,3.7-5.5,4.2-8.8
	c0.9-5.9,1.4-12.1,0.1-17.9s-4.5-11.4-9.4-14.1c-2.2-1.2-4.8-2-6.4-3.9c-0.2-0.3-0.4-0.6-0.6-0.9c-0.1-0.2-0.2-0.3-0.2-0.5
	c-0.2-0.5-0.4-1-0.7-1.5c-0.9-1.1-2.5-0.8-3.9-0.6l-0.4,0.1c-0.2,0-0.5,0-0.7,0c-4.9,0.1-9.6-2.8-14.6-2.8c-5.4,0-10,3.4-14.8,5.7
	c-0.9,0.5-1.9,0.9-2.7,1.3c-3.4,1.7-6,3.6-7.5,8.6C764.7,241.5,765.8,244.6,767.2,247.2z"/>
<path class="st36" d="M805,225.8c-0.5,1-0.3,2.3,0.5,3.1c0.6,0.5,1.3,0.7,2.1,0.8c0.5,0.1,1.1,0.1,1.6,0.1c0.7,0.1,1.4-0.1,2.1-0.4
	c0.1-0.1,0.3-0.2,0.4-0.3c-0.2-0.3-0.4-0.6-0.6-0.9c-0.1,0.1-0.2,0.1-0.7,0c-0.9-0.1-1.8-0.2-2.6-0.5c-0.9-0.3-1.7-1-1.9-2
	L805,225.8z"/>
<path class="st36" d="M823.6,273.2c-0.7,0.5-1.4,0.8-2.2,0.9c-0.6,0.2-1.2,0.3-1.7,0.3c-1.5-0.1-2.9-0.5-4.3-1.3L823.6,273.2z"/>
<linearGradient id="SVGID_24_" gradientUnits="userSpaceOnUse" x1="1487.8412" y1="8.489" x2="1487.8412" y2="624.8304" gradientTransform="matrix(-1 0 0 -1 1962.9401 826.47)">
	<stop  offset="0" style="stop-color:#808080;stop-opacity:0.25"/>
	<stop  offset="0.54" style="stop-color:#808080;stop-opacity:0.12"/>
	<stop  offset="1" style="stop-color:#808080;stop-opacity:0.1"/>
</linearGradient>
<path class="st37" d="M416.9,384.1l-1.2-2.9l-0.5,0.1l1.3,2.9l9.2,21.2c-0.2,0.3-2.9,3.8-2.8,7.2c0,0.5,0.1,1,0.2,1.5
	c0.5,1.5,1.1,2.1,1.6,2.3c0-0.1,0-0.2,0-0.3c0-0.3,0-0.7,0-1v-0.2v-0.2v-0.1c0-0.1,0-0.1,0-0.2c0,0,0-0.1,0-0.1c0,0,0,0,0,0
	c0-0.1,0-0.1,0-0.2l0,0c0,0,0-0.1,0-0.1c0,0,0-0.1,0-0.1l0.1-0.4l0-0.1l0.1-0.2c0-0.1,0.1-0.3,0.2-0.4c0-0.1,0-0.1,0.1-0.2l0.1-0.3
	c0.1-0.3,0.2-0.6,0.4-0.8s0.3-0.5,0.4-0.7c0.4-0.7,0.8-1.3,1.2-1.9L416.9,384.1z M427.2,419.5L427.2,419.5c-0.2,0.1-0.4,0.1-0.6,0
	h-0.1c-0.1,0-0.1,0-0.2-0.1c-0.1-0.1-0.3-0.1-0.4-0.3l-0.1-0.1c-0.3-0.3-0.5-0.7-0.7-1.2c-0.1,0.4-0.2,0.8-0.2,1.2
	c-0.1,0.7,0.3,1.4,0.9,1.8c0.4,0.3,0.7,0.6,0.9,1l0,0l0,0c0,0,0,0,0-0.1l0,0c0,0,0-0.1,0-0.1c0,0,0,0,0-0.1c0.1-0.4,0.2-0.8,0.4-1.2
	c0.1-0.2,0.2-0.4,0.3-0.6c0-0.1,0.1-0.2,0.1-0.2l0.1-0.1l0.1-0.2C427.5,419.4,427.4,419.5,427.2,419.5L427.2,419.5z M427.2,419.5
	L427.2,419.5c-0.2,0.1-0.4,0.1-0.6,0h-0.1c-0.1,0-0.1,0-0.2-0.1c-0.1-0.1-0.3-0.1-0.4-0.3l-0.1-0.1c-0.3-0.3-0.5-0.7-0.7-1.2
	c-0.1,0.4-0.2,0.8-0.2,1.2c-0.1,0.7,0.3,1.4,0.9,1.8c0.4,0.3,0.7,0.6,0.9,1l0,0l0,0c0,0,0,0,0-0.1l0,0c0,0,0-0.1,0-0.1
	c0,0,0,0,0-0.1c0.1-0.4,0.2-0.8,0.4-1.2c0.1-0.2,0.2-0.4,0.3-0.6c0-0.1,0.1-0.2,0.1-0.2l0.1-0.1l0.1-0.2
	C427.5,419.4,427.4,419.5,427.2,419.5L427.2,419.5z M416.9,384.1l-1.2-2.9l-0.5,0.1l1.3,2.9l9.2,21.2c-0.2,0.3-2.9,3.8-2.8,7.2
	c0,0.5,0.1,1,0.2,1.5c0.5,1.5,1.1,2.1,1.6,2.3c0-0.1,0-0.2,0-0.3c0-0.3,0-0.7,0-1c0,0,0-0.1,0-0.1c0,0,0-0.1,0-0.1l0,0
	c0,0,0-0.1,0-0.1l0,0v-0.1c0,0,0-0.1,0-0.1l0,0c0,0,0-0.1,0-0.1l0,0c0-0.1,0-0.2,0-0.2c0,0,0-0.1,0-0.1c0,0,0-0.1,0-0.1l0.1-0.4
	l0-0.1l0.1-0.2c0-0.1,0.1-0.3,0.2-0.4c0-0.1,0-0.1,0.1-0.2l0.1-0.3c0.1-0.3,0.2-0.6,0.4-0.8c0.1-0.3,0.3-0.5,0.4-0.7
	c0.4-0.7,0.8-1.3,1.2-1.9L416.9,384.1z M427.2,419.5L427.2,419.5c-0.2,0.1-0.4,0.1-0.6,0h-0.1c-0.1,0-0.1,0-0.2-0.1
	c-0.1-0.1-0.3-0.1-0.4-0.3l-0.1-0.1c-0.3-0.3-0.5-0.7-0.7-1.2c-0.1,0.4-0.2,0.8-0.2,1.2c-0.1,0.7,0.3,1.4,0.9,1.8
	c0.4,0.3,0.7,0.6,0.9,1l0,0l0,0c0,0,0,0,0-0.1l0,0c0,0,0-0.1,0-0.1c0,0,0,0,0-0.1c0.1-0.4,0.2-0.8,0.4-1.2l0.2-0.4l0.1-0.1
	c0-0.1,0.1-0.2,0.1-0.2l0.1-0.1l0.1-0.2C427.5,419.4,427.4,419.5,427.2,419.5L427.2,419.5z M416.9,384.1l-1.2-2.9l-0.5,0.1l1.3,2.9
	l9.2,21.2c-0.2,0.3-2.9,3.8-2.8,7.2c0,0.5,0.1,1,0.2,1.5c0.5,1.5,1.1,2.1,1.6,2.3c0-0.1,0-0.2,0-0.3c0-0.3,0-0.7,0-1
	c0,0,0-0.1,0-0.1c0,0,0-0.1,0-0.1l0,0c0,0,0-0.1,0-0.1l0,0l0,0c0,0,0-0.1,0-0.1l0,0c0,0,0-0.1,0-0.1l0,0c0-0.1,0-0.2,0-0.2
	c0,0,0-0.1,0-0.1c0,0,0-0.1,0-0.1l0.1-0.4l0-0.1l0.1-0.2c0-0.1,0.1-0.3,0.2-0.4c0-0.1,0-0.1,0.1-0.2l0.1-0.3
	c0.1-0.3,0.2-0.6,0.4-0.8c0.1-0.3,0.3-0.5,0.4-0.7c0.4-0.7,0.8-1.3,1.2-1.9L416.9,384.1z M427.2,419.5L427.2,419.5
	c-0.2,0.1-0.4,0.1-0.6,0h-0.1c-0.1,0-0.1,0-0.2-0.1c-0.1-0.1-0.3-0.1-0.4-0.3l-0.1-0.1c-0.3-0.3-0.5-0.7-0.7-1.2
	c-0.1,0.4-0.2,0.8-0.2,1.2c-0.1,0.7,0.3,1.4,0.9,1.8c0.4,0.3,0.7,0.6,0.9,1l0,0l0,0c0,0,0,0,0-0.1l0,0c0,0,0-0.1,0-0.1
	c0,0,0-0.1,0-0.1c0.1-0.4,0.2-0.8,0.4-1.2l0.2-0.4l0.1-0.1c0-0.1,0.1-0.2,0.1-0.2l0.1-0.1l0.1-0.2
	C427.5,419.4,427.4,419.5,427.2,419.5L427.2,419.5z M416.9,384.1l-1.2-2.9l-0.5,0.1l1.3,2.9l9.2,21.2c-0.2,0.3-2.9,3.8-2.8,7.2
	c0,0.5,0.1,1,0.2,1.5c0.5,1.5,1.1,2.1,1.6,2.3c0-0.1,0-0.2,0-0.3c0-0.3,0-0.7,0-1c0,0,0-0.1,0-0.1c0,0,0-0.1,0-0.1l0,0
	c0,0,0-0.1,0-0.1l0,0l0,0c0,0,0-0.1,0-0.1l0,0c0,0,0-0.1,0-0.1l0,0c0-0.1,0-0.2,0-0.2c0,0,0-0.1,0-0.1c0,0,0-0.1,0-0.1l0.1-0.4
	l0-0.1l0.1-0.2c0-0.1,0.1-0.3,0.2-0.4c0-0.1,0-0.1,0.1-0.2l0.1-0.3c0.1-0.3,0.2-0.6,0.4-0.8c0.1-0.3,0.3-0.5,0.4-0.7
	c0.4-0.7,0.8-1.3,1.2-1.9L416.9,384.1z M427.2,419.5L427.2,419.5c-0.2,0.1-0.4,0.1-0.6,0h-0.1c-0.1,0-0.1,0-0.2-0.1
	c-0.1-0.1-0.3-0.1-0.4-0.3l-0.1-0.1c-0.3-0.3-0.5-0.7-0.7-1.2c-0.1,0.4-0.2,0.8-0.2,1.2c-0.1,0.7,0.3,1.4,0.9,1.8
	c0.4,0.3,0.7,0.6,0.9,1l0,0l0,0c0,0,0,0,0-0.1l0,0c0,0,0-0.1,0-0.1c0,0,0-0.1,0-0.1c0.1-0.4,0.2-0.8,0.4-1.2l0.2-0.4l0.1-0.1
	c0-0.1,0.1-0.2,0.1-0.2l0.1-0.1l0.1-0.2C427.5,419.4,427.4,419.5,427.2,419.5L427.2,419.5z M416.9,384.1l-1.2-2.9l-0.5,0.1l1.3,2.9
	l9.2,21.2c-0.2,0.3-2.9,3.8-2.8,7.2c0,0.5,0.1,1,0.2,1.5c0.5,1.5,1.1,2.1,1.6,2.3c0-0.1,0-0.2,0-0.3c0-0.3,0-0.7,0-1
	c0,0,0-0.1,0-0.1c0,0,0-0.1,0-0.1l0,0c0,0,0-0.1,0-0.1l0,0l0,0c0,0,0-0.1,0-0.1l0,0c0,0,0-0.1,0-0.1l0,0c0-0.1,0-0.2,0-0.2
	c0,0,0-0.1,0-0.1c0,0,0-0.1,0-0.1l0.1-0.4l0-0.1l0.1-0.2c0-0.1,0.1-0.3,0.2-0.4c0-0.1,0-0.1,0.1-0.2l0.1-0.3
	c0.1-0.3,0.2-0.6,0.4-0.8c0.1-0.3,0.3-0.5,0.4-0.7c0.4-0.7,0.8-1.3,1.2-1.9L416.9,384.1z M427.2,419.5L427.2,419.5
	c-0.2,0.1-0.4,0.1-0.6,0h-0.1c-0.1,0-0.1,0-0.2-0.1c-0.1-0.1-0.3-0.1-0.4-0.3l-0.1-0.1c-0.3-0.3-0.5-0.7-0.7-1.2
	c-0.1,0.4-0.2,0.8-0.2,1.2c-0.1,0.7,0.3,1.4,0.9,1.8c0.4,0.3,0.7,0.6,0.9,1l0,0l0,0c0,0,0,0,0-0.1l0,0c0,0,0-0.1,0-0.1
	c0,0,0-0.1,0-0.1c0.1-0.4,0.2-0.8,0.4-1.2l0.2-0.4l0.1-0.1c0-0.1,0.1-0.2,0.1-0.2l0.1-0.1l0.1-0.2
	C427.5,419.4,427.4,419.5,427.2,419.5L427.2,419.5z M416.9,384.1l-1.2-2.9l-0.5,0.1l1.3,2.9l9.2,21.2c-0.2,0.3-2.9,3.8-2.8,7.2
	c0,0.5,0.1,1,0.2,1.5c0.5,1.5,1.1,2.1,1.6,2.3c0-0.1,0-0.2,0-0.3c0-0.3,0-0.7,0-1c0,0,0-0.1,0-0.1c0,0,0-0.1,0-0.1l0,0
	c0,0,0-0.1,0-0.1l0,0l0,0c0,0,0-0.1,0-0.1l0,0c0,0,0-0.1,0-0.1l0,0c0-0.1,0-0.2,0-0.2c0,0,0-0.1,0-0.1c0,0,0-0.1,0-0.1l0.1-0.4
	l0-0.1l0.1-0.2c0-0.1,0.1-0.3,0.2-0.4c0-0.1,0-0.1,0.1-0.2l0.1-0.3c0.1-0.3,0.2-0.6,0.4-0.8c0.1-0.3,0.3-0.5,0.4-0.7
	c0.4-0.7,0.8-1.3,1.2-1.9L416.9,384.1z M427.2,419.5L427.2,419.5c-0.2,0.1-0.4,0.1-0.6,0h-0.1c-0.1,0-0.1,0-0.2-0.1
	c-0.1-0.1-0.3-0.1-0.4-0.3l-0.1-0.1c-0.3-0.3-0.5-0.7-0.7-1.2c-0.1,0.4-0.2,0.8-0.2,1.2c-0.1,0.7,0.3,1.4,0.9,1.8
	c0.4,0.3,0.7,0.6,0.9,1l0,0l0,0c0,0,0,0,0-0.1l0,0c0,0,0-0.1,0-0.1c0,0,0-0.1,0-0.1c0.1-0.4,0.2-0.8,0.4-1.2l0.2-0.4l0.1-0.1
	c0-0.1,0.1-0.2,0.1-0.2l0.1-0.1l0.1-0.2C427.5,419.4,427.4,419.5,427.2,419.5L427.2,419.5z M416.9,384.1l-1.2-2.9l-0.5,0.1l1.3,2.9
	l9.2,21.2c-0.2,0.3-2.9,3.8-2.8,7.2c0,0.5,0.1,1,0.2,1.5c0.5,1.5,1.1,2.1,1.6,2.3c0-0.1,0-0.2,0-0.3c0-0.3,0-0.7,0-1
	c0,0,0-0.1,0-0.1c0,0,0-0.1,0-0.1l0,0c0,0,0-0.1,0-0.1l0,0l0,0c0,0,0-0.1,0-0.1l0,0c0,0,0-0.1,0-0.1l0,0c0-0.1,0-0.2,0-0.2
	c0,0,0-0.1,0-0.1c0,0,0-0.1,0-0.1l0.1-0.4l0-0.1l0.1-0.2c0-0.1,0.1-0.3,0.2-0.4c0-0.1,0-0.1,0.1-0.2l0.1-0.3
	c0.1-0.3,0.2-0.6,0.4-0.8c0.1-0.3,0.3-0.5,0.4-0.7c0.4-0.7,0.8-1.3,1.2-1.9L416.9,384.1z M427.2,419.5L427.2,419.5
	c-0.2,0.1-0.4,0.1-0.6,0h-0.1c-0.1,0-0.1,0-0.2-0.1c-0.1-0.1-0.3-0.1-0.4-0.3l-0.1-0.1c-0.3-0.3-0.5-0.7-0.7-1.2
	c-0.1,0.4-0.2,0.8-0.2,1.2c-0.1,0.7,0.3,1.4,0.9,1.8c0.4,0.3,0.7,0.6,0.9,1l0,0l0,0c0,0,0,0,0-0.1l0,0c0,0,0-0.1,0-0.1
	c0,0,0-0.1,0-0.1c0.1-0.4,0.2-0.8,0.4-1.2l0.2-0.4l0.1-0.1c0-0.1,0.1-0.2,0.1-0.2l0.1-0.1l0.1-0.2
	C427.5,419.4,427.4,419.5,427.2,419.5L427.2,419.5z M416.9,384.1l-1.2-2.9l-0.5,0.1l1.3,2.9l9.2,21.2c-0.2,0.3-2.9,3.8-2.8,7.2
	c0,0.5,0.1,1,0.2,1.5c0.5,1.5,1.1,2.1,1.6,2.3c0-0.1,0-0.2,0-0.3c0-0.3,0-0.7,0-1c0,0,0-0.1,0-0.1c0,0,0-0.1,0-0.1l0,0
	c0,0,0-0.1,0-0.1l0,0l0,0c0,0,0-0.1,0-0.1l0,0c0,0,0-0.1,0-0.1l0,0c0-0.1,0-0.2,0-0.2c0,0,0-0.1,0-0.1c0,0,0-0.1,0-0.1l0.1-0.4
	l0-0.1l0.1-0.2c0-0.1,0.1-0.3,0.2-0.4c0-0.1,0-0.1,0.1-0.2l0.1-0.3c0.1-0.3,0.2-0.6,0.4-0.8c0.1-0.3,0.3-0.5,0.4-0.7
	c0.4-0.7,0.8-1.3,1.2-1.9L416.9,384.1z M427.2,419.5L427.2,419.5c-0.2,0.1-0.4,0.1-0.6,0h-0.1c-0.1,0-0.1,0-0.2-0.1
	c-0.1-0.1-0.3-0.1-0.4-0.3l-0.1-0.1c-0.3-0.3-0.5-0.7-0.7-1.2c-0.1,0.4-0.2,0.8-0.2,1.2c-0.1,0.7,0.3,1.4,0.9,1.8
	c0.4,0.3,0.7,0.6,0.9,1l0,0l0,0c0,0,0,0,0-0.1l0,0c0,0,0-0.1,0-0.1c0,0,0-0.1,0-0.1c0.1-0.4,0.2-0.8,0.4-1.2l0.2-0.4l0.1-0.1
	c0-0.1,0.1-0.2,0.1-0.2l0.1-0.1l0.1-0.2C427.5,419.4,427.4,419.5,427.2,419.5L427.2,419.5z M416.9,384.1l-1.2-2.9l-0.5,0.1l1.3,2.9
	l9.2,21.2c-0.2,0.3-2.9,3.8-2.8,7.2c0,0.5,0.1,1,0.2,1.5c0.5,1.5,1.1,2.1,1.6,2.3c0-0.1,0-0.2,0-0.3c0-0.3,0-0.7,0-1
	c0,0,0-0.1,0-0.1c0,0,0-0.1,0-0.1l0,0c0,0,0-0.1,0-0.1l0,0l0,0c0,0,0-0.1,0-0.1l0,0c0,0,0-0.1,0-0.1l0,0c0-0.1,0-0.2,0-0.2
	c0,0,0-0.1,0-0.1c0,0,0-0.1,0-0.1l0.1-0.4l0-0.1l0.1-0.2c0-0.1,0.1-0.3,0.2-0.4c0-0.1,0-0.1,0.1-0.2l0.1-0.3
	c0.1-0.3,0.2-0.6,0.4-0.8c0.1-0.3,0.3-0.5,0.4-0.7c0.4-0.7,0.8-1.3,1.2-1.9L416.9,384.1z M427.2,419.5L427.2,419.5
	c-0.2,0.1-0.4,0.1-0.6,0h-0.1c-0.1,0-0.1,0-0.2-0.1c-0.1-0.1-0.3-0.1-0.4-0.3l-0.1-0.1c-0.3-0.3-0.5-0.7-0.7-1.2
	c-0.1,0.4-0.2,0.8-0.2,1.2c-0.1,0.7,0.3,1.4,0.9,1.8c0.4,0.3,0.7,0.6,0.9,1l0,0l0,0c0,0,0,0,0-0.1l0,0c0,0,0-0.1,0-0.1
	c0,0,0-0.1,0-0.1c0.1-0.4,0.2-0.8,0.4-1.2l0.2-0.4l0.1-0.1c0-0.1,0.1-0.2,0.1-0.2l0.1-0.1l0.1-0.2
	C427.5,419.4,427.4,419.5,427.2,419.5L427.2,419.5z M416.9,384.1l-1.2-2.9l-0.5,0.1l1.3,2.9l9.2,21.2c-0.2,0.3-2.9,3.8-2.8,7.2
	c0,0.5,0.1,1,0.2,1.5c0.5,1.5,1.1,2.1,1.6,2.3c0-0.1,0-0.2,0-0.3c0-0.3,0-0.7,0-1c0,0,0-0.1,0-0.1c0,0,0-0.1,0-0.1l0,0
	c0,0,0-0.1,0-0.1l0,0v-0.1c0,0,0-0.1,0-0.1l0,0c0,0,0-0.1,0-0.1l0,0c0-0.1,0-0.2,0-0.2c0,0,0-0.1,0-0.1c0,0,0-0.1,0-0.1l0.1-0.4
	l0-0.1l0.1-0.2c0-0.1,0.1-0.3,0.2-0.4c0-0.1,0-0.1,0.1-0.2l0.1-0.3c0.1-0.3,0.2-0.6,0.4-0.8c0.1-0.3,0.3-0.5,0.4-0.7
	c0.4-0.7,0.8-1.3,1.2-1.9L416.9,384.1z M427.2,419.5L427.2,419.5c-0.2,0.1-0.4,0.1-0.6,0h-0.1c-0.1,0-0.1,0-0.2-0.1
	c-0.1-0.1-0.3-0.1-0.4-0.3l-0.1-0.1c-0.3-0.3-0.5-0.7-0.7-1.2c-0.1,0.4-0.2,0.8-0.2,1.2c-0.1,0.7,0.3,1.4,0.9,1.8
	c0.4,0.3,0.7,0.6,0.9,1l0,0l0,0c0-0.1,0-0.1,0-0.2c0,0,0-0.1,0-0.1c0.1-0.4,0.2-0.8,0.4-1.2l0.2-0.4l0.2-0.4l0.1-0.1l0.1-0.2
	C427.5,419.4,427.4,419.5,427.2,419.5L427.2,419.5z M425.1,413.2c0-0.1,0.1-0.3,0.2-0.4c0.1-0.1,0-0.1,0.1-0.2
	c0-0.1,0.1-0.2,0.1-0.3c0.1-0.3,0.2-0.6,0.4-0.8c0.1-0.3,0.3-0.5,0.4-0.7c0.4-0.7,0.8-1.3,1.2-1.9L417,384.1l-1.3-3l-0.5,0.1
	l1.3,2.9l9.2,21.2c-0.2,0.3-2.9,3.8-2.8,7.2c0,0.5,0.1,1,0.2,1.5c0.5,1.5,1.1,2.1,1.6,2.3c0-0.1,0-0.2,0-0.3c0-0.3,0-0.7,0-1
	c0,0,0-0.1,0-0.1c0,0,0-0.1,0-0.1c0-0.1,0-0.2,0-0.3l0,0l0.1-0.3v-0.1V414l0.1-0.4C425,413.4,425,413.3,425.1,413.2z M567,269.5
	c-1.1-1.6-2.7-2.7-4.5-3.1c-1.8-0.4-3.7,0.1-5.2,1.3c0.4-0.5,2.8-3.3,4.7-6c2.3-3.2,4.2-6.4,1.9-5.9c-4.4,1-12.5,11.7-12.5,11.7
	l-1.7,3.2l0,0l-4.8,9.3l-0.5,1c-1.6,0.1-3.2,0.3-4.8,0.6l-0.5,0.8c-0.8,1.2-2.3,3.6-2.5,5.1c-0.2,2-8.1,5.8-11.3,7.9
	c-3.2,2-6.2,8.6-6.2,8.6s-10.6,1-13.7,4.1c-2.1,2.1-7.2,2.2-10.2,2l0,0l-0.7-0.1c-0.8-0.1-1.3-0.1-1.3-0.1s-3-3.6-5.3-3.8
	c-1.5-0.2-2.9-0.2-4.4,0c0,0-1.2-0.4-3-1l-0.5-0.2c-0.4-0.1-0.9-0.3-1.3-0.4l-0.4-0.1c0.2-0.2,0.3-0.4,0.5-0.6
	c0.3-0.4,0.5-0.8,0.6-1.3l0,0c0.3-0.9,0.4-1.8,0.3-2.7c-0.2-1-0.5-1.9-1-2.7c-0.3-0.5-0.6-1-0.9-1.5c-1.5-2.7-2.5-5.8-2.9-8.9l0,0
	c-0.7-5,0-10.2,2.1-14.7c0.6-1.2,1.2-2.3,1.9-3.4l1.1-1.6l0.7-1l0.7-1.1l0,0l0.7-1.1c1.1-1.6,2-3.4,2.7-5.2c0.2-0.4,0.3-0.7,0.4-1.1
	c0-0.1,0.1-0.3,0.1-0.4c0-0.1,0.2-0.5,0.2-0.7c0.1-0.2,0.1-0.3,0.1-0.5c0.1-0.2,0.1-0.5,0.2-0.7c0-0.2,0.1-0.3,0.1-0.5
	c0-0.2,0.1-0.5,0.1-0.7c0-0.2,0-0.3,0.1-0.5l0.1-0.7c0-0.2,0-0.3,0-0.5l0,0l0,0c0-0.2,0-0.5,0-0.7v-0.5c0-0.4,0-0.8,0-1.1
	c0-0.2,0-0.3,0-0.5s0-0.5-0.1-0.7c-0.1-0.2,0-0.4-0.1-0.6c-0.1-0.2-0.1-0.4-0.1-0.6l-0.1-0.6c0-0.2-0.1-0.4-0.1-0.5l-0.1-0.6
	c0-0.2-0.1-0.3-0.1-0.5c0-0.2-0.1-0.4-0.2-0.6c0-0.2-0.1-0.3-0.2-0.5c-0.1-0.2-0.1-0.4-0.2-0.6c-0.1-0.2-0.1-0.3-0.2-0.4
	c-0.5-1.3-1.2-2.6-2-3.8l-1.4-1.9l0,0l-0.4-0.5c0-0.1-0.1-0.2-0.1-0.3c-0.1-0.2-0.2-0.3-0.2-0.5c-0.7-1.5-1.3-3.1-1.8-4.6
	c-0.2-0.5-0.3-1-0.5-1.4c0-0.1-0.1-0.2-0.1-0.3c-0.3-0.7-0.6-1.5-0.9-2.2c-0.2-0.5-0.5-1-0.7-1.6c-0.1-0.2-0.2-0.3-0.2-0.5l-0.6-1
	l-0.3-0.5l-0.6-1l-0.3-0.4c-0.3-0.5-0.6-0.9-0.9-1.4l0,0c-0.3-0.5-0.7-0.9-1-1.4l-0.3-0.3l-0.8-1l-0.3-0.4l-0.9-1l-0.3-0.3
	c-1.3-1.5-2.8-3-4.2-4.4l-0.7-0.7l0,0l-2.6-2.5l-0.9-0.9c-0.3-0.3-0.6-0.5-0.9-0.8c-1.9-1.9-4.2-3.5-6.6-4.6
	c-3.1-1.2-6.5-1.6-9.7-1.1c-5.3,0.6-10.4,2.5-14.9,5.6c-0.4,0.2-0.7,0.5-1,0.8c-2,1.5-3.8,3.3-5.3,5.4c-0.3,0.3-0.5,0.7-0.8,1
	s-0.4,0.6-0.6,1c-2.3,3.7-3.8,8-5.3,12.2c-5.1,14.7-10.3,30-11,45.6c0,0.3,0,0.5,0,0.8c-0.1,2-0.1,3.9,0,5.9l0,0c0,0.1,0,0.1,0,0.2
	c0,0.4,0,0.8,0.1,1.2c0.3,5.9,1.4,11.8,2.2,17.6l-0.6,0.2c-6.6,2.7-7.8,8.2-7.8,8.2c0,0,0,0,0,0.1l0,0c0.1,0.5,0.1,0.9,0.1,1.4
	c0,3.3-0.9,6.6-2.5,9.5l-0.4,0.8l0,0c-2.1,3.7-2.5,6.1-2.4,7.7c0,0.6,0.1,1.2,0.3,1.7l0,0l0,0v0.1c0,0.1,0,0.1,0,0.2v0.1l0,0
	c-0.7,2.4-1.9,4.5-3.3,6.5c-2.3,2.8-8.6,30.5-8.6,30.5c0.3,0.7,0.4,1.5,0.4,2.2l0,0c0,0.6-0.1,1.2-0.4,1.8l0,0l0,0
	c-0.3,1-0.2,2,0.3,2.8l0,0c0.4,0.8,0.9,1.5,1.5,2.2c0,0,1.4-0.5-0.9,2.3l-0.1,0.2l0,0c-0.7,1.1-0.7,2.7,0.2,3.7
	c0.6,0.9,1.3,1.6,2.1,2.2c0,0,19,35.5,22.9,39.3c3.9,3.8,7.9,13.7,7.9,13.7s0.4-0.7,1-1.8c0.3-0.5,0.7-1.2,1.1-1.8l1.2,1.7l0,0
	l2.4,3.5l-0.9,2l0,0c-1,2-1.8,4-2.5,6.1c-0.1,0.2-0.1,0.4-0.1,0.6c0,0.6,0.3,1.1,0.6,1.5c-4.7,6.7-15.9,25.4-15.1,48.4l0,0v0.6
	c0,0.1,0,0.1,0,0.2c0.4,8,2.3,15.9,5.5,23.2c0.3,2.3,0.5,4.6,0.5,7l0,0c0,0.5-0.1,0.9-0.2,1.4c-0.1,0.9-0.1,1.9,0.1,2.8l0,0
	c0.6,5.1,2.7,14.9,2.7,14.9s0,1,0,2.5v0.1c0,0.7,0,1.6,0,2.6c0.1,8.8,0.3,26.1-0.1,29.8c-0.2,2.2-0.4,3.9-0.6,5.1
	c-0.2,1.8-0.4,2.7-0.4,2.7s-0.1,0.6-0.2,1.8c0,0.4-0.1,0.9-0.2,1.5c-0.8,6.9-2.6,23.7-3.6,39.5c0,0.7-0.1,1.4-0.1,2
	c-0.5,8.4-0.8,16.4-0.6,22.2c0,0.2,0,0.3,0,0.5s0,0.2,0,0.4c0.1,1.5,0.2,2.8,0.3,3.9c0.5,3.7,0.9,8,1.2,12.5c0,0.5,0.1,1,0.1,1.5
	c0.6,8.2,1,16.8,1.3,23c0,0.2,0,0.3,0,0.5v0.7c0,0.1,0,0.2,0,0.3c0,0,0,0.1,0,0.1c0,0.4,0,0.7,0,1c0,0.1,0,0.1,0,0.2
	c0,0.1,0,0.3,0,0.5s0,0.5,0,0.8c0,0.2,0,0.7,0,1l0,0v0.6v0.1c0,0.6,0,1.2,0.1,1.8c0,0.8,0.1,1.3,0.1,1.3v0.1l0,0c0,0,0,0,0,0.1v0.1
	l0.8,7.2l4.1,36.2l1.2,11.4l2.7,24.7l9.5-2l0.1,1.1l0.3,3.8l0,0l2.7-0.3c0,0.4,0,0.7-0.1,1.1c-0.5,8.6-0.3,17.2-0.3,17.2h0.1
	c2.9,0.6,5.7,1,8.5,1.3v8.9h4.4l-0.6-7.7l-0.1-0.9h0.1c5.9,0.4,11.8,0.2,17.6-0.7l0.5-0.1l0.7,0.9l6.7,8.4c0,0,13.2,0.8,24.7-2
	c8.7-2,17.8-11.4,18.1-14.9l0,0c0.1-1.1-0.7-1.7-2.8-1.1c-6.2,1.7-16.8,0-22.2-1c-1.2-3-4.6-11.4-7.2-18.2l-0.4-1
	c3.9-3.2,6.9-7.3,7.3-9.4c0.3-1.3-0.4-1.8-2.4-1.1c-2.3,0.8-4.7,1.2-7.1,1.3l0,0h-0.9c0-0.1,0.1-0.1,0.1-0.2c1.9-2.8,2.2-6.7,2-10.4
	c-0.1-1.3-0.2-2.6-0.5-3.9l0,0c0-0.1,0-0.1,0-0.2c-0.3-1.7-0.7-3.4-1.1-5c0-0.1-0.1-0.2-0.1-0.3c-0.2-0.6-0.3-0.9-0.3-0.9
	s2.6-20,3.5-34.3c0.3-3.7,0.3-7.4,0.2-11.1l0,0c0,0,0,0,0-0.1c0-0.9-0.2-1.9-0.6-2.7c-0.4-0.6-0.7-1.3-0.8-2c0,0,0,0,0-0.1
	c-1.2-5.7,1.5-17.4,2.8-20.5c0.4-1,0.8-2,1.1-3.1c1.3-4.1,2.6-9.7,2.6-12.5c0.1-2.8,0.6-5.5,1.4-8.1c4.3-6.7,5.5-16,5.8-22.4
	c0.1-2.4,0.1-4.8,0-7.3c-0.1-10.7,0.4-21.4,1.4-32c0.2-2,0.5-4.1,0.7-6.2c0.4-3.2,0.9-6.4,1.5-9.5c1.8-9.2,1.1-25.8-0.4-41.5
	c0-0.5-0.1-0.9-0.1-1.4c0,0,0-0.1,0-0.1c-1.4-15.3-3.5-29.5-4.3-35.2l0,0c-0.3-1.6-0.4-2.6-0.4-2.6c0.9-3.6,1.5-7.3,1.7-11l0,0l0,0
	c0.1-1.7-0.2-3.4-0.9-4.9c-0.3-0.5-0.4-1-0.5-1.5l0,0c0-0.1,0-0.1,0-0.2c-0.3-1.9-0.3-3.8-0.2-5.7l0,0c0-0.7,0.1-1.4,0.2-2v-0.1
	c0,0,0-0.1,0-0.1l0.1-1.2c0.1-0.7,0.2-1.4,0.2-2.1c0.3-0.1,0.5-0.3,0.8-0.4c0.5-0.3,0.9-0.6,1.3-1c4.2-4.1,4.7-14.6,4.1-25.3
	c0,0,0-0.1,0-0.1c0-0.1,0-0.2,0-0.3c-0.7-9-2-17.9-3.8-26.6l0,0c0-0.1,0-0.2,0-0.2c-0.2-0.6-0.2-0.9-0.2-0.9s0-7.5-0.4-14.7
	c0,0,0-0.1,0-0.1c0-0.1,0-0.1,0-0.2c-0.3-5.9-0.9-11.6-2.1-12.6c-0.7-0.6-1.1-2.3-1.3-4.5c0,0,0-0.1,0-0.1c0-0.1,0-0.1,0-0.2
	c-0.3-5-0.3-10,0-15c2.1-4,3.4-8.4,3.6-12.9l0,0c0-0.8,0-1.6-0.1-2.5c0-0.2,0-0.3-0.1-0.5c0-0.3-0.1-0.5-0.1-0.8
	c-0.1-0.9-0.3-1.9-0.6-2.8c0.8-0.2,1.6-0.3,2.5-0.6l0.7-0.2l0,0c12.4-3.4,31.7-13.3,35.6-14.8c5.3-2,6.9-10.4,6.9-10.4
	s0.5-0.5,1.3-1.3c4.1-4.2,7.7-8.9,10.7-14.1l0,0c1.5-2.6,2.7-5.3,3.6-8.1l0,0c0.5-1.4,0.8-2.9,1.1-4.4c0.1-0.5,0.1-1,0.2-1.5l0,0
	c0-0.1,0-0.1,0-0.2l0.9-0.9l0,0l0,0c4.1-4.1,10.1-10.6,11.7-15.5C568,272.3,567.9,270.7,567,269.5z M444.2,641.1
	c-0.1,2.3-0.2,4.5-0.4,6.4l0,0l0,0c-0.3,3.7-0.6,6.1-0.6,6.1c-0.3,0.2-0.5,0.5-0.7,0.8c-0.4,0.7-0.8,1.4-1,2.2l-0.2-6.1
	C441.3,650.5,442.8,646.6,444.2,641.1z M411.4,382.1c-0.1-0.2-0.1-0.5-0.2-0.7l0,0l1-0.2l0,0c0.9-0.2,1.7-0.4,2.6-0.7l0.3,0.8
	l1.3,2.9l9.2,21.2c-0.2,0.3-2.9,3.8-2.8,7.2c0,0.5,0.1,1,0.2,1.5c0.5,1.5,1.1,2.1,1.6,2.3l0,0c0.5,0.1,1,0,1.4-0.3
	c-0.4,0.6-0.7,1.2-0.9,1.9l0,0l0,0c-0.1,0.4-0.2,0.8-0.2,1.2c-0.1,0.7,0.3,1.4,0.9,1.8c0.4,0.3,0.7,0.6,0.9,1l0,0
	c0.4,0.6,0.6,1.3,0.6,2l0,0c0,0,0,0,0,0.1l0,0c0,0.2,0,0.4,0,0.6c0,0.1,0,0.2,0,0.3l-1.2-0.4l-2.7-0.9c0.4-0.5,0.9-0.9,1.5-1.1
	l-8.4-20.1c0,0-1.8-8.6-4.1-17.2L411.4,382.1z M430.3,786.6l-0.2-1l0-0.3l0.4-0.1c0,0.1,0,0.2,0,0.3
	C430.3,785.8,430.3,786.2,430.3,786.6L430.3,786.6z M416.9,384.1l-1.2-2.9l-0.5,0.1l1.3,2.9l9.2,21.2c-0.2,0.3-2.9,3.8-2.8,7.2
	c0,0.5,0.1,1,0.2,1.5c0.5,1.5,1.1,2.1,1.6,2.3c0-0.1,0-0.2,0-0.3c0-0.3,0-0.7,0-1c0,0,0-0.1,0-0.1c0,0,0-0.1,0-0.1l0,0
	c0,0,0-0.1,0-0.1l0,0c0,0,0,0,0-0.1c0,0,0-0.1,0-0.1l0,0c0,0,0-0.1,0-0.1l0,0c0-0.1,0-0.1,0-0.2v-0.1l0,0c0,0,0-0.1,0-0.1l0.1-0.4
	l0-0.1l0.1-0.2c0-0.1,0.1-0.3,0.2-0.4c0.1-0.1,0-0.1,0.1-0.2c0-0.1,0.1-0.2,0.1-0.3c0.1-0.3,0.2-0.6,0.4-0.8
	c0.1-0.3,0.3-0.5,0.4-0.7c0.4-0.7,0.8-1.3,1.2-1.9L416.9,384.1z M427.2,419.5L427.2,419.5c-0.2,0.1-0.4,0.1-0.6,0h-0.1
	c-0.1,0-0.1,0-0.2-0.1c-0.1-0.1-0.3-0.1-0.4-0.3l-0.1-0.1c-0.3-0.3-0.5-0.7-0.7-1.2c-0.1,0.4-0.2,0.8-0.2,1.2
	c-0.1,0.7,0.3,1.4,0.9,1.8c0.4,0.3,0.7,0.6,0.9,1l0,0l0,0c0-0.1,0-0.1,0-0.2c0,0,0-0.1,0-0.1c0.1-0.4,0.2-0.8,0.4-1.2l0.2-0.4
	l0.1-0.1c0-0.1,0.1-0.2,0.1-0.2l0.1-0.1l0.1-0.2C427.5,419.4,427.4,419.5,427.2,419.5L427.2,419.5z M416.9,384.1l-1.2-2.9l-0.5,0.1
	l1.3,2.9l9.2,21.2c-0.2,0.3-2.9,3.8-2.8,7.2c0,0.5,0.1,1,0.2,1.5c0.5,1.5,1.1,2.1,1.6,2.3c0-0.1,0-0.2,0-0.3c0-0.3,0-0.7,0-1
	c0,0,0-0.1,0-0.1c0,0,0-0.1,0-0.1l0,0c0,0,0-0.1,0-0.1l0,0l0,0c0,0,0-0.1,0-0.1l0,0c0,0,0-0.1,0-0.1l0,0c0-0.1,0-0.2,0-0.2
	c0,0,0-0.1,0-0.1c0,0,0-0.1,0-0.1l0.1-0.4l0-0.1l0.1-0.2c0-0.1,0.1-0.3,0.2-0.4c0-0.1,0-0.1,0.1-0.2l0.1-0.3
	c0.1-0.3,0.2-0.6,0.4-0.8c0.1-0.3,0.3-0.5,0.4-0.7c0.4-0.7,0.8-1.3,1.2-1.9L416.9,384.1z M427.2,419.5L427.2,419.5
	c-0.2,0.1-0.4,0.1-0.6,0h-0.1c-0.1,0-0.1,0-0.2-0.1c-0.1-0.1-0.3-0.1-0.4-0.3l-0.1-0.1c-0.3-0.3-0.5-0.7-0.7-1.2
	c-0.1,0.4-0.2,0.8-0.2,1.2c-0.1,0.7,0.3,1.4,0.9,1.8c0.4,0.3,0.7,0.6,0.9,1l0,0l0,0c0,0,0,0,0-0.1l0,0c0,0,0-0.1,0-0.1
	c0,0,0-0.1,0-0.1c0.1-0.4,0.2-0.8,0.4-1.2l0.2-0.4l0.1-0.1c0-0.1,0.1-0.2,0.1-0.2l0.1-0.1l0.1-0.2
	C427.5,419.4,427.4,419.5,427.2,419.5L427.2,419.5z M416.9,384.1l-1.2-2.9l-0.5,0.1l1.3,2.9l9.2,21.2c-0.2,0.3-2.9,3.8-2.8,7.2
	c0,0.5,0.1,1,0.2,1.5c0.5,1.5,1.1,2.1,1.6,2.3c0-0.1,0-0.2,0-0.3c0-0.3,0-0.7,0-1c0,0,0-0.1,0-0.1c0,0,0-0.1,0-0.1l0,0
	c0,0,0-0.1,0-0.1l0,0l0,0c0,0,0-0.1,0-0.1l0,0c0,0,0-0.1,0-0.1l0,0c0-0.1,0-0.2,0-0.2c0,0,0-0.1,0-0.1c0,0,0-0.1,0-0.1l0.1-0.4
	l0-0.1l0.1-0.2c0-0.1,0.1-0.3,0.2-0.4c0-0.1,0-0.1,0.1-0.2l0.1-0.3c0.1-0.3,0.2-0.6,0.4-0.8c0.1-0.3,0.3-0.5,0.4-0.7
	c0.4-0.7,0.8-1.3,1.2-1.9L416.9,384.1z M427.2,419.5L427.2,419.5c-0.2,0.1-0.4,0.1-0.6,0h-0.1c-0.1,0-0.1,0-0.2-0.1
	c-0.1-0.1-0.3-0.1-0.4-0.3l-0.1-0.1c-0.3-0.3-0.5-0.7-0.7-1.2c-0.1,0.4-0.2,0.8-0.2,1.2c-0.1,0.7,0.3,1.4,0.9,1.8
	c0.4,0.3,0.7,0.6,0.9,1l0,0l0,0c0,0,0,0,0-0.1l0,0c0,0,0-0.1,0-0.1c0,0,0-0.1,0-0.1c0.1-0.4,0.2-0.8,0.4-1.2l0.2-0.4l0.1-0.1
	c0-0.1,0.1-0.2,0.1-0.2l0.1-0.1l0.1-0.2C427.5,419.4,427.4,419.5,427.2,419.5L427.2,419.5z M416.9,384.1l-1.2-2.9l-0.5,0.1l1.3,2.9
	l9.2,21.2c-0.2,0.3-2.9,3.8-2.8,7.2c0,0.5,0.1,1,0.2,1.5c0.5,1.5,1.1,2.1,1.6,2.3c0-0.1,0-0.2,0-0.3c0-0.3,0-0.7,0-1
	c0,0,0-0.1,0-0.1c0,0,0-0.1,0-0.1l0,0c0,0,0-0.1,0-0.1l0,0l0,0c0,0,0-0.1,0-0.1l0,0c0,0,0-0.1,0-0.1l0,0c0-0.1,0-0.2,0-0.2
	c0,0,0-0.1,0-0.1c0,0,0-0.1,0-0.1l0.1-0.4l0-0.1l0.1-0.2c0-0.1,0.1-0.3,0.2-0.4c0-0.1,0-0.1,0.1-0.2l0.1-0.3
	c0.1-0.3,0.2-0.6,0.4-0.8c0.1-0.3,0.3-0.5,0.4-0.7c0.4-0.7,0.8-1.3,1.2-1.9L416.9,384.1z M427.2,419.5L427.2,419.5
	c-0.2,0.1-0.4,0.1-0.6,0h-0.1c-0.1,0-0.1,0-0.2-0.1c-0.1-0.1-0.3-0.1-0.4-0.3l-0.1-0.1c-0.3-0.3-0.5-0.7-0.7-1.2
	c-0.1,0.4-0.2,0.8-0.2,1.2c-0.1,0.7,0.3,1.4,0.9,1.8c0.4,0.3,0.7,0.6,0.9,1l0,0l0,0c0,0,0,0,0-0.1l0,0c0,0,0-0.1,0-0.1
	c0,0,0-0.1,0-0.1c0.1-0.4,0.2-0.8,0.4-1.2l0.2-0.4l0.1-0.1c0-0.1,0.1-0.2,0.1-0.2l0.1-0.1l0.1-0.2
	C427.5,419.4,427.4,419.5,427.2,419.5L427.2,419.5z M416.9,384.1l-1.2-2.9l-0.5,0.1l1.3,2.9l9.2,21.2c-0.2,0.3-2.9,3.8-2.8,7.2
	c0,0.5,0.1,1,0.2,1.5c0.5,1.5,1.1,2.1,1.6,2.3c0-0.1,0-0.2,0-0.3c0-0.3,0-0.7,0-1c0,0,0-0.1,0-0.1c0,0,0-0.1,0-0.1l0,0
	c0,0,0-0.1,0-0.1l0,0l0,0c0,0,0-0.1,0-0.1l0,0c0,0,0-0.1,0-0.1l0,0c0-0.1,0-0.2,0-0.2c0,0,0-0.1,0-0.1c0,0,0-0.1,0-0.1l0.1-0.4
	l0-0.1l0.1-0.2c0-0.1,0.1-0.3,0.2-0.4c0-0.1,0-0.1,0.1-0.2l0.1-0.3c0.1-0.3,0.2-0.6,0.4-0.8c0.1-0.3,0.3-0.5,0.4-0.7
	c0.4-0.7,0.8-1.3,1.2-1.9L416.9,384.1z M427.2,419.5L427.2,419.5c-0.2,0.1-0.4,0.1-0.6,0h-0.1c-0.1,0-0.1,0-0.2-0.1
	c-0.1-0.1-0.3-0.1-0.4-0.3l-0.1-0.1c-0.3-0.3-0.5-0.7-0.7-1.2c-0.1,0.4-0.2,0.8-0.2,1.2c-0.1,0.7,0.3,1.4,0.9,1.8
	c0.4,0.3,0.7,0.6,0.9,1l0,0l0,0c0,0,0,0,0-0.1l0,0c0,0,0-0.1,0-0.1c0,0,0-0.1,0-0.1c0.1-0.4,0.2-0.8,0.4-1.2l0.2-0.4l0.1-0.1
	c0-0.1,0.1-0.2,0.1-0.2l0.1-0.1l0.1-0.2C427.5,419.4,427.4,419.5,427.2,419.5L427.2,419.5z M416.9,384.1l-1.2-2.9l-0.5,0.1l1.3,2.9
	l9.2,21.2c-0.2,0.3-2.9,3.8-2.8,7.2c0,0.5,0.1,1,0.2,1.5c0.5,1.5,1.1,2.1,1.6,2.3c0-0.1,0-0.2,0-0.3c0-0.3,0-0.7,0-1
	c0,0,0-0.1,0-0.1c0,0,0-0.1,0-0.1l0,0c0,0,0-0.1,0-0.1l0,0l0,0c0,0,0-0.1,0-0.1l0,0c0,0,0-0.1,0-0.1l0,0c0-0.1,0-0.2,0-0.2
	c0,0,0-0.1,0-0.1c0,0,0-0.1,0-0.1l0.1-0.4l0-0.1l0.1-0.2c0-0.1,0.1-0.3,0.2-0.4c0-0.1,0-0.1,0.1-0.2l0.1-0.3
	c0.1-0.3,0.2-0.6,0.4-0.8c0.1-0.3,0.3-0.5,0.4-0.7c0.4-0.7,0.8-1.3,1.2-1.9L416.9,384.1z M427.2,419.5L427.2,419.5
	c-0.2,0.1-0.4,0.1-0.6,0h-0.1c-0.1,0-0.1,0-0.2-0.1c-0.1-0.1-0.3-0.1-0.4-0.3l-0.1-0.1c-0.3-0.3-0.5-0.7-0.7-1.2
	c-0.1,0.4-0.2,0.8-0.2,1.2c-0.1,0.7,0.3,1.4,0.9,1.8c0.4,0.3,0.7,0.6,0.9,1l0,0l0,0c0,0,0,0,0-0.1l0,0c0,0,0-0.1,0-0.1
	c0,0,0-0.1,0-0.1c0.1-0.4,0.2-0.8,0.4-1.2l0.2-0.4l0.1-0.1c0-0.1,0.1-0.2,0.1-0.2l0.1-0.1l0.1-0.2
	C427.5,419.4,427.4,419.5,427.2,419.5L427.2,419.5z M416.9,384.1l-1.2-2.9l-0.5,0.1l1.3,2.9l9.2,21.2c-0.2,0.3-2.9,3.8-2.8,7.2
	c0,0.5,0.1,1,0.2,1.5c0.5,1.5,1.1,2.1,1.6,2.3c0-0.1,0-0.2,0-0.3c0-0.3,0-0.7,0-1c0,0,0-0.1,0-0.1c0,0,0-0.1,0-0.1l0,0
	c0,0,0-0.1,0-0.1l0,0l0,0c0,0,0-0.1,0-0.1l0,0c0,0,0-0.1,0-0.1l0,0c0-0.1,0-0.2,0-0.2c0,0,0-0.1,0-0.1c0,0,0-0.1,0-0.1l0.1-0.4
	l0-0.1l0.1-0.2c0-0.1,0.1-0.3,0.2-0.4c0-0.1,0-0.1,0.1-0.2l0.1-0.3c0.1-0.3,0.2-0.6,0.4-0.8c0.1-0.3,0.3-0.5,0.4-0.7
	c0.4-0.7,0.8-1.3,1.2-1.9L416.9,384.1z M427.2,419.5L427.2,419.5c-0.2,0.1-0.4,0.1-0.6,0h-0.1c-0.1,0-0.1,0-0.2-0.1
	c-0.1-0.1-0.3-0.1-0.4-0.3l-0.1-0.1c-0.3-0.3-0.5-0.7-0.7-1.2c-0.1,0.4-0.2,0.8-0.2,1.2c-0.1,0.7,0.3,1.4,0.9,1.8
	c0.4,0.3,0.7,0.6,0.9,1l0,0l0,0c0,0,0,0,0-0.1l0,0c0,0,0-0.1,0-0.1c0,0,0-0.1,0-0.1c0.1-0.4,0.2-0.8,0.4-1.2l0.2-0.4l0.1-0.1
	c0-0.1,0.1-0.2,0.1-0.2l0.1-0.1l0.1-0.2C427.5,419.4,427.4,419.5,427.2,419.5L427.2,419.5z M416.9,384.1l-1.2-2.9l-0.5,0.1l1.3,2.9
	l9.2,21.2c-0.2,0.3-2.9,3.8-2.8,7.2c0,0.5,0.1,1,0.2,1.5c0.5,1.5,1.1,2.1,1.6,2.3c0-0.1,0-0.2,0-0.3c0-0.3,0-0.7,0-1
	c0,0,0-0.1,0-0.1c0,0,0-0.1,0-0.1l0,0c0,0,0-0.1,0-0.1l0,0l0,0c0,0,0-0.1,0-0.1l0,0c0,0,0-0.1,0-0.1l0,0c0-0.1,0-0.2,0-0.2
	c0,0,0-0.1,0-0.1c0,0,0-0.1,0-0.1l0.1-0.4l0-0.1l0.1-0.2c0-0.1,0.1-0.3,0.2-0.4c0-0.1,0-0.1,0.1-0.2l0.1-0.3
	c0.1-0.3,0.2-0.6,0.4-0.8c0.1-0.3,0.3-0.5,0.4-0.7c0.4-0.7,0.8-1.3,1.2-1.9L416.9,384.1z M427.2,419.5L427.2,419.5
	c-0.2,0.1-0.4,0.1-0.6,0h-0.1c-0.1,0-0.1,0-0.2-0.1c-0.1-0.1-0.3-0.1-0.4-0.3l-0.1-0.1c-0.3-0.3-0.5-0.7-0.7-1.2
	c-0.1,0.4-0.2,0.8-0.2,1.2c-0.1,0.7,0.3,1.4,0.9,1.8c0.4,0.3,0.7,0.6,0.9,1l0,0l0,0c0,0,0,0,0-0.1l0,0c0,0,0-0.1,0-0.1
	c0,0,0-0.1,0-0.1c0.1-0.4,0.2-0.8,0.4-1.2l0.2-0.4l0.1-0.1c0-0.1,0.1-0.2,0.1-0.2l0.1-0.1l0.1-0.2
	C427.5,419.4,427.4,419.5,427.2,419.5L427.2,419.5z M416.9,384.1l-1.2-2.9l-0.5,0.1l1.3,2.9l9.2,21.2c-0.2,0.3-2.9,3.8-2.8,7.2
	c0,0.5,0.1,1,0.2,1.5c0.5,1.5,1.1,2.1,1.6,2.3c0-0.1,0-0.2,0-0.3c0-0.3,0-0.7,0-1c0,0,0-0.1,0-0.1c0,0,0-0.1,0-0.1l0,0
	c0,0,0-0.1,0-0.1l0,0l0,0c0,0,0-0.1,0-0.1l0,0c0,0,0-0.1,0-0.1l0,0c0-0.1,0-0.2,0-0.2c0,0,0-0.1,0-0.1c0,0,0-0.1,0-0.1l0.1-0.4
	l0-0.1l0.1-0.2c0-0.1,0.1-0.3,0.2-0.4c0-0.1,0-0.1,0.1-0.2l0.1-0.3c0.1-0.3,0.2-0.6,0.4-0.8c0.1-0.3,0.3-0.5,0.4-0.7
	c0.4-0.7,0.8-1.3,1.2-1.9L416.9,384.1z M427.2,419.5L427.2,419.5c-0.2,0.1-0.4,0.1-0.6,0h-0.1c-0.1,0-0.1,0-0.2-0.1
	c-0.1-0.1-0.3-0.1-0.4-0.3l-0.1-0.1c-0.3-0.3-0.5-0.7-0.7-1.2c-0.1,0.4-0.2,0.8-0.2,1.2c-0.1,0.7,0.3,1.4,0.9,1.8
	c0.4,0.3,0.7,0.6,0.9,1l0,0l0,0c0,0,0,0,0-0.1l0,0c0,0,0-0.1,0-0.1c0,0,0,0,0-0.1c0.1-0.4,0.2-0.8,0.4-1.2c0.1-0.2,0.2-0.4,0.3-0.6
	c0-0.1,0.1-0.2,0.1-0.2l0.1-0.1l0.1-0.2C427.5,419.4,427.4,419.5,427.2,419.5L427.2,419.5z M416.9,384.1l-1.2-2.9l-0.5,0.1l1.3,2.9
	l9.2,21.2c-0.2,0.3-2.9,3.8-2.8,7.2c0,0.5,0.1,1,0.2,1.5c0.5,1.5,1.1,2.1,1.6,2.3c0-0.1,0-0.2,0-0.3c0-0.3,0-0.7,0-1
	c0,0,0-0.1,0-0.1c0,0,0-0.1,0-0.1l0,0c0,0,0-0.1,0-0.1l0,0v-0.1c0,0,0-0.1,0-0.1l0,0c0,0,0-0.1,0-0.1l0,0c0-0.1,0-0.2,0-0.2
	c0,0,0-0.1,0-0.1c0,0,0-0.1,0-0.1l0.1-0.4l0-0.1l0.1-0.2c0-0.1,0.1-0.3,0.2-0.4c0-0.1,0-0.1,0.1-0.2l0.1-0.3
	c0.1-0.3,0.2-0.6,0.4-0.8c0.1-0.3,0.3-0.5,0.4-0.7c0.4-0.7,0.8-1.3,1.2-1.9L416.9,384.1z M427.2,419.5L427.2,419.5
	c-0.2,0.1-0.4,0.1-0.6,0h-0.1c-0.1,0-0.1,0-0.2-0.1c-0.1-0.1-0.3-0.1-0.4-0.3l-0.1-0.1c-0.3-0.3-0.5-0.7-0.7-1.2
	c-0.1,0.4-0.2,0.8-0.2,1.2c-0.1,0.7,0.3,1.4,0.9,1.8c0.4,0.3,0.7,0.6,0.9,1l0,0l0,0c0,0,0,0,0-0.1l0,0c0,0,0-0.1,0-0.1
	c0,0,0,0,0-0.1c0.1-0.4,0.2-0.8,0.4-1.2c0.1-0.2,0.2-0.4,0.3-0.6c0-0.1,0.1-0.2,0.1-0.2l0.1-0.1l0.1-0.2
	C427.5,419.4,427.4,419.5,427.2,419.5L427.2,419.5z"/>
<path class="st38" d="M463.4,771c0,0,14.1,1.9,21-0.7c6.8-2.6-2.1,11-11.4,14.2c-6.6,2.1-13.3,3.3-20.1,3.7L442,777.1l-11.6,1
	l2,12.3l-3.6,0.4l-1.4-16.1L463.4,771z"/>
<path class="st36" d="M463.4,771c0,0,14.1,1.9,21-0.7c6.8-2.6-2.1,11-11.4,14.2c-6.6,2.1-13.3,3.3-20.1,3.7L442,777.1l-11.6,1
	l2,12.3l-3.6,0.4l-1.4-16.1L463.4,771z"/>
<path class="st38" d="M483.8,799.1c0,0,16.9,4,25.5,1.8c8.5-2.3-3.7,13.1-15.3,15.9c-11.6,2.8-24.8,2-24.8,2l-12-14.9l-14.1-0.3
	l1.2,15.2h-4.4v-19.7H483.8z"/>
<path class="st36" d="M483.8,799.1c0,0,16.9,4,25.5,1.8c8.5-2.3-3.7,13.1-15.3,15.9c-11.6,2.8-24.8,2-24.8,2l-12-14.9l-14.1-0.3
	l1.2,15.2h-4.4v-19.7H483.8z"/>
<path class="st34" d="M421.2,449.1c0,0-29,35-11.6,74.6c0,0,0.9,7.1,0.2,8.3c-0.7,1.3,2.8,17.6,2.8,17.6s0.5,29.7,0,34.8
	s-0.9,7.8-0.9,7.8s-6.5,54.9-4.4,71.3c2.1,16.4,3,45.6,3,45.6l8.6,78.6l44.5-9.1l-20.2-107.9l-0.7-19.2c0,0,8.4-23.4,4.6-35.3
	c-3.7-11.8,0.9-162.8,0.9-162.8L421.2,449.1z"/>
<path class="st32" d="M421.2,449.1c0,0-29,35-11.6,74.6c0,0,0.9,7.1,0.2,8.3c-0.7,1.3,2.8,17.6,2.8,17.6s0.5,29.7,0,34.8
	s-0.9,7.8-0.9,7.8s-6.5,54.9-4.4,71.3c2.1,16.4,3,45.6,3,45.6l8.6,78.6l44.5-9.1l-20.2-107.9l-0.7-19.2c0,0,8.4-23.4,4.6-35.3
	c-3.7-11.8,0.9-162.8,0.9-162.8L421.2,449.1z"/>
<path class="st34" d="M442.5,618.4c5.1,10.6,1.9,36.3,1.9,36.3c-6.7,6.3-3,61.2-3,61.2s-4.6,54.2-7.6,60.5s-2.6,32.3-2.6,32.3
	c34.1,6.8,56.3-7.8,56.3-7.8s-10.9-27-11.1-28.2c-0.1-0.7-1.6,1.2-2,1.8c0.2-0.3,0.8-1.2,2-3.1c4.6-7.1,0-20.7,0-20.7
	s5.8-43.9,3-47.9c-2.8-4,0.5-18.9,2.1-22.4s3.7-11.8,3.7-15.4c0.1-2.7,0.6-5.4,1.4-8.1c7.2-11.1,5.8-29.5,5.8-29.5
	s-0.5-26.5,3.7-47.4c4.2-20.9-5.2-80.1-5.2-80.1s3.1-11.6,0.8-15.9c-1-1.9-0.9-6.5-0.5-10.9c0.6-5.4,1.6-10.6,1.6-10.6l-63.3-12.2
	c-1.3,2.4-2.5,4.7-3.7,7c-20.9,42-6.8,57.6-6.8,57.6l13.4,45C432.5,560,437.4,607.8,442.5,618.4z"/>
<path class="st39" d="M542.9,289.5l9,8.3c0,0,1.8-1.5,4.1-3.8c5.7-5.6,14.8-15.6,11.4-19.9c-4.7-5.8-9.4-2-9.7-1.8
	c0.5-0.6,11-12.8,6.7-11.8c-4.3,1-12.5,11.6-12.5,11.6l-6.5,12.5L542.9,289.5z"/>
<polygon class="st39" points="421.6,425.6 432.3,429.2 424.2,444.5 414.9,431.4 "/>
<ellipse class="st39" cx="446.7" cy="248.2" rx="30.4" ry="33"/>
<path class="st39" d="M464.5,260.3c0,0-27.6,47.6-1.4,51.7c26.2,4.1-35.2,33-35.2,33l-23-25.2c0,0,23.9-44.9,20.2-62
	C421.4,240.7,464.5,260.3,464.5,260.3z"/>
<path class="st36" d="M425.9,457.5c6.1,2,12.4,3.6,18.7,4.7c0,0,34.2,16.5,46.6,11.1c0.6-5.4,1.6-10.6,1.6-10.6l-63.3-12.2
	C428.2,452.9,427,455.2,425.9,457.5z"/>
<path class="st35" d="M394.5,332.9l6.2,13.9l7,15.6l0.9,2.2l8.3,19.5l10.5,24.7c0,0-3.7,4.8-2.6,8.6c1.1,3.5,2.8,2,3,1.8
	c-0.2,0.3-2.4,3.6-0.4,5c2,1.4,1.4,4.8,1.4,4.8s-8.6,15.4-10.2,20.9c-1.6,5.5,26,10.3,26,10.3s39.2,18.9,48.9,9.6
	c9.7-9.3,0-53.2,0-53.2s0-25.2-2.6-27.5c-2.6-2.3-1.3-19.7-1.3-19.7c6.7-13.3,2.1-20.9,2.1-20.9l1.9-34.3c0,0-3-3.5-5.3-3.8
	c-1.5-0.2-2.9-0.2-4.4,0c0,0-1.2-0.5-3-1c-3.7-1.1-9.9-2.7-12.1-1.5c-3.2,1.8-24.1-2.8-24.1-2.8c-9-1.4-18.1-2.4-27.1-2.8
	c-3.1-0.2-6.2,0.1-9.2,1.1c-7.5,2.5-8.9,8.5-8.9,8.5s0.9,5-2.8,11.6C392.9,330,394.5,332.9,394.5,332.9z"/>
<path class="st36" d="M542.9,289.5l9,8.3c0,0,1.8-1.5,4.1-3.8c0.7-8.5-5.9-9.6-10.6-9.4L542.9,289.5z"/>
<path class="st35" d="M489.6,314l3.9,0.3c0,0,9.3,1.3,12.3-1.8c3-3,13.7-4,13.7-4s3-6.6,6.3-8.6c3.2-2,11.1-5.8,11.3-7.8
	c0.2-2,3-5.8,3-5.8s17.4-4.5,14.8,10.3s-16.6,27.7-16.6,27.7s-1.6,8.3-7,10.3c-5.3,2-39.9,19.7-45.4,15.1
	C480.3,345.2,489.6,314,489.6,314z"/>
<path class="st36" d="M396.6,323.5c3.7-6.5,2.8-11.6,2.8-11.6s1.3-6,8.9-8.5c1.5-0.5,3-0.8,4.5-1c-7.4,2.6-8.8,8.4-8.8,8.4
	s0.9,5-2.8,11.6s-2.1,9.3-2.1,9.3l6.2,13.9l7,15.6l1,2.2l8.3,19.4l10.5,24.7c0,0-3.7,4.8-2.6,8.6c1.1,3.5,2.8,2,3,1.8
	c-0.2,0.3-2.4,3.6-0.4,5s1.4,4.8,1.4,4.8s-8.6,15.4-10.2,20.9c-1.6,5.5,26,10.3,26,10.3s27.2,13.1,41.9,12.1
	c-12.5,5.3-46.6-11.1-46.6-11.1s-27.6-4.8-26-10.3s10.2-20.9,10.2-20.9s0.7-3.3-1.4-4.8c-2.1-1.5,0.2-4.7,0.4-5
	c-0.2,0.2-1.9,1.8-3-1.8c-1.2-3.8,2.6-8.6,2.6-8.6L416.9,384l-8.3-19.5l-0.9-2.2l-7-15.6l-6.2-13.9
	C394.6,332.8,392.9,330,396.6,323.5z"/>
<path class="st35" d="M398.7,329.1l-4.2,3.8c-0.8,2.5-1.9,4.8-3.5,6.8c-2.3,2.8-8.6,30.2-8.6,30.2c0.5,1.3,0.5,2.8,0,4
	c-0.9,2,1.9,5,1.9,5s1.4-0.5-0.9,2.3c-2.3,2.8,2.1,6.1,2.1,6.1s19,35.3,22.9,39c3.9,3.8,7.9,13.6,7.9,13.6s8.3-14.1,10.2-14.3
	l-8.1-19.9c0,0-5.6-27.7-9.7-32.8c-4.2-5.1,2.1-22.4,2.1-22.4L398.7,329.1z"/>
<path class="st36" d="M396,380.5c3.5,4.6,9.6,5.5,15,4.8c0.8-0.1,1.6-0.2,2.4-0.4c1.2-0.2,2.4-0.5,3.5-0.9c4.1-1.3,8-3.4,11.5-6.1
	c0.8-0.7,1.6-1.3,2.6-1.6c2.2-0.6,4.3,1.2,5.5,3.2c1.2,2,1.7,4.5,2.9,6.5c2.4,4,7,6,11.4,6.1c4.4,0.1,8.7-1.3,12.9-2.7
	c-3.4-4.6-6.9-9.3-8.3-15c-0.8-3.7-1-7.5-0.7-11.3c1-17.8,6.7-36.6,20.1-47c2.3-1.8,5.1-3.9,5.9-6.6c-3.7-1.1-9.9-2.7-12.1-1.5
	c-3.2,1.8-24.1-2.8-24.1-2.8c-9-1.4-18.1-2.4-27.1-2.8c-3.1-0.2-6.2,0.1-9.2,1.1c1.1,7.6,2.1,15.1,0.8,22.5
	c-0.9,4.6-2.5,9.1-4.6,13.3c-1.2,2.5-2.5,5-3.8,7.5c-3.5,6.9-6.9,13.8-7.5,21.5C392.8,372.6,393.5,377.2,396,380.5z"/>
<path class="st36" d="M441.9,416c-1.8-0.3-3.6-0.9-5.4-0.5c-1.5,0.5-2.9,1.4-4.1,2.6l11.9,0.1c3.1,0,7.7,0.2,10-2.2
	C452.2,413.6,444.9,416.4,441.9,416z"/>
<path class="st3" d="M483.2,244.4c3.7,5.5,4.5,12.7,2.1,19c-1.9,4.9-5.6,8.7-7.8,13.4c-3.5,7.4-3.2,16.2,0.8,23.3
	c0.9,1.2,1.5,2.7,1.9,4.2c0.5,3.8-3.1,6.6-6,8.9c-13.4,10.4-19.1,29.2-20.1,47c-0.3,3.8-0.1,7.6,0.6,11.3c1.4,5.7,4.9,10.4,8.3,15
	c-4.2,1.4-8.5,2.9-12.9,2.7s-9-2-11.4-6.1c-1.2-2-1.8-4.4-2.9-6.5s-3.3-3.8-5.5-3.2c-1,0.3-1.8,0.9-2.6,1.6
	c-5.1,4.1-11.1,6.6-17.4,7.5c-5.4,0.7-11.5-0.3-15-4.8c-2.5-3.3-3.2-7.9-2.8-12.2c1.2-15.3,13.1-27.3,15.8-42.3
	c2.2-12.2-1.8-24.6-2.5-37c-1.1-18.3,5-36.1,11-53.3c1.3-4.3,3.1-8.3,5.3-12.1c5-8,13.8-12.9,22.6-13.8c3.3-0.5,6.6-0.1,9.8,1
	c3.2,1.3,5.8,3.8,8.4,6.2c5.8,5.4,11.7,11.1,15,18.5c1.3,3.1,2.2,6.3,3.8,9.3L483.2,244.4z"/>
<g class="st40">
	<path d="M477.7,237.7c-1.5-3-2.4-6.2-3.8-9.3c-1.3-2.8-2.9-5.5-4.8-7.9c3.5,3.5,6.3,7.6,8.5,12.2c1.3,3,2.2,6.1,3.6,9l-1.8-1.7
		c0.5,0.7,0.9,1.4,1.3,2.2C479.5,240.9,478.5,239.3,477.7,237.7z"/>
	<path d="M406.4,378c6.3-0.8,12.3-3.4,17.4-7.4c0.8-0.7,1.6-1.3,2.6-1.6c2.2-0.6,4.3,1.2,5.5,3.2c0.2,0.4,0.5,0.9,0.7,1.4
		c-0.8-0.4-1.6-0.5-2.4-0.3c-1,0.3-1.8,0.9-2.6,1.6c-5.1,4.1-11.1,6.6-17.4,7.5c-5.4,0.7-11.5-0.3-15-4.8c-0.4-0.6-0.8-1.2-1.2-1.9
		C397.4,378.1,402.1,378.6,406.4,378z"/>
	<path d="M446.2,384.8c4.4,0.1,8.7-1.3,12.9-2.7c-3.4-4.6-6.9-9.3-8.3-15c-0.8-3.7-1-7.5-0.7-11.3c1-17.8,6.7-36.6,20.1-47
		c2.9-2.3,6.6-5,6-8.9c-0.4-1.5-1-2.9-1.9-4.2c-3.9-7.1-4.2-15.9-0.8-23.3c2.3-4.7,5.9-8.5,7.9-13.4c2.1-5.4,1.8-11.6-0.8-16.8
		c0.6,0.7,1.3,1.4,2,2c0.5,0.8,1.1,1.5,1.7,2.2c2.6,5.2,2.9,11.4,0.8,16.8c-1.9,4.9-5.6,8.7-7.8,13.4c-3.5,7.4-3.2,16.2,0.8,23.3
		c0.9,1.2,1.5,2.7,1.9,4.2c0.5,3.8-3.1,6.6-6,8.9c-13.4,10.4-19.1,29.2-20.1,47c-0.3,3.8-0.1,7.6,0.6,11.3c1.4,5.7,4.9,10.4,8.3,15
		c-4.2,1.4-8.5,2.9-12.9,2.7c-4.4-0.1-9-2-11.4-6.1c-0.2-0.3-0.3-0.5-0.4-0.8C440.5,383.8,443.3,384.7,446.2,384.8z"/>
</g>
<path class="st41" d="M306.7,151.7v21.5h-86c2.6-3.9,5.3-7.8,8-11.7c0.4-0.5,0.8-1,1.2-1.6l4-5.5l0,0l0.6-0.7l0,0l1.5-1.9
	L306.7,151.7z"/>
<rect x="394.2" y="151.7" class="st41" width="90.3" height="21.5"/>
<rect x="601.7" y="151.7" class="st41" width="90.3" height="21.5"/>
<rect x="777.1" y="151.7" class="st41" width="90.3" height="21.5"/>
</svg>
