<?xml version="1.0" encoding="utf-8"?>
<!-- Generator: Adobe Illustrator 22.1.0, SVG Export Plug-In . SVG Version: 6.00 Build 0)  -->
<svg version="1.1" id="a6f4e524-a1b8-434a-a0ca-43acb27f4769"
	 xmlns="http://www.w3.org/2000/svg" xmlns:xlink="http://www.w3.org/1999/xlink" x="0px" y="0px" viewBox="0 0 1110.5 857.7"
	 style="enable-background:new 0 0 1110.5 857.7;" xml:space="preserve">
<style type="text/css">
	.st0{opacity:0.1;fill:#241C15;enable-background:new    ;}
	.st1{fill:#FFFFFF;}
	.st2{opacity:0.7;fill:none;stroke:#3F3D56;stroke-linecap:round;stroke-miterlimit:10;enable-background:new    ;}
	.st3{fill:#3F3D56;}
	.st4{opacity:0.1;enable-background:new    ;}
	.st5{fill:#241C15;}
	.st6{fill:#434175;}
	.st7{fill:url(#SVGID_1_);}
	.st8{opacity:0.3;fill:#241C15;enable-background:new    ;}
	.st9{fill:url(#SVGID_2_);}
	.st10{opacity:0.3;}
	.st11{fill:#3ACC6C;}
	.st12{opacity:0.3;fill:#407D3B;enable-background:new    ;}
	.st13{opacity:0.1;}
	.st14{fill:url(#SVGID_3_);}
	.st15{fill:#4C4981;}
	.st16{fill:#AE6E79;}
	.st17{fill:#444053;}
	.st18{fill:#65617D;}
</style>
<title>prototyping process</title>
<ellipse class="st0" cx="233.9" cy="838" rx="143.4" ry="13.4"/>
<path class="st0" d="M1110.5,504.3c0.1,42.1-8.7,83.4-25.4,119.5c0,44.1-15.7,84-41.1,113.1c-6.4,7.3-13.2,13.8-20.5,19.4
	c-0.3,0.2-0.6,0.5-0.9,0.7c-0.5,0.4-1.1,0.8-1.6,1.3l-0.5,0.4l0,0c-24.1,17.6-51.2,26.7-78.7,26.5h-731c-5.8,0-11.6-0.3-17.3-0.9
	c-20.3-2.1-40.3-8.2-59.3-18c-3.7-1.9-7.3-4-10.9-6.2c-1.7-1-3.4-2.1-5-3.2c-1-0.7-2.1-1.4-3.1-2.1c-12-8.3-23.2-18.2-33.4-29.8
	c-33-37.2-53.5-88.6-53.5-145.3C9.7,542.3-0.1,498.6,0,454c0-126.2,76.9-228.4,171.8-228.4c2.9,0,5.8,0.1,8.7,0.3
	c0.4,0,0.8,0,1.2,0.1c16-35.7,37.4-68.6,63.1-97.5C315,49.7,417.5,0,531.7,0c95.9,0,183.6,35.1,250.8,93
	c25.4-18.8,54.2-28.7,83.4-28.6c94.9,0,171.8,102.3,171.8,228.4c0,8-0.3,16-1,23.9C1083.1,359.8,1110.6,429.7,1110.5,504.3z"/>
<path class="st1" d="M929.9,151.9v609.8c0,12.9-8,23.5-17.8,23.5c0,0,0,0,0,0H198.4c-1.7,0-3.3-0.3-4.9-0.9
	c-7.7-2.9-13-12.1-12.9-22.6V489.6c0-1.4,0-2.8,0-4.1V225.9c0.4,0,0.8,0,1.2,0.1c16-35.7,37.4-68.6,63.1-97.5H912
	C921.9,128.5,929.9,139,929.9,151.9z"/>
<line class="st2" x1="252.4" y1="306.6" x2="885.3" y2="306.6"/>
<line class="st2" x1="252.4" y1="460" x2="885.3" y2="460"/>
<line class="st2" x1="252.4" y1="613.3" x2="885.3" y2="613.3"/>
<line class="st2" x1="252.4" y1="770.5" x2="885.3" y2="770.5"/>
<ellipse class="st0" cx="934.8" cy="844.3" rx="143.4" ry="13.4"/>
<path class="st3" d="M517,207.7h98.9c9.6,0,17.5,10.2,17.5,22.9l0,0c0,12.6-7.8,22.9-17.5,22.9H517c-9.6,0-17.5-10.2-17.5-22.9l0,0
	C499.6,217.9,507.4,207.7,517,207.7z"/>
<path class="st4" d="M519.9,215.3H613c6.4,0,11.6,6.8,11.6,15.2v0c0,8.4-5.2,15.2-11.6,15.2h-93.1c-6.4,0-11.6-6.8-11.6-15.2v0
	C508.3,222.2,513.5,215.3,519.9,215.3z"/>
<path class="st5" d="M590.1,217h21.3c5.7,0,10.3,6.1,10.3,13.6v0c0,7.5-4.6,13.6-10.3,13.6h-21.3c-5.7,0-10.3-6.1-10.3-13.6v0
	C579.7,223.1,584.3,217,590.1,217z"/>
<ellipse class="st1" cx="600.4" cy="230.6" rx="6.5" ry="8.5"/>
<path class="st3" d="M517,509.3h98.9c9.6,0,17.5,10.2,17.5,22.9v0c0,12.6-7.8,22.9-17.5,22.9H517c-9.6,0-17.5-10.2-17.5-22.9v0
	C499.6,519.6,507.4,509.3,517,509.3z"/>
<path class="st4" d="M519.9,517H613c6.4,0,11.6,6.8,11.6,15.2l0,0c0,8.4-5.2,15.2-11.6,15.2h-93.1c-6.4,0-11.6-6.8-11.6-15.2l0,0
	C508.3,523.8,513.5,517,519.9,517z"/>
<path class="st5" d="M590.1,518.7h21.3c5.7,0,10.3,6.1,10.3,13.6v0c0,7.5-4.6,13.6-10.3,13.6h-21.3c-5.7,0-10.3-6.1-10.3-13.6v0
	C579.7,524.7,584.3,518.7,590.1,518.7z"/>
<ellipse class="st1" cx="600.4" cy="532.2" rx="6.5" ry="8.5"/>
<path class="st3" d="M517,660.2h98.9c9.6,0,17.5,10.2,17.5,22.9v0c0,12.6-7.8,22.9-17.5,22.9H517c-9.6,0-17.5-10.2-17.5-22.9v0
	C499.6,670.4,507.4,660.2,517,660.2z"/>
<path class="st4" d="M519.9,667.8H613c6.4,0,11.6,6.8,11.6,15.2v0c0,8.4-5.2,15.2-11.6,15.2h-93.1c-6.4,0-11.6-6.8-11.6-15.2v0
	C508.3,674.7,513.5,667.8,519.9,667.8z"/>
<path class="st5" d="M590.1,669.5h21.3c5.7,0,10.3,6.1,10.3,13.6v0c0,7.5-4.6,13.6-10.3,13.6h-21.3c-5.7,0-10.3-6.1-10.3-13.6v0
	C579.7,675.6,584.3,669.5,590.1,669.5z"/>
<ellipse class="st1" cx="600.4" cy="683.1" rx="6.5" ry="8.5"/>
<path class="st3" d="M517,358.5h98.9c9.6,0,17.5,10.2,17.5,22.9v0c0,12.6-7.8,22.9-17.5,22.9H517c-9.6,0-17.5-10.2-17.5-22.9v0
	C499.6,368.8,507.4,358.5,517,358.5z"/>
<path class="st4" d="M519.9,366.2H613c6.4,0,11.6,6.8,11.6,15.2l0,0c0,8.4-5.2,15.2-11.6,15.2h-93.1c-6.4,0-11.6-6.8-11.6-15.2l0,0
	C508.3,373,513.5,366.2,519.9,366.2z"/>
<path class="st5" d="M542.9,395h-21.3c-5.7,0-10.3-6.1-10.3-13.6v0c0-7.5,4.6-13.6,10.3-13.6h21.3c5.7,0,10.3,6.1,10.3,13.6v0
	C553.2,388.9,548.6,395,542.9,395z"/>
<ellipse class="st1" cx="532.5" cy="381.4" rx="6.5" ry="8.5"/>
<path class="st6" d="M368.4,230.3c0,21.1-8.4,40.6-22.2,51.4l-0.6,0.5l-1.2,0.9l0,0l-1.1,0.8l-0.2,0.1c-0.5,0.3-0.9,0.6-1.4,0.9
	c-1.5,0.9-3.1,1.7-4.7,2.4c-1.1,0.4-2.1,0.9-3.2,1.2c-2.2,0.7-4.5,1.2-6.7,1.5c-1.4,0.2-2.8,0.3-4.2,0.3c-1.7,0-3.4-0.1-5-0.4h-0.3
	c-0.6-0.1-1.1-0.2-1.7-0.3c-1.8-0.4-3.6-0.9-5.4-1.5l-0.9-0.3l-0.8-0.3l-0.3-0.1c-1.6-0.7-3.1-1.5-4.7-2.4l0,0
	c-2.6-1.6-5.1-3.4-7.4-5.6l-0.1-0.1l-0.1-0.1l-0.8-0.8l-0.6-0.6c-1.2-1.3-2.4-2.6-3.5-4c-1-1.3-2-2.7-3-4.2
	c-16.4-25-14.3-62.8,4.8-84.3c19.1-21.5,47.9-18.7,64.3,6.3C364.5,202.2,368.4,216,368.4,230.3z"/>
<linearGradient id="SVGID_1_" gradientUnits="userSpaceOnUse" x1="344.0876" y1="454.7823" x2="344.0876" y2="539.9926" gradientTransform="matrix(1 0 0 -1 -28 744.96)">
	<stop  offset="0" style="stop-color:#808080;stop-opacity:0.25"/>
	<stop  offset="0.54" style="stop-color:#808080;stop-opacity:0.12"/>
	<stop  offset="1" style="stop-color:#808080;stop-opacity:0.1"/>
</linearGradient>
<path class="st7" d="M344.3,282.9L344.3,282.9l-1.2,0.5c-0.6,0-1.3-0.2-1.8-0.8l-0.4-0.5c-0.2-0.4-0.5-0.6-0.9-0.6H340
	c-0.1,0-0.3,0-0.4,0c0,0-0.1,0-0.1,0c-0.1-0.1-0.2-0.3-0.2-0.5c-0.2-1.1-0.4-2.3-0.5-3.5c-0.1-1.3-0.1-2.5,0-3.8c0-1,0-2,0-3
	c0.1-1.1,0.2-2.3,0.2-3.4c0-1.2,0-2.4-0.3-3.6c-0.1-0.7-0.3-1.3-0.5-1.9l0,0c-0.2-1.7-0.3-3.4-0.5-5.1c-0.1-1.3-0.3-2.5-0.5-3.8
	c0-0.2,0.1-0.4,0.1-0.6c0.2-2.1-0.4-4.2-1.7-5.6c-0.4-0.4-0.8-0.8-1.2-1c-0.4-0.2-0.7-0.4-1.1-0.5l-6.1-2.5
	c-0.6-1.1-1.1-2.2-1.6-3.4c-0.5-1-0.9-2.1-1.3-3.2c4.1-4.1,5.2-11.6,2.5-17.4c-0.1-0.2-0.2-0.4-0.3-0.6l0,0c0-1,0-2-0.3-3
	c0,0,0-0.1,0-0.1c-0.1-0.8-0.4-1.5-0.8-2.1l-0.2-0.3c-0.1-0.1-0.2-0.3-0.3-0.4c-0.4-0.5-0.9-1-1.3-1.5c-2-2-4.7-4.4-7.2-5.2
	c-1.2-0.4-2.5-0.4-3.7,0l0,0l-0.2-0.1l-0.4-0.1l0.3,0.2c-1.3-0.4-2.7-0.4-4,0.1c-1.6,0.6-2.2,2.4-2.8,4.3c-1.1,3-2.8,5.6-4.9,7.5
	c-1.3,1.2-2.9,2.2-3.6,4.2c-0.6,2-0.2,4-0.1,6c0.4,5.5-1.4,10.8-4.6,14.3c-1.8,1.9-4.2,3.5-4.6,6.6c-0.3,2.2,0.6,4.3,1.3,6.3
	c1.4,4.3,1.9,9.4,0.2,13.5c-0.2,0.4-0.3,0.8-0.5,1.1c0.9,1.5,1.9,2.9,2.9,4.2c1.1,1.4,2.3,2.8,3.5,4.1l0.6,0.6l0.8,0.8l0.1,0.1
	l0.1,0.1c2.3,2.2,4.7,4.1,7.3,5.7c0-0.1,0-0.1,0.1-0.2c0,0.1,0,0.2,0,0.3c1.5,0.9,3,1.7,4.6,2.4l0.2,0.1l0.8,0.3l0.9,0.3
	c1.7,0.7,3.5,1.2,5.3,1.6c0.6,0.1,1.1,0.2,1.7,0.3h0.3c1.6,0.2,3.3,0.4,5,0.4c1.4,0,2.8-0.1,4.1-0.3c2.2-0.3,4.5-0.8,6.6-1.5
	c0.3-0.1,0.5-0.2,0.8-0.3c0.8-0.3,1.6-0.6,2.4-0.9c1.6-0.7,3.2-1.5,4.7-2.4c0.5-0.3,1-0.6,1.4-0.9l0.2-0.1l1.1-0.8l0,0
	C344.3,283,344.3,282.9,344.3,282.9z M305.4,281.1c0-0.1,0-0.2,0-0.3c0-0.3,0-0.7,0-1c0-0.2,0.1-0.4,0.2-0.6c0,0.2,0,0.4,0,0.6
	C305.6,280.3,305.6,280.7,305.4,281.1z"/>
<path class="st8" d="M344.3,283L344.3,283l-1.2,0.5c-0.7,0-1.3-0.2-1.8-0.8c-0.1-0.1-0.3-0.3-0.4-0.5c-0.2-0.4-0.6-0.6-0.9-0.6H340
	c-0.1,0-0.3,0-0.4,0c0,0-0.1,0-0.1,0c-0.1-0.1-0.2-0.3-0.2-0.5c-0.2-1.1-0.4-2.3-0.5-3.4c-0.1-1.3-0.1-2.5,0-3.8c0-1,0-2,0-3l0,0
	c0.1-1.1,0.2-2.3,0.2-3.4c0-1.2,0-2.4-0.3-3.6c-0.1-0.6-0.3-1.3-0.6-1.9l0,0c-0.2-1.7-0.3-3.4-0.5-5.1c-0.1-1.3-0.3-2.5-0.5-3.8
	c0-0.2,0.1-0.4,0.1-0.6c0.2-2.1-0.4-4.2-1.7-5.5c-0.4-0.4-0.8-0.7-1.3-1c-0.4-0.2-0.8-0.4-1.1-0.5l-6.2-2.5
	c-0.6-1.1-1.1-2.2-1.7-3.3c-0.5-1-0.9-2.1-1.3-3.2c4.2-3.9,5.3-11.4,2.6-17.1c-0.1-0.2-0.2-0.4-0.3-0.6l0,0c0-1,0-2-0.3-2.9
	c0,0,0-0.1,0-0.1c0-0.3-0.1-0.6-0.2-0.9c-0.2-0.4-0.4-0.8-0.6-1.2l-0.2-0.3c-0.1-0.1-0.2-0.3-0.3-0.4c-0.4-0.5-0.9-1-1.4-1.4
	c-2-2-4.8-4.3-7.3-5.1c-1.2-0.4-2.5-0.4-3.8,0l0,0l-0.2-0.1l-0.4-0.1l0.3,0.2c-1.3-0.4-2.7-0.4-4,0.1c-1.6,0.6-2.2,2.3-2.9,4.2
	c-1.1,3-2.8,5.5-4.9,7.4c-1.3,1.2-2.9,2.2-3.6,4.2c-0.7,2-0.2,3.9-0.1,5.9c0.3,5.4-1.4,10.8-4.7,14.1c-1.8,1.9-4.3,3.4-4.7,6.5
	c-0.3,2.2,0.6,4.2,1.3,6.2c1.5,4.2,1.9,9.3,0.2,13.3c-0.2,0.4-0.3,0.7-0.5,1.1c0.9,1.5,1.9,2.8,3,4.2c1.1,1.4,2.3,2.8,3.5,4l0.6,0.6
	l0.8,0.8l0.1,0.1l0.1,0.1c2.3,2.2,4.8,4.1,7.4,5.6c0-0.1,0-0.1,0.1-0.2c0.1-0.2,0.1-0.4,0.2-0.7c0.4-0.8,0.7-1.6,0.9-2.5
	c0-0.1,0-0.2,0-0.3c0-0.3,0-0.7,0-1c0-0.2,0.1-0.4,0.2-0.5c0.1-0.3,0.3-0.5,0.4-0.8c0.1-0.1,0.1-0.3,0.2-0.4l0,0
	c0.1,0.2,0.2,0.4,0.3,0.6c0.3,0.7,0.7,1.4,1,2.1c0.3,0.5,0.5,1,0.5,1.6c-0.1,0.3-0.1,0.7,0,1.1c0.1,0.4,0.6,0.8,0.4,1.3
	c-0.2,0.5-0.2,1,0,1.5c0.1,0.3,0.3,0.5,0.4,0.7l0.3,0.1l0.8,0.3l0.9,0.3c1.8,0.7,3.6,1.2,5.4,1.5c0.6,0.1,1.1,0.2,1.7,0.3h0.3
	c1.7,0.2,3.3,0.4,5,0.4c1.4,0,2.8-0.1,4.2-0.3c2.3-0.3,4.5-0.8,6.7-1.5c0.3-0.1,0.5-0.2,0.8-0.3c0.8-0.3,1.6-0.6,2.4-0.9
	c1.6-0.7,3.2-1.5,4.7-2.4c0.5-0.3,1-0.6,1.4-0.9l0.2-0.1L344.3,283L344.3,283L344.3,283z"/>
<path class="st6" d="M367.4,381.8c0,10-1.9,19.9-5.6,28.7c-0.8,1.9-1.6,3.6-2.5,5.4c-0.9,1.8-1.9,3.5-3,5.1
	c-0.1,0.1-0.1,0.2-0.2,0.3c-0.4,0.6-0.8,1.3-1.3,1.9l-0.5,0.7c-0.5,0.7-1,1.3-1.6,2c-0.1,0.1-0.1,0.2-0.2,0.2
	c-0.2,0.3-0.5,0.6-0.8,0.9c-1.4,1.6-2.8,3-4.3,4.4c-0.8,0.7-1.5,1.3-2.3,2l-0.6,0.5l-1.2,0.9l0,0l-0.8,0.5l-0.3,0.2l-0.2,0.1
	c-0.3,0.2-0.6,0.4-1,0.6c-0.2,0.1-0.3,0.2-0.5,0.3l-1,0.5c-0.9,0.5-1.7,0.9-2.6,1.3l0,0l-1.2,0.5h-0.1c-0.1,0-0.2,0.1-0.3,0.1
	l-0.2,0.1l-0.7,0.3l-0.2,0.1l-0.3,0.1l-0.4,0.1c-0.1,0-0.2,0.1-0.3,0.1l-0.7,0.2l0,0c-0.5,0.2-1,0.3-1.5,0.4c-1.7,0.5-3.4,0.8-5.2,1
	c-1.3,0.2-2.6,0.2-4,0.3h-0.3c-1.3,0-2.5-0.1-3.8-0.2l-1.1-0.1h-0.3h-0.2l-1.5-0.3l-1.2-0.3l-0.3-0.1c-0.6-0.1-1.1-0.3-1.7-0.5
	c0,0-0.1,0-0.1,0c-0.7-0.2-1.3-0.4-2-0.7l-0.9-0.3l-0.8-0.3l-0.3-0.1l0,0c-1.6-0.7-3.1-1.5-4.6-2.4l0,0c-1-0.6-2.1-1.3-3.1-2
	l-0.4-0.3l-0.7-0.5l-0.4-0.3c-1-0.8-1.9-1.6-2.9-2.5l-0.1-0.1l-0.1-0.1l-0.8-0.8l-0.6-0.6c-1.2-1.3-2.4-2.6-3.5-4
	c-1-1.3-2-2.7-3-4.2c-16.4-25.1-14.2-62.8,4.9-84.3s47.9-18.7,64.3,6.4C363.5,353.7,367.4,367.5,367.4,381.8z"/>
<linearGradient id="SVGID_2_" gradientUnits="userSpaceOnUse" x1="346.8307" y1="303.4195" x2="346.8307" y2="381.054" gradientTransform="matrix(1 0 0 -1 -28 744.96)">
	<stop  offset="0" style="stop-color:#808080;stop-opacity:0.25"/>
	<stop  offset="0.54" style="stop-color:#808080;stop-opacity:0.12"/>
	<stop  offset="1" style="stop-color:#808080;stop-opacity:0.1"/>
</linearGradient>
<path class="st9" d="M340.7,435c-0.1-0.1-0.2-0.3-0.2-0.4c-0.1-0.1-0.1-0.2-0.2-0.2c-0.7-0.7-1-1.7-0.9-2.8c0-0.1,0-0.2,0-0.3
	c-0.3-1.3-0.6-2.6-1.1-3.8c-0.2-0.7-0.5-1.7-0.8-2.7c-0.3-1.3-0.6-2.4-0.6-2.4s0-0.1,0-0.3c-0.1-0.8-0.4-3.1-0.7-5.2
	c0-0.1,0-0.2,0-0.4c-0.4-2.7-3.8-9.9-3.8-9.9l0,0c0-0.1-0.1-0.2-0.1-0.2c-0.8-0.5-3.4-2.4-3.4-2.4c-1.9-3.2-3.8-4-5.1-4h-0.2h-0.3
	c-0.1,0-0.2,0-0.3,0c-0.2,0-0.3,0.1-0.5,0.2l-0.2,0.1c-0.1,0-0.2,0.1-0.3,0.1l-0.1,0.6c-0.1-1.5,0-3.1,0.3-4.6l0.1-0.4
	c0.2,0,0.4,0,0.6,0c5.3-0.1,9.5-5.8,9.4-12.7c0-1.1-0.1-2.2-0.4-3.3c0-0.1,0-0.1,0-0.2l0.3-0.2c1.1-0.6,2.6,0.4,3.6-0.6
	c0.3-0.5,0.6-1,0.7-1.6c0.3-0.8,0.4-1.7,0.5-2.6c0-0.3,0-0.5,0-0.8v-0.2c0,0,0,0,0,0.1c0-0.6-0.2-1.2-0.5-1.6
	c-0.6-1-1.6-1.2-2.4-1.9c-0.6-0.7-1.2-1.5-1.5-2.4c-0.4-0.9-0.9-1.8-1.5-2.5c-0.6-0.7-1.5-0.9-2.3-0.5c-0.2,0.2-0.5,0.4-0.7,0.5
	c-0.3,0-0.6-0.1-0.8-0.3c-2.7-1.7-5.8-1.4-8.7-0.9c-1.2,0.1-2.3,0.5-3.4,1.1c-1.1,0.6-2,1.9-2.3,3.4c-0.2,1.2-0.1,2.5-0.3,3.7
	c-0.2,0.8-0.6,1.5-0.8,2.3c-0.1,0.4-0.2,0.9-0.2,1.3c0,0,0,0,0-0.1s0,0.2,0,0.3v0.6c0.1,1.6,0.4,3.1,0.7,4.6c0.3,2.5,0.2,5.2,1,7.5
	c0.1,0.3,0.2,0.6,0.3,0.8c-0.3,0.8-0.6,1.6-0.9,2.4l0,0c-0.1-0.1-0.3-0.1-0.4-0.1h-0.2h-0.2c-0.1,0-0.2,0-0.3,0l0,0
	c-0.1,0-0.2,0.1-0.2,0.1l-0.1,0.1l-0.1,0.1c0,0-0.1,0.1-0.1,0.2c0,0,0,0.1,0,0.1c-0.1,0.2-0.1,0.3-0.1,0.5l0,0c0,0,0,0.1,0,0.1
	c0,0.3,0,0.5-0.1,0.8s0,0.3,0,0.5c0,0.1,0,0.3,0,0.4v0.1c0,0.2,0,0.3-0.1,0.5l-0.1,0.6l-0.1,0.2c-0.1,0.2-0.1,0.3-0.2,0.5l0,0
	l-0.3,0.4c-0.1,0.1-0.2,0.3-0.2,0.5l0,0l0,0l-0.1,0.2c-0.1,0-0.1,0-0.2,0.1c-0.1-0.2-0.3-0.2-1.2,1.1c-1.1,1.6-2.4,2.9-3.9,3.9
	c0,0-5.7,5.3-6,7.8c-0.3,2.5-2.1,13.1-1.2,16.6c0.1,0.5,0.4,1.2,0.7,2v0.1c0,0,0.3,1.4,0.7,3.5c0.1,0.1,0.2,0.2,0.4,0.3l0.7,0.5
	l0.4,0.3c1,0.7,2,1.4,3.1,2l0,0c1.5,0.9,3,1.7,4.6,2.4l0,0l0.3,0.1l0.8,0.3l0.9,0.3c0.7,0.2,1.3,0.5,2,0.7c0,0,0.1,0,0.1,0
	c0.6,0.2,1.1,0.3,1.7,0.5l0.3,0.1l1.2,0.3l1.5,0.3h0.2h0.3l1.1,0.1c1.3,0.1,2.5,0.2,3.8,0.2h0.3c1.3,0,2.7-0.1,4-0.3
	c1.7-0.2,3.5-0.6,5.2-1c0.5-0.1,1-0.3,1.5-0.5l0,0l0.7-0.2c0.1,0,0.2-0.1,0.3-0.1l0.4-0.1l0.3-0.1l0.2-0.1l0.7-0.3l0.2-0.1
	c0.1,0,0.2-0.1,0.3-0.1h0.1l1.2-0.5l0,0c0.9-0.4,1.8-0.9,2.6-1.4l1-0.5c0.2-0.1,0.3-0.2,0.5-0.3C341,435.5,340.9,435.2,340.7,435z
	 M321.9,401.3L321.9,401.3L321.9,401.3L321.9,401.3L321.9,401.3L321.9,401.3z"/>
<path class="st8" d="M340.7,435.1c-0.1-0.1-0.2-0.2-0.2-0.4c-0.1-0.1-0.1-0.2-0.2-0.2c-0.7-0.6-1-1.7-0.9-2.8c0-0.1,0-0.2,0-0.3
	c-0.3-1.3-0.6-2.5-1.1-3.7c-0.2-0.7-0.5-1.7-0.8-2.6c-0.3-1.3-0.6-2.4-0.6-2.4l0-0.3c-0.1-0.8-0.4-3-0.7-5.1c0-0.1,0-0.2,0-0.4
	c-0.4-2.7-3.8-9.8-3.8-9.8l0,0c0-0.1-0.1-0.2-0.1-0.2c-0.8-0.5-3.4-2.4-3.4-2.4c-1.9-3.2-3.8-4-5.1-4h-0.2h-0.3c-0.1,0-0.2,0-0.3,0
	c-0.2,0-0.3,0.1-0.5,0.2l-0.2,0.1c-0.1,0-0.2,0.1-0.3,0.1l-0.1,0.6c-0.1-1.5,0-3.1,0.3-4.6c0-0.1,0.1-0.3,0.1-0.4c0.2,0,0.4,0,0.6,0
	c5.2,0,9.4-5.5,9.4-12.3v0c0-1.2-0.1-2.3-0.4-3.4v-0.2l0.2-0.1c1.1-0.6,2.6,0.4,3.6-0.6c0.3-0.4,0.6-1,0.7-1.6
	c0.3-0.8,0.4-1.7,0.5-2.5c0-0.3,0-0.5,0-0.8v-0.2c0,0,0,0,0,0.1c0-0.6-0.2-1.1-0.5-1.6c-0.6-1-1.6-1.2-2.4-1.9
	c-0.6-0.6-1.2-1.5-1.5-2.4c-0.4-0.9-0.9-1.8-1.5-2.4c-0.6-0.7-1.5-0.9-2.3-0.5c-0.2,0.2-0.5,0.4-0.7,0.5c-0.3,0-0.6-0.1-0.8-0.3
	c-2.7-1.7-5.8-1.4-8.7-0.9c-1.2,0.1-2.3,0.5-3.4,1.1c-1.1,0.6-1.9,1.8-2.3,3.3c-0.2,1.2-0.1,2.5-0.3,3.6c-0.2,0.8-0.6,1.5-0.8,2.3
	c-0.1,0.4-0.2,0.8-0.2,1.3c0,0,0,0,0-0.1s0,0.2,0,0.3v0.6c0.1,1.5,0.4,3.1,0.7,4.6c0.3,2.4,0.2,5.1,1,7.4c0.1,0.3,0.2,0.5,0.3,0.8
	c-0.3,0.8-0.6,1.6-0.9,2.3l0,0c-0.1-0.1-0.3-0.1-0.4-0.1h-0.2h-0.2c-0.1,0-0.2,0-0.3,0l0,0c-0.1,0-0.2,0.1-0.2,0.1l-0.1,0.1
	l-0.1,0.1c0,0-0.1,0.1-0.1,0.2c0,0,0,0.1,0,0.1c-0.1,0.2-0.1,0.3-0.1,0.5l0,0c0,0,0,0.1,0,0.1c0,0.3,0,0.5-0.1,0.8s0,0.3,0,0.5
	s0,0.3,0,0.4s0,0.1,0,0.1s0,0.3-0.1,0.5l-0.1,0.6l-0.1,0.2c-0.1,0.2-0.1,0.3-0.2,0.5l0,0c-0.1,0.1-0.1,0.1-0.2,0.2
	c-0.1,0.1-0.2,0.3-0.2,0.5l0,0l0,0l-0.1,0.2c-0.1,0-0.1,0-0.2,0.1c-0.1-0.2-0.3-0.2-1.2,1.1c-1.1,1.6-2.4,2.9-3.9,3.9
	c0,0-5.7,5.3-6,7.6c-0.3,2.4-2.1,12.9-1.2,16.4c0.1,0.5,0.4,1.2,0.7,2v0.1c0,0,0.3,1.4,0.7,3.5l0.4,0.3l0.7,0.5l0.4,0.3
	c1,0.7,2,1.4,3.1,2l0,0c1.5,0.9,3,1.7,4.6,2.4l0,0l0.3,0.1l0.8,0.3l0.9,0.3c0.7,0.2,1.3,0.5,2,0.7c0,0,0.1,0,0.1,0
	c0.6,0.2,1.1,0.3,1.7,0.5l0.3,0.1l1.2,0.3l1.5,0.3h0.2h0.3l1.1,0.1c1.3,0.1,2.5,0.2,3.8,0.2h0.3c1.3,0,2.7-0.1,4-0.3
	c1.7-0.2,3.5-0.5,5.2-1c0.5-0.1,1-0.3,1.5-0.4l0,0l0.7-0.2c0.1,0,0.2-0.1,0.3-0.1l0.4-0.1l0.3-0.1l0.2-0.1l0.7-0.3l0.2-0.1
	c0.1,0,0.2-0.1,0.3-0.1h0.1l1.2-0.5l0,0c0.9-0.4,1.8-0.9,2.6-1.3l1-0.5c0.2-0.1,0.3-0.2,0.5-0.3C341,435.4,340.9,435.2,340.7,435.1z
	 M321.9,401.8L321.9,401.8L321.9,401.8L321.9,401.8L321.9,401.8L321.9,401.8z"/>
<path class="st6" d="M368.4,531.9c0,10-1.9,19.9-5.6,28.7c-0.8,1.9-1.6,3.6-2.5,5.4c-0.9,1.8-1.9,3.5-3,5.1
	c-0.1,0.1-0.1,0.2-0.2,0.3c-0.4,0.6-0.8,1.3-1.3,1.9l-0.5,0.7c-0.5,0.7-1,1.3-1.6,2c-0.1,0.1-0.1,0.2-0.2,0.2
	c-0.2,0.3-0.5,0.6-0.8,0.9c-1.4,1.6-2.8,3-4.3,4.4c-0.8,0.7-1.5,1.3-2.3,2l-0.6,0.5l-1.2,0.9l0,0l-0.6,0.4h-0.1l-0.2,0.1l-0.3,0.2
	l-0.2,0.1l-1,0.6l-0.5,0.3l-1,0.5l-1.4,0.8l0,0l-0.7,0.4l-0.5,0.2l0,0l-1.2,0.5h-0.1l-0.3,0.1l-0.2,0.1l-0.7,0.3l-0.2,0.1h-0.1h-0.1
	H335l-0.4,0.1c-0.1,0-0.2,0.1-0.3,0.1l-0.7,0.2l0,0c-0.5,0.2-1,0.3-1.5,0.4c-0.8,0.2-1.7,0.4-2.5,0.6c-0.8,0.2-1.8,0.3-2.7,0.4
	c-1.3,0.2-2.6,0.2-4,0.3h-0.3c-1.3,0-2.5-0.1-3.8-0.2l-1.1-0.1h-0.3h-0.2c-0.5,0-1-0.2-1.4-0.2h-0.1l-1.2-0.3l-0.3-0.1
	c-0.6-0.1-1.1-0.3-1.7-0.5c0,0-0.1,0-0.1,0c-0.7-0.2-1.3-0.4-2-0.7l-0.9-0.3l-0.8-0.3l-0.3-0.1l0,0l-0.7-0.3l-0.5-0.2l0,0
	c-0.4-0.2-0.7-0.3-1.1-0.5l0,0l-0.4-0.2l0,0l-0.5-0.2c-0.5-0.3-1-0.6-1.5-0.8l0,0c-1-0.6-2.1-1.3-3.1-2l-0.4-0.3l-0.7-0.5l-0.4-0.3
	c-0.5-0.4-1-0.8-1.4-1.3l0,0c-0.5-0.4-1-0.8-1.4-1.3l-0.1-0.1l-0.1-0.1l-0.8-0.8l-0.6-0.6c-1.2-1.3-2.4-2.6-3.5-4
	c-1-1.3-2-2.7-3-4.2c-16.5-25-14.4-62.7,4.6-84.4c19-21.6,47.9-18.9,64.4,6.1C364.5,503.5,368.4,517.5,368.4,531.9z"/>
<g class="st10">
	<polygon class="st5" points="335.2,589.5 335.2,589.5 335.2,589.5 	"/>
	<path class="st5" d="M342.5,582c-0.1,0-0.2-0.1-0.3-0.3l0,0c0.2-0.3,0.5-0.5,0.8-0.6c0.3-0.1,0.5-0.7,0.4-1.3l0,0
		c0-0.6-0.1-1.1-0.4-1.6c-0.1-0.1-0.2-0.3-0.2-0.4l0,0c0.2-0.5,0.4-0.9,0.6-1.4c0.1-0.1,0.1-0.3,0-0.4c0.3-0.9-1-0.7-1-0.7v-8.4
		c0,0-0.1-0.7-0.2-2c-0.1-1.3-0.3-3.2-0.5-5.6c-0.4-4.8-1.8-5.3-1.8-5.3c-0.8-0.3-1.5-0.7-2.3-1.2c-0.8-0.5-1.6-0.9-2.4-1.2
		c-1,0-2.1-0.2-3.1-0.6c-0.7-0.3-1.4-0.5-2.1-0.6l-0.2-0.2c-1.7-1.1-3-2.9-3.7-5.1l0,0c0.3-0.5,0.6-1,0.8-1.5l0,0v1l0,0
		c1-2.3,3.9-2.8,4.2-5.4v-0.1c0-0.2,0-0.5,0-0.7l0,0l0,0c0-0.1,0-0.2,0-0.3l0,0c0-0.1,0-0.2,0-0.3c0-0.6-0.2-1.3-0.3-2V536
		c0-0.2,0-0.4,0.1-0.6c0-0.1,0-0.1,0-0.2c0-0.2,0.1-0.4,0.1-0.6l0,0c0.4-1.4,1.2-2.8,1.6-4.3c0.1-0.3,0.2-0.7,0.2-1c0,0,0-0.1,0-0.1
		c0-0.3,0.1-0.7,0.1-1V528c0-0.2,0-0.3,0-0.5c0-0.2,0,0.1,0,0.1v-0.2l0,0l0,0c0,0,0-0.1,0-0.1c0,0,0-0.1,0-0.1c0-0.1,0-0.2,0-0.4
		c0-2.1-0.7-4.2-1.9-5.6c-1-1.1-2.3-1.8-3-3.3c-0.3-0.7-0.5-1.5-0.8-2.2c-0.8-1.2-1.8-1.9-3-1.9c-1.2,0-2.3-0.2-3.4-0.6
		c-0.8-0.3-1.5-0.9-2.3-1.3c-1.8-0.6-3.6,0.3-4.7,2.2c-0.3,0.9-0.7,1.7-1.2,2.4c-1.1,1.3-3.1,0.7-4.1,2.2c-0.5,0.8-0.7,1.8-0.5,2.8
		c0,0,0,0.1,0,0.2l0,0c0,0.2,0,0.3,0,0.5c0,0.1,0,0.1,0,0.2c0,0.2,0,0.3,0,0.5c0,0,0,0.1,0,0.2v0.3c0,0.3,0.1,0.7,0.1,1
		c0.1,0.6,0.1,1.1,0.1,1.7c0,0.1,0,0.2,0,0.3c-0.1,2.6-0.6,5.1-1.4,7.4c-1,2.4-2.3,4.7-2.6,7.4c0,0.4,0,0.8,0,1.2v-0.1
		c0,0.1,0,0.2,0,0.3v0.5v0.5c0,0.2,0,0.3,0,0.4l0.1,0.6c0,0.1,0,0.2,0,0.3l0.1,0.8v0.1c0.3,1.3,0.6,2.6,0.8,4
		c0.1,0.5,0.1,0.9,0.2,1.4c0,0,0,0.1,0,0.1c0,0.4,0,0.8,0.1,1.2l0,0c0,0,0,0,0,0.1l0,0l0,0l0,0v0.2c-0.5,0.2-1,0.4-1.5,0.6
		c-0.9,0.2-3.4,3.1-3.3,3.9c0,0.1,0,0.2,0,0.3l0,0c0,0.1,0,0.1,0,0.2l0,0c-0.3,1.9-0.7,3.7-1.2,5.5l0,0l-2.1,18.6l0,0l0,0
		c0.5,0.4,1,0.8,1.4,1.3l0.4,0.3l0.7,0.5l0.4,0.3c1,0.7,2,1.4,3.1,2l0,0c0.5,0.3,1,0.6,1.5,0.8l0.5,0.2l0,0l0.4,0.2l0,0
		c0.2,0.2,0.4,0.4,0.6,0.5h0.4c0.1,0,0.2,0,0.3,0h0.2l0.5,0.2l0.7,0.3l0,0l0.3,0.1l0.8,0.3l0.9,0.3c0.7,0.2,1.3,0.5,2,0.7
		c0,0,0.1,0,0.1,0c0.6,0.2,1.1,0.3,1.7,0.5l0.3,0.1l1.2,0.3h0.1c0.5,0.1,1,0.2,1.4,0.2h0.2h0.3l1.1,0.1c1.3,0.1,2.5,0.2,3.8,0.2h0.3
		c1.3,0,2.7-0.1,4-0.3c0.9-0.1,1.8-0.2,2.7-0.4c0.9-0.2,1.7-0.4,2.5-0.6c0.5-0.1,1-0.3,1.5-0.4l0,0l0.7-0.2c0.1,0,0.2-0.1,0.3-0.1
		l0.4-0.1h0.1l0,0c0-0.9-0.1-1.6-0.1-2.2c0.1,0.3,0.3,0.5,0.4,0.6c0.1,0.1,0.1,0.2,0.1,0.3l0,0c-0.2,0.4-0.3,0.8-0.4,1.3l0,0l0,0
		h0.1l0.2-0.1l0.7-0.3l0.2-0.1l0.3-0.1h0.1l1.2-0.5l0,0l0.5-0.2l0.7-0.4l0,0l1.4-0.8l1-0.5l0.5-0.3l1-0.6l0.2-0.1l0.3-0.2l0.2-0.1
		h0.1c0-0.3,0-0.6,0-0.9l0,0v-0.1l0,0v-0.3C343.8,583.2,343.3,582.4,342.5,582z M305.7,552.4L305.7,552.4z"/>
	<path class="st5" d="M299.4,587.5l-0.2-0.1C299.2,587.4,299.3,587.4,299.4,587.5z"/>
</g>
<path class="st6" d="M368.4,683.4c0,10-1.9,19.9-5.6,28.7c-0.8,1.9-1.6,3.6-2.5,5.4c-0.9,1.8-1.9,3.5-3,5.1
	c-0.1,0.1-0.1,0.2-0.2,0.3l0,0c-0.4,0.6-0.8,1.3-1.3,1.9l-0.1,0.2l-0.4,0.5c-0.5,0.7-1,1.3-1.6,2c-0.1,0.1-0.1,0.2-0.2,0.2
	c-0.2,0.3-0.5,0.6-0.8,0.9c-1,1.2-2.1,2.3-3.2,3.3l-0.2,0.2l-0.4,0.4c-0.2,0.2-0.3,0.3-0.5,0.5c-0.8,0.7-1.5,1.3-2.3,2l-0.3,0.3
	l-0.3,0.2l-1.2,0.9l0,0l-0.6,0.4h-0.1l-0.2,0.1l-0.3,0.2l-0.2,0.1l-1,0.6l-0.5,0.3l-1,0.5l-1.4,0.8l0,0l-0.7,0.4l-0.5,0.2l0,0
	l-0.2,0.1l-1,0.4h-0.1l-0.3,0.1l-0.2,0.1l-0.3,0.1l-0.4,0.2l-0.2,0.1h-0.1h-0.1h-0.1l-0.4,0.1c-0.1,0-0.2,0.1-0.3,0.1l-0.7,0.2l0,0
	c-0.5,0.2-1,0.3-1.5,0.4c-0.8,0.2-1.7,0.4-2.5,0.6c-0.5,0.1-1,0.2-1.5,0.3h-0.2l-1,0.1c-1.3,0.2-2.6,0.2-4,0.3h-1.1
	c-1,0-2-0.1-3-0.2h-0.3l-0.8-0.1h-0.3h-0.2l-1-0.2l-0.5-0.1h-0.1l-1.2-0.3l-0.3-0.1l-0.8-0.2l-0.3-0.1l-0.6-0.2c0,0-0.1,0-0.1,0
	c-0.7-0.2-1.3-0.4-2-0.7l-0.3-0.1h-0.1l-0.4-0.2l-0.4-0.2l-0.4-0.2l-0.3-0.1l0,0l-0.7-0.3l-0.5-0.2l0,0l-0.5-0.3l-0.6-0.3l0,0
	l-0.4-0.2l0,0l-0.5-0.2c-0.5-0.3-1-0.6-1.5-0.8l0,0c-0.8-0.5-1.5-0.9-2.3-1.5c-0.3-0.2-0.5-0.4-0.8-0.5l-0.2-0.2l0,0l-0.2-0.2
	l-0.7-0.5l-0.4-0.3c-0.5-0.4-1-0.8-1.4-1.3l0,0c-0.5-0.4-1-0.8-1.4-1.3l-0.1-0.1l-0.1-0.1l-0.4-0.4l-0.4-0.4l-0.1-0.1
	c-0.2-0.2-0.4-0.4-0.6-0.6c-1.2-1.3-2.4-2.6-3.5-4c-1-1.3-2-2.7-3-4.2c-16.5-25-14.5-62.7,4.6-84.4c19-21.6,47.9-19,64.4,6
	C364.5,654.9,368.4,668.9,368.4,683.4z"/>
<path class="st8" d="M352.2,710.1c-0.4-1-1.3-1.4-2-0.9l-13.3,8.9c0-0.2-0.1-0.5-0.2-0.7l0,0c0-0.5-0.2-1-0.5-1.3
	c-0.1-0.1-0.2-0.2-0.3-0.4l0,0c0-0.1,0-0.3,0-0.4l0,0c0-0.3,0-0.6-0.2-0.9c0-0.7-0.3-1.3-0.7-1.6h0c0-0.1,0-0.3,0-0.4
	c0-0.3-0.1-0.6-0.2-0.8l0,0c0-0.8-0.5-1.6-1.4-2.7c-0.3-0.5-0.6-1.1-0.7-1.7c0,0,0,0,0-0.1c-0.2-0.8-0.3-1.8-0.6-2.7
	c-0.1-0.5-0.2-1.1-0.4-1.6c-0.7-2.4-1.5-2.1-1.8-2.5c-0.3-0.4-2.4-1-3.5-1.7c-0.9-0.6-3.9,0-4.8,0.3c0-0.1,0-0.2,0-0.2
	c4.5-1.8,7.2-7.7,6.2-13.7l-0.1-0.3c0.5,0,0.9-0.1,1.4-0.4c0.4-0.4,0.6-0.9,0.6-1.5c0.3-1.1,0.3-2.3,0.2-3.4c0-0.1-0.1-0.2-0.1-0.3
	c0-0.1,0-0.2-0.1-0.3l0,0l0,0l0,0c0-0.1,0-0.2,0-0.3c-0.1-0.4-0.2-0.7-0.3-1c0,0,0,0.1,0,0.1c-0.7-1.4-1.4-2.7-2.2-3.9
	c-0.8-1.5-1.2-3.5-2.4-4.5c-1.2-0.8-2.7-0.9-4-0.3c-0.6,0.3-1.2,0.5-1.9,0.6c-1.1,0-2.1-0.1-3.2-0.3c-1.5-0.1-3,0.4-4.3,1.5
	c-0.3,0.2-0.5,0.6-0.7,0.9c-0.2,0.5-0.3,1.1-0.3,1.7c-0.1,1.1-0.4,2.1-0.8,3c-0.3,0.7-0.7,1.4-1,2.1c-0.3,0.7-0.4,1.6-0.3,2.5
	c0.1,0.4,0.3,0.8,0.4,1.3c0,1-0.2,2.1-0.7,2.9c-0.3,0.9-0.5,1.8-0.5,2.8c0,0.7,0.2,1.4,0.6,2l0,0l0,0c0.1,0.2,0.1,0.4,0.2,0.5l0,0.1
	c0.1,0.1,0.1,0.2,0.2,0.4l0.1,0.1l0.2,0.3c0.6,0.5,1.2,0.8,1.9,0.8l0,0c0,0.1,0.1,0.3,0.2,0.4v0.2c0,0.1,0,0.1,0,0.2
	c-0.1,0-2,0.3-2.6,1.4c-0.6,0.8-1.4,1.2-2.3,1.3c0,0-1.9,0.8-1.9,1c0,0.2-0.6,0.5-1.7,0.9c-1.2,0.4-3.2,1.9-3.2,2.3
	s-3.1,4.4-3.1,4.8c-0.6,1.5-0.8,3.1-0.8,4.7c0.1,2.7,0.2,6.2-0.2,6.8c-0.5,0.6,0,2.8,0,2.8c0.2,0.5,0.2,1.1,0,1.7
	c-0.4,0.9,0.1,4.8,0.1,4.8v4c0.1,0.6,0.2,1.2,0.2,1.8l0.1,0.1l0.4,0.4l0.4,0.4l0.1,0.1l0.1,0.1c0.5,0.4,1,0.9,1.4,1.3l0,0
	c0.5,0.4,1,0.8,1.4,1.3l0.4,0.3l0.7,0.5l0.2,0.2l0,0l0.2,0.2c0.3,0.2,0.5,0.4,0.8,0.5c0.7,0.5,1.5,1,2.3,1.5l0,0
	c0.5,0.3,1,0.6,1.5,0.8l0.5,0.2l0,0l0.4,0.2l0,0l0.6,0.3l0.5,0.2l0,0l0.5,0.2l0.7,0.3l0,0l0.3,0.1l0.4,0.2l0.4,0.2l0.4,0.2h0.1
	l0.3,0.1c0.7,0.2,1.3,0.5,2,0.7c0,0,0.1,0,0.1,0l0.6,0.2l0.3,0.1l0.8,0.2l0.3,0.1l1.2,0.3h0.1l0.5,0.1l1,0.2h0.2h0.3l0.8,0.1h0.3
	c1,0.1,1.9,0.2,3,0.2h1.1c1.3,0,2.7-0.1,4-0.3l1-0.1h0.2c0.5-0.1,1-0.2,1.5-0.3c0.8-0.2,1.7-0.4,2.5-0.6c0.5-0.1,1-0.3,1.5-0.4l0,0
	l0.7-0.2c0.1,0,0.2-0.1,0.3-0.1l0.4-0.1h0.1h0.1h0.1l0.2-0.1l0.4-0.2l0.3-0.1l0.2-0.1l0.3-0.1h0.1l1-0.4l0.2-0.1l0,0l0.5-0.2
	l0.7-0.4l0,0l1.4-0.8l1-0.5l0.5-0.3l1-0.6l0.2-0.1l0.3-0.2l0.2-0.1h0.1l0.6-0.4l0,0l1.2-0.9l0.3-0.2l0.3-0.3c0.8-0.6,1.6-1.3,2.3-2
	c0.2-0.2,0.4-0.3,0.5-0.5h0.2l0.2-0.4l0.2-0.2c1.1-1,2.2-2.2,3.2-3.3c0.3-0.3,0.5-0.6,0.8-0.9c0.1-0.1,0.1-0.2,0.2-0.2
	c0.5-0.6,1-1.3,1.6-2l0.4-0.5l0.1-0.2c0.4-0.6,0.9-1.3,1.3-1.9l0,0L352.2,710.1z M330,730.1l-0.2,0.1c0-0.1,0-0.2,0.1-0.3
	c0,0-1.5,0.1-3,0.2c0-0.3,0-0.7,0.1-1c0.3-1.4,0.6-2.8,0.7-4.3l0,0l2.6,5.2L330,730.1z M330.5,739.9c0-0.2,0-0.3,0-0.5
	c0.1-0.1,0.1-0.1,0.2-0.2c0-0.6-0.1-1.1-0.1-1.7l0,0h0.2l2.7-0.6c0,0,0.4,0,1-0.2l0.2,0.6c-1.2,0.5-2.4,1.2-3.5,2
	C331.1,739.5,330.9,739.7,330.5,739.9L330.5,739.9z"/>
<path class="st11" d="M833.7,212.3l-3.9-5.1c-0.8-1.1-2.1-1.1-2.9,0c0,0,0,0,0,0l-24.1,31.4l-10.2-13.5c-0.8-1.1-2.1-1.1-2.9-0.1
	c0,0,0,0,0,0.1l-3.9,5.1c-0.8,1.1-0.8,2.8,0,3.8c0,0,0,0,0,0l15.5,20.5c0.8,1.1,2.1,1.1,2.9,0c0,0,0,0,0,0l29.5-38.3
	C834.5,215.2,834.5,213.5,833.7,212.3C833.7,212.4,833.7,212.4,833.7,212.3z"/>
<path class="st11" d="M833.7,361.4l-3.9-5.1c-0.8-1.1-2.1-1.1-2.9,0c0,0,0,0,0,0l-24.1,31.4l-10.2-13.5c-0.8-1.1-2.1-1.1-2.9-0.1
	c0,0,0,0,0,0.1l-3.9,5.1c-0.8,1.1-0.8,2.8,0,3.8c0,0,0,0,0,0l15.5,20.5c0.8,1.1,2.1,1.1,2.9,0c0,0,0,0,0,0l29.4-38.4
	C834.5,364.2,834.5,362.5,833.7,361.4C833.7,361.4,833.7,361.4,833.7,361.4z"/>
<path class="st11" d="M833.7,662.3l-3.9-5.1c-0.8-1.1-2.1-1.1-2.9,0c0,0,0,0,0,0l-24.1,31.4l-10.2-13.5c-0.8-1.1-2.1-1.1-2.9,0
	c0,0,0,0,0,0l-3.9,5.1c-0.8,1-0.8,2.7,0,3.8c0,0,0,0,0,0l15.5,20.5c0.8,1,2.1,1,2.9,0l29.5-38.3
	C834.5,665.1,834.5,663.4,833.7,662.3C833.8,662.3,833.7,662.3,833.7,662.3z"/>
<path class="st5" d="M934.4,843.9c-0.3-1.8-6.3-43.7,11.9-99.3c7.2-21.7,6.6-40.4-1.7-55.6c-3.8-6.9-8.8-12.5-14.6-16.4l2.2-6.3
	c6.6,4.4,12.4,10.8,16.7,18.7c6.5,11.9,12.2,32.3,2.3,62.4c-17.6,53.6-11.6,94.8-11.6,95.3L934.4,843.9z"/>
<path class="st5" d="M961.7,740.4c7.4-0.8,13.5-1.7,13.7,1.3c0.2,3-5.6,8.8-12.9,9.6c-7.3,0.8-13.5-0.9-13.7-3.9
	C948.5,744.3,954.3,741.3,961.7,740.4z"/>
<path class="st4" d="M961.7,740.4c7.4-0.8,13.5-1.7,13.7,1.3c0.2,3-5.6,8.8-12.9,9.6c-7.3,0.8-13.5-0.9-13.7-3.9
	C948.5,744.3,954.3,741.3,961.7,740.4z"/>
<path class="st5" d="M961.7,740.4c7.2-0.8,13.1-2,13.3,0.5c0.2,2.6-5.5,7.9-12.7,8.7c-7.2,0.8-13.1-0.6-13.3-3.2
	C948.9,744,954.5,741.3,961.7,740.4z"/>
<path class="st12" d="M949.1,746.6c5.6,0.2,11.2-0.3,16.7-1.3c1-0.2,2.1-0.4,3.1-0.6c1.9-0.4,3.9-3.5,5.8-3.8"/>
<path class="st5" d="M948.8,796.4c7.3-0.8,13.5-1.7,13.7,1.3c0.2,3-5.6,8.8-13,9.6c-7.4,0.8-13.5-0.9-13.7-3.9
	C935.6,800.4,941.4,797.3,948.8,796.4z"/>
<path class="st4" d="M948.8,796.4c7.3-0.8,13.5-1.7,13.7,1.3c0.2,3-5.6,8.8-13,9.6c-7.4,0.8-13.5-0.9-13.7-3.9
	C935.6,800.4,941.4,797.3,948.8,796.4z"/>
<path class="st5" d="M948.8,796.5c7.2-0.8,13.1-2,13.3,0.5c0.2,2.5-5.5,7.9-12.6,8.7s-13.1-0.6-13.3-3.2
	C936,800,941.6,797.3,948.8,796.5z"/>
<path class="st12" d="M936.2,802.7c5.6,0.2,11.2-0.3,16.7-1.3c1-0.2,2.1-0.4,3.1-0.6c1.9-0.4,3.9-3.5,5.8-3.8"/>
<path class="st5" d="M937.7,735.5c-6.9-3.5-12.6-6.6-13.4-3.8c-0.8,2.8,3.5,10.5,10.4,14s13.1,4.1,14,1.3
	C949.5,744.1,944.6,739,937.7,735.5z"/>
<path class="st4" d="M937.7,735.5c-6.9-3.5-12.6-6.6-13.4-3.8c-0.8,2.8,3.5,10.5,10.4,14s13.1,4.1,14,1.3
	C949.5,744.1,944.6,739,937.7,735.5z"/>
<path class="st5" d="M937.7,735.6c-6.7-3.4-12.1-6.8-12.8-4.4c-0.7,2.4,3.6,9.6,10.3,13.1c6.7,3.4,12.7,4.3,13.4,1.9
	C949.2,743.7,944.4,738.9,937.7,735.6z"/>
<path class="st12" d="M948.4,746.1c-5.4-1.9-10.7-4.4-15.7-7.4c-1-0.6-1.9-1.2-2.9-1.8c-1.8-1.1-3-4.7-4.7-5.9"/>
<path class="st5" d="M926.3,791.6c-6.9-3.5-12.6-6.6-13.4-3.8c-0.8,2.8,3.5,10.5,10.4,14s13.1,4.1,14,1.3
	C938,800.3,933.1,795.1,926.3,791.6z"/>
<path class="st4" d="M926.3,791.6c-6.9-3.5-12.6-6.6-13.4-3.8c-0.8,2.8,3.5,10.5,10.4,14s13.1,4.1,14,1.3
	C938,800.3,933.1,795.1,926.3,791.6z"/>
<path class="st5" d="M926.2,791.7c-6.7-3.4-12.1-6.8-12.8-4.4c-0.7,2.4,3.6,9.6,10.3,13.1c6.7,3.4,12.7,4.3,13.4,1.9
	C937.8,799.8,932.9,795.1,926.2,791.7z"/>
<path class="st12" d="M937,802.2c-5.4-1.9-10.7-4.4-15.8-7.4c-1-0.6-1.9-1.2-2.9-1.8c-1.8-1.1-3-4.7-4.7-5.8"/>
<path class="st5" d="M923.7,803.3c-7,3-12.9,5.3-12.2,8.2c0.7,2.9,7.8,5.2,14.8,2.2s12.1-7.8,11.4-10.7
	C937,800.1,930.7,800.3,923.7,803.3z"/>
<path class="st4" d="M923.7,803.3c-7,3-12.9,5.3-12.2,8.2c0.7,2.9,7.8,5.2,14.8,2.2s12.1-7.8,11.4-10.7
	C937,800.1,930.7,800.3,923.7,803.3z"/>
<path class="st5" d="M923.6,803.4c-6.8,2.9-12.6,4.8-12.1,7.3s7.4,4.5,14.3,1.5c6.8-2.9,11.9-7.3,11.3-9.7
	C936.5,800,930.5,800.5,923.6,803.4z"/>
<path class="st12" d="M937,802.6c-5.1,3-10.4,5.5-15.7,7.4l-3.1,1c-1.9,0.6-4.6-1.2-6.5-0.6"/>
<ellipse transform="matrix(0.3792 -0.9253 0.9253 0.3792 -29.2965 1304.1105)" class="st5" cx="957.3" cy="673.9" rx="13.2" ry="21.2"/>
<ellipse transform="matrix(0.3792 -0.9253 0.9253 0.3792 -29.2965 1304.1105)" class="st4" cx="957.3" cy="673.9" rx="13.2" ry="21.2"/>
<ellipse transform="matrix(0.3671 -0.9302 0.9302 0.3671 -21.0746 1316.9406)" class="st5" cx="957.2" cy="674" rx="12.2" ry="20.7"/>
<path class="st12" d="M937.7,668c7.9,4.7,16.3,7.9,24.9,9.5c1.6,0.3,3.3,0.6,4.9,0.8l9.1,1.4"/>
<ellipse transform="matrix(0.1496 -0.9887 0.9887 0.1496 165.1405 1469.6158)" class="st5" cx="936.9" cy="638.8" rx="26.9" ry="10.4"/>
<ellipse transform="matrix(0.1496 -0.9887 0.9887 0.1496 165.1405 1469.6158)" class="st4" cx="936.9" cy="638.8" rx="26.9" ry="10.4"/>
<ellipse transform="matrix(0.1522 -0.9884 0.9884 0.1522 163.0289 1467.6902)" class="st5" cx="937" cy="638.8" rx="26.2" ry="9.6"/>
<path class="st12" d="M932.7,664.5c3.4-10.5,5.8-21.5,6.9-32.8c0.2-2.1,0.4-4.3,0.5-6.4l1-12"/>
<ellipse transform="matrix(0.1496 -0.9887 0.9887 0.1496 98.0115 1509.5776)" class="st5" cx="926.6" cy="697.8" rx="26.9" ry="10.4"/>
<ellipse transform="matrix(0.1496 -0.9887 0.9887 0.1496 98.0115 1509.5776)" class="st4" cx="926.6" cy="697.8" rx="26.9" ry="10.4"/>
<ellipse transform="matrix(0.1522 -0.9884 0.9884 0.1522 95.9477 1507.5032)" class="st5" cx="926.6" cy="697.8" rx="26.2" ry="9.6"/>
<path class="st12" d="M922.4,723.5c3.4-10.5,5.7-21.5,6.9-32.8c0.2-2.1,0.4-4.3,0.5-6.4l1-12"/>
<ellipse transform="matrix(0.3792 -0.9253 0.9253 0.3792 -47.4245 1248.7233)" class="st5" cx="906.9" cy="659.7" rx="13.2" ry="21.2"/>
<ellipse transform="matrix(0.3792 -0.9253 0.9253 0.3792 -47.4245 1248.7233)" class="st4" cx="906.9" cy="659.7" rx="13.2" ry="21.2"/>
<ellipse transform="matrix(0.3671 -0.9302 0.9302 0.3671 -39.7539 1261.1451)" class="st5" cx="906.9" cy="659.8" rx="12.2" ry="20.7"/>
<path class="st12" d="M887.3,653.8c7.9,4.7,16.3,7.9,24.9,9.5c1.6,0.3,3.3,0.6,4.9,0.8l9.1,1.4"/>
<ellipse transform="matrix(0.8963 -0.4434 0.4434 0.8963 -206.6897 489.3661)" class="st5" cx="943.1" cy="686.7" rx="9.5" ry="21.6"/>
<ellipse transform="matrix(0.8963 -0.4434 0.4434 0.8963 -206.6897 489.3661)" class="st4" cx="943.1" cy="686.7" rx="9.5" ry="21.6"/>
<ellipse transform="matrix(0.8926 -0.4509 0.4509 0.8926 -208.3301 499.0348)" class="st5" cx="943" cy="686.7" rx="8.8" ry="21"/>
<path class="st12" d="M932.5,668.9c3.3,8.7,7.6,16.8,12.6,23.9c1,1.3,1.9,2.7,2.9,4l5.5,7.4"/>
<ellipse transform="matrix(0.8982 -0.4396 0.4396 0.8982 -194.7079 471.1955)" class="st5" cx="920" cy="656" rx="9.5" ry="21.6"/>
<ellipse transform="matrix(0.8982 -0.4396 0.4396 0.8982 -194.7079 471.1955)" class="st4" cx="920" cy="656" rx="9.5" ry="21.6"/>
<ellipse transform="matrix(0.8926 -0.4509 0.4509 0.8926 -193.4524 484.269)" class="st5" cx="919.5" cy="648.1" rx="8.8" ry="21"/>
<path class="st12" d="M909,630.3c3.3,8.7,7.6,16.8,12.6,23.9c1,1.4,1.9,2.7,2.9,4l5.5,7.4"/>
<ellipse transform="matrix(0.6402 -0.7682 0.7682 0.6402 -163.897 960.0543)" class="st5" cx="943" cy="655" rx="17.2" ry="8.7"/>
<ellipse transform="matrix(0.6402 -0.7682 0.7682 0.6402 -163.897 960.0543)" class="st4" cx="943" cy="655" rx="17.2" ry="8.7"/>
<ellipse transform="matrix(0.6502 -0.7598 0.7598 0.6502 -167.7446 945.6085)" class="st5" cx="943" cy="655" rx="16.7" ry="8"/>
<path class="st12" d="M954.5,643.1c-5.7,3.7-10.9,8.5-15.6,14.1c-0.9,1.1-1.7,2.2-2.6,3.2l-4.9,6.1"/>
<ellipse transform="matrix(0.7335 -0.6797 0.6797 0.7335 -215.8147 805.3694)" class="st5" cx="919.1" cy="677.9" rx="16.6" ry="9"/>
<ellipse transform="matrix(0.7335 -0.6797 0.6797 0.7335 -215.8147 805.3694)" class="st4" cx="919.1" cy="677.9" rx="16.6" ry="9"/>
<ellipse transform="matrix(0.7435 -0.6688 0.6688 0.7435 -217.549 788.564)" class="st5" cx="919.1" cy="677.9" rx="16.2" ry="8.3"/>
<path class="st12" d="M906.3,687.1c4.8-5.4,10.2-9.9,16-13.3c1.1-0.6,2.2-1.3,3.3-1.9l6.2-3.4"/>
<ellipse transform="matrix(0.8931 -0.4499 0.4499 0.8931 -198.2175 487.6987)" class="st5" cx="926.9" cy="660.9" rx="3.5" ry="7.9"/>
<ellipse transform="matrix(0.8931 -0.4499 0.4499 0.8931 -198.2175 487.6987)" class="st4" cx="926.9" cy="660.9" rx="3.5" ry="7.9"/>
<ellipse transform="matrix(0.8891 -0.4577 0.4577 0.8891 -199.6743 497.507)" class="st5" cx="927" cy="660.9" rx="3.2" ry="7.7"/>
<path class="st12" d="M923.2,654.3c2,2.4,3.8,5.1,5.3,8.2c0.3,0.6,0.5,1.1,0.8,1.7l1.5,3.2"/>
<ellipse transform="matrix(0.8931 -0.4499 0.4499 0.8931 -203.5182 492.823)" class="st5" cx="935.1" cy="674.6" rx="3.5" ry="7.9"/>
<ellipse transform="matrix(0.8931 -0.4499 0.4499 0.8931 -203.5182 492.823)" class="st4" cx="935.1" cy="674.6" rx="3.5" ry="7.9"/>
<ellipse transform="matrix(0.8891 -0.4577 0.4577 0.8891 -205.0497 502.7421)" class="st5" cx="935.1" cy="674.6" rx="3.2" ry="7.7"/>
<path class="st12" d="M931.3,668c2,2.4,3.8,5.1,5.3,8.2c0.3,0.6,0.5,1.1,0.8,1.7l1.5,3.2"/>
<ellipse class="st5" cx="931.1" cy="667.8" rx="1.3" ry="1.7"/>
<ellipse class="st12" cx="931.1" cy="667.8" rx="1.3" ry="1.7"/>
<g class="st13">
	<path class="st5" d="M117.7,756.4c-0.6-9.9-0.5-19.8,0.3-29.6c0-0.4,0.1-0.9,0.1-1.4c0.1-0.8,0.1-1.6,0.2-2.5c0-0.3,0-0.5,0.1-0.8
		c0.1-1,0.2-2,0.3-3c0,0,0-0.1,0-0.1c1.9-16.7,5.3-33,10.3-48.5l0.4-1.1c0.1-0.4,0.3-0.8,0.4-1.2s0.2-0.5,0.2-0.7
		c0.1-0.2,0.1-0.4,0.2-0.6c0.3-1,0.6-2.1,1-3.1v-0.1c4.6-16.1,4.6-29.3,2.6-39.7c-0.1-0.4-0.1-0.7-0.2-1c-1.3-5.9-3.3-11.5-6-16.5
		l-0.5-0.8c-0.3-0.5-0.6-1.1-1-1.6c-2.8-4.6-6.1-8.6-9.8-11.9l-0.6-0.5c-0.3-0.3-0.6-0.5-0.9-0.8c-0.3-0.2-0.5-0.4-0.7-0.6
		c-0.4-0.4-0.8-0.7-1.2-0.9l-0.6-0.4c-0.8-0.6-1.2-0.8-1.3-0.9l-0.1,0.3l-0.2,0.5v0.1v0.1l-0.1,0.3v0.1v0.1l-0.1,0.4v0.1l-0.1,0.4
		v0.1l-0.2,0.7l-0.5,1.4l-0.1,0.2l-0.1,0.3l-0.1,0.4l-0.3,0.8l0.4,0.2l0.2,0.2c0,0,0,0,0.1,0h0.1l0.1,0.1l0.2,0.2l0.7,0.5l0.4,0.3
		c0.8,0.6,1.7,1.4,2.8,2.4l1,1l0.5,0.5c0.5,0.5,1,1,1.4,1.5l0,0l0.4,0.5c0.3,0.3,0.6,0.6,0.8,1l0.1,0.2c0.8,1,1.6,2,2.4,3.2
		c1,1.5,2,3,2.9,4.7c0.3,0.6,0.6,1.1,0.9,1.7c1,2,1.9,4,2.6,6.1l0,0c1,2.8,1.7,5.7,2.2,8.7c0,0.2,0.1,0.4,0.1,0.6
		c1.7,10.7,0.6,22.6-3.4,35.6c0,0,0,0.1,0,0.1c-0.2,0.7-0.4,1.4-0.7,2.1v0.1c-0.1,0.2-0.1,0.3-0.2,0.5l-0.7,2.1
		c-0.1,0.4-0.3,0.9-0.4,1.3c-4.9,15.5-8.3,31.8-10.2,48.4c0,0,0,0.1,0,0.1c-0.1,1-0.2,1.9-0.3,2.8v0.3c0,0,0,0.1,0,0.1v0.2
		c-0.1,0.7-0.1,1.5-0.2,2.2l0,0l-0.1,0.7c0,0.2,0,0.4,0,0.6c-0.1,0.8-0.1,1.7-0.2,2.5c-0.1,0.6-0.1,1.2-0.1,1.8
		c-0.5,7.7-0.6,15.4-0.3,23.1L117.7,756.4z"/>
	<path class="st5" d="M140.1,661.4c7.3-0.8,13.3-1.7,13.5,1.3s-5.5,8.7-12.8,9.5c-7.3,0.8-13.3-0.9-13.5-3.9
		C127.1,665.3,132.9,662.2,140.1,661.4z"/>
	<path class="st0" d="M140.1,661.4c7.3-0.8,13.3-1.7,13.5,1.3s-5.5,8.7-12.8,9.5c-7.3,0.8-13.3-0.9-13.5-3.9
		C127.1,665.3,132.9,662.2,140.1,661.4z"/>
	<path class="st5" d="M140.2,661.4c7.1-0.8,13-2,13.1,0.5c0.2,2.5-5.4,7.9-12.5,8.6s-13-0.6-13.1-3.1
		C127.5,664.9,133.1,662.2,140.2,661.4z"/>
	<path class="st8" d="M127.7,667.5c5.5,0.2,11-0.3,16.5-1.3l3.1-0.6c1.9-0.4,3.8-3.4,5.7-3.8L127.7,667.5z"/>
	<path class="st5" d="M127.4,716.8c7.3-0.8,13.3-1.7,13.5,1.3c0.2,3-5.6,8.7-12.8,9.5c-7.3,0.8-13.3-0.9-13.6-3.9
		S120.1,717.6,127.4,716.8z"/>
	<path class="st0" d="M127.4,716.8c7.3-0.8,13.3-1.7,13.5,1.3c0.2,3-5.6,8.7-12.8,9.5c-7.3,0.8-13.3-0.9-13.6-3.9
		S120.1,717.6,127.4,716.8z"/>
	<path class="st5" d="M127.4,716.8c7.1-0.8,13-2,13.1,0.5c0.2,2.5-5.4,7.9-12.5,8.7c-7.1,0.8-13-0.6-13.1-3.2
		C114.7,720.3,120.4,717.6,127.4,716.8z"/>
	<path class="st8" d="M115,723c5.5,0.2,11-0.3,16.5-1.3c1-0.2,2.1-0.4,3.1-0.6c1.9-0.4,3.9-3.4,5.7-3.8L115,723z"/>
	<path class="st5" d="M116.5,656.5c-6.8-3.5-12.4-6.6-13.2-3.8c-0.8,2.7,3.5,10.4,10.3,13.8c6.8,3.5,13,4,13.8,1.3
		S123.3,660,116.5,656.5z"/>
	<path class="st0" d="M116.5,656.5c-6.8-3.5-12.4-6.6-13.2-3.8c-0.8,2.7,3.5,10.4,10.3,13.8c6.8,3.5,13,4,13.8,1.3
		S123.3,660,116.5,656.5z"/>
	<path class="st5" d="M116.5,656.5c-6.6-3.4-12-6.7-12.7-4.4s3.5,9.5,10.2,12.9c6.6,3.4,12.6,4.2,13.3,1.8
		C127.9,664.6,123.1,659.9,116.5,656.5z"/>
	<path class="st8" d="M127.1,667c-5.3-1.9-10.5-4.3-15.5-7.3l-2.9-1.7c-1.7-1.1-2.9-4.7-4.7-5.8L127.1,667z"/>
	<path class="st5" d="M105.1,712.1c-6.8-3.5-12.4-6.6-13.2-3.8s3.5,10.4,10.3,13.8c6.8,3.5,13,4,13.8,1.3
		C116.8,720.6,111.9,715.5,105.1,712.1z"/>
	<path class="st0" d="M105.1,712.1c-6.8-3.5-12.4-6.6-13.2-3.8s3.5,10.4,10.3,13.8c6.8,3.5,13,4,13.8,1.3
		C116.8,720.6,111.9,715.5,105.1,712.1z"/>
	<path class="st5" d="M105.1,712.1c-6.6-3.4-12-6.7-12.7-4.4s3.5,9.5,10.2,12.9s12.6,4.2,13.3,1.8S111.7,715.5,105.1,712.1z"/>
	<path class="st8" d="M115.7,722.5c-5.3-1.9-10.5-4.3-15.5-7.3l-2.8-1.7c-1.7-1.1-2.9-4.7-4.7-5.8L115.7,722.5z"/>
	<path class="st5" d="M102.6,723.6c-6.9,3-12.8,5.3-12.1,8.1s7.7,5.1,14.6,2.2c6.9-2.9,12-7.7,11.3-10.5
		C115.7,720.5,109.5,720.6,102.6,723.6z"/>
	<path class="st0" d="M102.6,723.6c-6.9,3-12.8,5.3-12.1,8.1s7.7,5.1,14.6,2.2c6.9-2.9,12-7.7,11.3-10.5
		C115.7,720.5,109.5,720.6,102.6,723.6z"/>
	<path class="st5" d="M102.5,723.7c-6.8,2.9-12.5,4.8-11.9,7.2s7.3,4.4,14.1,1.5s11.7-7.2,11.1-9.6
		C115.3,720.3,109.3,720.7,102.5,723.7z"/>
	<path class="st8" d="M115.8,722.8c-5,3-10.2,5.4-15.6,7.3c-1,0.4-2,0.7-3,1c-1.9,0.6-4.6-1.2-6.4-0.5L115.8,722.8z"/>
	
		<ellipse transform="matrix(0.3793 -0.9253 0.9253 0.3793 -466.7816 495.2351)" class="st5" cx="135.7" cy="595.5" rx="13.1" ry="21"/>
	
		<ellipse transform="matrix(0.3793 -0.9253 0.9253 0.3793 -466.7816 495.2351)" class="st0" cx="135.7" cy="595.5" rx="13.1" ry="21"/>
	
		<ellipse transform="matrix(0.367 -0.9302 0.9302 0.367 -468.1454 503.2792)" class="st5" cx="135.7" cy="595.6" rx="12" ry="20.5"/>
	<path class="st8" d="M116.4,589.7c7.8,4.6,16.1,7.8,24.7,9.4c1.6,0.3,3.2,0.5,4.9,0.8l9,1.4L116.4,589.7z"/>
	
		<ellipse transform="matrix(0.1496 -0.9887 0.9887 0.1496 -456.202 591.2958)" class="st5" cx="115.6" cy="560.9" rx="26.6" ry="10.3"/>
	
		<ellipse transform="matrix(0.1496 -0.9887 0.9887 0.1496 -456.202 591.2958)" class="st0" cx="115.6" cy="560.9" rx="26.6" ry="10.3"/>
	
		<ellipse transform="matrix(0.1522 -0.9884 0.9884 0.1522 -456.2536 589.8597)" class="st5" cx="115.7" cy="560.9" rx="25.9" ry="9.5"/>
	<path class="st8" d="M111.5,586.2c3.4-10.4,5.7-21.3,6.8-32.5c0.2-2.1,0.4-4.2,0.5-6.4l0.9-11.8L111.5,586.2z"/>
	
		<ellipse transform="matrix(0.1496 -0.9887 0.9887 0.1496 -522.5947 630.8236)" class="st5" cx="105.4" cy="619.2" rx="26.6" ry="10.3"/>
	
		<ellipse transform="matrix(0.1496 -0.9887 0.9887 0.1496 -522.5947 630.8236)" class="st0" cx="105.4" cy="619.2" rx="26.6" ry="10.3"/>
	
		<ellipse transform="matrix(0.1522 -0.9884 0.9884 0.1522 -522.6055 629.2602)" class="st5" cx="105.5" cy="619.2" rx="25.9" ry="9.5"/>
	<path class="st8" d="M101.3,644.6c3.4-10.4,5.7-21.3,6.8-32.5c0.2-2.1,0.4-4.2,0.5-6.4l0.9-11.8L101.3,644.6z"/>
	
		<ellipse transform="matrix(0.3793 -0.9253 0.9253 0.3793 -484.7332 440.4481)" class="st5" cx="85.9" cy="581.5" rx="13.1" ry="21"/>
	
		<ellipse transform="matrix(0.3793 -0.9253 0.9253 0.3793 -484.7332 440.4481)" class="st0" cx="85.9" cy="581.5" rx="13.1" ry="21"/>
	<ellipse transform="matrix(0.367 -0.9302 0.9302 0.367 -486.6382 448.0711)" class="st5" cx="85.9" cy="581.6" rx="12" ry="20.5"/>
	<path class="st8" d="M66.6,575.7c7.8,4.6,16.1,7.8,24.7,9.4c1.6,0.3,3.2,0.5,4.9,0.8l9,1.4L66.6,575.7z"/>
	
		<ellipse transform="matrix(0.8963 -0.4434 0.4434 0.8963 -257.0367 117.0418)" class="st5" cx="121.8" cy="608.2" rx="9.4" ry="21.3"/>
	
		<ellipse transform="matrix(0.8963 -0.4434 0.4434 0.8963 -257.0367 117.0418)" class="st0" cx="121.8" cy="608.2" rx="9.4" ry="21.3"/>
	
		<ellipse transform="matrix(0.8926 -0.4509 0.4509 0.8926 -261.1796 120.2337)" class="st5" cx="121.7" cy="608.2" rx="8.7" ry="20.8"/>
	<path class="st8" d="M111.3,590.6c3.3,8.6,7.5,16.6,12.5,23.7c1,1.3,1.9,2.6,2.9,3.9l5.4,7.3L111.3,590.6z"/>
	
		<ellipse transform="matrix(0.8963 -0.4434 0.4434 0.8963 -242.5151 102.7482)" class="st5" cx="98.5" cy="570" rx="9.4" ry="21.3"/>
	
		<ellipse transform="matrix(0.8963 -0.4434 0.4434 0.8963 -242.5151 102.7482)" class="st0" cx="98.5" cy="570" rx="9.4" ry="21.3"/>
	
		<ellipse transform="matrix(0.8926 -0.4509 0.4509 0.8926 -246.4619 105.6245)" class="st5" cx="98.4" cy="570" rx="8.7" ry="20.8"/>
	<path class="st8" d="M88,552.4c3.3,8.6,7.5,16.6,12.5,23.7c1,1.3,1.9,2.6,2.9,4l5.4,7.3L88,552.4z"/>
	
		<ellipse transform="matrix(0.6402 -0.7682 0.7682 0.6402 -399.3344 300.9694)" class="st5" cx="121.6" cy="576.8" rx="17" ry="8.6"/>
	
		<ellipse transform="matrix(0.6402 -0.7682 0.7682 0.6402 -399.3344 300.9694)" class="st0" cx="121.6" cy="576.8" rx="17" ry="8.6"/>
	<ellipse transform="matrix(0.65 -0.7599 0.7599 0.65 -395.7265 294.2643)" class="st5" cx="121.6" cy="576.8" rx="16.6" ry="7.9"/>
	<path class="st8" d="M133.1,565c-5.6,3.7-10.8,8.4-15.4,14c-0.9,1.1-1.7,2.1-2.6,3.2l-4.7,6.1L133.1,565z"/>
	
		<ellipse transform="matrix(0.7335 -0.6797 0.6797 0.7335 -381.3185 226.3816)" class="st5" cx="98" cy="599.5" rx="16.4" ry="8.9"/>
	
		<ellipse transform="matrix(0.7335 -0.6797 0.6797 0.7335 -381.3185 226.3816)" class="st0" cx="98" cy="599.5" rx="16.4" ry="8.9"/>
	<ellipse transform="matrix(0.7434 -0.6689 0.6689 0.7434 -375.7875 219.3982)" class="st5" cx="98" cy="599.4" rx="16" ry="8.2"/>
	<path class="st8" d="M85.4,608.6c4.8-5.3,10.1-9.8,15.8-13.2c1.1-0.6,2.2-1.3,3.3-1.9l6.1-3.4L85.4,608.6z"/>
	
		<ellipse transform="matrix(0.893 -0.4501 0.4501 0.893 -250.9587 109.9956)" class="st5" cx="105.8" cy="582.7" rx="3.5" ry="7.8"/>
	
		<ellipse transform="matrix(0.893 -0.4501 0.4501 0.893 -250.9587 109.9956)" class="st0" cx="105.8" cy="582.7" rx="3.5" ry="7.8"/>
	
		<ellipse transform="matrix(0.889 -0.4579 0.4579 0.889 -255.0904 113.1499)" class="st5" cx="105.8" cy="582.7" rx="3.2" ry="7.6"/>
	<path class="st8" d="M102.1,576.2c2,2.4,3.8,5.1,5.2,8.1c0.3,0.6,0.5,1.1,0.8,1.7l1.5,3.2L102.1,576.2z"/>
	
		<ellipse transform="matrix(0.893 -0.4501 0.4501 0.893 -256.2026 115.0655)" class="st5" cx="113.8" cy="596.3" rx="3.5" ry="7.8"/>
	
		<ellipse transform="matrix(0.893 -0.4501 0.4501 0.893 -256.2026 115.0655)" class="st0" cx="113.8" cy="596.3" rx="3.5" ry="7.8"/>
	
		<ellipse transform="matrix(0.889 -0.4579 0.4579 0.889 -260.4044 118.3329)" class="st5" cx="113.9" cy="596.2" rx="3.2" ry="7.6"/>
	<path class="st8" d="M110.1,589.7c2,2.4,3.8,5.1,5.2,8.1c0.3,0.6,0.5,1.1,0.8,1.7l1.5,3.2L110.1,589.7z"/>
	<ellipse class="st5" cx="109.9" cy="589.5" rx="1.3" ry="1.7"/>
	<ellipse class="st8" cx="109.9" cy="589.5" rx="1.3" ry="1.7"/>
</g>
<linearGradient id="SVGID_3_" gradientUnits="userSpaceOnUse" x1="1162.6101" y1="-97.8959" x2="1162.6101" y2="330.3498" gradientTransform="matrix(-1 0 0 -1 1402 744.96)">
	<stop  offset="0" style="stop-color:#808080;stop-opacity:0.25"/>
	<stop  offset="0.54" style="stop-color:#808080;stop-opacity:0.12"/>
	<stop  offset="1" style="stop-color:#808080;stop-opacity:0.1"/>
</linearGradient>
<path class="st14" d="M158.9,570.3c1.7,3.5,3.5,11.2,3.4,12.5c-0.1,1.3,4.9,8.5,6.2,10.8c1.2,2.1,2.2,4.3,3,6.6l4.6,11.2
	c2.9-1.2,5.6-2.9,8.2-4.8l1.7,0.2c1.3-0.2,2.5-0.4,3.8-0.8c0,0.3-0.1,0.6-0.1,0.8c-0.8,8.4-1.4,15.3-1.4,15.3s1.6,7.4,3.7,5.1
	l0.1-0.1c0.1,0.4,0.1,0.8,0.2,1.3c0.8,5.7,1.2,11.6,1.1,17.4c-0.4,8.6,1,21.7,1,21.7s3-0.3,7.4-0.7c0.1,0.4,0.2,0.9,0.4,1.3l0,0
	c0.4,1.5,0.9,3.1,1.4,4.7l0.1,0.3c0.1,0.2,0.1,0.4,0.2,0.6l0.1,0.4l0.2,0.5l0.2,0.6l0.1,0.4l0.3,0.9c0,0.1,0.1,0.2,0.1,0.3
	c0.1,0.2,0.1,0.5,0.2,0.7l0.1,0.3l0.2,0.7l0.1,0.2c0.3,0.9,0.6,1.8,0.9,2.5v0.1l0.2,0.6v0.1l0.2,0.6l0,0c0.1,0.2,0.2,0.4,0.2,0.5
	c1.9,3.9,3.4,11,3.4,11l1.8,14.4c0,0,0.4,3.5,0.5,6.6c0.1,1.1,0.1,2.2,0.1,3.1c0,0.2,0,0.7,0,1.5c0,0.1,0,0.2,0,0.3l0,0
	c0.2,2.6,0.6,7.6,1.1,13.5c0.1,1.2,0.2,2.4,0.3,3.6l0,0c-0.3,7.3-0.2,14.6,0.3,21.9c0,0-1.3,27.2-1,29.8c0.2,1.5-0.8,4.8-1.6,7.6
	l-0.3-0.3c0,0-4.6,6.4-4.5,13.7c0.1,7.3,0.5,17.2,0.5,17.2s0.4,4-0.5,5.1s0,6.7,0,6.7s8.1,9.8,15-0.8c0,0,1.3-6.1,0.8-10
	c0-0.3-0.1-0.7-0.2-1.3c-0.1-4.2-0.3-8.5-0.8-12.6l-0.8-7.6c0.9-0.1,2.2-6.2,1.6-7.6c-0.6-1.5,0.5-7.6,0.5-7.6l2-8.3l0,0
	c0.1,0.3,0.2,0.5,0.3,0.8v0.1c0,0.1,0.1,0.2,0.1,0.4v0.1l0.4,1.3l0,0l0.1,0.4v0.1c0.1,0.5,0.2,0.9,0.3,1.4l0,0l0.1,0.4v0.1
	c0.1,0.5,0.2,0.9,0.3,1.3v0.1l0.1,0.4c0,0,0,0.1,0,0.2c0,0.1,0,0.2,0,0.4c0,0,0,0.1,0,0.1c0,0.2,0,0.4,0,0.6c0,0.1,0,0.1,0,0.2v0.4
	c0,0.1,0,0.2,0,0.2v0.2c0,0,0,0.1,0,0.1c-0.3,2.9-0.1,5.9,0.6,8.7v0.1c0,0.1,0.1,0.2,0.1,0.4c0,0.1,0,0.1,0.1,0.2
	c0,0.2,0.1,0.3,0.2,0.5l0,0c0.1,0.3,0.2,0.5,0.4,0.8l0,0l-0.3,29.3c0,0,3.2,6.5,10.6,5.1s6.3-11.9,5.3-13.6c-1-1.7-1.6-9.1-1.6-9.1
	s-1.3-12.1-2.2-16.5c-0.2-1.6-0.9-3-2-3.8c-0.3-1.4-0.8-2.6-0.8-2.8c-0.8-1.9-1.4-3.8-1.9-5.9c-0.2-0.7-0.2-1.4-0.1-2.1
	c0-0.5,0-0.9,0-1.4l0,0c0-0.1,0-0.3,0-0.4v-0.4c0-0.1,0-0.3,0-0.4l0,0c-0.2-7.3-1.5-27.6-2.2-38.1l0,0c1.1-7.7,1.9-13.8,1.7-14.6
	c-0.4-2,0.7-16.7,0.7-16.7s1.4-14.9,3.3-19.6c1.3-3.1,3.7-14.8,5.3-22.3c0.1-0.5,0.2-0.9,0.3-1.4c1.6-0.1,3.2-0.6,4.7-1.5
	c0,0-1.1-13,1.6-19.7c1.9-4.6,3.2-25,3.3-38.4c0-0.7,0-1.3,0-1.9c2.3,2.5,3.9,6,4.4,5.7c5.7-3.8,11.1-8.2,16.2-13.1
	c6.3-6.7-11.3-44.5-13.3-47.4c-2-2.9-6.1-36.5-6.1-36.5c0.6,1,1.5,1.8,2.4,2.2c1.3,0.3,3.7,2.7,6.4,5.6c2.7,2.9,15,0,15,0
	c8.9,0.6,10.6-9.4,10.6-9.4s4.4-13.4,4.6-18.2s6.8-24.2,6.8-24.2c-1.4-3-3.5-5.5-6-7c0.5-2.1,1.2-3.8,2.2-4.4
	c2.8-1.6,33.6-16.5,22.7-21.6c-10.9-5.1-27.7,11.5-27.7,11.5s-0.9,0.4-2.2,4.1c-0.7,1.9-1.7,5.3-2.4,8c-0.1,0.3-0.2,0.6-0.2,0.8
	l-0.5,0.1c0,0-4,11.3-4,14c0,2.7-4.9,15.6-4.9,15.6s-2.4,3.3-1.6,5.8c0.9,2.6-2,2-2,2l-3.8-3.9c0,0-3.3-2.8-4.9-3.2
	c-1.6-0.4-4.2-4.1-4.2-4.1s-3.1-2.7-2.9-3.1c0.3-0.4-1.7-2.5-2.9-3.2c-1.1-0.7-1.7-2.1-2.8-4.8c-1.1-2.7-2.9-0.7-3.7-1.1
	c-0.9-0.4-11.6,1.3-12.7,1.7c-1.1,0.3-4.9,0.4-6.9-1.3c-1.3-1.1-2.9-1.3-4.4-0.6c-0.4-1.1-0.7-2.3-1-3.5c-0.1-0.2-0.1-0.4-0.1-0.6
	c6.8-3.8,11.2-12.6,11.3-22.3c0-5.9-1.6-11.6-4.6-16c-0.3-0.4-0.5-0.8-0.8-1.1l0,0c1-0.7,2.6-2.1,2.6-3.7c0-0.6-0.2-1.2-0.5-1.7
	c-0.4-0.6-1-0.9-1.4-1.4c-0.4-0.6-0.6-1.4-0.6-2.3c0-1,0.2-2.1,0.2-3.2c0-0.4,0-0.9-0.1-1.3c-0.5-1.8-1.7-3.1-3.2-3.3
	c0,0,0,0.1,0,0.1c-0.6-0.1-1.1-0.2-1.7-0.1c-2,0.3-3.9,1.5-5.8,1.8c-3.1,0.4-6.1-1.3-9.1-2.3c-3-1-6.7-1.1-8.7,1.9
	c-2.1,3-1.9,8.1-4.5,10.3c-1.2,1-2.7,1.1-4,1.9c-1.4,0.9-2.6,2.4-3.4,4.2c-2,4.1-2.9,9.1-2.6,14c0.2,2.6,0.8,5.2,1,7.9
	c0.2,2.8,0.1,5.6-0.4,8.3c-0.6,2.8-1.7,5.7-3.9,6.6c-0.5,0.1-1,0.4-1.4,0.6c-1.2,1-1.1,3.3-0.7,5.1l1.3,7.5
	c-1.2,1.2-3.1,0.7-4.3,1.9c-0.5,0.6-0.8,1.2-1,2c-1.1,4-0.3,8.4,1.9,11.4c0,0.1-0.1,0.3-0.1,0.4c0,0.1-0.1,0.6-0.2,1
	c-1,6.5-0.7,7.3-1.4,8.4l0,0c-1.3,2.9-2.7,5.7-4.2,8.4c-1,1.5-1.5,3.4-1.6,5.4c0,0-5.2,10-6.8,11.1c-1.6,1.1-4.2,8.7-4.2,8.7
	s-4.1,3.5-4.1,7.4c-0.1,3.3-0.3,6.5-0.8,9.7C156.5,559.8,157.2,566.8,158.9,570.3z M173.8,564.2c0.8-1.6,0-4.6,0-4.6
	s5.1-8.7,5.8-13.8c0.7-5,5.4-8.4,5.4-8.4l0,0c0,0,2.4-1.3,2.6,0c0.2,1.3,0.6,3.9,0.6,3.9s-0.4,6.5,1.4,9.1
	c1.8,2.6,2.1,13.4,2.1,13.4s2.9,10.8,1.5,14.1c-0.5,1.2-1.2,7-2,14.1c-0.7-0.1-1.3-0.2-1.9-0.3c-0.6-0.7-4.1-4.9-5.9-5.7
	c-2-0.9-3.9-8.3-4-10c-0.1-1.7-1.8-7.3-3.6-8.3C173.9,566.8,173,565.8,173.8,564.2z"/>
<path class="st15" d="M300.9,472.1c-2.9-6.3-8.4-9.7-14-8.6v13.1h6.1l4.8-1.6L300.9,472.1z"/>
<path class="st4" d="M300.9,472.1c-2.9-6.3-8.4-9.7-14-8.6v13.1h6.1l4.8-1.6L300.9,472.1z"/>
<path class="st16" d="M286.5,467l7.4,6.8c0,0,0.1-1.4,0.3-3.2c0.4-3.5,1.2-8.8,3-9.8c2.7-1.6,33.1-16.5,22.3-21.6
	c-10.8-5-27.3,11.5-27.3,11.5s-0.9,0.4-2.2,4.1c-0.7,1.9-1.7,5.2-2.4,7.9C287,465,286.5,467,286.5,467z"/>
<polygon class="st15" points="227.2,477.5 226.4,476.9 224,480.5 225.9,485.9 229.2,484.2 228.5,479.8 "/>
<path class="st17" d="M238.4,794.9c0,0,2.1-0.3,3,4s2.1,16.4,2.1,16.4s0.5,7.4,1.5,9c1,1.7,2,12.2-5.2,13.5
	c-7.3,1.3-10.4-5.1-10.4-5.1l0.3-29.3L238.4,794.9z"/>
<path class="st17" d="M213.2,796.2c0,0-4.6,6.4-4.5,13.7c0.1,7.3,0.5,17.2,0.5,17.2s0.4,4-0.5,5.1c-0.9,1.1,0,6.7,0,6.7
	s8,9.8,14.7-0.8c0,0,1.3-6,0.8-9.9c-0.6-3.9-2-21.4-2-21.4L213.2,796.2z"/>
<path class="st16" d="M201.9,662.5c0,0,4.6,16.9,6.6,20.8c2,3.9,3.3,10.9,3.3,10.9l1.8,14.4c0.3,3.2,0.5,6.5,0.6,9.7
	c-0.1,3.2,4.4,50.5,4.4,50.5l7.2,12c0,0,3.2,8.4,2.6,11.8c-0.5,3.5,0.3,9,1.4,10.7c0,0,0.2,11,0.4,13.4c0.3,2.5-1,9.4,0,10.6
	c1,1.2,13.5,0.7,13.8-1.3c0.3-1.9-1.5-11.7-1.5-11.7l-1.1-9.4c0,0-2.2-5.1-1.7-6.8s-1-5.6-1-5.9c0-0.3-2.4-5.8-1.9-7.9
	c0.4-2.1-2.6-47.2-2.6-47.2l-8.7-80.8L201.9,662.5z"/>
<path class="st4" d="M201.9,662.5c0,0,0.7,2.5,1.7,5.9c1.5,5.3,3.7,12.5,4.9,14.9c1.9,3.9,3.3,10.9,3.3,10.9l1.8,14.4
	c0.3,3.2,0.5,6.5,0.6,9.7c0,1.3,0.7,9.4,1.5,18.8c1.3,14.4,2.9,31.7,2.9,31.7l7.2,12c0,0,0.4,1,0.8,2.4c0.9,2.7,2.2,7.2,1.8,9.5
	c-0.5,3.5,0.3,9,1.4,10.7c0,0,0.2,11,0.4,13.4c0.3,2.5-1,9.4,0,10.6c1,1.2,13.5,0.7,13.8-1.3c0.3-1.9-1.5-11.7-1.5-11.7l-1.1-9.4
	c0,0-2.2-5.1-1.7-6.8c0.5-1.7-1-5.6-1-5.9c0-0.3-2.4-5.8-1.9-7.9c0.3-1.6-1.4-28.1-2.2-40.6c-0.3-3.9-0.4-6.5-0.4-6.5l-7.6-69.5
	l-0.6-5.6l-0.6-5.7L201.9,662.5z"/>
<path class="st16" d="M209.5,830.6c-0.1,1.3,12,3,13.7,1.7c1.7-1.3,0-18,0-18l-0.8-7.6c0.8-0.1,2.1-6.1,1.5-7.6s0.5-7.6,0.5-7.6
	l2-8.2l1.2-5.1c1.9-5.8,4.9-22.2,6.7-34.5c1.1-7.7,1.9-13.8,1.7-14.6c-0.4-2,0.7-16.7,0.7-16.7s1.4-14.9,3.2-19.6
	c1.2-3.1,3.7-14.8,5.2-22.3c0.8-3.8,1.3-6.6,1.3-6.6s-12.9-1.4-20.7-1.9c-3.6-0.2-6.1-0.3-5.8,0.1c0.3,0.4,0.4,2.4,0.3,5.4
	c0,7.6-0.9,21.2-1.7,24.8c-1.2,5.1-2.4,20.1-1.9,21.6c0.5,1.5,0.3,11.2,0.3,11.2c-0.9,3.9-1.4,8-1.5,12.1
	c-0.3,7.3-0.2,14.6,0.3,21.8c0,0-1.3,27.2-1,29.7c0.3,2.6-2.7,10.6-2.7,12.2s-0.9,12.2-0.9,12.2S209.7,829.4,209.5,830.6z"/>
<path class="st16" d="M202.8,504.2l1.5,2.1l1,1.3l5.6,7.9l14.4,2.1l7.6-2.7l1.9-0.7c0,0,0-5.1-0.3-11.1c-0.5-7.8-1.7-17.2-4.4-19.8
	c-1.4-1.4-2.5-3.3-3.3-5.4c-0.6-1.5-1-3-1.4-4.5c-0.1-0.2-0.1-0.4-0.1-0.6c-0.6-2.7-1.1-5.5-1.4-8.3c0,0-1.8-1.3-4.4-2.9
	c-6.7-4.1-18.2-9.7-14.2,2.9c0.6,1.8,1.1,3.7,1.5,5.7c0.1,0.3,0.1,0.6,0.2,0.8c1.3,7,0.5,11.3-0.5,13.6l0,0
	c-0.2,0.4-0.4,0.8-0.6,1.2c-0.3,0.5-0.6,0.9-1,1.3l-1.7,13.8l-0.1,1.1L202.8,504.2z"/>
<path class="st4" d="M205.3,465.3C206,467.7,204.9,463.3,205.3,465.3c3,2.8,10.2,10.9,14.2,10.9c2.7,0,3.5-0.6,5.8-2
	c-0.7-2.9-1.2-5.9-1.5-8.9C223.8,465.2,199.7,447.8,205.3,465.3z"/>
<path class="st16" d="M199.2,450.6c0,12.5,7.2,22.9,16.6,24.2c0.6,0.1,1.3,0.1,1.9,0.1c10.3,0,18.6-10.9,18.6-24.4
	c0-13.5-8.3-24.4-18.6-24.4C207.5,426.2,199.2,437.1,199.2,450.6C199.2,450.5,199.2,450.5,199.2,450.6L199.2,450.6z"/>
<path class="st4" d="M196.5,558.7l2.6,9c0,0,2.2,0.1,5.5,0.3c11.3,0.5,36.3,1.1,37.4-2.7c0.3-1,0.4-2,0.4-3
	c0.1-5.8-1.9-14.8-1.9-14.8s-1.2-17.8-1.2-18.7c0-0.8,1-13.4,1-13.4l-2-10.1l-5.7-5.2c0,0-2.6,5.2-4.1,5.6c-1.3,0.7-2.5,1.6-3.6,2.9
	c0,0-5,4-6.6,1.8s-14.2-12.1-14.2-12.1l-6.6,9.6L196.5,558.7z"/>
<path class="st1" d="M196.5,559.9l2.6,9.1c0,0,2.2,0.1,5.5,0.3h0.3c1.4,0,3.1,0.1,4.9,0.2c9,0.3,21.4,0.3,27.9-0.9
	c2.4-0.5,4-1.1,4.3-2c0.2-0.5,0.3-1.1,0.3-1.7c0-0.4,0.1-0.8,0.1-1.3c0.1-5.8-1.9-14.8-1.9-14.8s-1.2-17.9-1.2-18.7s1-13.3,1-13.3
	l-2-10.1l-3.9-3.6l-1.8-1.6c-0.6,1.2-1.2,2.3-1.9,3.4c-0.5,1-1.3,1.7-2.1,2.2c-1.3,0.6-2.5,1.6-3.6,2.9c0,0-5,4-6.6,1.8
	c-1.2-1.7-8.9-7.9-12.5-10.7l-1.8-1.4l-0.9,1.3l-5.8,8.3L196.5,559.9z"/>
<path class="st4" d="M286.5,467l7.4,6.8c0,0,0.1-1.4,0.3-3.2c-2.7-1.7-5-4.5-6.5-8C287,465,286.5,467,286.5,467z"/>
<path class="st3" d="M260.4,490.1l1.6-0.6c0,0,2.6,3.7,4.2,4.1c1.5,0.4,4.8,3.2,4.8,3.2l3.7,3.9c0,0,2.8,0.6,1.9-2
	c-0.9-2.6,1.5-5.8,1.5-5.8s4.8-12.9,4.8-15.5c0-2.7,3.9-14,3.9-14s5,12.6,14,8.6c0,0-6.6,19.3-6.7,24.2c-0.2,4.8-4.5,18.2-4.5,18.2
	s-1.6,9.9-10.4,9.4c0,0-12.1,3-14.7,0c-2.6-3-5-5.3-6.3-5.6c-1-0.4-1.8-1.2-2.4-2.2v-13.3L260.4,490.1z"/>
<path class="st4" d="M275.6,502.7c0,0-2.1,10.4-0.8,11.5L275.6,502.7z"/>
<path class="st4" d="M204.7,569.3c11.3,0.5,36.3,1.1,37.4-2.7c0.3-1,0.4-2,0.4-3l-37.1,2.5L204.7,569.3z"/>
<path class="st4" d="M201.9,662.5c0,0,0.7,2.5,1.7,5.9c4.7-0.4,10.9-0.8,16.9-0.8c2.1,0,4.1,0,6.1,0.1c3.3,0,6.7,0.5,9.9,1.4
	c2.9,1.2,5.9,1.7,8.9,1.5c0.8-3.8,1.3-6.6,1.3-6.6s-12.9-1.4-20.7-1.9l-0.6-5.7L201.9,662.5z"/>
<path class="st18" d="M191.9,621.6l1.4,4c0,0,0.2,1.2,0.5,3.1c0.8,5.7,1.2,11.5,1.1,17.3c-0.4,8.6,1,21.6,1,21.6s31.4-3.5,40.6,0
	c9.2,3.5,13.7,0,13.7,0s-1.1-13,1.6-19.7c1.9-4.6,3.2-25,3.2-38.4c0-6.2-0.2-10.9-0.8-11.8c-1.9-3-9.9-33.2-9.9-33.2l-1.8,0.1
	l-4.9,0.3l-27.7,1.9l-4.4,0.3l-0.5,1.8L191.9,621.6z"/>
<path class="st15" d="M178.1,608.2l-0.3,3.6c0,0,13.7-5.9,13-13.1s0-6.4,0-6.4l-11,1.3L178.1,608.2z"/>
<path class="st4" d="M178.1,608.2l-0.3,3.6c0,0,13.7-5.9,13-13.1s0-6.4,0-6.4l-11,1.3L178.1,608.2z"/>
<path class="st4" d="M266.4,505.6c-1.4,1.6-3.1,2.7-4.9,3.3c0.5-0.1,1-0.4,1.4-0.9c1-0.9,1.9-1.9,2.9-2.9c0.8-1,1.7-1.8,2.7-2.4
	C267.9,503.8,267.2,504.7,266.4,505.6z"/>
<path class="st4" d="M266.2,510.3c-0.4,0.7-0.8,1.4-1.1,2.2c-0.2,0.9-0.3,1.9-0.3,2.9c-0.1,1.4,0,2.8,0.4,4.1l2.2-7
	c0.4-1.2,0.8-2.4,1.2-3.5c0.2-0.5,1.5-2.5,1.3-2.9C269.6,504.8,266.6,509.6,266.2,510.3z"/>
<path class="st4" d="M204.8,548.9c-1.5-0.2-2.9-1.1-4-2.4c2.3,0.4,4.4,1.5,6.6,2.2c2.1,0.6,4.2,0.4,6.2-0.8
	C211,549.5,207.5,549.5,204.8,548.9z"/>
<path class="st4" d="M211.2,528.4c0.4,0.1,0.8-0.1,1.2-0.4c1.7-1.3,3.4-2.6,5-4c1.8-1.3,3.4-2.8,4.9-4.5
	C218.9,523.6,215.8,527,211.2,528.4z"/>
<path class="st4" d="M206.4,552.1c-0.9,0.1-1.8,0-2.7-0.3c-0.9-0.2-1.7-0.9-2.2-1.9c0.3-0.1,0.6,0,0.9,0.2c2.7,1.5,5.7,1.9,8.6,1.3
	C209.6,552.1,208,552.3,206.4,552.1z"/>
<path class="st4" d="M222.6,604c1.8,0.7,3.6,1.2,5.4,1.4c1.4,0.1,2.9,0.1,4.3-0.1l7-0.6l3.5-0.3c0.4,0,2.1,0,1.3-1.1
	c-0.4-0.5-2.7-0.2-3.3-0.2c-1.2,0-2.3-0.1-3.5-0.1c-2.3,0-4.6,0.1-6.9,0.2C227.8,603.4,225.2,603.7,222.6,604z"/>
<path class="st4" d="M230.7,608.5c1.2-0.1,2.7,0.9,3.9,1.1c1.4,0.2,2.7,0.3,4.1,0.2c2.7-0.1,5.4-0.8,7.9-2.1
	C241.3,608,236,608.3,230.7,608.5z"/>
<path class="st4" d="M245.6,613.4c-0.5,0.1-1,0.3-1.5,0.5c-2.9,1.1-6.1,0.1-9-0.8c0.9,1.4,2.1,2.3,3.4,2.5c2.2,0.7,4.5,0.8,6.7,0.3
	c0.7-0.2,2.4-0.5,2.8-1.5C248.5,613,246.3,613.2,245.6,613.4z"/>
<path class="st4" d="M229.1,620.5c-0.9,0.2-1.8,0.5-2.6,0.9c-3.3,1.1-6.7-0.4-10.1-1.4c-4-1.2-8.1-1.7-12.2-1.5
	c0.9,0.2,1.8,0.6,2.6,1.1c1,0.4,1.9,0.7,2.8,1c1.9,0.6,3.8,1.1,5.7,1.5c3.9,0.7,7.8,1,11.6,0.7c1.8-0.1,4.9,0.1,6.4-1.1
	C232.1,620.8,230.6,620.3,229.1,620.5z"/>
<path class="st4" d="M227.9,482.7c0,0-0.2,10.3,1.1,15c0.4,1.5,1,4.2,1.7,7.2c0.8,3.4,1.6,7.1,2.2,10l1,4.9c0,0,2.9,30.7,3.6,45.4
	c0,0.3,0,0.5,0,0.8c0,0.8,0.1,1.7,0.2,2.5c1.7,14.5,11.2,37,14.4,38.8c1,0.6,1.9,1.4,2.7,2.4c0-6.2-0.2-10.9-0.8-11.8
	c-1.9-3-9.9-33.2-9.9-33.2l-1.8,0.1c0-0.4,0.1-0.8,0.1-1.3c0.1-5.8-1.9-14.8-1.9-14.8s-1.2-17.9-1.2-18.7c0-0.8,1-13.3,1-13.3
	l-2-10.1l-3.9-3.6c-0.5-7.8-1.7-17.2-4.4-19.8c-1.4-1.4-2.5-3.3-3.3-5.4c-0.5,0.1,0.5-0.5,0.5-0.5L227.9,482.7z"/>
<path class="st3" d="M226.4,476.9c1.4-0.6,3-0.4,4.3,0.6c1.9,1.8,5.8,1.7,6.8,1.3c1-0.3,11.6-2.1,12.5-1.7c0.9,0.4,2.6-1.6,3.7,1.1
	c1.1,2.7,1.6,4.1,2.7,4.8c1.1,0.7,3.1,2.8,2.8,3.2c-0.3,0.4,2.8,3.1,2.8,3.1l-6.2,26.5c0,0,4,33.5,6,36.4c2,2.9,19.3,40.6,13.1,47.3
	c-4.9,5.1-10.1,9.7-15.6,13.7c-0.7,0.4-3.2-5.6-6.6-7.5c-3.4-1.9-13.9-27-14.6-41.3c-0.7-14.3-3.7-46.2-3.7-46.2s-3.7-17.4-4.9-22.1
	c-1.3-4.7-1.1-15-1.1-15L226.4,476.9z"/>
<path class="st4" d="M191.9,621.6l1.4,4c0,0,0.2,1.2,0.5,3.1c0.3,0,0.5-0.2,0.7-0.4c2.1-2.2,14.7-19.1,15.3-34.1
	c0.4-11,0.2-20.6,0.1-24.8c0-1.3-0.1-2.1-0.1-2.3l0,0c0,0-9.7-15.4-8.6-20.9s3.6-34.8,3.6-34.8l0.4-3.8l0.6-6.5l1.6-15.7l-1.6,0.5
	c-0.3,0.5-0.6,0.9-1,1.3l-1.7,13.8l-5.8,8.3l-1,50.6l2.6,9.1c0,0,2.2,0.1,5.5,0.3h0.3L191.9,621.6z"/>
<path class="st3" d="M186.5,538c0,0,2.4-1.3,2.6,0c0.2,1.3,0.6,3.9,0.6,3.9s-0.4,6.5,1.4,9.1c1.8,2.5,2.1,13.4,2.1,13.4
	s2.9,10.7,1.5,14.1c-0.5,1.2-1.3,7.3-2,14.6c-0.5,4.6-1,9.6-1.4,14.2c-0.8,8.3-1.3,15.3-1.3,15.3s1.5,7.4,3.7,5.1
	c2.1-2.3,14.7-19.1,15.3-34.1c0.4-10.5,0.3-19.7,0.1-24.2c-0.1-1.9-0.1-3-0.1-3s-9.7-15.4-8.6-20.9c1.1-5.5,3.6-34.7,3.6-34.7
	l0.4-4.5l0.5-4.9l0.1-1.1l1.5-15.6l0,0c-0.3,0.1-9.8,2.9-11.1,4.6s-9,4-9,4c-2.4,0.8-4.3,3.3-4.9,6.5c-0.1,0.3-0.1,0.6-0.2,1
	c-1,6.5-0.7,7.3-1.4,8.4C179.2,510.3,186.5,538,186.5,538z"/>
<path class="st4" d="M191.2,607.3c3.5-0.9,8.7-3,8.5-7.6c-0.1-4.4-4.1-5.9-7.1-6.5C192.1,597.7,191.6,602.7,191.2,607.3z"/>
<path class="st16" d="M180.4,605c0.1,0.4,0.7,0.7,1.5,1c1.9,0.6,3.8,1,5.7,1.2c0,0,11.9-1.3,11.6-8.3c-0.1-5.1-5.5-6.4-8.5-6.7
	c-1.2-0.1-2-0.1-2-0.1S179.9,603.5,180.4,605z"/>
<path class="st4" d="M180.4,605c0.1,0.4,0.7,0.7,1.5,1c3.1-5.4,7.4-12.4,9.5-13c0,0-0.2-0.3-0.6-0.8c-1.2-0.1-2-0.1-2-0.1
	S179.9,603.5,180.4,605z"/>
<path class="st3" d="M183.4,508.5l-3.5,0.7c-1.3,2.9-2.7,5.7-4.2,8.4c-0.9,1.5-1.5,3.4-1.5,5.4c0,0-5.1,10-6.7,11.1
	c-1.6,1.1-4.1,8.7-4.1,8.7s-4,3.5-4,7.4c-0.1,3.3-0.3,6.5-0.8,9.7c-0.1,0.6,0.6,7.5,2.3,11c1.7,3.5,3.4,11.2,3.3,12.5
	s4.8,8.5,6.1,10.7c1.1,2.1,2.1,4.3,3,6.6l4.5,11.2c0,0,9.5-18.4,13-19.4c0,0-3.9-4.9-5.9-5.8s-3.9-8.3-3.9-9.9
	c0-1.7-1.8-7.3-3.6-8.3c-1.8-1-2.7-2-1.9-3.6c0.8-1.6,0-4.6,0-4.6s5-8.7,5.7-13.8c0.7-5,5.3-8.4,5.3-8.4l2.6-8.5L183.4,508.5z"/>
<path class="st4" d="M170.7,550.3c-1.9-2.1-4.3-3.4-6.9-3.4c1.6,0.2,3.2,1,4.5,2.3c0.5,0.6,0.9,1.3,1.3,2.1c0.4,0.8,3.7,6.2,4.2,5.4
	C174.6,555.3,171.3,551,170.7,550.3z"/>
<path class="st4" d="M178.4,545c-1.1-0.1-2-1-2.4-2.3c-0.4-1.3-0.7-2.6-0.8-4c-0.2-2.3-0.6-4.6-1.1-6.8c-0.1-0.5-0.2-0.9-0.2-1.4
	c0-0.5,0.2-0.9,0.3-1.4c0.2-0.7,0.4-1.4,0.7-2c0.6,0.9,0.8,3,1.1,4.3c0.3,1.5,0.6,3,0.9,4.6C177.2,536.7,178.3,545,178.4,545z"/>
<path class="st4" d="M181.4,499.8c0.3,0.6,0.7,1.1,1.2,1.6c1.4,1.5,3.2,2.7,3.4,5c0,0.7,0,1.5,0.2,2.2c0.4,1,1.6,0.9,2.4,0.7
	c0.7-0.1,1.4-0.4,2-1c0.9-1,1-2.9,1.7-4.1c0.9-1.3,2.1-2.1,3.5-2c1.3-0.1,2.6,0.3,3.9,0.4c0.8,0.1,1.7,0,2.5-0.2
	c0.3-0.1,0.5-0.1,0.8-0.2c0.6-0.2,1.1-0.4,1.7-0.8c0.3-0.1,0.6-0.3,0.8-0.5c0.9-0.6,1.7-1.3,2.4-2.2c1.4-1.4,2.2-3.6,2.2-5.9
	c-0.2-1.4-0.4-2.7-0.7-4.1c-0.5-3.9,1.5-7.6,3.6-10.5c0.9-1.1,1.8-2.2,2.6-3.4c1.3-1.6,2.4-3.6,3.1-5.8c0.6-2.3,0.8-4.8,0.6-7.3
	c-0.2-2.5-0.3-5-0.2-7.5c0.6-8.9,6.4-15.7,12.2-19.4l0.3-0.2c-6.7-10.2-18.5-11.3-26.2-2.5c-7.8,8.8-8.6,24.2-1.9,34.4
	c0.9,1.4,2,2.6,3.1,3.7c0.1,0.3,0.1,0.6,0.2,0.8c1.3,7,0.5,11.3-0.5,13.6l0,0c-0.3,0.1-9.8,2.9-11.1,4.6c-1.3,1.6-9,4-9,4
	C183.9,494.2,182,496.7,181.4,499.8z"/>
<path class="st17" d="M233.1,428.2c-0.4-0.6-1-0.9-1.3-1.4c-1.2-1.7,0-4.5-0.4-6.8c-0.5-2.5-2.8-3.6-4.8-3.3c-2,0.3-3.8,1.5-5.8,1.7
	c-3,0.4-6-1.3-9-2.3c-3-1-6.6-1.1-8.6,1.9c-2.1,3-1.9,8.1-4.5,10.2c-1.2,1-2.7,1.1-3.9,1.9c-1.4,0.9-2.5,2.4-3.3,4.2
	c-2,4.2-2.9,9.1-2.5,14c0.2,2.6,0.8,5.2,1,7.9c0.2,2.8,0.1,5.5-0.4,8.2c-0.5,2.8-1.7,5.7-3.8,6.6c-0.5,0.1-1,0.4-1.4,0.6
	c-1.2,1-1,3.3-0.7,5.1l1.3,7.5c-1.2,1.2-3,0.7-4.2,1.9c-0.5,0.5-0.8,1.2-1,2c-1.2,4.3-0.2,9.1,2.5,12.1c1.4,1.5,3.2,2.7,3.4,5
	c-0.1,0.7,0,1.5,0.2,2.2c0.4,1,1.5,0.9,2.4,0.7c0.7-0.1,1.4-0.4,2-1c1-1,1-2.9,1.7-4.1c0.9-1.3,2.1-2.1,3.5-2c1.3,0,2.6,0.3,3.9,0.4
	c3,0.2,6-1.2,8.2-3.9c1.4-1.5,2.2-3.6,2.2-5.9c-0.2-1.4-0.4-2.7-0.7-4.1c-0.5-3.9,1.5-7.6,3.6-10.5c2.2-2.9,4.7-5.4,5.8-9.2
	c1.3-4.7,0-9.8,0.4-14.8c0.6-8.9,6.4-15.7,12.2-19.4C232.4,432.6,234.6,430.4,233.1,428.2z"/>
<path class="st4" d="M187.5,504.9c1-1,1-2.9,1.7-4.1c0.9-1.3,2.1-2.1,3.5-2c1.3,0,2.6,0.3,3.9,0.4c3,0.2,6-1.2,8.2-3.9
	c1.4-1.4,2.2-3.6,2.2-5.9c-0.2-1.4-0.4-2.7-0.7-4.1c-0.5-3.9,1.5-7.6,3.6-10.5s4.7-5.4,5.8-9.2c1.3-4.6,0-9.8,0.4-14.8
	c0.6-8.9,6.4-15.7,12.2-19.4c1.4-0.9,3.5-3.1,2-5.3c-0.4-0.6-1-0.9-1.3-1.4c-1.2-1.7,0-4.5-0.4-6.8c-0.1-0.5-0.2-0.9-0.4-1.3
	c1.4,0.2,2.7,1.5,3.1,3.3c0.4,2.3-0.8,5.1,0.4,6.8c0.4,0.6,1,0.9,1.3,1.4c1.5,2.2-0.7,4.4-2,5.3c-5.8,3.7-11.6,10.5-12.2,19.4
	c-0.4,4.9,0.9,10.2-0.4,14.8c-1.1,3.8-3.6,6.4-5.8,9.2s-4.2,6.6-3.6,10.5c0.3,1.3,0.5,2.7,0.7,4.1c0,2.3-0.9,4.5-2.2,5.9
	c-2.2,2.7-5.2,4.1-8.2,3.9c-1.3-0.1-2.6-0.5-3.9-0.4c-1.3-0.1-2.6,0.7-3.5,2c-0.7,1.3-0.8,3.1-1.7,4.1c-0.6,0.6-1.3,0.9-2,1
	c-0.9,0.2-1.9,0.3-2.4-0.7c-0.1-0.4-0.2-0.8-0.2-1.3C186.2,505.8,186.9,505.4,187.5,504.9z"/>
</svg>
